/* XPM */
static char * attack_xpm[] = {
"64 64 6 1",
" 	c None",
".	c #FFFFFF",
"+	c #FFF8F8",
"@	c #FFFBFB",
"#	c #FFFDFD",
"$	c #FFFEFE",
"                                                                ",
"                                                                ",
"                                                                ",
"                                                                ",
"                                                                ",
"                                                                ",
"                                                                ",
"                                                                ",
"                                                                ",
"                                                                ",
"                                                                ",
"                                                                ",
"                                           ..                   ",
"                                       +...                     ",
"                                      ....              +...    ",
"                                    ....             .....      ",
"                                  ....           ......         ",
"                                .....         @......           ",
"                               ....          ......             ",
"                              ....         ......               ",
"                            ....        ......                  ",
"                           ....        .....                    ",
"                         .....       .....                      ",
"                        .....      +.....                       ",
"                      ......    #......          ..             ",
"                     .......   .......        ...               ",
"                     ......   ......        ...                 ",
"                   ......   ........      ...                   ",
"                  ......   ........     ...                     ",
"                 ......   ........    ...@                      ",
"                 .....   ........    ...                        ",
"               .....   $.......   ....                          ",
"               ....   #......   ....                            ",
"              ....    ......   .....                            ",
"             +...    ......   .....                             ",
"            ....    .....   .....                               ",
"           @...    .....   .....                                ",
"           ...    .....   .....                                 ",
"          ...    ....    ....                                   ",
"         $..    .....   ....                                    ",
"         ..     ...@   ....                                     ",
"        ..     ...    ...#                                      ",
"       ..     ...    ...                                        ",
"       .      ..     ..                                         ",
"             ..     ..                                          ",
"      .     ..     ..                                           ",
"           ...    ..                                            ",
"          $..    ..                                             ",
"          ..     .                                              ",
"         @$     .                                               ",
"         .     +                                                ",
"        $                                                       ",
"                                                                ",
"                                                                ",
"                                                                ",
"                                                                ",
"                                                                ",
"                                                                ",
"                                                                ",
"                                                                ",
"                                                                ",
"                                                                ",
"                                                                ",
"                                                                "};
