/* XPM */
static char * portal2_xpm[] = {
"64 64 14 1",
" 	c None",
".	c #2030C8",
"+	c #3050F0",
"@	c #68A0F8",
"#	c #A8E0F8",
"$	c #FFFFFF",
"%	c #F8F8F8",
"&	c #1D2522",
"*	c #060606",
"=	c #696A6A",
"-	c #4F4F4F",
";	c #8F8F8F",
">	c #201041",
",	c #B8B8B8",
"                                                                ",
"                                                                ",
"                                                                ",
"                                                                ",
"                                                                ",
"                                                                ",
"                                                                ",
"                            ........                            ",
"                         .....++++.....                         ",
"                      ....++@@@@@@@@++....                      ",
"                      ....++@@@@@@@@++....                      ",
"                     ..+++@@@@@@@@@@@@++...                     ",
"                    ..+++@@@@@@@@@@@@@@+++..                    ",
"                   ..++@@@@@@@@@@@@@@@@@+++..                   ",
"                 ...+++@@@@@@@@@#$@@@@@@++++...                 ",
"                 ..++++@@@@@@@#@$#@@@@@@+++++..                 ",
"                ...++++++@@@@@@$#@@@#@@++++++...                ",
"                ...++++++@@@@@@$#@@@#@@++++++...                ",
"                .+++++++++@@@@@#$#$$@@+++++++++.                ",
"                .+++++++++++@@@@$$$$+++++++++++.                ",
"               ..+++++++++@+++++#$@@+++++++++++..               ",
"               .+++++++++++@##+#$#++++++++++++++.               ",
"               .++++++++++++@@####++++@+++++++++.               ",
"               .++++++++++++++##%@@@##++++++++++.               ",
"               .++++++++++++++##%@@@##++++++++++.               ",
"               .++++++@@@+++++@#%%###@++++++++++.               ",
"               .+++++++@@#++@@###%%%#+++++++++++.               ",
"               ..++++++++@#@#####%%%@+++@@+++++..               ",
"                .+++++++++##%%##%%%%@##@+++++++.                ",
"                .++++++++#@@%%%%%%#####++++++++.                ",
"                ...++++@@@+@##%%%%%%##+++++++...                ",
"                ...++++@@@+@##%%%%%%##+++++++...                ",
"                 ..++#+++++.%%%%%%%%#@@++++++..                 ",
"               &&...+@#+++..@@##%%##..++@@#+...*                ",
"              &===-....@@+....@###@@..++##+..===&&              ",
"              &===--..++++............++++..*===&&              ",
"              *;;=---..++++..........+++...--==;**              ",
"              ***;====....++++....++++....===;;&**              ",
"              ****;;;=....++++....++++....;;;&&&**              ",
"              *********==.....++++.....==;&&&&&&**              ",
"               ********====*........==***&&&&&&*                ",
"               ********====**>>>>>>-==***&&&&&&*                ",
"               *********=====*========;**&&&&&&*                ",
"               ***--******====**-***;;&**&&&=&&*                ",
"               **-==-**&***===--*==***&**&--===*                ",
"               **===---****;;======*&&&**-===;;*                ",
"               ***===---*****;===;;*&&&--===;&&*                ",
"               ***===---*****;===;;*&&&--===;&&*                ",
"                 ***====;;****,,,&&*&&====;;&&&                 ",
"                 ****==;&&****---&&*&&*,,;&&&&&                 ",
"                 ****--&&&****---&&*&&***-&&&&&                 ",
"                 ****--&&&****---&&*&&***-&&&&&                 ",
"                 ****--&&&****---&&*&&***-&&&&&                 ",
"                  ***--&&&****---***&&***-&&&                   ",
"                    *--&&&*&&*--&&&*&&***-&&                    ",
"                     --&*****&&&=&&*&&***-                      ",
"                          ****==-&&***                          ",
"                           ***---&&>                            ",
"                           ***---&&>                            ",
"                             *---**                             ",
"                              **&                               ",
"                                                                ",
"                                                                ",
"                                                                "};
