/* XPM */
static char * evoliLEFT2_xpm[] = {
"64 64 10 1",
" 	c None",
".	c #403018",
"+	c #101010",
"@	c #806030",
"#	c #C09050",
"$	c #A88040",
"%	c #E8E8F8",
"&	c #604038",
"*	c #B8A060",
"=	c #E0D0A8",
"                                                                ",
"                                                                ",
"                                                                ",
"                                                                ",
"                                                                ",
"                                                                ",
"                                                                ",
"                                                                ",
"                                                                ",
"                                                                ",
"                                                                ",
"                                                                ",
"                                                                ",
"                                                                ",
"                                                                ",
"                                                                ",
"                                                                ",
"                                                                ",
"                                                                ",
"                                                                ",
"                                                                ",
"                                                                ",
"                                                                ",
"                                                                ",
"                                                                ",
"                                                                ",
"                                                                ",
"                                                                ",
"                                    ......                      ",
"                                    ......                      ",
"                      ....  ++  ....@@@@..                      ",
"                      ....  ++  ....@@@@..                      ",
"                      ..##..##++@@@@@@..                        ",
"                      ..##..##++@@@@@@..                        ",
"                    ..@@##$$####..++++++++                      ",
"                    ..@@##$$####..++++++++                      ",
"                  ..$$##$$####..++######++                      ",
"                  ..$$##$$####..++######++                      ",
"                  ..########..####....++                        ",
"                  ..########..####....++                        ",
"                ++####@@$$####......++                          ",
"                ++####@@$$####......++                          ",
"                ..$$$$%%..$$$$$$@@++      ++++..                ",
"                ..$$$$%%..$$$$$$@@++      ++++..                ",
"                ..@@$$++..$$$$@@@@++++..++######....            ",
"                ..@@$$++..$$$$@@@@++++..++######....            ",
"                  ++@@&&&&@@@@@@..**..++######====..            ",
"                  ++@@&&&&@@@@@@..**..++######====..            ",
"                    ++++@@@@@@++**..$$++$$##****++              ",
"                    ++++@@@@@@++**..$$++$$##****++              ",
"                    ..==++++++****..$$$$..++++++                ",
"                    ..==++++++****..$$$$..++++++                ",
"                    ..======****++$$$$$$$$@@..                  ",
"                    ..======****++$$$$$$$$@@..                  ",
"                      ..==**..++@@$$..$$@@@@..                  ",
"                      ..==**..++@@$$..$$@@@@..                  ",
"                        ..++    ..@@....@@++                    ",
"                        ..++    ..@@....@@++                    ",
"                                ++++  ++++                      ",
"                                ++++  ++++                      ",
"                                                                ",
"                                                                ",
"                                                                ",
"                                                                "};
