/* XPM */
static char * evoliDos1_xpm[] = {
"64 64 9 1",
" 	c None",
".	c #403018",
"+	c #101010",
"@	c #A88040",
"#	c #C09050",
"$	c #806030",
"%	c #786040",
"&	c #B8A060",
"*	c #E0D0A8",
"                                                                ",
"                                                                ",
"                                                                ",
"                                                                ",
"                                                                ",
"                                                                ",
"                                                                ",
"                                                                ",
"                                                                ",
"                                                                ",
"                                                                ",
"                                                                ",
"                                                                ",
"                                                                ",
"                                                                ",
"                                                                ",
"                                                                ",
"                                                                ",
"                                                                ",
"                                                                ",
"                                                                ",
"                                                                ",
"                                                                ",
"                                                                ",
"                                                                ",
"                                                                ",
"                                                                ",
"                                                                ",
"                ....++        ++..  ++..    ++....              ",
"                ....++        ++..  ++..    ++....              ",
"                ++@@##..++  ++##..++##..++..##@@++              ",
"                ++@@##..++  ++##..++##..++..##@@++              ",
"                  ++######++@@##@@##@@++######++                ",
"                  ++######++@@##@@##@@++######++                ",
"                  ++@@######@@######@@######@@++                ",
"                  ++@@######@@######@@######@@++                ",
"                    ++@@##################@@++                  ",
"                    ++@@##################@@++                  ",
"                      ++$$@@##########@@$$++                    ",
"                      ++$$@@##########@@$$++                    ",
"                      ..$$++++......++++$$..                    ",
"                      ..$$++++......++++$$..                    ",
"                      ++++%%&&******&&%%++++                    ",
"                      ++++%%&&******&&%%++++                    ",
"                    ..%%&&**&&......&&**&&%%..                  ",
"                    ..%%&&**&&......&&**&&%%..                  ",
"                    ..&&%%......**......%%&&..                  ",
"                    ..&&%%......**......%%&&..                  ",
"                    ++%%..@@..&&**&&..@@..%%++                  ",
"                    ++%%..@@..&&**&&..@@..%%++                  ",
"                      ++..@@..@@&&@@..@@..++                    ",
"                      ++..@@..@@&&@@..@@..++                    ",
"                        ++@@..@@@@@@..@@++                      ",
"                        ++@@..@@@@@@..@@++                      ",
"                        ++$$@@..$$..$$++                        ",
"                        ++$$@@..$$..$$++                        ",
"                          ++$$....++++                          ",
"                          ++$$....++++                          ",
"                            ++++                                ",
"                            ++++                                ",
"                                                                ",
"                                                                ",
"                                                                ",
"                                                                "};
