/* XPM */
static char * givraliRight2_xpm[] = {
"64 64 12 1",
" 	c None",
".	c #304050",
"+	c #50B8D8",
"@	c #2898A8",
"#	c #101010",
"$	c #88E0E8",
"%	c #B0E8F8",
"&	c #3098B0",
"*	c #186070",
"=	c #70C8E0",
"-	c #206868",
";	c #D0E0E8",
"                                                                ",
"                                                                ",
"                                                                ",
"                                                                ",
"                                                                ",
"                                                                ",
"                                                                ",
"                                                                ",
"                                                                ",
"                                                                ",
"                                                                ",
"                                                                ",
"                                                                ",
"                                                                ",
"                                                                ",
"                                                                ",
"                                                                ",
"                                                                ",
"                                                                ",
"                                                                ",
"                                                                ",
"                                                                ",
"                          ......                                ",
"                          ......                                ",
"                          ..++++..                              ",
"                          ..++++..                              ",
"                          ..++++@@..                            ",
"                          ..++++@@..                            ",
"                            ..@@......@@####                    ",
"                            ..@@......@@####                    ",
"                    ########....++$$%%..&&&&..                  ",
"                    ########....++$$%%..&&&&..                  ",
"                    ##%%%%%%..++$$$$%%****&&==##                ",
"                    ##%%%%%%..++$$$$%%****&&==##                ",
"                    ##++----%%..$$$$**&&&&**&&##                ",
"                    ##++----%%..$$$$**&&&&**&&##                ",
"                      ##@@----++$$..**&&&&==**##                ",
"                      ##@@----++$$..**&&&&==**##                ",
"    ......              ####@@++++..**====&&##..                ",
"    ......              ####@@++++..**====&&##..                ",
"    ##----..              ..####++..****####%%@@..              ",
"    ##----..              ..####++..****####%%@@..              ",
"    ##----++....      ....--##++++##&&..##;;%%$$..              ",
"    ##----++....      ....--##++++##&&..##;;%%$$..              ",
"      ##@@@@++++......----++##@@++##&&..--##$$++..              ",
"      ##@@@@++++......----++##@@++##&&..--##$$++..              ",
"        ####@@@@@@@@------++++##@@##----..++++..                ",
"        ####@@@@@@@@------++++##@@##----..++++..                ",
"            ......++++++++++++@@..##----##....                  ",
"            ......++++++++++++@@..##----##....                  ",
"                ..++++++++++++++@@@@######                      ",
"                ..++++++++++++++@@@@######                      ",
"                ..@@++@@....@@++++@@..                          ",
"                ..@@++@@....@@++++@@..                          ",
"                  ..@@@@..  ..@@@@##..                          ",
"                  ..@@@@..  ..@@@@##..                          ",
"                  ..--##    ##--##....                          ",
"                  ..--##    ##--##....                          ",
"                    ####    ####                                ",
"                    ####    ####                                ",
"                                                                ",
"                                                                ",
"                                                                ",
"                                                                "};
