/* XPM */
static char * phylaliBack2_xpm[] = {
"64 64 11 1",
" 	c None",
".	c #503018",
"+	c #60A060",
"@	c #80C060",
"#	c #101010",
"$	c #A88850",
"%	c #D8B858",
"&	c #489050",
"*	c #F0D8A0",
"=	c #986830",
"-	c #705020",
"                                                                ",
"                                                                ",
"                                                                ",
"                                                                ",
"                                                                ",
"                                                                ",
"                                                                ",
"                                                                ",
"                                                                ",
"                                                                ",
"                                                                ",
"                                                                ",
"                                                                ",
"                                                                ",
"                                                                ",
"                                                                ",
"                                                                ",
"                                                                ",
"                                ....                            ",
"                                ....                            ",
"                              ..++++..                          ",
"                              ..++++..                          ",
"                            ..@@++....                          ",
"                            ..@@++....                          ",
"            ......        ##@@++..          ......              ",
"            ......        ##@@++..          ......              ",
"            ..@@@@..##  ..##@@++....    ##..@@@@..              ",
"            ..@@@@..##  ..##@@++....    ##..@@@@..              ",
"              ..++@@@@##$$%%&&&&%%$$..##@@@@++..                ",
"              ..++@@@@##$$%%&&&&%%$$..##@@@@++..                ",
"              ..++++++++&&**%%%%**$$&&++++++++..                ",
"              ..++++++++&&**%%%%**$$&&++++++++..                ",
"                ##++++**%%******####%%**++++##                  ",
"                ##++++**%%******####%%**++++##                  ",
"                  ##..%%******##&&##**%%..##                    ",
"                  ##..%%******##&&##**%%..##                    ",
"                  ..%%%%**####++&&..%%$$%%..                    ",
"                  ..%%%%**####++&&..%%$$%%..                    ",
"                    ..%%##++++&&..%%%%$$..                      ",
"                    ..%%##++++&&..%%%%$$..                      ",
"                    ..$$##++&&&&##%%$$$$..                      ",
"                    ..$$##++&&&&##%%$$$$..                      ",
"                      ##..##&&&&&&##....                        ",
"                      ##..##&&&&&&##....                        ",
"                      ..%%##&&&&&&##%%..                        ",
"                      ..%%##&&&&&&##%%..                        ",
"                    ##$$%%..++..##%%%%$$##                      ",
"                    ##$$%%..++..##%%%%$$##                      ",
"                    ..$$%%..%%..%%%%%%$$..                      ",
"                    ..$$%%..%%..%%%%%%$$..                      ",
"                    ..$$$$%%..%%..%%$$$$..                      ",
"                    ..$$$$%%..%%..%%$$$$..                      ",
"                      ..$$$$$$$$$$$$$$..                        ",
"                      ..$$$$$$$$$$$$$$..                        ",
"                      ..&&==....==$$&&..                        ",
"                      ..&&==....==$$&&..                        ",
"                        ####    ##--..                          ",
"                        ####    ##--..                          ",
"                                  ####                          ",
"                                  ####                          ",
"                                                                ",
"                                                                ",
"                                                                ",
"                                                                "};
