/* XPM */
static char * pyroliDos2_xpm[] = {
"64 64 9 1",
" 	c None",
".	c #483828",
"+	c #101010",
"@	c #E8D898",
"#	c #F88048",
"$	c #D8A848",
"%	c #D85820",
"&	c #987830",
"*	c #984028",
"                                                                ",
"                                                                ",
"                                                                ",
"                                                                ",
"                                                                ",
"                                                                ",
"                                                                ",
"                                                                ",
"                                                                ",
"                                                                ",
"                                                                ",
"                                                                ",
"                                                                ",
"                                                                ",
"                                                                ",
"                                                                ",
"                                                                ",
"                                                                ",
"                              ....                              ",
"                              ....                              ",
"                ++++          ..@@..          ++++              ",
"                ++++          ..@@..          ++++              ",
"                ..##..++    ..$$$$@@..    ++..##..              ",
"                ..##..++    ..$$$$@@..    ++..##..              ",
"                ..%%####++  ..&&$$$$..  ++####%%..              ",
"                ..%%####++  ..&&$$$$..  ++####%%..              ",
"                  ++%%####..**......**..####%%++                ",
"                  ++%%####..**......**..####%%++                ",
"                  ++%%%%##..**######**..##%%%%++                ",
"                  ++%%%%##..**######**..##%%%%++                ",
"                    ++%%%%**%%%%%%........%%++                  ",
"                    ++%%%%**%%%%%%........%%++                  ",
"                      ++**%%......$$@@@@..++                    ",
"                      ++**%%......$$@@@@..++                    ",
"                      **++..$$..@@@@$$&&..**                    ",
"                      **++..$$..@@@@$$&&..**                    ",
"                      ++$$$$..$$@@@@@@..@@..                    ",
"                      ++$$$$..$$@@@@@@..@@..                    ",
"                    ..&&$$..@@@@@@@@@@@@@@....                  ",
"                    ..&&$$..@@@@@@@@@@@@@@....                  ",
"                    ..$$&&..@@@@@@@@@@@@@@@@..                  ",
"                    ..$$&&..@@@@@@@@@@@@@@@@..                  ",
"                  ..&&..@@&&@@@@@@@@@@@@@@@@....                ",
"                  ..&&..@@&&@@@@@@@@@@@@@@@@....                ",
"                  ..&&..@@@@@@@@@@$$@@@@@@$$&&..                ",
"                  ..&&..@@@@@@@@@@$$@@@@@@$$&&..                ",
"                  ..&&++@@$$@@@@@@$$@@@@@@..&&..                ",
"                  ..&&++@@$$@@@@@@$$@@@@@@..&&..                ",
"                    ..++$$$$$$@@$$@@@@@@$$..++                  ",
"                    ..++$$$$$$@@$$@@@@@@$$..++                  ",
"                    ..++&&$$$$$$$$$$$$$$++**..                  ",
"                    ..++&&$$$$$$$$$$$$$$++**..                  ",
"                      ..++$$$$$$$$$$$$++**..                    ",
"                      ..++$$$$$$$$$$$$++**..                    ",
"                        ++++..&&&&&&++++**..                    ",
"                        ++++..&&&&&&++++**..                    ",
"                          ++++........**++                      ",
"                          ++++........**++                      ",
"                                    ++++                        ",
"                                    ++++                        ",
"                                                                ",
"                                                                ",
"                                                                ",
"                                                                "};
