/* XPM */
static char * aqualiRight2_xpm[] = {
"64 64 16 1",
" 	c None",
".	c #088304",
"+	c #203868",
"@	c #209088",
"#	c #80C8E8",
"$	c #000000",
"%	c #58B0E0",
"&	c #E0C868",
"*	c #107078",
"=	c #306888",
"-	c #504838",
";	c #B09838",
">	c #4888B0",
",	c #A0A0A0",
"'	c #D0D0D0",
")	c #E8E8F8",
"                                                                ",
"                                                                ",
"                                                                ",
"                                                                ",
"                                                                ",
"                                                                ",
"                                                                ",
"                                                                ",
"                                                                ",
"                                                                ",
"                                                                ",
"                                                                ",
"                                                                ",
"                                                                ",
"                                                                ",
"                                                                ",
"                                                                ",
"                                                                ",
"                              ......                            ",
"                              ......                            ",
"      ++++                    ..@@@@....                        ",
"      ++++                    ..@@@@....                        ",
"      ++##++                    ..@@@@@@....                    ",
"      ++##++                    ..@@@@@@....                    ",
"  $$++++%%%%++                ++&&****@@@@@@..**                ",
"  $$++++%%%%++                ++&&****@@@@@@..**                ",
"  $$##%%==%%++              ++--;;&&&&****@@@@@@..              ",
"  $$##%%==%%++              ++--;;&&&&****@@@@@@..              ",
"  ++%%%%%%>>++            ..,,--&&;;;;&&&&**@@@@@@..            ",
"  ++%%%%%%>>++            ..,,--&&;;;;&&&&**@@@@@@..            ",
"    ++%%%%==              ++........;;;;**@@@@**@@..            ",
"    ++%%%%==              ++........;;;;**@@@@**@@..            ",
"      $$>>++              ++++**@@@@@@@@@@@@@@##**@@..          ",
"      $$>>++              ++++**@@@@@@@@@@@@@@##**@@..          ",
"        ++@@++            ++''--****@@@@@@@@######**..          ",
"        ++@@++            ++''--****@@@@@@@@######**..          ",
"        ++%%@@++        ++++''--&&&&**@@@@##########++          ",
"        ++%%@@++        ++++''--&&&&**@@@@##########++          ",
"        ++%%**@@**++**++@@++'',,--;;&&@@@@##>>++####%%++        ",
"        ++%%**@@**++**++@@++'',,--;;&&@@@@##>>++####%%++        ",
"          ++%%%%++@@++@@**++,,''--&&;;;;####++++))####$$        ",
"          ++%%%%++@@++@@**++,,''--&&;;;;####++++))####$$        ",
"          ++%%%%%%%%>>%%%%>>++''------%%######$$$$##%%++        ",
"          ++%%%%%%%%>>%%%%>>++''------%%######$$$$##%%++        ",
"            ++>>%%%%%%%%%%%%++'''',,,,++++%%%%%%%%++++          ",
"            ++>>%%%%%%%%%%%%++'''',,,,++++%%%%%%%%++++          ",
"              ++%%%%%%++%%%%%%++,,,,'''',,++++++++              ",
"              ++%%%%%%++%%%%%%++,,,,'''',,++++++++              ",
"                ++++>>++%%%%%%++++,,'''',,'',,++                ",
"                ++++>>++%%%%%%++++,,'''',,'',,++                ",
"                    $$>>>>%%>>++>>++++,,,,++++                  ",
"                    $$>>>>%%>>++>>++++,,,,++++                  ",
"                    $$>>>>++++  ++>>>>++++                      ",
"                    $$>>>>++++  ++>>>>++++                      ",
"                      $$>>$$    ++>>$$                          ",
"                      $$>>$$    ++>>$$                          ",
"                        $$++      $$$$                          ",
"                        $$++      $$$$                          ",
"                                                                ",
"                                                                ",
"                                                                ",
"                                                                ",
"                                                                ",
"                                                                "};
