/* XPM */
static char * aqualiDos2_xpm[] = {
"64 64 12 1",
" 	c None",
".	c #088304",
"+	c #209088",
"@	c #107078",
"#	c #B09838",
"$	c #000000",
"%	c #203868",
"&	c #58B0E0",
"*	c #4888B0",
"=	c #504838",
"-	c #80C8E8",
";	c #306888",
"                                                                ",
"                                                                ",
"                                                                ",
"                                                                ",
"                                                                ",
"                                                                ",
"                                                                ",
"                                                                ",
"                                                                ",
"                                                                ",
"                                ..                              ",
"                                ..                              ",
"                              ..++..                            ",
"                              ..++..                            ",
"                              ..++..                            ",
"                              ..++..                            ",
"                            ..@@##@@..                          ",
"                            ..@@##@@..                          ",
"              ......      ..............      ......            ",
"              ......      ..............      ......            ",
"              $$++++....%%&&&&******&&&&%%%%..++++$$            ",
"              $$++++....%%&&&&******&&&&%%%%..++++$$            ",
"                ==##++%%&&**************&&%%++##==              ",
"                ==##++%%&&**************&&%%++##==              ",
"                ==##%%&&******************&&%%##==              ",
"                ==##%%&&******************&&%%##==              ",
"                  %%%%**$$%%%%******%%%%$$**%%%%                ",
"                  %%%%**$$%%%%******%%%%$$**%%%%                ",
"                  %%&&**$$--&&%%**%%--&&$$**&&%%                ",
"                  %%&&**$$--&&%%**%%--&&$$**&&%%                ",
"                  %%&&;;%%&&&&&&%%&&&&&&%%;;&&%%                ",
"                  %%&&;;%%&&&&&&%%&&&&&&%%;;&&%%                ",
"                  %%**;;**$$&&&&**&&&&%%**;;**%%                ",
"                  %%**;;**$$&&&&**&&&&%%**;;**%%                ",
"                    %%;;;;**$$******$$**;;;;%%                  ",
"                    %%;;;;**$$******$$**;;;;%%                  ",
"                    %%;;;;%%&&%%**%%&&%%;;;;%%                  ",
"                    %%;;;;%%&&%%**%%&&%%;;;;%%                  ",
"                      %%%%&&**%%**%%**&&%%%%                    ",
"                      %%%%&&**%%**%%**&&%%%%                    ",
"                      %%;;&&%%******%%&&;;%%                    ",
"                      %%;;&&%%******%%&&;;%%                    ",
"                      %%&&&&;;******;;&&&&%%                    ",
"                      %%&&&&;;******;;&&&&%%                    ",
"                      %%&&**************&&%%                    ",
"                      %%&&**************&&%%                    ",
"                      %%;;****************%%                    ",
"                      %%;;****************%%                    ",
"                        $$**;;******;;**;;%%                    ",
"                        $$**;;******;;**;;%%                    ",
"                        $$;;;;;;%%;;;;;;$$                      ",
"                        $$;;;;;;%%;;;;;;$$                      ",
"                          $$;;$$  %%**;;$$                      ",
"                          $$;;$$  %%**;;$$                      ",
"                          $$$$    $$**$$                        ",
"                          $$$$    $$**$$                        ",
"                                    $$$$                        ",
"                                    $$$$                        ",
"                                                                ",
"                                                                ",
"                                                                ",
"                                                                ",
"                                                                ",
"                                                                "};
