/* XPM */
static char * evoliLEFT1_xpm[] = {
"64 64 10 1",
" 	c None",
".	c #403018",
"+	c #000000",
"@	c #806030",
"#	c #C09050",
"$	c #A88040",
"%	c #E8E8F8",
"&	c #604038",
"*	c #B8A060",
"=	c #E0D0A8",
"                                                                ",
"                                                                ",
"                                                                ",
"                                                                ",
"                                                                ",
"                                                                ",
"                                                                ",
"                                                                ",
"                                                                ",
"                                                                ",
"                                                                ",
"                                                                ",
"                                                                ",
"                                                                ",
"                                                                ",
"                                                                ",
"                                                                ",
"                                                                ",
"                                                                ",
"                                                                ",
"                                                                ",
"                                                                ",
"                                                                ",
"                                                                ",
"                                                                ",
"                                                                ",
"                                                                ",
"                                                                ",
"                                    ......                      ",
"                                    ......                      ",
"                      ....  ++  ....@@@@..                      ",
"                      ....  ++  ....@@@@..                      ",
"                      ..##..##++@@@@@@..                        ",
"                      ..##..##++@@@@@@..                        ",
"                    ..@@##$$####..++++++++                      ",
"                    ..@@##$$####..++++++++                      ",
"                  ..$$##$$####..++######++                      ",
"                  ..$$##$$####..++######++                      ",
"                  ..########..####....++                        ",
"                  ..########..####....++                        ",
"                ++####@@$$####......++                          ",
"                ++####@@$$####......++                          ",
"                ..$$$$%%..$$$$$$@@++      ++++..                ",
"                ..$$$$%%..$$$$$$@@++      ++++..                ",
"                ..@@$$++..$$$$@@@@++++..++######....            ",
"                ..@@$$++..$$$$@@@@++++..++######....            ",
"                  ++@@&&&&@@@@@@..**..++######====..            ",
"                  ++@@&&&&@@@@@@..**..++######====..            ",
"                    ++++@@@@@@++**..$$++$$##****++              ",
"                    ++++@@@@@@++**..$$++$$##****++              ",
"                    ..==++++++****..$$$$..++++++                ",
"                    ..==++++++****..$$$$..++++++                ",
"                    ..======****++$$$$$$$$@@..                  ",
"                    ..======****++$$$$$$$$@@..                  ",
"                      ..==**..++$$....$$@@@@..                  ",
"                      ..==**..++$$....$$@@@@..                  ",
"                        ..++..@@..    ....@@++                  ",
"                        ..++..@@..    ....@@++                  ",
"                            ++++        ++++                    ",
"                            ++++        ++++                    ",
"                                                                ",
"                                                                ",
"                                                                ",
"                                                                "};
