/* XPM */
static char * givraliBack2_xpm[] = {
"64 64 11 1",
" 	c None",
".	c #000000",
"+	c #304050",
"@	c #186070",
"#	c #3098B0",
"$	c #88E0E8",
"%	c #B0E8F8",
"&	c #50B8D8",
"*	c #2898A8",
"=	c #309088",
"-	c #206868",
"                                                                ",
"                                                                ",
"                                                                ",
"                                                                ",
"                                                                ",
"                                                                ",
"                                                                ",
"                                                                ",
"                                                                ",
"                                                                ",
"                                                                ",
"                                                                ",
"                                                                ",
"                                                                ",
"                                                                ",
"                                                                ",
"                                                                ",
"                                                                ",
"                                                                ",
"                                                                ",
"                                                                ",
"                                                                ",
"                          ..........                            ",
"                          ..........                            ",
"            ++++++      ..@@######@@..      ++++++              ",
"            ++++++      ..@@######@@..      ++++++              ",
"            ..$$%%..  ++##++......++##++  ..%%$$..              ",
"            ..$$%%..  ++##++......++##++  ..%%$$..              ",
"            ..&&$$%%....++$$%%%%%%$$++....%%$$&&..              ",
"            ..&&$$%%....++$$%%%%%%$$++....%%$$&&..              ",
"              ..&&&&$$++$$$$%%%%%%$$$$++$$&&&&..                ",
"              ..&&&&$$++$$$$%%%%%%$$$$++$$&&&&..                ",
"                ....**++$$$$$$%%$$$$$$++**....                  ",
"                ....**++$$$$$$%%$$$$$$++**....                  ",
"                  ++..**&&$$$$$$$$$$&&**..++                    ",
"                  ++..**&&$$$$$$$$$$&&**..++                    ",
"                ++##..&&&&&&$$$$$$&&&&&&..##++                  ",
"                ++##..&&&&&&$$$$$$&&&&&&..##++                  ",
"              ++==##..&&&&&&......&&&&&&..##==++                ",
"              ++==##..&&&&&&......&&&&&&..##==++                ",
"              ..----++++&&..----..&&**++++----..                ",
"              ..----++++&&..----..&&**++++----..                ",
"              ....++  ....&&----..**++..  ++....                ",
"              ....++  ....&&----..**++..  ++....                ",
"                      ++..&&&&..&&&&&&++                        ",
"                      ++..&&&&..&&&&&&++                        ",
"                    ..**..&&**++&&&&&&**..                      ",
"                    ..**..&&**++&&&&&&**..                      ",
"                    ++**&&..&&++&&&&&&**++                      ",
"                    ++**&&..&&++&&&&&&**++                      ",
"                    ++****&&++&&++&&****++                      ",
"                    ++****&&++&&++&&****++                      ",
"                      ++**************++                        ",
"                      ++**************++                        ",
"                      ++++--++++******++                        ",
"                      ++++--++++******++                        ",
"                        ....    ++--++                          ",
"                        ....    ++--++                          ",
"                                  ....                          ",
"                                  ....                          ",
"                                                                ",
"                                                                ",
"                                                                ",
"                                                                "};
