/* XPM */
static char * mentaliFace2_xpm[] = {
"64 64 12 1",
" 	c None",
".	c #502878",
"+	c #E0B0D8",
"@	c #F0C8E8",
"#	c #A868A0",
"$	c #000000",
"%	c #C890D0",
"&	c #3870B0",
"*	c #E888B0",
"=	c #C83830",
"-	c #E8E8F8",
";	c #302078",
"                                                                ",
"                                                                ",
"                                                                ",
"                                                                ",
"                                                                ",
"                                                                ",
"                                                                ",
"                                                                ",
"                      ......                                    ",
"                      ......                                    ",
"                    ..++@@@@..                                  ",
"                    ..++@@@@..                                  ",
"                    ....####@@..                                ",
"                    ....####@@..                                ",
"                      $$@@@@##@@..                              ",
"                      $$@@@@##@@..                              ",
"                    $$++$$$$@@@@..                              ",
"                    $$++$$$$@@@@..                              ",
"                    ..$$    ..%%@@..                            ",
"                    ..$$    ..%%@@..                            ",
"                              ..@@$$                            ",
"                              ..@@$$                            ",
"                              ..++$$                            ",
"                              ..++$$                            ",
"                            ..++..                              ",
"                            ..++..                              ",
"          ....              ..%%..              ....            ",
"          ....              ..%%..              ....            ",
"          $$@@..$$$$      ..++++++..      $$$$..@@$$            ",
"          $$@@..$$$$      ..++++++..      $$$$..@@$$            ",
"          $$@@@@@@@@$$....++++++++++....$$@@@@@@@@$$            ",
"          $$@@@@@@@@$$....++++++++++....$$@@@@@@@@$$            ",
"            ..&&%%@@@@@@$$++......++$$@@@@@@%%&&..              ",
"            ..&&%%@@@@@@$$++......++$$@@@@@@%%&&..              ",
"            $$&&&&&&@@@@@@..@@@@@@..@@@@@@&&&&&&$$              ",
"            $$&&&&&&@@@@@@..@@@@@@..@@@@@@&&&&&&$$              ",
"              $$&&&&%%@@%%@@@@@@@@@@%%@@%%&&&&$$                ",
"              $$&&&&%%@@%%@@@@@@@@@@%%@@%%&&&&$$                ",
"                ..&&&&@@@@@@@@@@@@@@@@@@&&&&..                  ",
"                ..&&&&@@@@@@@@@@@@@@@@@@&&&&..                  ",
"                  ....@@@@@@**==**@@@@@@....                    ",
"                  ....@@@@@@**==**@@@@@@....                    ",
"                ..@@%%@@@@@@==--==@@@@@@%%@@..                  ",
"                ..@@%%@@@@@@==--==@@@@@@%%@@..                  ",
"              ..@@@@%%;;%%@@**==**@@%%;;%%@@@@..                ",
"              ..@@@@%%;;%%@@**==**@@%%;;%%@@@@..                ",
"              $$@@$$%%;;--++@@@@@@++--;;%%$$@@$$                ",
"              $$@@$$%%;;--++@@@@@@++--;;%%$$@@$$                ",
"              $$..  $$%%;;##@@@@@@##;;%%$$  ..$$                ",
"              $$..  $$%%;;##@@@@@@##;;%%$$  ..$$                ",
"                    ..$$%%%%++##++%%%%$$..                      ",
"                    ..$$%%%%++##++%%%%$$..                      ",
"                      ..$$$$%%%%%%$$$$..                        ",
"                      ..$$$$%%%%%%$$$$..                        ",
"                      ..%%##$$$$$$####..                        ",
"                      ..%%##$$$$$$####..                        ",
"                        $$$$      ..%%..                        ",
"                        $$$$      ..%%..                        ",
"                                  $$$$                          ",
"                                  $$$$                          ",
"                                                                ",
"                                                                ",
"                                                                ",
"                                                                "};
