/* XPM */
static char * mentaliFace1_xpm[] = {
"64 64 12 1",
" 	c None",
".	c #502878",
"+	c #F0C8E8",
"@	c #E0B0D8",
"#	c #A868A0",
"$	c #101010",
"%	c #C890D0",
"&	c #3870B0",
"*	c #E888B0",
"=	c #C83830",
"-	c #E8E8F8",
";	c #302078",
"                                                                ",
"                                                                ",
"                                                                ",
"                                                                ",
"                                                                ",
"                                                                ",
"                                                                ",
"                                                                ",
"                                  ......                        ",
"                                  ......                        ",
"                                ..++++@@..                      ",
"                                ..++++@@..                      ",
"                              ..++####....                      ",
"                              ..++####....                      ",
"                            ..++##++++$$                        ",
"                            ..++##++++$$                        ",
"                            ..++++$$$$@@$$                      ",
"                            ..++++$$$$@@$$                      ",
"                          ..++%%..    $$..                      ",
"                          ..++%%..    $$..                      ",
"                          $$++..                                ",
"                          $$++..                                ",
"                          $$@@..                                ",
"                          $$@@..                                ",
"                            ..@@..                              ",
"                            ..@@..                              ",
"          ....              ..%%..              ....            ",
"          ....              ..%%..              ....            ",
"          $$++..$$$$      ..@@@@@@..      $$$$..++$$            ",
"          $$++..$$$$      ..@@@@@@..      $$$$..++$$            ",
"          $$++++++++$$....@@@@@@@@@@....$$++++++++$$            ",
"          $$++++++++$$....@@@@@@@@@@....$$++++++++$$            ",
"            ..&&%%++++++$$@@......@@$$++++++%%&&..              ",
"            ..&&%%++++++$$@@......@@$$++++++%%&&..              ",
"            $$&&&&&&++++++..++++++..++++++&&&&&&$$              ",
"            $$&&&&&&++++++..++++++..++++++&&&&&&$$              ",
"              $$&&&&%%++%%++++++++++%%++%%&&&&$$                ",
"              $$&&&&%%++%%++++++++++%%++%%&&&&$$                ",
"                ..&&&&++++++++++++++++++&&&&..                  ",
"                ..&&&&++++++++++++++++++&&&&..                  ",
"                  ....++++++**==**++++++....                    ",
"                  ....++++++**==**++++++....                    ",
"                ..++%%++++++==--==++++++%%++..                  ",
"                ..++%%++++++==--==++++++%%++..                  ",
"              ..++++%%;;%%++**==**++%%;;%%++++..                ",
"              ..++++%%;;%%++**==**++%%;;%%++++..                ",
"              $$++$$%%;;--@@++++++@@--;;%%$$++$$                ",
"              $$++$$%%;;--@@++++++@@--;;%%$$++$$                ",
"              $$..  $$%%;;##++++++##;;%%$$  ..$$                ",
"              $$..  $$%%;;##++++++##;;%%$$  ..$$                ",
"                    ..$$%%%%@@##@@%%%%$$..                      ",
"                    ..$$%%%%@@##@@%%%%$$..                      ",
"                      ..$$$$%%%%%%$$$$..                        ",
"                      ..$$$$%%%%%%$$$$..                        ",
"                      ..####$$$$$$##%%..                        ",
"                      ..####$$$$$$##%%..                        ",
"                      ..%%..      $$$$                          ",
"                      ..%%..      $$$$                          ",
"                        $$$$                                    ",
"                        $$$$                                    ",
"                                                                ",
"                                                                ",
"                                                                ",
"                                                                "};
