/* XPM */
static char * mentaliRight2_xpm[] = {
"64 64 11 1",
" 	c None",
".	c #502878",
"+	c #F0C8E8",
"@	c #E0B0D8",
"#	c #C890D0",
"$	c #A868A0",
"%	c #3870B0",
"&	c #E888B0",
"*	c #C83830",
"=	c #101010",
"-	c #E8E8F8",
"                                                                ",
"                                                                ",
"                                                                ",
"                                                                ",
"                                                                ",
"                                                                ",
"                                                                ",
"                                                                ",
"                                                                ",
"                                                                ",
"                                                                ",
"                                                                ",
"                                                                ",
"                                                                ",
"                                                                ",
"                                                                ",
"                                ....                            ",
"                                ....                            ",
"                              ..++..                            ",
"                              ..++..                            ",
"                              ..@@..                            ",
"                              ..@@..                            ",
"                              ..@@++..                          ",
"                              ..@@++..                          ",
"                            ..##++++++..                        ",
"                            ..##++++++..                        ",
"                    ....    ..##@@++@@..                        ",
"                    ....    ..##@@++@@..                        ",
"        ......      ..++........@@@@@@@@....                    ",
"        ......      ..++........@@@@@@@@....                    ",
"      ..++++@@..    ..++++++++++....++++++++..                  ",
"      ..++++@@..    ..++++++++++....++++++++..                  ",
"    ..++$$$$....      ..%%##++++++++..++++&&**..                ",
"    ..++$$$$....      ..%%##++++++++..++++&&**..                ",
"  ..++$$++++==        ==%%%%%%++++++++++++**--==                ",
"  ..++$$++++==        ==%%%%%%++++++++++++**--==                ",
"  ..++++====@@==        ==%%%%%%++++++++++&&**==                ",
"  ..++++====@@==        ==%%%%%%++++++++++&&**==                ",
"  ==++..    ==..          ======..++++$$..++++++==              ",
"  ==++..    ==..          ======..++++$$..++++++==              ",
"  ==@@..                    ....++++++..==--++++==              ",
"  ==@@..                    ....++++++..==--++++==              ",
"  ==$$@@..            ........++++++++++====++++==              ",
"  ==$$@@..            ........++++++++++====++++==              ",
"    ==##@@....    ....@@@@@@==++++..++++++++....                ",
"    ==##@@....    ....@@@@@@==++++..++++++++....                ",
"      ==$$@@##....@@@@@@@@@@==....@@@@..====                    ",
"      ==$$@@##....@@@@@@@@@@==....@@@@..====                    ",
"        ====$$####@@@@@@@@@@@@@@@@@@##..                        ",
"        ====$$####@@@@@@@@@@@@@@@@@@##..                        ",
"            ====..##@@@@@@@@@@@@@@##..                          ",
"            ====..##@@@@@@@@@@@@@@##..                          ",
"                ==$$@@@@$$..$$######..                          ",
"                ==$$@@@@$$..$$######..                          ",
"                  ==$$$$====..####..                            ",
"                  ==$$$$====..####..                            ",
"                  ==$$==    ==$$==                              ",
"                  ==$$==    ==$$==                              ",
"                    ====      ====                              ",
"                    ====      ====                              ",
"                                                                ",
"                                                                ",
"                                                                ",
"                                                                "};
