/* XPM */
static char * noctaliFace1_xpm[] = {
"64 64 13 1",
" 	c None",
".	c #182838",
"+	c #687078",
"@	c #E0B028",
"#	c #B08010",
"$	c #101010",
"%	c #404850",
"&	c #F8D858",
"*	c #883801",
"=	c #D01818",
"-	c #E8E8F8",
";	c #283840",
">	c #805808",
"                                                                ",
"                                                                ",
"                                                                ",
"                                                                ",
"                                                                ",
"                                                                ",
"                                                                ",
"                                                                ",
"                                                                ",
"                                                                ",
"                                                                ",
"                                                                ",
"                                ....                            ",
"                                ....                            ",
"                              ..++..                            ",
"                              ..++..                            ",
"                            ..++++..                            ",
"                            ..++++..                            ",
"                            ..@@@@++..                          ",
"                            ..@@@@++..                          ",
"                          ..##++++##..                          ",
"                          ..##++++##..                          ",
"                          ..++++++..                            ",
"                          ..++++++..                            ",
"            $$$$            ..++++..          $$$$              ",
"            $$$$            ..++++..          $$$$              ",
"            $$++$$$$        ..%%..        $$$$++$$              ",
"            $$++$$$$        ..%%..        $$$$++$$              ",
"            $$++++++$$    ..........    $$++++++$$              ",
"            $$++++++$$    ..........    $$++++++$$              ",
"            $$++++&&&&$$..%%++++++%%..$$&&&&++++$$              ",
"            $$++++&&&&$$..%%++++++%%..$$&&&&++++$$              ",
"              ..&&##++$$%%++$$$$$$++%%$$++##&&..                ",
"              ..&&##++$$%%++$$$$$$++%%$$++##&&..                ",
"              ..++++++++$$..++++++..$$++++++++..                ",
"              ..++++++++$$..++++++..$$++++++++..                ",
"                $$++++++..++++++++++..++++++$$                  ",
"                $$++++++..++++++++++..++++++$$                  ",
"                  $$++++++++++++++++++++++$$                    ",
"                  $$++++++++++++++++++++++$$                    ",
"                    ..++++++##&&##++++++..                      ",
"                    ..++++++##&&##++++++..                      ",
"                  ..++%%++++&&++&&++++%%++..                    ",
"                  ..++%%++++&&++&&++++%%++..                    ",
"                  ..++****++&&++&&++****++..                    ",
"                  ..++****++&&++&&++****++..                    ",
"                  $$%%==--++##&&##++--==%%..                    ",
"                  $$%%==--++##&&##++--==%%..                    ",
"                    $$++$$**++++++**$$++$$                      ",
"                    $$++$$**++++++**$$++$$                      ",
"                    ..$$++++++;;++++++$$..                      ",
"                    ..$$++++++;;++++++$$..                      ",
"                    ..>>$$$$%%%%%%$$$$..                        ",
"                    ..>>$$$$%%%%%%$$$$..                        ",
"                      ..%%%%$$$$$$%%%%$$                        ",
"                      ..%%%%$$$$$$%%%%$$                        ",
"                      ..%%$$      $$$$                          ",
"                      ..%%$$      $$$$                          ",
"                        $$$$                                    ",
"                        $$$$                                    ",
"                                                                ",
"                                                                ",
"                                                                ",
"                                                                "};
