/* XPM */
static char * noctaliDos2_xpm[] = {
"64 64 8 1",
" 	c None",
".	c #101010",
"+	c #687078",
"@	c #B08010",
"#	c #F8D858",
"$	c #182838",
"%	c #404850",
"&	c #E0B028",
"                                                                ",
"                                                                ",
"                                                                ",
"                                                                ",
"                                                                ",
"                                                                ",
"                                                                ",
"                                                                ",
"                                                                ",
"                                                                ",
"                                                                ",
"                                                                ",
"                                                                ",
"                                                                ",
"                                                                ",
"                                                                ",
"            ....                              ....              ",
"            ....                              ....              ",
"            ..++....                      ....++..              ",
"            ..++....                      ....++..              ",
"            ..++++++..                  ..++++++..              ",
"            ..++++++..                  ..++++++..              ",
"            ..++++@@##..              ..##@@++++..              ",
"            ..++++@@##..              ..##@@++++..              ",
"              $$####++..    $$$$$$    ..++####$$                ",
"              $$####++..    $$$$$$    ..++####$$                ",
"              $$++++++++..$$@@@@@@$$..++++++++$$                ",
"              $$++++++++..$$@@@@@@$$..++++++++$$                ",
"                ..++++++$$++++++++++$$++++++..                  ",
"                ..++++++$$++++++++++$$++++++..                  ",
"                  ....++++++++++++++++++....                    ",
"                  ....++++++++++++++++++....                    ",
"                  $$++++++++++++++++++++++$$                    ",
"                  $$++++++++++++++++++++++$$                    ",
"                  $$++++++++++++$$$$++++++$$                    ",
"                  $$++++++++++++$$$$++++++$$                    ",
"                  $$++++++++++$$++$$++++++$$                    ",
"                  $$++++++++++$$++$$++++++$$                    ",
"                    $$++++++$$++++$$++++$$                      ",
"                    $$++++++$$++++$$++++$$                      ",
"                    ..%%++++$$++++++$$%%..                      ",
"                    ..%%++++$$++++++$$%%..                      ",
"                      ..++$$@@++++@@$$..                        ",
"                      ..++$$@@++++@@$$..                        ",
"                      ..++$$++&&&&$$++..                        ",
"                      ..++$$++&&&&$$++..                        ",
"                    ..++++++$$++++$$++++..                      ",
"                    ..++++++$$++++$$++++..                      ",
"                    ..@@++++$$%%$$++++++..                      ",
"                    ..@@++++$$%%$$++++++..                      ",
"                    ..%%++%%%%%%%%++++@@..                      ",
"                    ..%%++%%%%%%%%++++@@..                      ",
"                      ..%%%%%%%%%%%%++%%..                      ",
"                      ..%%%%%%%%%%%%++%%..                      ",
"                      ..%%$$$$$$$$%%%%..                        ",
"                      ..%%$$$$$$$$%%%%..                        ",
"                        ....      $$%%..                        ",
"                        ....      $$%%..                        ",
"                                  ....                          ",
"                                  ....                          ",
"                                                                ",
"                                                                ",
"                                                                ",
"                                                                "};
