/* XPM */
static char * noctaliRight2_xpm[] = {
"64 64 12 1",
" 	c None",
".	c #182838",
"+	c #404850",
"@	c #B08010",
"#	c #000000",
"$	c #687078",
"%	c #F8D858",
"&	c #E0B028",
"*	c #805808",
"=	c #883800",
"-	c #D01818",
";	c #E8E8F8",
"                                                                ",
"                                                                ",
"                                                                ",
"                                                                ",
"                                                                ",
"                                                                ",
"                                                                ",
"                                                                ",
"                                                                ",
"                                                                ",
"                                                                ",
"                                                                ",
"                                                                ",
"                                                                ",
"                                                                ",
"                                                                ",
"                                                                ",
"                                                                ",
"                                                                ",
"                                                                ",
"                          ......                                ",
"                          ......                                ",
"                          ..++++....                            ",
"                          ..++++....                            ",
"                            ..++++@@..                          ",
"                            ..++++@@..                          ",
"                      ########..@@@@++..                        ",
"                      ########..@@@@++..                        ",
"      ....            ##$$$$$$##..++++......                    ",
"      ....            ##$$$$$$##..++++......                    ",
"      ..$$....          ##$$$$@@@@##..++$$$$....                ",
"      ..$$....          ##$$$$@@@@##..++$$$$....                ",
"      ..$$$$$$..        ##$$$$%%$$$$##$$$$$$$$$$..              ",
"      ..$$$$$$..        ##$$$$%%$$$$##$$$$$$$$$$..              ",
"      ..$$$$&&@@..        ..%%$$$$$$++++$$$$$$@@**              ",
"      ..$$$$&&@@..        ..%%$$$$$$++++$$$$$$@@**              ",
"        ..&&$$$$$$..        ####$$$$$$..$$$$$$%%$$..            ",
"        ..&&$$$$$$..        ####$$$$$$..$$$$$$%%$$..            ",
"        ..@@$$$$$$..            ####$$$$$$$$$$$$%%..            ",
"        ..@@$$$$$$..            ####$$$$$$$$$$$$%%..            ",
"          ..++$$$$$$........    ..$$$$$$====$$$$++++            ",
"          ..++$$$$$$........    ..$$$$$$====$$$$++++            ",
"            ....++$$++$$$$$$....$$$$$$$$==--;;$$$$..            ",
"            ....++$$++$$$$$$....$$$$$$$$==--;;$$$$..            ",
"                ..++$$$$$$$$$$$$$$++$$$$$$==##$$$$..            ",
"                ..++$$$$$$$$$$$$$$++$$$$$$==##$$$$..            ",
"                  ##$$$$$$$$$$$$$$$$++++$$$$$$....              ",
"                  ##$$$$$$$$$$$$$$$$++++$$$$$$....              ",
"                  ##$$$$$$$$$$$$$$$$$$++######                  ",
"                  ##$$$$$$$$$$$$$$$$$$++######                  ",
"                  ##++$$&&&&++++&&&&++..                        ",
"                  ##++$$&&&&++++&&&&++..                        ",
"                    ##++&&++@@..++@@++..                        ",
"                    ##++&&++@@..++@@++..                        ",
"                    ##++@@######@@++##                          ",
"                    ##++@@######@@++##                          ",
"                    ##++##    ##++##                            ",
"                    ##++##    ##++##                            ",
"                      ####      ####                            ",
"                      ####      ####                            ",
"                                                                ",
"                                                                ",
"                                                                ",
"                                                                "};
