/* XPM */
static char * phylaliLeft2_xpm[] = {
"64 64 12 1",
" 	c None",
".	c #503018",
"+	c #60A060",
"@	c #80C060",
"#	c #000000",
"$	c #489050",
"%	c #D8B858",
"&	c #A88850",
"*	c #F0D8A0",
"=	c #705020",
"-	c #E8E8F8",
";	c #986830",
"                                                                ",
"                                                                ",
"                                                                ",
"                                                                ",
"                                                                ",
"                                                                ",
"                                                                ",
"                                                                ",
"                                                                ",
"                                                                ",
"                                                                ",
"                                                                ",
"                                                                ",
"                                                                ",
"                                                                ",
"                                                                ",
"                                                                ",
"                                                                ",
"                                                                ",
"                                                                ",
"                                                                ",
"                                                                ",
"                ....                                            ",
"                ....                                            ",
"              ..++@@..                                          ",
"              ..++@@..                                          ",
"              ####++@@##        ......                          ",
"              ####++@@##        ......                          ",
"                  ##++@@##  ....$$$$..                          ",
"                  ##++@@##  ....$$$$..                          ",
"                  ##++@@##..$$$$$$..                            ",
"                  ##++@@##..$$$$$$..                            ",
"                ..$$@@....$$$$##########                        ",
"                ..$$@@....$$$$##########                        ",
"              ##$$####%%&&..##@@@@@@@@##                        ",
"              ##$$####%%&&..##@@@@@@@@##                        ",
"            ##%%..******..%%@@++++++##          ....##          ",
"            ##%%..******..%%@@++++++##          ....##          ",
"            ..********&&**@@++..==++##        ..@@@@++##        ",
"            ..********&&**@@++..==++##        ..@@@@++##        ",
"          ##%%**********%%....==++##        ..@@@@@@@@##        ",
"          ##%%**********%%....==++##        ..@@@@@@@@##        ",
"          ##****%%..==**&&..++####....    ..++@@....@@++..      ",
"          ##****%%..==**&&..++####....    ..++@@....@@++..      ",
"          ..%%**--##..**%%&&##;;%%&&;;....;;++..    ......      ",
"          ..%%**--##..**%%&&##;;%%&&;;....;;++..    ......      ",
"          ..%%%%==##**%%%%&&##%%%%%%%%&&;;....                  ",
"          ..%%%%==##**%%%%&&##%%%%%%%%&&;;....                  ",
"            ..##%%%%%%%%;;..%%%%%%%%%%%%##                      ",
"            ..##%%%%%%%%;;..%%%%%%%%%%%%##                      ",
"                ######..&&%%%%%%&&%%%%&&##                      ",
"                ######..&&%%%%%%&&%%%%&&##                      ",
"                    ..++++%%&&;;##;;&&;;....                    ",
"                    ..++++%%&&;;##;;&&;;....                    ",
"                      ..##&&++....##;;$$++..                    ",
"                      ..##&&++....##;;$$++..                    ",
"                        ..##==##  ##==####                      ",
"                        ..##==##  ##==####                      ",
"                            ####  ####                          ",
"                            ####  ####                          ",
"                                                                ",
"                                                                ",
"                                                                ",
"                                                                "};
