/* XPM */
static char * phylaliRight1_xpm[] = {
"64 64 12 1",
" 	c None",
".	c #503018",
"+	c #80C060",
"@	c #60A060",
"#	c #000000",
"$	c #489050",
"%	c #A88850",
"&	c #D8B858",
"*	c #F0D8A0",
"=	c #705020",
"-	c #986830",
";	c #E8E8F8",
"                                                                ",
"                                                                ",
"                                                                ",
"                                                                ",
"                                                                ",
"                                                                ",
"                                                                ",
"                                                                ",
"                                                                ",
"                                                                ",
"                                                                ",
"                                                                ",
"                                                                ",
"                                                                ",
"                                                                ",
"                                                                ",
"                                                                ",
"                                                                ",
"                                                                ",
"                                                                ",
"                                                                ",
"                                                                ",
"                                            ....                ",
"                                            ....                ",
"                                          ..++@@..              ",
"                                          ..++@@..              ",
"                          ......        ##++@@####              ",
"                          ......        ##++@@####              ",
"                          ..$$$$....  ##++@@##                  ",
"                          ..$$$$....  ##++@@##                  ",
"                            ..$$$$$$..##++@@##                  ",
"                            ..$$$$$$..##++@@##                  ",
"                        ##########$$$$....++$$..                ",
"                        ##########$$$$....++$$..                ",
"                        ##++++++++##..%%&&####$$##              ",
"                        ##++++++++##..%%&&####$$##              ",
"                          ##@@@@@@++&&..******..&&##            ",
"                          ##@@@@@@++&&..******..&&##            ",
"        ####..            ##@@==..@@++**%%********..            ",
"        ####..            ##@@==..@@++**%%********..            ",
"      ##@@++++..            ##@@==....&&**********&&##          ",
"      ##@@++++..            ##@@==....&&**********&&##          ",
"    ..@@++++++@@......    ....####@@..%%&&==..&&****##          ",
"    ..@@++++++@@......    ....####@@..%%&&==..&&****##          ",
"    ......@@@@++++@@--....--%%&&--##%%&&**..##;;**&&..          ",
"    ......@@@@++++@@--....--%%&&--##%%&&**..##;;**&&..          ",
"          ....@@@@....--%%&&&&&&&&##%%&&&&**##==&&&&..          ",
"          ....@@@@....--%%&&&&&&&&##%%&&&&**##==&&&&..          ",
"              ....    ##&&&&&&&&&&&&..--&&&&&&&&##..            ",
"              ....    ##&&&&&&&&&&&&..--&&&&&&&&##..            ",
"                      ##%%&&&&&&&&&&&&%%..######                ",
"                      ##%%&&&&&&&&&&&&%%..######                ",
"                  ....--%%%%..%%--%%&&@@@@..                    ",
"                  ....--%%%%..%%--%%&&@@@@..                    ",
"                  ..@@$$%%####..##@@%%--..                      ",
"                  ..@@$$%%####..##@@%%--..                      ",
"                    ##==##..    ..####==##                      ",
"                    ##==##..    ..####==##                      ",
"                    ####              ####                      ",
"                    ####              ####                      ",
"                                                                ",
"                                                                ",
"                                                                ",
"                                                                "};
