/* XPM */
static char * phylaliFace2_xpm[] = {
"64 64 12 1",
" 	c None",
".	c #503018",
"+	c #489050",
"@	c #60A060",
"#	c #986830",
"$	c #101010",
"%	c #80C060",
"&	c #A88850",
"*	c #D8B858",
"=	c #705020",
"-	c #F0D8A0",
";	c #D0E0E8",
"                                                                ",
"                                                                ",
"                                                                ",
"                                                                ",
"                                                                ",
"                                                                ",
"                                                                ",
"                                                                ",
"                                                                ",
"                                                                ",
"                                                                ",
"                                                                ",
"                              ......                            ",
"                              ......                            ",
"                              ..++@@..                          ",
"                              ..++@@..                          ",
"                                ..@@@@..                        ",
"                                ..@@@@..                        ",
"                              ....@@@@..                        ",
"                              ....@@@@..                        ",
"                            ..++++@@..                          ",
"                            ..++++@@..                          ",
"                            ..++##..                            ",
"                            ..++##..                            ",
"                          $$$$##....                            ",
"                          $$$$##....                            ",
"            ......      ..$$%%$$&&&&..      ......              ",
"            ......      ..$$%%$$&&&&..      ......              ",
"            ..%%%%..  ..&&$$@@%%$$..&&..  ..%%%%..              ",
"            ..%%%%..  ..&&$$@@%%$$..&&..  ..%%%%..              ",
"              ..@@%%$$....**$$%%..**....$$%%@@..                ",
"              ..@@%%$$....**$$%%..**....$$%%@@..                ",
"              ..@@@@%%$$****..@@%%..**$$%%@@@@..                ",
"              ..@@@@%%$$****..@@%%..**$$%%@@@@..                ",
"                $$==%%..****##@@%%..**..%%==$$                  ",
"                $$==%%..****##@@%%..**..%%==$$                  ",
"                $$==@@--##--**@@@@..##--@@==$$                  ",
"                $$==@@--##--**@@@@..##--@@==$$                  ",
"                  $$==--**--**@@##--**--==$$                    ",
"                  $$==--**--**@@##--**--==$$                    ",
"                ..&&$$**------##------**$$&&..                  ",
"                ..&&$$**------##------**$$&&..                  ",
"                  ..**==**----------**==**..                    ",
"                  ..**==**----------**==**..                    ",
"                  $$&&..;;##------##;;..&&$$                    ",
"                  $$&&..;;##------##;;..&&$$                    ",
"                    $$**$$==******==$$**$$                      ",
"                    $$**$$==******==$$**$$                      ",
"                    ..$$****------****$$..                      ",
"                    ..$$****------****$$..                      ",
"                    ..##$$$$**##**$$$$##..                      ",
"                    ..##$$$$**##**$$$$##..                      ",
"                      ..++##$$$$$$&&&&..                        ",
"                      ..++##$$$$$$&&&&..                        ",
"                      ....##....##&&++..                        ",
"                      ....##....##&&++..                        ",
"                        $$$$    ..==..                          ",
"                        $$$$    ..==..                          ",
"                                  $$$$                          ",
"                                  $$$$                          ",
"                                                                ",
"                                                                ",
"                                                                ",
"                                                                "};
