/* XPM */
static char * pyroliLeft2_xpm[] = {
"64 64 12 1",
" 	c None",
".	c #987830",
"+	c #483828",
"@	c #E8D898",
"#	c #984028",
"$	c #D8A848",
"%	c #101010",
"&	c #D85820",
"*	c #F88048",
"=	c #504040",
"-	c #C04020",
";	c #E8E8F8",
"                                                                ",
"                                                                ",
"                                                                ",
"                                                                ",
"                                                                ",
"                                                                ",
"                                                                ",
"                                                                ",
"                                                                ",
"                                                                ",
"                                                                ",
"                                                                ",
"                                                                ",
"                                                                ",
"                                                                ",
"                                                                ",
"                                                                ",
"                                                                ",
"                                                                ",
"                                                                ",
"                                                                ",
"                                                                ",
"                    ..++        ++++++                          ",
"                    ..++        ++++++                          ",
"                    ..@@++  ++++####++                          ",
"                    ..@@++  ++++####++                          ",
"                ++..@@@@++++######++                            ",
"                ++..@@@@++++######++                            ",
"              ++$$@@@@@@++########++                            ",
"              ++$$@@@@@@++########++                            ",
"            ++@@@@@@@@$$++######++%%%%%%%%  ++++++++            ",
"            ++@@@@@@@@$$++######++%%%%%%%%  ++++++++            ",
"            ++@@@@@@@@..&&&&%%%%******&&%%++$$$$@@@@++          ",
"            ++@@@@@@@@..&&&&%%%%******&&%%++$$$$@@@@++          ",
"            ++@@@@@@..****++******==++%%$$@@@@@@@@++            ",
"            ++@@@@@@..****++******==++%%$$@@@@@@@@++            ",
"              ++....**********======##%%@@@@@@@@@@@@++++        ",
"              ++....**********======##%%@@@@@@@@@@@@++++        ",
"              ##************======##%%$$@@@@@@@@@@@@@@$$++      ",
"              ##************======##%%$$@@@@@@@@@@@@@@$$++      ",
"            ++&&****++--********##%%..$$$$@@@@@@@@@@@@$$++      ",
"            ++&&****++--********##%%..$$$$@@@@@@@@@@@@$$++      ",
"            ++****;;%%++****##++%%$$..$$$$@@@@@@@@@@@@@@++++++  ",
"            ++****;;%%++****##++%%$$..$$$$@@@@@@@@@@@@@@++++++  ",
"            ++&&**%%++**&&&&&&--++$$$$++$$$$@@@@@@@@@@@@$$$$++  ",
"            ++&&**%%++**&&&&&&--++$$$$++$$$$@@@@@@@@@@@@$$$$++  ",
"              ++++&&&&&&&&++++++$$$$$$++$$$$$$@@@@@@@@@@$$++    ",
"              ++++&&&&&&&&++++++$$$$$$++$$$$$$@@@@@@@@@@$$++    ",
"                  ++%%%%++++@@@@$$$$++--++$$$$$$$$$$$$$$++      ",
"                  ++%%%%++++@@@@$$$$++--++$$$$$$$$$$$$$$++      ",
"                  ..$$@@@@@@$$$$%%%%##--++%%$$$$..%%%%++        ",
"                  ..$$@@@@@@$$$$%%%%##--++%%$$$$..%%%%++        ",
"                  ++$$@@$$@@..%%####------++%%%%%%              ",
"                  ++$$@@$$@@..%%####------++%%%%%%              ",
"                    %%$$$$++####++++----##++                    ",
"                    %%$$$$++####++++----##++                    ",
"                      ++++%%##++  ++++++##%%                    ",
"                      ++++%%##++  ++++++##%%                    ",
"                          %%%%        %%%%                      ",
"                          %%%%        %%%%                      ",
"                                                                ",
"                                                                ",
"                                                                ",
"                                                                "};
