/* XPM */
static char * pyroliFace2_xpm[] = {
"64 64 12 1",
" 	c None",
".	c #483828",
"+	c #D8A848",
"@	c #E8D898",
"#	c #000000",
"$	c #F88048",
"%	c #987830",
"&	c #D85820",
"*	c #984028",
"=	c #504040",
"-	c #D8C0C0",
";	c #C04020",
"                                                                ",
"                                                                ",
"                                                                ",
"                                                                ",
"                                                                ",
"                                                                ",
"                                                                ",
"                                                                ",
"                                                                ",
"                                                                ",
"                                                                ",
"                                                                ",
"                                                                ",
"                                                                ",
"                            ........                            ",
"                            ........                            ",
"                          ..++@@@@..                            ",
"                          ..++@@@@..                            ",
"                      ....@@@@++..                              ",
"                      ....@@@@++..                              ",
"                    ..@@..@@@@@@@@..                            ",
"                    ..@@..@@@@@@@@..                            ",
"                    ..@@@@@@@@@@@@@@..                          ",
"                    ..@@@@@@@@@@@@@@..                          ",
"                  ..++@@@@@@@@@@@@++..                          ",
"                  ..++@@@@@@@@@@@@++..                          ",
"              ####..++++@@@@++####++++..    ####                ",
"              ####..++++@@@@++####++++..    ####                ",
"              ..$$..##++++..##@@##..%%..##..$$..                ",
"              ..$$..##++++..##@@##..%%..##..$$..                ",
"              ..&&**$$##..&&++@@..&&..##$$**&&..                ",
"              ..&&**$$##..&&++@@..&&..##$$**&&..                ",
"                ..&&$$##&&..@@@@@@..&&##$$&&..                  ",
"                ..&&$$##&&..@@@@@@..&&##$$&&..                  ",
"                ##==&&$$**..@@@@@@@@..$$&&==##                  ",
"                ##==&&$$**..@@@@@@@@..$$&&==##                  ",
"                ##====$$##++@@@@@@@@##$$====##                  ",
"                ##====$$##++@@@@@@@@##$$====##                  ",
"                  ##==&&##++@@@@@@++##&&==##                    ",
"                  ##==&&##++@@@@@@++##&&==##                    ",
"                  ..##&&##++++@@++++##&&##..                    ",
"                  ..##&&##++++@@++++##&&##..                    ",
"                ..##&&....##++++++##....&&##..                  ",
"                ..##&&....##++++++##....&&##..                  ",
"                ..%%&&##--**####..**--##&&%%..                  ",
"                ..%%&&##--**####..**--##&&%%..                  ",
"                ..++##&&##&&$$$$$$&&##&&##++..                  ",
"                ..++##&&##&&$$$$$$&&##&&##++..                  ",
"                ..++++##&&&&&&$$&&&&&&##++++..                  ",
"                ..++++##&&&&&&$$&&&&&&##++++..                  ",
"                  ..@@++####&&;;&&####++@@..                    ",
"                  ..@@++####&&;;&&####++@@..                    ",
"                  ..++@@@@++######++@@@@++..                    ",
"                  ..++@@@@++######++@@@@++..                    ",
"                    ..##@@@@++++++@@@@%%..                      ",
"                    ..##@@@@++++++@@@@%%..                      ",
"                      ..####......;;;;##                        ",
"                      ..####......;;;;##                        ",
"                                  ####                          ",
"                                  ####                          ",
"                                                                ",
"                                                                ",
"                                                                ",
"                                                                "};
