/* XPM */
static char * voltaliDos2_xpm[] = {
"64 64 10 1",
" 	c None",
".	c #403828",
"+	c #F8F850",
"@	c #F8C818",
"#	c #E8A020",
"$	c #101010",
"%	c #484050",
"&	c #D0E0E8",
"*	c #A8A8C0",
"=	c #A86820",
"                                                                ",
"                                                                ",
"                                                                ",
"                                                                ",
"                                                                ",
"                                                                ",
"                                                                ",
"                                                                ",
"                                                                ",
"                                                                ",
"                                                                ",
"                                                                ",
"                                                                ",
"                                                                ",
"                ....          ....            ....              ",
"                ....          ....            ....              ",
"              ....++..      ..@@......      ..++....            ",
"              ....++..      ..@@......      ..++....            ",
"              ..++++++..  ....@@@@..@@..  ..++++++..            ",
"              ..++++++..  ....@@@@..@@..  ..++++++..            ",
"                ..##++++..@@@@++++++@@@@..++++##..              ",
"                ..##++++..@@@@++++++@@@@..++++##..              ",
"                $$@@++++++..++++++++++..++++++@@$$              ",
"                $$@@++++++..++++++++++..++++++@@$$              ",
"                  $$@@++++##++++++++++##++++@@$$                ",
"                  $$@@++++##++++++++++##++++@@$$                ",
"                    $$@@@@++++++++++++++@@@@$$                  ",
"                    $$@@@@++++++++++++++@@@@$$                  ",
"                    ..$$@@%%%%++%%++%%%%@@$$..                  ",
"                    ..$$@@%%%%++%%++%%%%@@$$..                  ",
"                    $$@@%%%%&&%%&&%%&&%%%%@@$$                  ",
"                    $$@@%%%%&&%%&&%%&&%%%%@@$$                  ",
"                      %%&&******&&******&&%%                    ",
"                      %%&&******&&******&&%%                    ",
"                  %%%%****&&**%%%%%%**&&****%%%%                ",
"                  %%%%****&&**%%%%%%**&&****%%%%                ",
"                  %%&&&&**%%%%++++++%%%%**&&&&%%                ",
"                  %%&&&&**%%%%++++++%%%%**&&&&%%                ",
"                    %%%%%%@@@@++++++@@@@..**%%                  ",
"                    %%%%%%@@@@++++++@@@@..**%%                  ",
"                      ..@@@@++@@++@@++@@@@%%                    ",
"                      ..@@@@++@@++@@++@@@@%%                    ",
"                    ..@@@@@@++@@..@@++@@@@@@%%                  ",
"                    ..@@@@@@++@@..@@++@@@@@@%%                  ",
"                      ..@@..++..==..++..@@%%                    ",
"                      ..@@..++..==..++..@@%%                    ",
"                    ..@@@@..++..==..++..@@@@..                  ",
"                    ..@@@@..++..==..++..@@@@..                  ",
"                    ..@@..==..======..==..@@..                  ",
"                    ..@@..==..======..==..@@..                  ",
"                    ....$$##==......==##==....                  ",
"                    ....$$##==......==##==....                  ",
"                        $$==$$..  ..==##$$                      ",
"                        $$==$$..  ..==##$$                      ",
"                          $$$$      $$==$$                      ",
"                          $$$$      $$==$$                      ",
"                                    $$$$                        ",
"                                    $$$$                        ",
"                                                                ",
"                                                                ",
"                                                                ",
"                                                                ",
"                                                                ",
"                                                                "};
