/* XPM */
static char * voltaliFace2_xpm[] = {
"64 64 11 1",
" 	c None",
".	c #403828",
"+	c #F8C818",
"@	c #A86820",
"#	c #101010",
"$	c #E8A020",
"%	c #F8F850",
"&	c #484050",
"*	c #E8E8F8",
"=	c #A8A8C0",
"-	c #D0E0E8",
"                                                                ",
"                                                                ",
"                                                                ",
"                                                                ",
"                                                                ",
"                                                                ",
"                                                                ",
"                                                                ",
"                                                                ",
"                                                                ",
"                                                                ",
"                                                                ",
"                                                                ",
"                                                                ",
"                          ....      ....                        ",
"                          ....      ....                        ",
"                          ..++..  ..++..                        ",
"                          ..++..  ..++..                        ",
"                      ....@@++@@..@@++@@..                      ",
"                      ....@@++@@..@@++@@..                      ",
"                      ..++@@++++@@++++@@++..                    ",
"                      ..++@@++++@@++++@@++..                    ",
"                  ..##..++$$++++$$++++$$++..##..                ",
"                  ..##..++$$++++$$++++$$++..##..                ",
"                  ..%%##$$++++....++++++$$##%%..                ",
"                  ..%%##$$++++....++++++$$##%%..                ",
"                  ##%%##..++..++......++..##%%##                ",
"                  ##%%##..++..++......++..##%%##                ",
"                ....++%%##....++++..++..##%%++....              ",
"                ....++%%##....++++..++..##%%++....              ",
"                ##$$&&%%##++++%%%%%%++++##%%&&$$##              ",
"                ##$$&&%%##++++%%%%%%++++##%%&&$$##              ",
"                  ..&&$$%%..%%%%%%%%%%..%%$$&&..                ",
"                  ..&&$$%%..%%%%%%%%%%..%%$$&&..                ",
"                  ##&&&&%%@@%%%%%%%%%%@@%%&&&&##                ",
"                  ##&&&&%%@@%%%%%%%%%%@@%%&&&&##                ",
"                    ##&&%%++%%%%%%%%%%++++&&##                  ",
"                    ##&&%%++%%%%%%%%%%++++&&##                  ",
"                    ..@@++%%%%%%%%%%%%%%++@@..                  ",
"                    ..@@++%%%%%%%%%%%%%%++@@..                  ",
"                    ##$$..@@%%++%%++%%@@..$$##                  ",
"                    ##$$..@@%%++%%++%%@@..$$##                  ",
"                  &&##$$..**$$++%%++$$**..$$##&&                ",
"                  &&##$$..**$$++%%++$$**..$$##&&                ",
"                  &&==..++##@@%%%%%%@@##++..==&&                ",
"                  &&==..++##@@%%%%%%@@##++..==&&                ",
"                    &&==##++%%%%%%%%%%++##==&&                  ",
"                    &&==##++%%%%%%%%%%++##==&&                  ",
"                    &&====####++@@++####====&&                  ",
"                    &&====####++@@++####====&&                  ",
"                      &&--====######====--&&                    ",
"                      &&--====######====--&&                    ",
"                      &&##&&--==--==--&&&&&&                    ",
"                      &&##&&--==--==--&&&&&&                    ",
"                          ####&&&&&&$$$$##                      ",
"                          ####&&&&&&$$$$##                      ",
"                                    ####                        ",
"                                    ####                        ",
"                                                                ",
"                                                                ",
"                                                                ",
"                                                                ",
"                                                                ",
"                                                                "};
