/* XPM */
static char * evolution1_xpm[] = {
"64 64 2 1",
" 	c None",
".	c #FFFFFF",
"                                                                ",
"                                                                ",
"                                                                ",
"                                                                ",
"                                                                ",
"                                                                ",
"                                                                ",
"                                                                ",
"                                                                ",
"                                                                ",
"                                                                ",
"                                                                ",
"                                                                ",
"                                                                ",
"                                                                ",
"                                                                ",
"                                                                ",
"                                                                ",
"                                                                ",
"                                                                ",
"                                                                ",
"                                                                ",
"                                                                ",
"                                                                ",
"                                                                ",
"                                                                ",
"                                                                ",
"                                                                ",
"                ......        ....  ....    ......              ",
"                ......        ....  ....    ......              ",
"                ..........  ......................              ",
"                ..........  ......................              ",
"                  ..............................                ",
"                  ..............................                ",
"                  ..............................                ",
"                  ..............................                ",
"                    ..........................                  ",
"                    ..........................                  ",
"                      ......................                    ",
"                      ......................                    ",
"                      ......................                    ",
"                      ......................                    ",
"                      ......................                    ",
"                      ......................                    ",
"                    ..........................                  ",
"                    ..........................                  ",
"                    ..........................                  ",
"                    ..........................                  ",
"                    ..........................                  ",
"                    ..........................                  ",
"                      ......................                    ",
"                      ......................                    ",
"                        ..................                      ",
"                        ..................                      ",
"                        ................                        ",
"                        ................                        ",
"                          ............                          ",
"                          ............                          ",
"                            ....                                ",
"                            ....                                ",
"                                                                ",
"                                                                ",
"                                                                ",
"                                                                "};
