/* XPM */
static char * ectoplasma0_xpm[] = {
"64 64 10 1",
" 	c None",
".	c #282838",
"+	c #000000",
"@	c #9078A0",
"#	c #685080",
"$	c #503868",
"%	c #D86060",
"&	c #F8A8A0",
"*	c #989898",
"=	c #B8B8B8",
"                                                                ",
"                                                                ",
"                                                                ",
"                                                                ",
"                                                                ",
"                                                                ",
"   ......                  .......                     ......   ",
"   ......                  .......                     ......   ",
"   ......                  .......                     ......   ",
"   +++@@@++++++      .........@@@@.........      ++++++@@@+++   ",
"   +++@@@++++++      .........@@@@.........      ++++++@@@+++   ",
"   +++@@@++++++      .........@@@@.........      ++++++@@@+++   ",
"   +++###@@@###++++++###@@@...@@@@###@@@###++++++###@@@###+++   ",
"   +++###@@@###++++++###@@@...@@@@###@@@###++++++###@@@###+++   ",
"   +++###@@@###++++++###@@@...@@@@###@@@###++++++###@@@###+++   ",
"      +++###@@@###@@@+++###@@@@@@@@@@@@@+++@@@###@@@###+++      ",
"      +++###@@@###@@@+++###@@@@@@@@@@@@@+++@@@###@@@###+++      ",
"      +++###@@@###@@@+++###@@@@@@@@@@@@@+++@@@###@@@###+++      ",
"      +++######@@@@@@@@@@@@@@@@@@@@@@@@@@@@@@@@@@######+++      ",
"      +++######@@@@@@@@@@@@@@@@@@@@@@@@@@@@@@@@@@######+++      ",
"      +++######@@@@@@@@@@@@@@@@@@@@@@@@@@@@@@@@@@######+++      ",
"         +++###@@@@@@@@@@@@@@@@@@@@@@@@@@@@@@@@@@###+++         ",
"         +++###@@@@@@@@@@@@@@@@@@@@@@@@@@@@@@@@@@###+++         ",
"         +++###@@@@@@@@@@@@@@@@@@@@@@@@@@@@@@@@@@###+++         ",
"         ...+++###@@@@@@@@@@@@@@@@@@@@@@@@@@@@###+++...         ",
"         ...+++###@@@@@@@@@@@@@@@@@@@@@@@@@@@@###+++...         ",
"         ...+++###@@@@@@@@@@@@@@@@@@@@@@@@@@@@###+++...         ",
"      .........######@@@@@@@@@@@@@@@@@@@@@@######......         ",
"      .........######@@@@@@@@@@@@@@@@@@@@@@######......         ",
"      .........######@@@@@@@@@@@@@@@@@@@@@@######......         ",
"   ...$$$############@@@@@@@@@@@@@@@@@@@@@@############...      ",
"   ...$$$############@@@@@@@@@@@@@@@@@@@@@@############...      ",
"   ...$$$############@@@@@@@@@@@@@@@@@@@@@@############...      ",
"...@@@@@@@@@######%%%######@@@@@@@@@@######%%%######@@@@@@...   ",
"...@@@@@@@@@######%%%######@@@@@@@@@@######%%%######@@@@@@...   ",
"...@@@@@@@@@######%%%######@@@@@@@@@@######%%%######@@@@@@...   ",
"...@@@@@@@@@######%%%######@@@@@@@@@@######%%%######@@@@@@...   ",
"+++$$$############%%%&&&################&&&%%%#########@@@@@@...",
"+++$$$############%%%&&&################&&&%%%#########@@@@@@...",
"+++$$$############%%%&&&################&&&%%%#########@@@@@@...",
"   +++++++++######%%%+++&&&##########&&&+++%%%######+++######+++",
"   +++++++++######%%%+++&&&##########&&&+++%%%######+++######+++",
"   +++++++++######%%%+++&&&##########&&&+++%%%######+++######+++",
"         ...###***$$$$$$%%%$$$$$$$$$$%%%$$$$$$***###+++++++++   ",
"         ...###***$$$$$$%%%$$$$$$$$$$%%%$$$$$$***###+++++++++   ",
"         ...###***$$$$$$%%%$$$$$$$$$$%%%$$$$$$***###+++++++++   ",
"         ...######***===***===****===***===***###$$$+++         ",
"         ...######***===***===****===***===***###$$$+++         ",
"         ...######***===***===****===***===***###$$$+++         ",
"            +++######===***===****===***===######+++            ",
"            +++######===***===****===***===######+++            ",
"            +++######===***===****===***===######+++            ",
"            ...+++######################$$$$$$$$$...            ",
"            ...+++######################$$$$$$$$$...            ",
"            ...+++######################$$$$$$$$$...            ",
"            ...$$$$$$$$$################...$$$$$$+++            ",
"            ...$$$$$$$$$################...$$$$$$+++            ",
"            ...$$$$$$$$$################...$$$$$$+++            ",
"            +++$$$$$$...+++++++++++++++++++++++++               ",
"            +++$$$$$$...+++++++++++++++++++++++++               ",
"            +++$$$$$$...+++++++++++++++++++++++++               ",
"               +++++++++                                        ",
"               +++++++++                                        ",
"               +++++++++                                        "};
