/* XPM */
static char * ectoplasma5_xpm[] = {
"64 64 11 1",
" 	c None",
".	c #282838",
"+	c #685080",
"@	c #503868",
"#	c #9078A0",
"$	c #101010",
"%	c #F8A8A0",
"&	c #D86060",
"*	c #989898",
"=	c #606060",
"-	c #B8B8B8",
"                                                                ",
"                                                                ",
"                                                                ",
"                                                                ",
"                                     ......                     ",
"                                     ......                     ",
"                                     ......                     ",
"                               ......+++...                     ",
"                               ......+++...                     ",
"                               ......+++...                     ",
"                   .........@@@@@@@@@@@@...                     ",
"                   .........@@@@@@@@@@@@...                     ",
"                   .........@@@@@@@@@@@@...                     ",
"             .........###......@@@@@@...                        ",
"             .........###......@@@@@@...                        ",
"             .........###......@@@@@@...                        ",
"             ...###...###+++@@@$$$$$$$$$...                     ",
"             ...###...###+++@@@$$$$$$$$$...                     ",
"             ...###...###+++@@@$$$$$$$$$...                     ",
"          $$$###+++++++++...$$$######$$$@@@...                  ",
"          $$$###+++++++++...$$$######$$$@@@...                  ",
"          $$$###+++++++++...$$$######$$$@@@...                  ",
"       $$$#########@@@...#########@@@$$$@@@@@@...               ",
"       $$$#########@@@...#########@@@$$$@@@@@@...               ",
"       $$$#########@@@...#########@@@$$$@@@@@@...               ",
"       $$$#####################+++$$$...@@@@@@......            ",
"       $$$#####################+++$$$...@@@@@@......            ",
"       $$$#####################+++$$$...@@@@@@......            ",
"    $$$+++##################+++@@@$$$@@@@@@@@@@@@...            ",
"    $$$+++##################+++@@@$$$@@@@@@@@@@@@...            ",
"    $$$+++##################+++@@@$$$@@@@@@@@@@@@...            ",
"    $$$++++++#########++++++@@@......@@@@@@......               ",
"    $$$++++++#########++++++@@@......@@@@@@......               ",
"    $$$++++++#########++++++@@@......@@@@@@......               ",
"    $$$+++++++++++++++++++++++++++@@@+++@@@@@@......            ",
"    $$$+++++++++++++++++++++++++++@@@+++@@@@@@......            ",
"    $$$+++++++++++++++++++++++++++@@@+++@@@@@@......            ",
"    $$$+++++++++%%%&&&+++++++++++++++@@@@@@@@@@@@...            ",
"    $$$+++++++++%%%&&&+++++++++++++++@@@@@@@@@@@@...            ",
"    $$$+++++++++%%%&&&+++++++++++++++@@@@@@@@@@@@...            ",
"    ...***+++$$$&&&&&&++++++++++++@@@+++@@@@@@...               ",
"    ...***+++$$$&&&&&&++++++++++++@@@+++@@@@@@...               ",
"    ...***+++$$$&&&&&&++++++++++++@@@+++@@@@@@...               ",
"       ===---...&&&+++++++++######+++...@@@@@@@@@...            ",
"       ===---...&&&+++++++++######+++...@@@@@@@@@...            ",
"       ===---...&&&+++++++++######+++...@@@@@@@@@...            ",
"       $$$---***---******...#########$$$@@@@@@......            ",
"       $$$---***---******...#########$$$@@@@@@......            ",
"       $$$---***---******...#########$$$@@@@@@......            ",
"          $$$***---***++++++$$$###+++$$$@@@@@@@@@$$$$$$         ",
"          $$$***---***++++++$$$###+++$$$@@@@@@@@@$$$$$$         ",
"          $$$***---***++++++$$$###+++$$$@@@@@@@@@$$$$$$         ",
"             ...@@@+++++++++...$$$$$$@@@@@@@@@@@@@@@$$$         ",
"             ...@@@+++++++++...$$$$$$@@@@@@@@@@@@@@@$$$         ",
"             ...@@@+++++++++...$$$$$$@@@@@@@@@@@@@@@$$$         ",
"                ...++++++@@@...@@@@@@............$$$            ",
"                ...++++++@@@...@@@@@@............$$$            ",
"                ...++++++@@@...@@@@@@............$$$            ",
"                $$$@@@@@@@@@$$$......                           ",
"                $$$@@@@@@@@@$$$......                           ",
"                $$$@@@@@@@@@$$$......                           ",
"                   $$$$$$$$$                                    ",
"                   $$$$$$$$$                                    ",
"                   $$$$$$$$$                                    "};
