/* XPM */
static char * ectoplasma3_xpm[] = {
"64 64 6 1",
" 	c None",
".	c #282838",
"+	c #000000",
"@	c #9078A0",
"#	c #685080",
"$	c #503868",
"                                                                ",
"                                                                ",
"                                                                ",
"                                                                ",
"                                                                ",
"                                                                ",
"   ......                  .......                     ......   ",
"   ......                  .......                     ......   ",
"   ......                  .......                     ......   ",
"   +++@@@++++++      .........@@@@.........      ++++++@@@+++   ",
"   +++@@@++++++      .........@@@@.........      ++++++@@@+++   ",
"   +++@@@++++++      .........@@@@.........      ++++++@@@+++   ",
"   +++@@@@@@###++++++###@@@...@@@@###@@@###++++++###@@@@@@+++   ",
"   +++@@@@@@###++++++###@@@...@@@@###@@@###++++++###@@@@@@+++   ",
"   +++@@@@@@###++++++###@@@...@@@@###@@@###++++++###@@@@@@+++   ",
"      +++@@@@@@###@@@+++###@@@@@@@@@@@@@+++@@@###@@@@@@+++      ",
"      +++@@@@@@###@@@+++###@@@@@@@@@@@@@+++@@@###@@@@@@+++      ",
"      +++@@@@@@###@@@+++###@@@@@@@@@@@@@+++@@@###@@@@@@+++      ",
"      +++###@@@@@@@@@@@@@@@@@@@@@@@@@@@@@@@@@@@@@@@@###+++      ",
"      +++###@@@@@@@@@@@@@@@@@@@@@@@@@@@@@@@@@@@@@@@@###+++      ",
"      +++###@@@@@@@@@@@@@@@@@@@@@@@@@@@@@@@@@@@@@@@@###+++      ",
"         +++###@@@@@@@@@@@@@@@@@@@@@@@@@@@@@@@@@@###+++         ",
"         +++###@@@@@@@@@@@@@@@@@@@@@@@@@@@@@@@@@@###+++         ",
"         +++###@@@@@@@@@@@@@@@@@@@@@@@@@@@@@@@@@@###+++         ",
"         ...+++###@@@@@@@@@@@@@@@@@@@@@@@@@@@@###+++...         ",
"         ...+++###@@@@@@@@@@@@@@@@@@@@@@@@@@@@###+++...         ",
"         ...+++###@@@@@@@@@@@@@@@@@@@@@@@@@@@@###+++...         ",
"      .........######@@@@@@###@@@@###@@@@@@######......         ",
"      .........######@@@@@@###@@@@###@@@@@@######......         ",
"      .........######@@@@@@###@@@@###@@@@@@######......         ",
"   ...$$$#########$$$@@@###$$$@@@@$$$###@@@$$$#########...      ",
"   ...$$$#########$$$@@@###$$$@@@@$$$###@@@$$$#########...      ",
"   ...$$$#########$$$@@@###$$$@@@@$$$###@@@$$$#########...      ",
"...@@@@@@@@@#########$$$######$$$$######$$$#########@@@@@@...   ",
"...@@@@@@@@@#########$$$######$$$$######$$$#########@@@@@@...   ",
"...@@@@@@@@@#########$$$######$$$$######$$$#########@@@@@@...   ",
"...@@@@@@@@@#########$$$######$$$$######$$$#########@@@@@@...   ",
"+++#########$$$###$$$@@@######@@@@######@@@$$$###$$$###@@@@@@...",
"+++#########$$$###$$$@@@######@@@@######@@@$$$###$$$###@@@@@@...",
"+++#########$$$###$$$@@@######@@@@######@@@$$$###$$$###@@@@@@...",
"   +++++++++$$$###$$$$$$###$$$@@@@$$$###$$$$$$###$$$+++######+++",
"   +++++++++$$$###$$$$$$###$$$@@@@$$$###$$$$$$###$$$+++######+++",
"   +++++++++$$$###$$$$$$###$$$@@@@$$$###$$$$$$###$$$+++######+++",
"         ...$$$######$$$$$$###$$$$###$$$$$$######$$$...++++++   ",
"         ...$$$######$$$$$$###$$$$###$$$$$$######$$$...++++++   ",
"         ...$$$######$$$$$$###$$$$###$$$$$$######$$$...++++++   ",
"         ...$$$$$$###$$$###$$$+++++++###$$$###$$$$$$...         ",
"         ...$$$$$$###$$$###$$$+++++++###$$$###$$$$$$...         ",
"         ...$$$$$$###$$$###$$$+++++++###$$$###$$$$$$...         ",
"            +++$$$$$$$$$$$$+++####+++$$$$$$$$$$$$$$$            ",
"            +++$$$$$$$$$$$$+++####+++$$$$$$$$$$$$$$$            ",
"            +++$$$$$$$$$$$$+++####+++$$$$$$$$$$$$$$$            ",
"            ...$$$$$$......##########...$$$$$$+++...            ",
"            ...$$$$$$......##########...$$$$$$+++...            ",
"            ...$$$$$$......##########...$$$$$$+++...            ",
"            +++$$$$$$$$$+++##########+++...$$$$$$...            ",
"            +++$$$$$$$$$+++##########+++...$$$$$$...            ",
"            +++$$$$$$$$$+++##########+++...$$$$$$...            ",
"               +++++++++...++++++++++...$$$$$$$$$+++            ",
"               +++++++++...++++++++++...$$$$$$$$$+++            ",
"               +++++++++...++++++++++...$$$$$$$$$+++            ",
"                                        +++++++++               ",
"                                        +++++++++               ",
"                                        +++++++++               "};
