/* XPM */
static char * ectoplasma3_xpm[] = {
"64 64 6 1",
" 	c None",
".	c #282838",
"+	c #101010",
"@	c #9078A0",
"#	c #685080",
"$	c #503868",
"                                                                ",
"                                                                ",
"                                                                ",
"                                                                ",
"                                                                ",
"                                                                ",
"   ......                  .......                     ......   ",
"   ......                  .......                     ......   ",
"   ......                  .......                     ......   ",
"   +++@@@++++++      .........@@@@.........      ++++++@@@+++   ",
"   +++@@@++++++      .........@@@@.........      ++++++@@@+++   ",
"   +++@@@++++++      .........@@@@.........      ++++++@@@+++   ",
"   +++@@@@@@###++++++###@@@...@@@@###@@@###++++++###@@@@@@+++   ",
"   +++@@@@@@###++++++###@@@...@@@@###@@@###++++++###@@@@@@+++   ",
"   +++@@@@@@###++++++###@@@...@@@@###@@@###++++++###@@@@@@+++   ",
"      +++@@@@@@###@@@+++###@@@@@@@@@@@@@+++@@@###@@@@@@+++      ",
"      +++@@@@@@###@@@+++###@@@@@@@@@@@@@+++@@@###@@@@@@+++      ",
"      +++@@@@@@###@@@+++###@@@@@@@@@@@@@+++@@@###@@@@@@+++      ",
"      +++###@@@@@@@@@@@@@@@@@@@@@@@@@@@@@@@@@@@@@@@@###+++      ",
"      +++###@@@@@@@@@@@@@@@@@@@@@@@@@@@@@@@@@@@@@@@@###+++      ",
"      +++###@@@@@@@@@@@@@@@@@@@@@@@@@@@@@@@@@@@@@@@@###+++      ",
"         +++###@@@@@@@@@@@@@@@@@@@@@@@@@@@@@@@@@@###+++         ",
"         +++###@@@@@@@@@@@@@@@@@@@@@@@@@@@@@@@@@@###+++         ",
"         +++###@@@@@@@@@@@@@@@@@@@@@@@@@@@@@@@@@@###+++         ",
"         ...+++###@@@@@@@@@@@@@@@@@@@@@@@@@@@@###+++...         ",
"         ...+++###@@@@@@@@@@@@@@@@@@@@@@@@@@@@###+++...         ",
"         ...+++###@@@@@@@@@@@@@@@@@@@@@@@@@@@@###+++...         ",
"      .........######@@@@@@###@@@@###@@@@@@######......         ",
"      .........######@@@@@@###@@@@###@@@@@@######......         ",
"      .........######@@@@@@###@@@@###@@@@@@######......         ",
"   ...$$$#########$$$@@@###$$$@@@@$$$###@@@$$$#########...      ",
"   ...$$$#########$$$@@@###$$$@@@@$$$###@@@$$$#########...      ",
"   ...$$$#########$$$@@@###$$$@@@@$$$###@@@$$$#########...      ",
"...@@@@@@@@@#########$$$######$$$$######$$$#########@@@@@@...   ",
"...@@@@@@@@@#########$$$######$$$$######$$$#########@@@@@@...   ",
"...@@@@@@@@@#########$$$######$$$$######$$$#########@@@@@@...   ",
"...@@@@@@@@@#########$$$######$$$$######$$$#########@@@@@@...   ",
"+++#########$$$###$$$@@@######@@@@######@@@$$$###$$$###@@@@@@...",
"+++#########$$$###$$$@@@######@@@@######@@@$$$###$$$###@@@@@@...",
"+++#########$$$###$$$@@@######@@@@######@@@$$$###$$$###@@@@@@...",
"   +++++++++$$$###$$$$$$###$$$@@@@$$$###$$$$$$###$$$+++######+++",
"   +++++++++$$$###$$$$$$###$$$@@@@$$$###$$$$$$###$$$+++######+++",
"   +++++++++$$$###$$$$$$###$$$@@@@$$$###$$$$$$###$$$+++######+++",
"         ...$$$######$$$$$$###$$$$###$$$$$$######$$$...++++++   ",
"         ...$$$######$$$$$$###$$$$###$$$$$$######$$$...++++++   ",
"         ...$$$######$$$$$$###$$$$###$$$$$$######$$$...++++++   ",
"         ...$$$$$$###$$$###$$$+++++++###$$$###$$$$$$...         ",
"         ...$$$$$$###$$$###$$$+++++++###$$$###$$$$$$...         ",
"         ...$$$$$$###$$$###$$$+++++++###$$$###$$$$$$...         ",
"            +++$$$$$$$$$$$$+++####+++$$$$$$$$$$$$$$$            ",
"            +++$$$$$$$$$$$$+++####+++$$$$$$$$$$$$$$$            ",
"            +++$$$$$$$$$$$$+++####+++$$$$$$$$$$$$$$$            ",
"            ...$$$$$$......##########...$$$$$$+++...            ",
"            ...$$$$$$......##########...$$$$$$+++...            ",
"            ...$$$$$$......##########...$$$$$$+++...            ",
"            +++$$$$$$$$$+++##########+++...$$$$$$...            ",
"            +++$$$$$$$$$+++##########+++...$$$$$$...            ",
"            +++$$$$$$$$$+++##########+++...$$$$$$...            ",
"               +++++++++...++++++++++...$$$$$$$$$+++            ",
"               +++++++++...++++++++++...$$$$$$$$$+++            ",
"               +++++++++...++++++++++...$$$$$$$$$+++            ",
"                                        +++++++++               ",
"                                        +++++++++               ",
"                                        +++++++++               "};
