/* XPM */
static char * exit0_xpm[] = {
"64 64 9 1",
" 	c None",
".	c #E898",
"+	c #B06810",
"@	c #805810",
"#	c #F8F8F8",
"$	c #F8D048",
"%	c #1090F8",
"&	c #60B8F8",
"*	c #C0E0F8",
"                                                                ",
"                                                                ",
"                                                                ",
"                                                                ",
"                                                                ",
"                                                                ",
"                                                                ",
"                                                                ",
"                                                                ",
"                                                                ",
"                          ...++++++++@@@                        ",
"                          ...++++++++@@@                        ",
"                          ...++++++++@@@                        ",
"                       ...###$$$$$$$$...+++@@@                  ",
"                       ...###$$$$$$$$...+++@@@                  ",
"                       ...###$$$$$$$$...+++@@@                  ",
"                    +++###$$$++......+++@@@                     ",
"                    +++###$$$++......+++@@@                     ",
"                 +++...+++$$$..@@@@@@@@@+++@@@                  ",
"                 +++...+++$$$..@@@@@@@@@+++@@@                  ",
"                 +++...+++$$$..@@@@@@@@@+++@@@                  ",
"               ++$$$@@@%%%+++@@%%%&&&&&&@@@...@@                ",
"               ++$$$@@@%%%+++@@%%%&&&&&&@@@...@@                ",
"               ++$$$@@@%%%+++@@%%%&&&&&&@@@...@@                ",
"            +++$$@@@%%%%%%&&&**###******&&&@@@..@@@             ",
"            +++$$@@@%%%%%%&&&**###******&&&@@@..@@@             ",
"            +++$$@@@%%%%%%&&&**###******&&&@@@..@@@             ",
"            +++..@@@%%%&&&***##***###***###+++$$+++             ",
"            +++..@@@%%%&&&***##***###***###+++$$+++             ",
"            +++..@@@%%%&&&***##***###***###+++$$+++             ",
"         +++###$$%%%&&&***##############***&&&##$$$+++          ",
"         +++###$$%%%&&&***##############***&&&##$$$+++          ",
"         @@@...++%%%***##############***###&&&..+++@@@          ",
"         @@@...++%%%***##############***###&&&..+++@@@          ",
"         @@@...++%%%***##############***###&&&..+++@@@          ",
"         +++###$$@@@###***##############***+++##...+++          ",
"         +++###$$@@@###***##############***+++##...+++          ",
"         +++###$$@@@###***##############***+++##...+++          ",
"            +++..@@@&&&##############***&&&+++..@@@             ",
"            +++..@@@&&&##############***&&&+++..@@@             ",
"            +++..@@@&&&##############***&&&+++..@@@             ",
"               @@$$$+++&&&###**+++@@@&&&@@@...@@                ",
"               @@$$$+++&&&###**+++@@@&&&@@@...@@                ",
"               @@$$$+++&&&###**+++@@@&&&@@@...@@                ",
"                 @@@...++++++@@###...@@@+++@@@                  ",
"                 @@@...++++++@@###...@@@+++@@@                  ",
"                 @@@...++++++@@###...@@@+++@@@                  ",
"                    @@@+++###..+++$$$...@@@                     ",
"                    @@@+++###..+++$$$...@@@                     ",
"                 @@@+++$$$$$$$$$$$...@@@                        ",
"                 @@@+++$$$$$$$$$$$...@@@                        ",
"                 @@@+++$$$$$$$$$$$...@@@                        ",
"                       @@@@@@@@@@@@@@                           ",
"                       @@@@@@@@@@@@@@                           ",
"                       @@@@@@@@@@@@@@                           ",
"                                                                ",
"                                                                ",
"                                                                ",
"                                                                ",
"                                                                ",
"                                                                ",
"                                                                ",
"                                                                ",
"                                                                "};
