/* XPM */
static char * giratinaRight1_xpm[] = {
"64 64 13 1",
" 	c None",
".	c #605010",
"+	c #B09818",
"@	c #383838",
"#	c #282828",
"$	c #909090",
"%	c #B8B8B8",
"&	c #F8F8D0",
"*	c #E8D018",
"=	c #F05040",
"-	c #A83040",
";	c #101010",
">	c #505050",
"                                         ........    ...        ",
"                                         ........    ...        ",
"                                         ..++++++.....++.       ",
"                              @@@@         .+++++++++.+++..     ",
"                              @@@@         .+++++++++.+++..     ",
"                          ##@@@@@@@@        ..++@@@@@@..+..     ",
"                          ##@@@@@@@@        ..++@@@@@@..+..     ",
"                            ###@@@@@        ..##$%%...%%@++..   ",
"                               @@@@@@@      ##$$$%%..&..%@@++.  ",
"                               @@@@@@@      ##$$$%%..&..%@@++.  ",
"                     ####      @@@@@@@ .........$$$..&&&...++.  ",
"                  ###@@@@#       @@@@@ ..*******.....****....&..",
"                  ###@@@@#       @@@@@ ..*******.....****....&..",
"                ##==---@@@##     @@@@@   ..********...+++++***..",
"                ##==---@@@##     @@@@@   ..********...+++++***..",
"                #######@@@##     @@@@@     .*******&&*...@@@@+;;",
"                    #@@@@@##      @@@@     .;;**&&&***..=;;@@;;;",
"                    #@@@@@##      @@@@     .;;**&&&***..=;;@@;;;",
"                     ##@@@@@##    @@@@@    .;;**&&&*****-;;...  ",
"                     ##@@@@@##    @@@@@    .;;**&&&*****-;;...  ",
"             #####     ##@@@@@#     @@@@@##$;;;;;;;;;********+..",
"          #####@@@@@###  @@@@@@@@###@@;;;##$$$$$$@@@@;;;***...  ",
"          #####@@@@@###  @@@@@@@@###@@;;;##$$$$$$@@@@;;;***...  ",
"        ##=----@@@@@@@@##   @@@@@@@@##;++;;;$$$$$@@@@@;;...     ",
"        ##=----@@@@@@@@##   @@@@@@@@##;++;;;$$$$$@@@@@;;...     ",
"        #######@@@@@@@@@@###   @@@@@@@@;;+++..;;$$$@@@##        ",
"           ##@@@@@@@@@@@@@@@###   @@@@@@@;;+**..;;;;;;@@#       ",
"           ##@@@@@@@@@@@@@@@###   @@@@@@@;;+**..;;;;;;@@#       ",
"             ##@@@   ####@@@@@@@@######;;;;+*********;--#       ",
"             ##@@@   ####@@@@@@@@######;;;;+*********;--#       ",
"                         ###@@@@@@@@@@@;;++;****+;;;;---#       ",
"                  #######   ###@@@#####@@;;+;;;;;$$$$$@@@##     ",
"                  #######   ###@@@#####@@;;+;;;;;$$$$$@@@##     ",
"               ###@@@@@@@#########@@@@@##;;+*****;;;;;@@@##     ",
"           ####@@@@@@@@@@@@@@@@@@@@@###;;;;;++*******;--=;;     ",
"           ####@@@@@@@@@@@@@@@@@@@@@###;;;;;++*******;--=;;     ",
"          #==---@@@@@@@###@@@@@@@###   ;;++>@@;;;;;;;$--=;;     ",
"          #==---@@@@@@@###@@@@@@@###   ;;++>@@;;;;;;;$--=;;     ",
"          ######@@@@@##   #######     @@@;;+**>>>$$$$$@@@;;     ",
"   ####         #####               @@>$$;;+*****;;;;;@@@;;     ",
"   ####         #####               @@>$$;;+*****;;;;;@@@;;     ",
"   ..**.   ####                  @@@-->$$%%;++*******;===;;     ",
"   ..**.   ####                  @@@-->$$%%;++*******;===;;     ",
"@@@@@**+.. ##**.              @@@%>>-->>>%%%;;;;;;;;;@--=;;     ",
"@@%>>-->@@@@@**+..       @@@@@->>%>>--->>>>>%%%%$$$>>>@@;       ",
"@@%>>-->@@@@@**+..       @@@@@->>%>>--->>>>>%%%%$$$>>>@@;       ",
"  @>>-->%%%>>--@@@@@@@@@@%%%>>->>%%%>>----->>>>>>>>>>-@@        ",
"  @>>-->%%%>>--@@@@@@@@@@%%%>>->>%%%>>----->>>>>>>>>>-@@        ",
"   ..@@@%%%>>-->%%%%>-->>%%%>>->>>%%>>>>>-----#####--@;;        ",
"   ..**+>>>>>-->%%%%>-->>%%%>>--->%%%%%>>>>>;;%%%$$##;          ",
"   ..**+>>>>>-->%%%%>-->>%%%>>--->%%%%%>>>>>;;%%%$$##;          ",
"   ..**#  @@@@@>$$>>-#####%%%%>-->>>%%>>>$$>;;%%%%%##           ",
"   ..**#  @@@@@>$$>>-#####%%%%>-->>>%%>>>$$>;;%%%%%##           ",
"   ####    @@**+@@$$;%%%%%##>>>--#####$$$$$$>>;;***##           ",
"           ..**#  ;;;%%%%*##$$$;;%%%%%#>>>>###;;***##           ",
"           ..**#  ;;;%%%%*##$$$;;%%%%%#>>>>###;;***##           ",
"           ####      ;;***##;;;;;%%%**#####     ;&&##           ",
"                       ;;&##     ;****#         ;&&##           ",
"                       ;;&##     ;****#         ;&&##           ",
"                       ;;&##      ;;&&#          ####           ",
"                       ;;&##      ;;&&#          ####           ",
"                         ###      ;;&&#                         ",
"                                    ###                         ",
"                                    ###                         "};
