/* XPM */
static char * giratina2_xpm[] = {
"64 64 13 1",
" 	c None",
".	c #101010",
"+	c #282828",
"@	c #F8F8D0",
"#	c #605010",
"$	c #F05040",
"%	c #A83040",
"&	c #383838",
"*	c #E8D018",
"=	c #B09818",
"-	c #B8B8B8",
";	c #505050",
">	c #909090",
"                                                                ",
"                                                                ",
"                   ...                    ...                   ",
"       +++++++     .@@#    ...    ...    #@@.     +++++++       ",
"       +++++++     .@@#    ...    ...    #@@.     +++++++       ",
"       +++++++     .@@#    ...    ...    #@@.     +++++++       ",
"       +$$%%&&++   .@@@## .**.&&&&.**. ##@@@.   ++&&%%$$+       ",
"        ++++&&&&++ .**@**##==&----&==##**@**. ++&&&&++++        ",
"           +&&&&++ .******#&&------&&#******. ++&&&&+           ",
"           +&&&&++ .******#&&------&&#******. ++&&&&+           ",
"           +&&&&++  ..*****;;------;;*****..  ++&&&&+           ",
"            ++&&++  ..*****;;------;;*****..  ++&&++            ",
"            ++&&++  ..*****;;------;;*****..  ++&&++            ",
"    ++++      +&&&+   #***=>>------>>=***#   +&&&+      ++++    ",
"    ++++      +&&&+   #***=>>------>>=***#   +&&&+      ++++    ",
"+++++&&&++    +&&&+    ##*&----------&*##    +&&&+    ++&&&+++++",
"+$$%%&&&&&    +&&&&+   ##*&----------&*##   +&&&&+    &&&&&%%$$+",
"+$$%%&&&&&    +&&&&+   ##*&----------&*##   +&&&&+    &&&&&%%$$+",
" ++++&&&&&+    &&&&+     #&>>------>>&#     +&&&&    +&&&&&++++ ",
"    +&&&&&&++++&&&&&&&   #&>>------>>&#   &&&&&&&++++&&&&&&+    ",
"     ++&&&&&&&&+++&&&&&###&&&#----#&&&###&&&&&+++&&&&&&&&++     ",
"     ++&&&&&&&&+++&&&&&###&&&#----#&&&###&&&&&+++&&&&&&&&++     ",
"       ++++&&&&&&&++++&&&&&##*#--#*##&&&&&++++&&&&&&&++++       ",
"       ++++&&&&&&&++++&&&&&##*#--#*##&&&&&++++&&&&&&&++++       ",
"           ++++&&&&&&&+++++++##--##+++++++&&&&&&&++++           ",
"                ++&&&&&&&&&##*#--#*##&&&&&&&&&++                ",
"                ++&&&&&&&&&##*#--#*##&&&&&&&&&++                ",
"        +++++++   ++&&&++++++##--##++++++&&&++   +++++++        ",
"    ++++&&&&&&&&&&&++++&&&&&&#----#&&&&&&++++&&&&&&&&&&&++++    ",
"   +&&&&&&&&&&++&&&&&&&&&&&##*#--#*##&&&&&&&&&&&++&&&&&&&&&&+   ",
"   +&&&&&&&&&&++&&&&&&&&&&&##*#--#*##&&&&&&&&&&&++&&&&&&&&&&+   ",
"+++++&&&&&&+++  +++&&&&&&++++##--##++++&&&&&&+++  +++&&&&&&+++++",
"+++++&&&&&&+++  +++&&&&&&++++##--##++++&&&&&&+++  +++&&&&&&+++++",
"+$$%%&&&&&+        ++++++--%%%%%%%%%%--++++++        +&&&&&%%$$+",
"+$$%%&&&&&+        ++++++--%%%%%%%%%%--++++++        +&&&&&%%$$+",
" +++++++            ###&&%%;;;;;;;;;;%%&&###            +++++++ ",
"               ###**--&%%%;;;--------;%%%***##                  ",
"              +@@@****&;;>;--;;;;;;;;-;&&***@@++                ",
"              +@@@****&;;>;--;;;;;;;;-;&&***@@++                ",
"               ++++++++;;>>;;%%%%%%%%;-&&+++++                  ",
"                      #&&>;%%%;;;;;%%%;&&-###                   ",
"                      #&&>;%%%;;;;;%%%;&&-###                   ",
"                   ###-&&;%;;;>----;;;%&&-***###                ",
"                   ###-&&;%;;;>----;;;%&&-***###                ",
"                ###***---;;;;;--------;&&****@@@+               ",
"               +@@@****--&;>>;-;;;;;;;-+++++++++     +++        ",
"               +++++++++++&>>>;%%%%%%%;++###    ++  #*##        ",
"               +++++++++++&>>>;%%%%%%%;++###    ++  #*##        ",
"                       ###-&&;%;;;;;;;%;;+######*+##=*&&&&&     ",
"                    ###***---+;;;;--------++&#==*&&&;%;;-&&     ",
"                    ###***---+;;;;--------++&#==*&&&;%;;-&&     ",
"                   +@@@****--+;>>;-----------&&&%;--;%;;&       ",
"                   +@@@****--+;>>;-----------&&&%;--;%;;&       ",
"                   ++++++++++&+>>>>>>---------;;%;--&&##        ",
"                               +++>>>>>>>>>>>>;;%&;;=*##        ",
"                               +++>>>>>>>>>>>>;;%&;;=*##        ",
"                                  ++++>>>>>>>&&&&&  +*##        ",
"                                      &++++++&==*&   +##        ",
"                                              ++*#              ",
"                                              ++*#              ",
"                                              ++*#              ",
"                                                +#              ",
"                                                                ",
"                                                                "};
