/* XPM */
static char * giratinaFace2_xpm[] = {
"64 64 13 1",
" 	c None",
".	c #282828",
"+	c #F05040",
"@	c #A83040",
"#	c #383838",
"$	c #101010",
"%	c #F8F8D0",
"&	c #605010",
"*	c #E8D018",
"=	c #909090",
"-	c #B8B8B8",
";	c #B09818",
">	c #505050",
"             ...                                ...             ",
"           ..+..                                ..+..           ",
"           ..+..                                ..+..           ",
"           ..@..                                ..@..           ",
"          .##@...                              ...@##.          ",
"          .##@...                              ...@##.          ",
"   ...    .#####. $$$                      $$$ .#####.    ...   ",
" ..+..    .#####. $$%&&    $$$    $$$    &&%$$ .#####.    ..+.. ",
" ..+..    .#####. $$%&&    $$$    $$$    &&%$$ .#####.    ..+.. ",
" ..@..     ..###. $$%%%&  $%$$####$$%$  &%%%$$ .###..     ..@.. ",
".##@..     ..###. $$*%%*&&&%$$=--=$$%&&&*%%*$$ .###..     ..@##.",
".###..     ..###. $$****$$**&&----&&**$$****$$ .###..     ..###.",
".###..     ..###. $$****$$**&&----&&**$$****$$ .###..     ..###.",
".#####.      .###   $***$$**&&=--=&&**$$***$   ###.      .#####.",
".######..    .###.  $***$$**$$====$$**$$***$  .###.    ..######.",
".######..    .###.  $***$$**$$====$$**$$***$  .###.    ..######.",
".######..    .###.   $$*&&;***&$$&***;&&*$$   .###.    ..######.",
" ..######..   ####.. $$***&+**$%%$**+&***$$ ..####   ..######.. ",
" ..######..   ####.. $$***&+**$%%$**+&***$$ ..####   ..######.. ",
"   .#######.....##.. $$%%%*@$$*%%*$$@*%%%$$ ..##.....#######.   ",
"    ..##########.####  $$$;*;;#**#;;*;$$$  ####.##########..    ",
"      ....#######.###$$&&&$***;&&;***$&&&$$###.#######....      ",
"      ....#######.###$$&&&$***;&&;***$&&&$$###.#######....      ",
" ...      ...#####...$$;&&$$$$;&&;$$$$&&;$$...#####...      ... ",
".++.          ..##...$$&**;&..$&&$..&;**&$$...##..          .++.",
".++.          ..##...$$&**;&..$&&$..&;**&$$...##..          .++.",
".@@.   ......   .###;$$$;;*$@@#$$#@@$*;;$$$;###.   ......   .@@.",
".##....#######.......&&;&&$$##@@@@##$$&&;&&.......#######....##.",
".##....#######.......&&;&&$$##@@@@##$$&&;&&.......#######....##.",
".#########...####....&&*&&=##########=&&*&&....####...#########.",
".#########   .###.;;$$$;%%&@@@####@@@&%%;$$$;;.###.   #########.",
" ..####..     ...#...&&$**%$@@@@@@@@$%**$&&...#...     ..####.. ",
" ..####..     ...#...&&$**%$@@@@@@@@$%**$&&...#...     ..####.. ",
"   ....           &&&;;;==$$>>>>>>>>$$==;;;&&&           ....   ",
"                &&;;&***&&=>>>>>>>>>>=&&***&;;&&                ",
"                &&;;&***&&=>>>>>>>>>>=&&***&;;&&                ",
"              ..;;;;$;;%**$@++++++++@$**%;;$;;;;..              ",
"              ......&$$$%%*$@@++++@@$*%%$$$&......              ",
"              ......&$$$%%*$@@++++@@$*%%$$$&......              ",
"                &&---##=$$$$>>>>>>>>$$$$=##---&&                ",
"             &&&**-----#===+##>>>>##+===#-----**&&&             ",
"           ..%%%****-##@@@++++++++++++@@@##-****%%%..           ",
"           ..%%%****-##@@@++++++++++++@@@##-****%%%..           ",
"           ............####@++++++++@####............           ",
"                     ..=################=..                     ",
"                     ..=################=..                     ",
"                       .===##########===.                       ",
"                        ...==========...                        ",
"                        ...==========...                        ",
"                           $$$$$$$$$$                           ",
"                                                                ",
"                                                                ",
"                                                                ",
"                                                                ",
"                                                                ",
"                                                                ",
"                                                                ",
"                                                                ",
"                                                                ",
"                                                                ",
"                                                                ",
"                                                                ",
"                                                                ",
"                                                                "};
