/* XPM */
static char * giratinaLeft1_xpm[] = {
"64 64 13 1",
" 	c None",
".	c #605010",
"+	c #B09818",
"@	c #383838",
"#	c #282828",
"$	c #B8B8B8",
"%	c #909090",
"&	c #F8F8D0",
"*	c #E8D018",
"=	c #A83040",
"-	c #F05040",
";	c #101010",
">	c #505050",
"        ...    ........                                         ",
"        ...    ........                                         ",
"       .++.....++++++..                                         ",
"     ..+++.+++++++++.         @@@@                              ",
"     ..+++.+++++++++.         @@@@                              ",
"     ..+..@@@@@@++..        @@@@@@@@##                          ",
"     ..+..@@@@@@++..        @@@@@@@@##                          ",
"   ..++@$$...$$%##..        @@@@@###                            ",
"  .++@@$..&..$$%%%##      @@@@@@@                               ",
"  .++@@$..&..$$%%%##      @@@@@@@                               ",
"  .++...&&&..%%%......... @@@@@@@      ####                     ",
"..&....****.....*******.. @@@@@       #@@@@###                  ",
"..&....****.....*******.. @@@@@       #@@@@###                  ",
"..***+++++...********..   @@@@@     ##@@@===--##                ",
"..***+++++...********..   @@@@@     ##@@@===--##                ",
";;+@@@@...*&&*******.     @@@@@     ##@@@#######                ",
";;;@@;;-..***&&&**;;.     @@@@      ##@@@@@#                    ",
";;;@@;;-..***&&&**;;.     @@@@      ##@@@@@#                    ",
"  ...;;=*****&&&**;;.    @@@@@    ##@@@@@##                     ",
"  ...;;=*****&&&**;;.    @@@@@    ##@@@@@##                     ",
"..+********;;;;;;;;;%##@@@@@     #@@@@@##     #####             ",
"  ...***;;;@@@@%%%%%%##;;;@@###@@@@@@@@  ###@@@@@#####          ",
"  ...***;;;@@@@%%%%%%##;;;@@###@@@@@@@@  ###@@@@@#####          ",
"     ...;;@@@@@%%%%%;;;++;##@@@@@@@@   ##@@@@@@@@====-##        ",
"     ...;;@@@@@%%%%%;;;++;##@@@@@@@@   ##@@@@@@@@====-##        ",
"        ##@@@%%%;;..+++;;@@@@@@@@   ###@@@@@@@@@@#######        ",
"       #@@;;;;;;..**+;;@@@@@@@   ###@@@@@@@@@@@@@@@##           ",
"       #@@;;;;;;..**+;;@@@@@@@   ###@@@@@@@@@@@@@@@##           ",
"       #==;*********+;;;;######@@@@@@@@####   @@@##             ",
"       #==;*********+;;;;######@@@@@@@@####   @@@##             ",
"       #===;;;;+****;++;;@@@@@@@@@@@###                         ",
"     ##@@@%%%%%;;;;;+;;@@#####@@@###   #######                  ",
"     ##@@@%%%%%;;;;;+;;@@#####@@@###   #######                  ",
"     ##@@@;;;;;*****+;;##@@@@@#########@@@@@@@###               ",
"     ;;-==;*******++;;;;;###@@@@@@@@@@@@@@@@@@@@@####           ",
"     ;;-==;*******++;;;;;###@@@@@@@@@@@@@@@@@@@@@####           ",
"     ;;-==%;;;;;;;@@>++;;   ###@@@@@@@###@@@@@@@===--#          ",
"     ;;-==%;;;;;;;@@>++;;   ###@@@@@@@###@@@@@@@===--#          ",
"     ;;@@@%%%%%>>>**+;;@@@     #######   ##@@@@@######          ",
"     ;;@@@;;;;;*****+;;%%>@@               #####         ####   ",
"     ;;@@@;;;;;*****+;;%%>@@               #####         ####   ",
"     ;;---;*******++;$$%%>==@@@                  ####   .**..   ",
"     ;;---;*******++;$$%%>==@@@                  ####   .**..   ",
"     ;;-==@;;;;;;;;;$$$>>>==>>$@@@              .**## ..+**@@@@@",
"       ;@@>>>%%%$$$$>>>>>===>>$>>=@@@@@       ..+**@@@@@>==>>$@@",
"       ;@@>>>%%%$$$$>>>>>===>>$>>=@@@@@       ..+**@@@@@>==>>$@@",
"        @@=>>>>>>>>>>=====>>$$$>>=>>$$$@@@@@@@@@@==>>$$$>==>>@  ",
"        @@=>>>>>>>>>>=====>>$$$>>=>>$$$@@@@@@@@@@==>>$$$>==>>@  ",
"        ;;@==#####=====>>>>>$$>>>=>>$$$>>==>$$$$>==>>$$$@@@..   ",
"          ;##%%$$$;;>>>>>$$$$$>===>>$$$>>==>$$$$>==>>>>>+**..   ",
"          ;##%%$$$;;>>>>>$$$$$>===>>$$$>>==>$$$$>==>>>>>+**..   ",
"           ##$$$$$;;>%%>>>$$>>>==>$$$$#####=>>%%>@@@@@  #**..   ",
"           ##$$$$$;;>%%>>>$$>>>==>$$$$#####=>>%%>@@@@@  #**..   ",
"           ##***;;>>%%%%%%#####==>>>##$$$$$;%%@@+**@@    ####   ",
"           ##***;;###>>>>#$$$$$;;%%%##*$$$$;;;  #**..           ",
"           ##***;;###>>>>#$$$$$;;%%%##*$$$$;;;  #**..           ",
"           ##&&;     #####**$$$;;;;;##***;;      ####           ",
"           ##&&;         #****;     ##&;;                       ",
"           ##&&;         #****;     ##&;;                       ",
"           ####          #&&;;      ##&;;                       ",
"           ####          #&&;;      ##&;;                       ",
"                         #&&;;      ###                         ",
"                         ###                                    ",
"                         ###                                    "};
