/* XPM */
static char * flower1_xpm[] = {
"64 64 15 1",
" 	c #CDF683",
".	c #D5F67B",
"+	c #D5F68B",
"@	c #E6FF9C",
"#	c #DEF694",
"$	c #D5F683",
"%	c #DEFF94",
"&	c #BDF683",
"*	c #EEF67B",
"=	c #E6FFAC",
"-	c #EEFFBD",
";	c #ACF683",
">	c #EEEE7B",
",	c #E6FFA4",
"'	c #B4F683",
"  ..........++@@@@@@++....++##..............++@@@@..............",
"  ..........++@@@@@@++....++##..............++@@@@..............",
"............##@@@@@@##......................##@@@@##............",
"............##@@@@@@##......................##@@@@##............",
"....$$$$......##@@@@##......................##@@@@##............",
"....$$$$......##@@@@##......................##@@@@##............",
"....%%@@##......##++......##@@++..............++##..&&&&........",
"....%%@@##......##++......##@@++..............++##..&&&&........",
"**$$@@@@@@++............++==--==..................&&;;;;&&......",
"**$$@@@@@@++............++==--==..................&&;;;;&&......",
"..$$@@@@@@++$$..........++====@@....................;;;;&&......",
"..$$@@@@@@++$$..........++====@@....................;;;;&&......",
"....++##....@@##................................................",
"....++##....@@##................................................",
"..........##@@@@++..................@@##........##@@##..........",
"..........##@@@@++..................@@##........##@@##..........",
"..@@##....++@@@@++................++@@@@++....##@@@@@@..........",
"..@@##....++@@@@++................++@@@@++....##@@@@@@..........",
"##@@@@##......  ..................##@@@@@@....##@@@@@@##........",
"##@@@@##......  ..................##@@@@@@....##@@@@@@##........",
"@@@@@@@@........****..............@@@@@@==@@....##@@##++........",
"@@@@@@@@........****..............@@@@@@==@@....##@@##++........",
"++####++......>>>>>>**............@@@@@@==@@....................",
"++####++......>>>>>>**............@@@@@@==@@....................",
"............++>>>>>>>>**............++##++......................",
"............++>>>>>>>>**............++##++......................",
"............++>>>>>>>>>>....................................&&&&",
"............++>>>>>>>>>>....................................&&&&",
"..............**>>>>**....................................  &&&&",
"..............**>>>>**....................................  &&&&",
"........##@@..........$$$$......................++##  ....  &&&&",
"........##@@..........$$$$......................++##  ....  &&&&",
"........##@@++......##@@%%  ..####++..........%%,,,,%%......  &&",
"........##@@++......##@@%%  ..####++..........%%,,,,%%......  &&",
"@@==@@..............##@@@@$$$$@@@@##........++,,,,,,,,++........",
"@@==@@..............##@@@@$$$$@@@@##........++,,,,,,,,++........",
"==--==++............$$%%##  ##@@##@@##......++,,,,,,,,##......##",
"==--==++............$$%%##  ##@@##@@##......++,,,,,,,,##......##",
"====@@........&&......$$  ..%%@@@@@@##........++@@,,@@$$....  @@",
"====@@........&&......$$  ..%%@@@@@@##........++@@,,@@$$....  @@",
"..........&&;;;;''..........++########@@==++....$$$$..........@@",
"..........&&;;;;''..........++########@@==++....$$$$..........@@",
"..........&&;;;;;;&&..................==--==++..................",
"..........&&;;;;;;&&..................==--==++..................",
"..........&&;;;;&&....................==--==++..........&&&&....",
"..........&&;;;;&&....................==--==++..........&&&&....",
"............&&&&........................++..............;;;;;;&&",
"............&&&&........................++..............;;;;;;&&",
"........................................................;;;;;;;;",
"........................................................;;;;;;;;",
"........................................................;;;;;;&&",
"........................................................;;;;;;&&",
"..................++......................................&&&&..",
"..................++......................................&&&&..",
"................@@--##..............................++..........",
"................@@--##..............................++..........",
"........@@@@....----==..........&&................@@@@@@++......",
"........@@@@....----==..........&&................@@@@@@++......",
";;&&..++----##..==--==..........................##@@@@@@@@......",
";;&&..++----##..==--==..........................##@@@@@@@@......",
";;;;....@@==++................$$%%@@@@..........%%,,,,,,,,##....",
";;;;....@@==++................$$%%@@@@..........%%,,,,,,,,##....",
";;;;&&..........##@@##........$$@@@@@@$$........$$@@,,,,@@$$....",
";;;;&&..........##@@##........$$@@@@@@$$........$$@@,,,,@@$$...."};
