/* XPM */
static char * groudonRight2_xpm[] = {
"64 64 16 1",
" 	c None",
".	c #581008",
"+	c #881810",
"@	c #000000",
"#	c #B02020",
"$	c #D84840",
"%	c #202838",
"&	c #807018",
"*	c #B8C8D8",
"=	c #E8E8F8",
"-	c #384050",
";	c #D0C030",
">	c #606878",
",	c #9098B0",
"'	c #485060",
")	c #788090",
"                                                                ",
"                                                                ",
"                                                                ",
"                                                                ",
"                                                                ",
"                                                                ",
"                                                                ",
"                                                                ",
"                                                                ",
"                                                                ",
"                                                                ",
"                                             ....               ",
"                                             ..++.              ",
"                                           .....++....          ",
"                                           ..+++..++++...       ",
"                                           ..+++..++++...       ",
"                                           ..+++..++++...       ",
"                                          @@@@@+++....+++       ",
"                                        @@@##$$#..++++....      ",
"                                   @@@@@$$@#####$#....++++.     ",
"                                 @@$$$@$$$@######$$$$$.++..     ",
"                              ...$$$$$@$$#@@@@@.######$.......  ",
"                              ...$$$$$@$$#@@@@@.######$.......  ",
"                             .%##$$$$$@##++@@@@@@.#######+....  ",
"                           %%#@#######@##@@@@@@@@@...####.+.... ",
"                          @%%#.%%##++++@+@$$$$$$$@@@@&.#######+.",
"                         @#%%##@@++++++%*=.----##@@@@;@&&######.",
"                         @#%%##@@++++++%*=.----##@@@@;@&&######.",
"                        @####%+++@++++%%**.**==-##@@@-;;;##.... ",
"                       @%####+%..@%%%%*=%..****-#####@@..>-%%%  ",
"                       @%####+%..@%%%%*=%..****-#####@@..>-%%%  ",
"                   @@@@#%##+++@##$$+++@%>%.##---@>***>*>>%@     ",
"                   @@++@##+++@+##$$++++%>%@####+@@>>>>>@@       ",
"                   @@++@##+++@+##$$++++%>%@####+@@>>>>>@@       ",
"                  @@@+++@%+++%@@@@#++++%%  @@###@ @@@@@         ",
"                  @%%+++++@%%>*+++@@@@@@@    @@#@               ",
" @@@@@          @@+%%@@@+++%%>>+++@###$$..   @@#@               ",
" @@@@@          @@+%%@@@+++%%>>+++@###$$..   @@#@               ",
"@@@##+@       @@@@@+++++@+%%%%%>>@#####$$#.%%  @@               ",
"@##@@+@@@ @@@@*@++@%%%%%+%>**%>@@@%%%%####%,,%%                 ",
"@##@@+@@@ @@@@*@++@%%%%%+%>**%>@@@%%%%####%,,%%                 ",
"@@@+++@..@@@@++@++@++++++@@@@@@@@.####%+++@,,**@                ",
"@##@@++@@++@@++@++@+++++@++++++@@.++++%%++@@@@@@                ",
"@####@.@@++@@++@+++@@++@+++++##++@%%%%+%%@@,,%%                 ",
"@@@###+@@++@@++@+++@@++@+++++##%%@'%%%%@@@%%%                   ",
"@@@###+@@++@@++@+++@@++@+++++##%%@'%%%%@@@%%%                   ",
"@@@###+@@++@@++@+++@@++@+++++##%%@'%%%%@@@%%%                   ",
"@##..#.++%%++++@%%%++%%@++++++%##+@%%%                          ",
"@####@@@@,=++%%+,,=@@'''@+++++%###@%%%                          ",
"@++####@@*=@@,=@**=@@'''@..++++%%@%                             ",
" @@@@##'''=@@*=@''=@@%%%@.....%@@@                              ",
"     @@@@@@'''=@@@@@@   @.%...%...@@@@                          ",
"     @@@@@@'''=@@@@@@   @.%...%...@@@@                          ",
"           @@@@@       @..@...%@@,-)))@                         ",
"                       @@.@...@****@@@@                         ",
"                         @@@@@@@@@@@@@                          ",
"                                                                ",
"                                                                ",
"                                                                ",
"                                                                ",
"                                                                ",
"                                                                ",
"                                                                ",
"                                                                "};
