/* XPM */
static char * groudonFace1_xpm[] = {
"64 64 16 1",
" 	c None",
".	c #881810",
"+	c #000000",
"@	c #581008",
"#	c #D84840",
"$	c #B02020",
"%	c #384050",
"&	c #E8E8F8",
"*	c #807018",
"=	c #B8C8D8",
"-	c #D0C030",
";	c #606878",
">	c #202838",
",	c #788090",
"'	c #9098B0",
")	c #485060",
"                           .  + ++..   ++                       ",
"                          @...@+@@..@@+..+                      ",
"                          #...$+$$..##+..+                      ",
"                          #...$+$$..##+..+                      ",
"                          #...$+$$..##+..+                      ",
"                        $$#@@@$.$$@@##$@@#++++                  ",
"                        $$#@@@$.$$@@##$@@#++++                  ",
"                        $$#@@@$.$$@@##$@@#++++                  ",
"                        @@#@@@$.$$@@##@$$#@@@@                  ",
"                       $@@$$$$@.@@$$$$@$$$$$$$+++               ",
"                      +$$$@$$$@.@@$$@@$$$+%%%%+++               ",
"                      +$$$@$$$@.@@$$@@$$$+%%%%+++               ",
"                      +$$$@$$$@.@@$$@@$$$+%%%%+++               ",
"                    $$++$$@$$$@.@@$$@@$+++$$$$++++              ",
"                 &&&%%+*$$$+++$@$$++$$$**+%%%%&&&&%+            ",
"                 &&&%%+*$$$+++$@$$++$$$**+%%%%&&&&%+            ",
"                 &&&%%+*$$$+++$@$$++$$$**+%%%%&&&&%+            ",
"              &&&&&&==+-++$+++.@..++$$+--+====&&&&&=++          ",
"                 ===++@+--*$$$+.++$$**-++@++++====++            ",
"                    $$$$@@@...$+$$..@@@$$$$$$$++++              ",
"                  ++$$$$@@@...$+$$..@@@$$$$$$$++++              ",
"               +%%  $$$$@@@...$+$$..@@@$$$$$$$++++              ",
"             ++=  =;@@$@++@$$$$$$$$$@@+@@$@@@@;;;=+             ",
"               ++++;@@.+==;@@@@$@@@@;;=++.@@@@;;;+.+            ",
"                 ++;@@.+==;@@@@$@@@@;;=++.@@@@;;;+.+            ",
"              $$$$$+++.+%%=;;;=@==;;==%++.+++++++..@++          ",
"              $$$$$$++$+++>;;;;;;;;;>>+++$++++....+++++         ",
"              $$$$$$++$+++>;;;;;;;;;>>+++$++++....+++++         ",
"             +$$$$$$++$+++>;;;;;;;;;>>+++$++++....+++++         ",
"             +$$$$$$++$+++>;;;;;;;;;>>+++$++++....+++++         ",
"             ++++++.++$+;;;+++++++++;;;++$++++++++####>>        ",
"             ++++++.++$+;;;+++++++++;;;++$++++++++####>>        ",
"             ######+++++;;;;;;;;;;;;;;;+++++++@@@#$$>>#.>>      ",
"            +>$$$$$#@@@+;;%%%%%%%%%%%%;;;;++++$$$$$$>>$.>>      ",
"           $$#>>>$$$$$++%%;;;;;;;;;;;;%%%+====+++>>>>>@.++      ",
"           $$#>>>$$$$$++%%;;;;;;;;;;;;%%%+====+++>>>>>@.++      ",
"           $$$>>>>>>++,,++;;;;;;;;;;;;;;;>+++++++$$>$$>>++      ",
"           $$$>>>>>>++,,++;;;;;;;;;;;;;;;>+++++++$$>$$>>++      ",
"           ..@>>>$$$++++>>;;;;;;;;;;;;;;;+,,,,%%%$>>...+        ",
"           ..@>>>$$$++++>>;;;;;;;;;;;;;;;+,,,,%%%$>>...+        ",
"             >>>>@@$++,'++,,,,,,,,,,,,;;;+++++,,,+..+++         ",
"              ...>>+,,>+,,,,,,,,,,,,,,,,,,++++++++++            ",
"               ++++@++>>,,,,,,,,,,,,,,,,,,+++++++@@+            ",
"             ++> ++@++>>,,,,,,,,,,,,,,,,,,+++++++@@+            ",
"            +>>  ++@++>>,,,,,,,,,,,,,,,,,,+++++++@@+            ",
"            +$>>>...++;;;;,,,,,,,,,,,,,;;+@@@@@@@.>.++          ",
"            +$$$$>>....+;;;,,,,,,,,,,,;;;+@@@@...>....+         ",
"            +$$$$>>....+;;;,,,,,,,,,,,;;;+@@@@...>....+         ",
"            +$$$$>>....+;;;,,,,,,,,,,,;;;+@@@@...>....+         ",
"            +$$$$$$>...+)))))))))))))))++@@@@@...>....+         ",
"             $$$$..>...+%%)%%%%%%%%%))%++@@@@@@@@@>...+         ",
"            >....>>...@@+++++++>++++++++++@@@@@@@>@>++          ",
"            >....>>...@@+++++++>++++++++++@@@@@@@>@>++          ",
"            >....>>...@@+++++++>++++++++++@@@@@@@>@>++          ",
"             +>>>>>>@@@@@@+                @@@@@@>>)>>          ",
"             +>>>>>>@@@@@@+                @@@@@@>>)>>          ",
"             ++++>>@>>@@++                   +;;;);>;;>         ",
"             ,,,,+++>>@@++                        +,++>         ",
"             '>>>===++++                                        ",
"             '>>>===++++                                        ",
"              +++==+++                                          ",
"              +++==+++                                          ",
"                  +                                             ",
"                  +                                             "};
