/* XPM */
static char * groudonBack2_xpm[] = {
"64 64 12 1",
" 	c None",
".	c #000000",
"+	c #581008",
"@	c #881810",
"#	c #B02020",
"$	c #384050",
"%	c #202838",
"&	c #9098B0",
"*	c #B8C8D8",
"=	c #788090",
"-	c #E8E8F8",
";	c #606878",
"                             .    .                             ",
"                        ..  +@. ..@++   .                       ",
"                        ..  +@. ..@++   .                       ",
"                        ..  +@. ..@++   .                       ",
"                       .@@..+@+.++@++...@.                      ",
"                       .@@..@@@.@@@@@...@.                      ",
"                      .@@@@@#########@@@@@.                     ",
"                      .@@@@@#########@@@@@.                     ",
"                      .....................                     ",
"                      .....................                     ",
"                    $$.%@@##############@%.$$                   ",
"                    $$.%@@##############@%.$$                   ",
"                  %%&.+@@@##############@@+.&%%                 ",
"                    %.@@.................@@.%                   ",
"                  %%&...%%##############%...&%%                 ",
"                  %%&...%%##############%...&%%                 ",
"                  %%&...%%##############%...&%%                 ",
"                  %%&...%%##############%...&%%                 ",
"                ..&&&.@@#################@@.&&&..               ",
"                  %%%.@@.................@@.%%%                 ",
"                  %%%.@@.................@@.%%%                 ",
"                ....*...#################...*....               ",
"              ..*****.@%..##############.%@.*****.              ",
"              ..*****.@%..##############.%@.*****.              ",
"                ....*+@@..##############.@@+*....               ",
"                ....*+@@..##############.@@+*....               ",
"                ++@@%.@%..##############.%@.%++++               ",
"              ++@@@@.@@.#################.@@.@@##+              ",
"              ++@@@@.@@.#################.@@.@@##+              ",
"              ++@@@@.@@...................@@.@@###+             ",
"              ++%%==..%@#################@%..==%%@+             ",
"              ++%%==..%@#################@%..==%%@+             ",
"             +..&&&&.@@@#################@@@.&&&&.@@            ",
"             +@@..%%.@@...................@@.%%..@@@+           ",
"             +@@..%%.@@...................@@.%%..@@@+           ",
"            +...----..%%#################%%..----..@+           ",
"            +...----..%%#################%%..----..@+           ",
"            .-------.@@+..@@#########@@@.+@@.------.+           ",
"            .-------.@@+..@@#########@@@.+@@.------.+           ",
"            +...****.@@@..@@@@@@@@@@@@@@.@@@.****..+            ",
"             +@@..%%.@@@..@@@@@@@@@@@@@@.@@@.%%..++             ",
"              ++@@..@@+.%%@@@@@@@@@@@@@@%.+@@..++               ",
"                ..@@@@.@@@@@@@@@@@@@@@@@@@.@@@@...              ",
"                ..@@@@.@@@@@@@@@@@@@@@@@@@.@@@@...              ",
"                ..@@@@.@@@@@@@@@@@@@@@@@@@.@@@@...              ",
"                ..@@@@.@@@@@@@@@@@@@@@@@@@.@@@@...              ",
"              ....++@@.@%%%%%%%%%%%%%%%%%@.@@..@@@.             ",
"             .++++++.%.%..@@@.@@@@.@@@@@.%.%.@@@@@#.            ",
"             .++++++.%.%..@@@.@@@@.@@@@@.%.%.@@@@@#.            ",
"             .++++++.;%.##++.#.@..#..+++#.%;.@@@@##.            ",
"             .+++++++%.+##...#....#.....#+.%@@@@@##.            ",
"             .+++++++%.+##...#....#.....#+.%@@@@@##.            ",
"             .+++++++%.+##...#....#.....#+.%@@@@@##.            ",
"             .+++++++%.+##...#....#.....#+.%@@@@@##.            ",
"              ..+++++%.@@@..@@@.@@@@@...@@.@@@@@@#+.            ",
"              ..++++++..@@++@@@+@@@@@+++@..@@@@@@@.             ",
"             %$$++++%+%+.................@%@%@@@@%%             ",
"             %..++++.+..                .@%@.@@@@@;.            ",
"             %..++++.+..                .@%@.@@@@@;.            ",
"                ......                   ..+.@@@@@..            ",
"                ......                   ..+.@@@@@..            ",
"                                           ..@@++.              ",
"                                           ..@@++.              ",
"                                            ...                 "};
