/* XPM */
static char * tree0_xpm[] = {
"64 64 4 1",
" 	c #E0B870",
".	c #F8E898",
"+	c #F8F8B8",
"@	c #F0D880",
"                                                                ",
"                                                                ",
"    ..++++++@@  ..++++++++++++++++++++++@@  @@..++++++..        ",
"    ..++++++@@  ..++++++++++++++++++++++@@  @@..++++++..        ",
"  @@..........@@........................    ............@@@@@@@@",
"  @@..........@@........................    ............@@@@@@@@",
"  @@..........@@........................  @@....................",
"  @@..........@@........................  @@....................",
"  ..............@@......................  ......................",
"  ..............@@......................  ......................",
"@@..............@@....................@@@@......................",
"@@..............@@....................@@@@......................",
"@@..............@@@@@@@@@@............@@........................",
"@@..............@@@@@@@@@@............@@........................",
"................@@@@@@@@@@............@@........................",
"................@@@@@@@@@@............@@........................",
"......................@@........................................",
"......................@@........................................",
"......................@@........................@@..............",
"......................@@........................@@..............",
"......................@@........................@@..............",
"......................@@........................@@..............",
"....................@@..........................  ..............",
"....................@@..........................  ..............",
"....................@@..........................  @@............",
"....................@@..........................  @@............",
"..................@@@@..........................    ............",
"..................@@@@..........................    ............",
"................@@  @@..........................    ............",
"................@@  @@..........................    ............",
"                                                                ",
"                                                                ",
"                                                                ",
"                                                                ",
"                                                                ",
"                                                                ",
"@@  @@  @@@@@@@@@@@@@@@@  @@  @@@@  @@  @@@@@@@@@@@@@@@@  @@  @@",
"@@  @@  @@@@@@@@@@@@@@@@  @@  @@@@  @@  @@@@@@@@@@@@@@@@  @@  @@",
"@@  @@  @@@@        @@@@  @@  @@@@  @@  @@@@        @@@@  @@  @@",
"@@  @@  @@@@        @@@@  @@  @@@@  @@  @@@@        @@@@  @@  @@",
"    @@    @@  @@@@  @@    @@        @@    @@  @@@@  @@    @@    ",
"    @@    @@  @@@@  @@    @@        @@    @@  @@@@  @@    @@    ",
"@@@@@@        @@@@        @@  @@@@@@@@        @@@@        @@  @@",
"@@@@@@        @@@@        @@  @@@@@@@@        @@@@        @@  @@",
"@@@@@@@@  @@        @@  @@@@  @@@@@@@@@@  @@        @@  @@@@  @@",
"@@@@@@@@  @@        @@  @@@@  @@@@@@@@@@  @@        @@  @@@@  @@",
"@@@@@@@@  @@@@@@@@@@@@  @@@@  @@@@@@@@@@  @@@@@@@@@@@@  @@@@  @@",
"@@@@@@@@  @@@@@@@@@@@@  @@@@  @@@@@@@@@@  @@@@@@@@@@@@  @@@@  @@",
"                                                                ",
"                                                                ",
"@@  @@@@  @@@@@@@@@@@@  @@@@@@@@@@  @@@@  @@@@@@@@@@@@  @@@@@@@@",
"@@  @@@@  @@@@@@@@@@@@  @@@@@@@@@@  @@@@  @@@@@@@@@@@@  @@@@@@@@",
"@@  @@@@  @@        @@  @@@@@@@@@@  @@@@  @@        @@  @@@@@@@@",
"@@  @@@@  @@        @@  @@@@@@@@@@  @@@@  @@        @@  @@@@@@@@",
"@@  @@        @@@@        @@@@@@@@  @@        @@@@        @@@@@@",
"@@  @@        @@@@        @@@@@@@@  @@        @@@@        @@@@@@",
"    @@    @@  @@@@  @@    @@        @@    @@  @@@@  @@    @@    ",
"    @@    @@  @@@@  @@    @@        @@    @@  @@@@  @@    @@    ",
"@@  @@  @@@@        @@@@  @@  @@@@  @@  @@@@        @@@@  @@  @@",
"@@  @@  @@@@        @@@@  @@  @@@@  @@  @@@@        @@@@  @@  @@",
"@@  @@  @@@@@@@@@@@@@@@@  @@  @@@@  @@  @@@@@@@@@@@@@@@@  @@  @@",
"@@  @@  @@@@@@@@@@@@@@@@  @@  @@@@  @@  @@@@@@@@@@@@@@@@  @@  @@",
"                                                                ",
"                                                                "};
