/* XPM */
static char * grass0_xpm[] = {
"64 64 3 1",
" 	c #D8A870",
".	c #F8E0C8",
"+	c #F0C898",
"                                                                ",
"                                                                ",
"........++  ++..........++  ++..........++  ++..........++  ++..",
"........++  ++..........++  ++..........++  ++..........++  ++..",
"++++++++++  ++++++++++++++  ++++++++++++++  ++++++++++++++  ++++",
"++++++++++  ++++++++++++++  ++++++++++++++  ++++++++++++++  ++++",
"++++++++++  ++++++++++++++  ++++++++++++++  ++++++++++++++  ++++",
"++++++++++  ++++++++++++++  ++++++++++++++  ++++++++++++++  ++++",
"                                                                ",
"                                                                ",
"..++  ++..........++  ++..........++  ++..........++  ++........",
"..++  ++..........++  ++..........++  ++..........++  ++........",
"++++  ++++++++++++++  ++++++++++++++  ++++++++++++++  ++++++++++",
"++++  ++++++++++++++  ++++++++++++++  ++++++++++++++  ++++++++++",
"++++  ++++++++++++++  ++++++++++++++  ++++++++++++++  ++++++++++",
"++++  ++++++++++++++  ++++++++++++++  ++++++++++++++  ++++++++++",
"                                                                ",
"                                                                ",
"........++  ++..........++  ++..........++  ++..........++  ++..",
"........++  ++..........++  ++..........++  ++..........++  ++..",
"++++++++++  ++++++++++++++  ++++++++++++++  ++++++++++++++  ++++",
"++++++++++  ++++++++++++++  ++++++++++++++  ++++++++++++++  ++++",
"++++++++++  ++++++++++++++  ++++++++++++++  ++++++++++++++  ++++",
"++++++++++  ++++++++++++++  ++++++++++++++  ++++++++++++++  ++++",
"                                                                ",
"                                                                ",
"..++  ++..........++  ++..........++  ++..........++  ++........",
"..++  ++..........++  ++..........++  ++..........++  ++........",
"++++  ++++++++++++++  ++++++++++++++  ++++++++++++++  ++++++++++",
"++++  ++++++++++++++  ++++++++++++++  ++++++++++++++  ++++++++++",
"++++  ++++++++++++++  ++++++++++++++  ++++++++++++++  ++++++++++",
"++++  ++++++++++++++  ++++++++++++++  ++++++++++++++  ++++++++++",
"                                                                ",
"                                                                ",
"........++  ++..........++  ++..........++  ++..........++  ++..",
"........++  ++..........++  ++..........++  ++..........++  ++..",
"++++++++++  ++++++++++++++  ++++++++++++++  ++++++++++++++  ++++",
"++++++++++  ++++++++++++++  ++++++++++++++  ++++++++++++++  ++++",
"++++++++++  ++++++++++++++  ++++++++++++++  ++++++++++++++  ++++",
"++++++++++  ++++++++++++++  ++++++++++++++  ++++++++++++++  ++++",
"                                                                ",
"                                                                ",
"..++  ++..........++  ++..........++  ++..........++  ++........",
"..++  ++..........++  ++..........++  ++..........++  ++........",
"++++  ++++++++++++++  ++++++++++++++  ++++++++++++++  ++++++++++",
"++++  ++++++++++++++  ++++++++++++++  ++++++++++++++  ++++++++++",
"++++  ++++++++++++++  ++++++++++++++  ++++++++++++++  ++++++++++",
"++++  ++++++++++++++  ++++++++++++++  ++++++++++++++  ++++++++++",
"                                                                ",
"                                                                ",
"........++  ++..........++  ++..........++  ++..........++  ++..",
"........++  ++..........++  ++..........++  ++..........++  ++..",
"++++++++++  ++++++++++++++  ++++++++++++++  ++++++++++++++  ++++",
"++++++++++  ++++++++++++++  ++++++++++++++  ++++++++++++++  ++++",
"++++++++++  ++++++++++++++  ++++++++++++++  ++++++++++++++  ++++",
"++++++++++  ++++++++++++++  ++++++++++++++  ++++++++++++++  ++++",
"                                                                ",
"                                                                ",
"..++  ++..........++  ++..........++  ++..........++  ++........",
"..++  ++..........++  ++..........++  ++..........++  ++........",
"++++  ++++++++++++++  ++++++++++++++  ++++++++++++++  ++++++++++",
"++++  ++++++++++++++  ++++++++++++++  ++++++++++++++  ++++++++++",
"++++  ++++++++++++++  ++++++++++++++  ++++++++++++++  ++++++++++",
"++++  ++++++++++++++  ++++++++++++++  ++++++++++++++  ++++++++++"};
