/* XPM */
static char * ground0_xpm[] = {
"64 64 4 1",
" 	c #D4915A",
".	c #AB664D",
"+	c #F0AF64",
"@	c #BF7655",
"                                          ..        ..        ..",
"                                          ..        ..        ..",
"                                        ++..      ++..      ++..",
"                                        ++..      ++..      ++..",
"                                        ++..      ++..      ++..",
"                                        ++..      ++..      ++..",
"  ++++++++++++++++++++++++++++++++++++++  ..      ++..      ++..",
"  ++++++++++++++++++++++++++++++++++++++  ..      ++..      ++..",
"............................................      ++..      ++..",
"............................................      ++..      ++..",
"                                          ..      ++..      ++..",
"                                          ..      ++..      ++..",
"                                        ++..      ++..      ++..",
"                                        ++..      ++..      ++..",
"                                        ++..      ++..      ++..",
"                                        ++..      ++..      ++..",
"  ++++++++++++++++++++++++++++++++++++++  ..      ++..      ++..",
"  ++++++++++++++++++++++++++++++++++++++  ..      ++..      ++..",
"............................................      ++..      ++..",
"............................................      ++..      ++..",
"        ..        ..@@@@@@@@@@@@@@@@@@@@@@..      ++..      ++..",
"        ..        ..@@@@@@@@@@@@@@@@@@@@@@..      ++..      ++..",
"      ++..      ++..                    @@..      ++..      ++..",
"      ++..      ++..                    @@..      ++..      ++..",
"      ++..      ++..                    @@..      ++..      ++..",
"      ++..      ++..                    @@..      ++..      ++..",
"      ++..      ++..                    @@..      ++..      ++..",
"      ++..      ++..                    @@..      ++..      ++..",
"      ++..      ++..                    @@..      ++..      ++..",
"      ++..      ++..                    @@..      ++..      ++..",
"      ++..      ++..                    @@..      ++..      ++..",
"      ++..      ++..                    @@..      ++..      ++..",
"      ++..      ++..                    @@..      ++..      ++..",
"      ++..      ++..                    @@..      ++..      ++..",
"      ++..      ++..                    @@..      ++..      ++..",
"      ++..      ++..                    @@..      ++..      ++..",
"      ++..      ++..                    @@..      ++..      ++..",
"      ++..      ++..                    @@..      ++..      ++..",
"      ++..      ++..                    @@..      ++..      ++..",
"      ++..      ++..                    @@..      ++..      ++..",
"      ++..      ++..                    @@..  ++++  ..  ++++  ..",
"      ++..      ++..                    @@..  ++++  ..  ++++  ..",
"      ++..      ++..............................................",
"      ++..      ++..............................................",
"      ++..      ++..                                          ..",
"      ++..      ++..                                          ..",
"      ++..      ++..                                        ++..",
"      ++..      ++..                                        ++..",
"      ++..      ++..                                        ++..",
"      ++..      ++..                                        ++..",
"      ++..      ++..  ++++++++++++++++++++++++++++++++++++++  ..",
"      ++..      ++..  ++++++++++++++++++++++++++++++++++++++  ..",
"      ++..      ++..............................................",
"      ++..      ++..............................................",
"      ++..      ++..                                          ..",
"      ++..      ++..                                          ..",
"      ++..      ++..                                        ++..",
"      ++..      ++..                                        ++..",
"      ++..      ++..                                        ++..",
"      ++..      ++..                                        ++..",
"  ++++  ..  ++++  ..  ++++++++++++++++++++++++++++++++++++++  ..",
"  ++++  ..  ++++  ..  ++++++++++++++++++++++++++++++++++++++  ..",
"................................................................",
"................................................................"};
