/* XPM */
static char * groudon4_xpm[] = {
"64 64 15 1",
" 	c None",
".	c #581108",
"+	c #881810",
"@	c #101010",
"#	c #B02020",
"$	c #D84840",
"%	c #202838",
"&	c #807018",
"*	c #D0C030",
"=	c #384050",
"-	c #E8E8F8",
";	c #B8C8D8",
">	c #606878",
",	c #485060",
"'	c #9098B0",
"                                                                ",
"               .....                                            ",
"              .+++..                                            ",
"           ...+++....                                           ",
"         ..+++...+++.                                           ",
"         ..+++...+++.                                           ",
"         ..+++...+++.                                           ",
"        .++...++++@@@@                                          ",
"        .++...++++@@@@                                          ",
"      ..+..+++...#$$#@@@                                        ",
"    ..++.++...#$$####@$$@@@@@                                   ",
"    ..++.++...#$$####@$$@@@@@                                   ",
"    .....+.$$$$######@$$$$@@$@@                                 ",
"   .....+.$######.@@@@#$$$@@$$$...                              ",
"   ...++.#####.@@@@@@++###@@$$$##%.                             ",
"   ...++.#####.@@@@@@++###@@$$$##%.                             ",
"   ...++.#####.@@@@@@++###@@$$$##%.                             ",
"   ...++.#####.@@@@@@++###@@$$$##%.                             ",
"   ...++.#####.@@@@@@++###@@$$$##%.                             ",
"  ..++..####..@@@@@@@@@###@@#####@#%                            ",
"..+#######.&@@@$$$$$$$@%@@+++####@#%@@@                         ",
"..######.&@*@@@###===%-;%%+++++%%#+%###@                        ",
"..######.&@*@@@###===%-;%%+++++%%#+%###@                        ",
"  ..####@**=@@###=--;%;;%%%%+++@@#%#####@                       ",
"   %==>>@.@@#####=;;;.%%--;;%%@@@%+#####%@                      ",
"   @>>;;>;>;>>.@@=;;@#@%;;;;@@@++++#####%#@                     ",
"   @>>;;>;>;>>.@@=;;@#@%;;;;@@@++++#####%#@                     ",
"   @>>;;>;>;>>.@@=;;@#@%;;;;@@@++++#####%#@                     ",
"   @>>;;>;>;>>.@@=;;@#@%;;;;@@@++++#####%#@                     ",
"    @@%%;>;>;;>@@===#.%>%%@@+$$@@.++####%#@@@                   ",
"        @@>>>>@@@+###@%>%%+++$$##@+++++##@+@@                   ",
"          @@@@ @@###@  @%%+++#@@@@%+++++@++@@@                  ",
"               @@#@@   %>>@@@@+++;>%@@@@+++%%@                  ",
"               @@#@@   %>>@@@@+++;>%@@@@+++%%@                  ",
"               @@#@@   %>>@@@@+++;>%@@@@+++%%@                  ",
"               @@#@@   %>>@@@@+++;>%@@@@+++%%@                  ",
"               @@#@@   @@@###@+++>>%+++++@@%%+@           @@@@@ ",
"               @@#@@   @@@###@+++>>%+++++@@%%+@           @@@@@ ",
"               @@@    .$##%%%@@%%%%%%%%+@++++@@@@@@      @++#@@@",
"               @@@    .$##%%%@@%%%%%%%%+@++++@@@@@@      @++#@@@",
"                      .$%%$$#.@>>>%;>>>%+%%%%@+@@;;@@@ @@@++@##@",
"                    @.##%%###.@>>>%>>>>%+++%%@+++%%@@;@+++@@.##@",
"                  @@;%%%%%+++.@>>@@@@@@++++++@+@@+++@@@..@+++@@@",
"                    @@++%%%%%@>@@++++++@+++++@+@@+++@++@@+++@##@",
"                    @@++%%%%%@>@@++++++@+++++@+@@+++@++@@+++@##@",
"                    @@++%%%%%@>@@++++++@+++++@+@@+++@++@@+++@##@",
"                  @@;@+%%%+++@@++##+++++@++@@++@@+++@++@@.@@###@",
"                  @@@@@%++++@,@++##++++++@+@@++@@+++@++@@+###@@@",
"                  @@@@@%++++@,@++##++++++@+@@++@@+++@++@@+###@@@",
"                    %'@@@@%%%,@%%%+++++++@%++%%@@++++%%++.##.##@",
"                    %'@@@@%%%,@%%%+++++++@%++%%@@++++%%++.##.##@",
"                     %%     %,@###%++++++@,@@-'++%%%+-'@@@@@###@",
"                     %%     %,@###%++++++@,@@-'++%%%+-'@@@@@###@",
"                     %%     %,@###%++++++@,@@-'++%%%+-'@@@@@###@",
"                             %@###%+....@%,@@-;@@--'@-;@@####++@",
"                               ..@.%.....@%@@-,@@--;@-,,,###@@@ ",
"                               ..@.%.....@%@@-,@@--;@-,,,###@@@ ",
"                               @@@..%%%.%.@@@@@@@--,,@@@@@@@    ",
"                               @@@..%%%.%.@@@@@@@--,,@@@@@@@    ",
"                              @''='@%%%.@.@    @@@@@@           ",
"                              @@@;;;@@@.@@@                     ",
"                              @@@;;;@@@.@@@                     ",
"                              @@@;;;@@@.@@@                     ",
"                               @@@@@@@@@@                       "};
