/* XPM */
static char * ground1_xpm[] = {
"64 64 5 1",
" 	c #B57D5F",
".	c #D9B180",
"+	c #E5C999",
"@	c #D99F7C",
"#	c #CB8B61",
"  ..............................  ..............................",
"  ..............................  ..............................",
"  ............................++  ............................++",
"  ............................++  ............................++",
"  ++..........................++  ++..........................++",
"  ++..........................++  ++..........................++",
"  ++..@@......................++  ++..................@@......++",
"  ++..@@......................++  ++..................@@......++",
"  ++..........................++  ++..........................++",
"  ++..........................++  ++..........................++",
"  ++..........................++  ++....@@....................++",
"  ++..........................++  ++....@@....................++",
"  ++....................@@....++  ++..........................++",
"  ++....................@@....++  ++..........................++",
"  ++..........................++  ++..........................++",
"  ++..........................++  ++..........................++",
"  ++..........................++  ++..........................++",
"  ++..........................++  ++..........................++",
"  ++..........................++  ++..........................++",
"  ++..........................++  ++..........................++",
"  ++..........................++  ++..............@@..........++",
"  ++..........................++  ++..............@@..........++",
"  ++........@@................++  ++..........................++",
"  ++........@@................++  ++..........................++",
"  ++..........................++  ++..........................++",
"  ++..........................++  ++..........................++",
"  ++..........................++  ++..........................++",
"  ++..........................++  ++..........................++",
"  ++++++++++++++++++++++++++++++  ++++++++++++++++++++++++++++++",
"  ++++++++++++++++++++++++++++++  ++++++++++++++++++++++++++++++",
"  ##############################  ##############################",
"  ##############################  ##############################",
"  ..............................  ..............................",
"  ..............................  ..............................",
"  ............................++  ............................++",
"  ............................++  ............................++",
"  ............................++  ++..........................++",
"  ............................++  ++..........................++",
"  ++..........................++  ++............@@............++",
"  ++..........................++  ++............@@............++",
"  ++................@@........++  ++..........................++",
"  ++................@@........++  ++..........................++",
"  ++..........................++  ++..........................++",
"  ++..........................++  ++..........................++",
"  ++..........................++  ++..........................++",
"  ++..........................++  ++..........................++",
"  ++..........................++  ++..........................++",
"  ++..........................++  ++..........................++",
"  ++..........................++  ++..........................++",
"  ++..........................++  ++..........................++",
"  ++..........................++  ++..........................++",
"  ++..........................++  ++..........................++",
"  ++....@@....................++  ++..........................++",
"  ++....@@....................++  ++..........................++",
"  ++..........................++  ++....................@@....++",
"  ++..........................++  ++....................@@....++",
"  ++..........................++  ++......@@..................++",
"  ++..........................++  ++......@@..................++",
"  ++..........................++  ++..........................++",
"  ++..........................++  ++..........................++",
"  ++++++++++++++++++++++++++++++  ++++++++++++++++++++++++++++++",
"  ++++++++++++++++++++++++++++++  ++++++++++++++++++++++++++++++",
"  ##############################  ##############################",
"  ##############################  ##############################"};
