/* XPM */
static char * hoohLeft2_xpm[] = {
"64 64 15 1",
" 	c None",
".	c #101010",
"+	c #F8D060",
"@	c #E89801",
"#	c #A86801",
"$	c #602801",
"%	c #501801",
"&	c #D85030",
"*	c #A03818",
"=	c #383838",
"-	c #386010",
";	c #80C850",
">	c #E8E8F8",
",	c #A8B8D0",
"'	c #D8E8F8",
"          .........                                             ",
"      ....+++..++++..                                           ",
"      ....+++..++++..                                           ",
"    ..++++..+++.+++@@.                                          ",
"   ....+++..#@@.###@@.                                          ",
"   ....+++..#@@.###@@.                                          ",
" ..$+++..#@@.@@.@@@@@$                                          ",
" ..++++@@.@@.@@$@@@$$                                           ",
" ..++++@@.@@.@@$@@@$$                                           ",
" ..@++$@@.@@.@@$@@@..                                           ",
"   .$$@@@$@@$@@$@@@..                                           ",
"   .$$@@@$@@$@@$@@@..                                           ",
"      .@@@$$@$$@$$$%%%                                          ",
"       ..@$$@...&&&&&&%%%                                       ",
"       ..@$$@...&&&&&&%%%                                       ",
"         .$$*&&&&&&&&&&&&..                        $$$          ",
"       ..*&&&&&&&&&&&&&&&**.                     $$@$$$         ",
"       ..*&&&&&&&&&&&&&&&**.                     $$@$$$         ",
"       ..&&&&&&====**&&&&--;..                   $$@@@$         ",
"      .@@#&&*==>=====%%%;;;;;;%                 $@@@@@#$$$      ",
"      .@@#&&*==>=====%%%;;;;;;%                 $@@@@@#$$$      ",
"      .@@#&&*==>=====%%%;;;;;;%                 $@@@@@#$$$      ",
"   $$$+++#**>%%,=====%  %;;;&&*%%%              $@@@##$##$$$$   ",
"   $$$+++#**>%%,=====%  %;;;&&*%%%              $@@@##$##$$$$   ",
" $$++++##@##.,,====..    %%&&&&&&&%%%         $$@@@#$$$$$+++$   ",
"$+++++@@@@@@@$$....      %%&&&&&&&&&&%%       $$###.$$@+++$$$   ",
"$+++++@@@@@@@$$....      %%&&&&&&&&&&%%       $$###.$$@+++$$$   ",
".++@@@@$$$...            %%&&&&&&&&&*&&%     $##.$$@@@@@@@@@$$$$",
".@@#...                 .&&&&&&&&&&&&%%-%%%$$$$$@@@@@@@...$$@@@$",
".@@#...                 .&&&&&&&&&&&&%%-%%%$$$$$@@@@@@@...$$@@@$",
" ..$                    .&&&&&&&&&&&&%%;---$$$@@@...$$$###@@@$$ ",
"                        .**&''%&&&&&&&&%;;;--$...######$$$$$@@@$",
"                        .**&''%&&&&&&&&%;;;--$...######$$$$$@@@$",
"                         ..'''%&&&&&&&&%;;;--$###.....$+++++$$$$",
"                         ..,'''..&&&&&&*%%%;;.$$$@@@+++++++++.. ",
"                         ..,'''..&&&&&&*%%%;;.$$$@@@+++++++++.. ",
"                         %%.,,,..&&&&&&*%%%;;.@@@@@@$$$......$$ ",
"                        %***..,..*&&&***%%%;;.$$$######@@@@@@$$ ",
"                        %***..,..*&&&***%%%;;.$$$######@@@@@@$$ ",
"                        %*****...*******%%%--$@@@##$$$$###@@@@@$",
"                        %******..******%''';;.$$@@@++++$$....$$$",
"                        %******..******%''';;.$$@@@++++$$....$$$",
"                      %%******.%%******%---;;.##...+++++++++.   ",
"                      %%******.******%%';;;.. $$###....+++..    ",
"                      %%******.******%%';;;.. $$###....+++..    ",
"                      %%******.******%%';;;.. $$###....+++..    ",
"                     %******--%*****%--;;;;..   $@@@##$.....    ",
"                     %******--%*****%--;;;;..   $@@@##$.....    ",
"                   ..****---..****%%';;-...      $$@@@@$$       ",
"                ...**---.%%.*****%--;;;.           $@@$$$       ",
"                ...**---.%%.*****%--;;;.           $@@$$$       ",
"                %%%%%... ..***%%%';;...             $$$         ",
"                         ..%--;--;;;.                           ",
"                         ..%--;--;;;.                           ",
"                           -...  ...                            ",
"                                                                ",
"                                                                ",
"                                                                ",
"                                                                ",
"                                                                ",
"                                                                ",
"                                                                ",
"                                                                ",
"                                                                "};
