/* XPM */
static char * hoohBack1_xpm[] = {
"64 64 13 1",
" 	c None",
".	c #602801",
"+	c #101010",
"@	c #E89801",
"#	c #A86801",
"$	c #F8D060",
"%	c #501801",
"&	c #D85030",
"*	c #A03818",
"=	c #386010",
"-	c #383838",
";	c #80C850",
">	c #D8E8F8",
"                                                                ",
"                              .++.                              ",
"                              .@@.                              ",
"                              .@@.                              ",
"                             +#@@#+                             ",
"                             +@@@@+                             ",
"                             .####.                             ",
"                             +@$$@+                             ",
"                             +@$$@+                             ",
"                             +$$$$+                             ",
"                             +$$$$+                             ",
" %%%                        %+@$$@+%                        %%% ",
" %%&%                     ++*&.@@.&*++                     %&%% ",
" %%&%                     ++*&.@@.&*++                     %&%% ",
" **&&%%%%                 ++&&+@@+&&++                 %%%%&&** ",
" ==*&&&&&%%              +--&&*++*&&--+              %%&&&&&*== ",
"+;;***&&&&*%             +**&&&&&&&&**+             %*&&&&***;;+",
"+;;%&&&&&&&&%%           %&&&&&&&&&&&&%           %%&&&&&&&&%;;+",
"+;;%&&&&&&&&%%           %&&&&&&&&&&&&%           %%&&&&&&&&%;;+",
" ==;%****&&&&&+           %%&&&&&&&&%%           +&&&&&****%;== ",
" ++;>%&&&&&&&&&+          %%*&&&&&&*%%          +&&&&&&&&&%>;++ ",
" ++==%%%%&*&&&&&%%          %*&&&&*%          %%&&&&&*&%%%%==++ ",
" ++==%%%%&*&&&&&%%          %*&&&&*%          %%&&&&&*&%%%%==++ ",
"   +;>%%%*&&&&&&**%%         +&&&&+         %%**&&&&&&*%%%>;+   ",
"   +;;>>>%&&**&&&&&&%%%      +;;;;+      %%%&&&&&&**&&%>>>;;+   ",
"    +====>%%&&&&&&&&&&&%%%  +=;;;;=+  %%%&&&&&&&&&&&%%>====+    ",
"     =;;;>>%&&&*&&&&&&&&&*%%+*&&&&*+%%*&&&&&&&&&*&&&%>>;;;=     ",
"     =;;;>>%&&&*&&&&&&&&&*%%+*&&&&*+%%*&&&&&&&&&*&&&%>>;;;=     ",
"     =;;;>>%&&&*&&&&&&&&&*%%+*&&&&*+%%*&&&&&&&&&*&&&%>>;;;=     ",
"     +;;;;+>%%%&&&*&&&&&&&**&&&&&&&&**&&&&&&&*&&&%%%>+;;;;+     ",
"      ++++;;>>=%%%*&&**&&&&&&&&&&&&&&&&&&**&&*%%%=>>;;++++      ",
"         =;;++=>>>=%%**&&%&&&&&&&&&&&&%&&**%%=>>>=++;;=         ",
"          ++==;;++;>>%%%%%&&&&&&&&&&&&%%%%%>>;++;;==++          ",
"          ++==;;++;>>%%%%%&&&&&&&&&&&&%%%%%>>;++;;==++          ",
"              ++===;+;;;;%**&&&&&&&&**%;;;;+;===++              ",
"                  ++===++%%%&&....&&%%%++===++                  ",
"                     .........@##@.........                     ",
"                     .........@##@.........                     ",
"                   ..####.@@+@@##@@+@@.####..                   ",
"                ...@@..++@..@@+##+@@..@++..@@...                ",
"              +.@@@@.++@@+$$@+@..@+@$$+@@++.@@@@.+              ",
"            ++@@@@@.#@@++$$$@+@++@+@$$$++@@#.@@@@@++            ",
"            ++@@@@@.#@@++$$$@+@++@+@$$$++@@#.@@@@@++            ",
"            ++.@...+@@@+++$$+@@++@@+$$+++@@@+...@.++            ",
"              ++  +@@@@..#+++@@++@@+++#..@@@@+  ++              ",
"              ++  +@@@@..#+++@@++@@+++#..@@@@+  ++              ",
"                ..@$$....###.@@++@@.###....$$@..                ",
"                ..@$$....###.@@++@@.###....$$@..                ",
"                ++$$$..###..@$+##+$@..###..$$$++                ",
"                +++$...###..$$+##+$$..###...$+++                ",
"                   ++  ..#++$$+##+$$++#..  ++                   ",
"                       ...+++$+..+$+++...                       ",
"                       ...+++$+..+$+++...                       ",
"                             ++  ++                             ",
"                                                                ",
"                                                                ",
"                                                                ",
"                                                                ",
"                                                                ",
"                                                                ",
"                                                                ",
"                                                                ",
"                                                                ",
"                                                                "};
