/* XPM */
static char * hoohLeft1_xpm[] = {
"64 64 16 1",
" 	c None",
".	c #101010",
"+	c #501810",
"@	c #386010",
"#	c #F8D060",
"$	c #D85030",
"%	c #A03818",
"&	c #E89810",
"*	c #80C850",
"=	c #A86810",
"-	c #602810",
";	c #D8E8F8",
">	c #383838",
",	c #E8E8F8",
"'	c #A8B8D0",
")	c #607878",
"          ........       +++@@@                                 ",
"      ....###..###...    ++$%%@@@ ...  ...                      ",
"      ....###..###...    ++$%%@@@ ...  ...                      ",
"    ..####..###.##&&&.     .$$$%%@++$..***....                  ",
"   ....###..=&&.==&&&.     .$$$$$@++$++*++@@@*..                ",
"   ....###..=&&.==&&&.     .$$$$$@++$++*++@@@*..                ",
" ..-###..=&&.&&.&&&&&-      ..$$$$++$$$+%%+++***.               ",
" ..####&&.&&.&&-&&---       ++$$$$%%+$$+%%%%%+@@.               ",
" ..####&&.&&.&&-&&---       ++$$$$%%+$$+%%%%%+@@.               ",
" ..&##-&&.&&.&&-&&...         +$$$$$+$$%%%++++;;*..             ",
"   .--&&&-&&-&&-&&...         +$$$$$+%%$%%%%%%++@@@             ",
"   .--&&&-&&-&&-&&...         +$$$$$+%%$%%%%%%++@@@             ",
"      .&&&--&--&--++++        +%%$$$%++$%%%%%+++;**.            ",
"       ..&--&...$$$$$$+++      ++$%%%..$%%%%%%%%+**.            ",
"       ..&--&...$$$$$$+++      ++$%%%..$%%%%%%%%+**.            ",
"         .--%$$$$$$$$$$$$..    ++%%%%..$%%%%%%%%+@@@--          ",
"       ..%$$$$$$$$$$$$$$$%%.   ++%%%%..$%%%%%%+++;;*..-         ",
"       ..%$$$$$$$$$$$$$$$%%.   ++%%%%..$%%%%%%+++;;*..-         ",
"       ..%$$$$$$$$$$$$$$$%%.   ++%%%%..$%%%%%%+++;;*..-         ",
"       ..$$$$$$>>>%%%$$$$@@*.. ++%%%.%%$%%%%%%%%%++*..-         ",
"       ..$$$$$$>>>%%%$$$$@@*.. ++%%%.%%$%%%%%%%%%++*..-         ",
"      .&&=$$%>>,>>>>>+++******+++%%%.$$$%%%%%%%%%++@  =---      ",
"   ---###=%%,++'>>>>>+  +***$$$$$+%%.$$+%%%%%%%%+;;*..-==----   ",
"   ---###=%%,++'>>>>>+  +***$$$$$+%%.$$+%%%%%%%%+;;*..-==----   ",
" --####==&==.''>>>...    ++$$$$$$$++$$$+%%%%%%%%%++*..---###-   ",
"-#####&&&&&&&--...       ++$$$$$$+$$$+++%%%%%%%%%++@..&###---   ",
"-#####&&&&&&&--...       ++$$$$$$+$$$+++%%%%%%%%%++@..&###---   ",
".##&&&&---...            ++$$$$++$$$$++%%%%%%%+++@@.&&&&&&&&----",
".&&=...                 .$$$$$$$$$$$+%%%%%%%%%%%+@@.&&&...--&&&-",
".&&=...                 .$$$$$$$$$$$+%%%%%%%%%%%+@@.&&&...--&&&-",
" ..-                    .$$$$$$$$$$$%%%%%%%%%%++@...---===&&&-- ",
"                        .$$$,,,$$$$$%%%%%%++++@@.======-----&&&-",
"                        .$$$,,,$$$$$%%%%%%++++@@.======-----&&&-",
"                         ..,,,,,,$%%%%%+++@@@...=.....-#####----",
"                         ..',,,,,,''''''......---&&&#########.. ",
"                         ..',,,,,,''''''......---&&&#########.. ",
"                           >'',,,'''''''''....&&&&&&---......-- ",
"                            >>'''''''''''''''.---======&&&&&&-- ",
"                            >>'''''''''''''''.---======&&&&&&-- ",
"                              >>>'''''''''>>>>&&&==----===&&&&&-",
"                            ..).....'''>>>---.--&&&####--....---",
"                            ..).....'''>>>---.--&&&####--....---",
"                            ..).....'''>>>---.--&&&####--....---",
"                            ...''))))>>>     -==...#########.   ",
"                            ...''))))>>>     -==...#########.   ",
"                              ...'...))>      --===....###..    ",
"                               ...  .''>        -&&&==-.....    ",
"                               ...  .''>        -&&&==-.....    ",
"                                     >>          --&&&&--       ",
"                                                   -&&---       ",
"                                                   -&&---       ",
"                                                    ---         ",
"                                                                ",
"                                                                ",
"                                                                ",
"                                                                ",
"                                                                ",
"                                                                ",
"                                                                ",
"                                                                ",
"                                                                ",
"                                                                ",
"                                                                ",
"                                                                "};
