/* XPM */
static char * hoohFace2_xpm[] = {
"64 64 15 1",
" 	c None",
".	c #000000",
"+	c #F8D060",
"@	c #602800",
"#	c #E89800",
"$	c #A86800",
"%	c #501800",
"&	c #386010",
"*	c #A03818",
"=	c #D85030",
"-	c #80C850",
";	c #383838",
">	c #E8E8F8",
",	c #A8B8D0",
"'	c #607878",
"                           ...   ...                            ",
"                          ...+@@@++..                           ",
"                          ...+@@@++..                           ",
"                  @@@@    .+++@@@+++.    @@@@@                  ",
"               ...+@@@    @+++@@@+++@    @@@++..                ",
"               .++++++@@  @##+@@@++#@   @++++++.                ",
"                ..++++@@  @###$$$###@   @+++++.                 ",
"                ..++++@@  @###$$$###@   @+++++.                 ",
"                ..$#####$@@$$#$$$##$@@$$####$$.                 ",
"           @@@    .#####@@+@@#$$$##@+@@@####..   @@@            ",
"           @@@    .#####@@+@@#$$$##@+@@@####..   @@@            ",
"          ...+@@   @@@##@++@@#$$$##@++@@#@@@   @@++...          ",
"          .++++#@@@@@@$$@++##@$$$@@#++@@$@@@@@@#++++..          ",
"          .++++#@@@@@@$$@++##@$$$@@#++@@$@@@@@@#++++..          ",
"           ...#####$$$@@$@+##@$$$@@#+@$$@$$$#####...            ",
"              @@@@####$$$@###$@@@$$##@$$$#####@@@               ",
"               @++@@@@##@$@###@@@###@$@@#@@@@@+@                ",
"               @++@@@@##@$@###@@@###@$@@#@@@@@+@                ",
"               @++@@@@##@$@###@@@###@$@@#@@@@@+@                ",
"           @@@@++++###@@@$@$$#...##$@$@@@###++++@@@@            ",
"          ...#$@@@#######@@$$.$$$..$@@########@@$##...          ",
"          ...#$@@@#######@@$$.$$$..$@@########@@$##...          ",
"          .#######@@@@####$@@......@$####@@@@@######..          ",
"          ....$@@@$$$$$$$$$%%.###..%$$$$$$$$$$@@$.....          ",
"          ....$@@@$$$$$$$$$%%.###..%$$$$$$$$$$@@$.....          ",
"              .@######@@.$%%%.###..%%$..@######@.               ",
"              .###$&&&&&&%***%...%%**%&&&&&&$$##.               ",
"              ....&&&&***==...###...==***&&&&&...               ",
"               .--%%%%====.==.+++..=.====%%%%%-.                ",
"               .--%%%%====.==.+++..=.====%%%%%-.                ",
"              .&%%*======.===.###..==.======**%&.               ",
"             .&-%%%=====%.*==*...**=*.%%====%%%-&..             ",
"             .&-%%%=====%.*==*...**=*.%%====%%%-&..             ",
"             .-%======**.;;===$$$===;;..*======%-..             ",
"           ..-%=======%%.;>;;*$$$**;>;..%=======%--.            ",
"           ..-%=======%%.;>;;*$$$**;>;..%=======%--.            ",
"           ..&%*===***;;.;,%%*###**%,;..;***===*%&&.            ",
"          .--**====%%%;;,.*..$###$$.*.,,;%%%====***-..          ",
"          .--%====*%%%  ;,.##$###$$#.,;; %%%**===%%-..          ",
"          .--%====*%%%  ;,.##$###$$#.,;; %%%**===%%-..          ",
"          .--%====*%%%  ;,.##$###$$#.,;; %%%**===%%-..          ",
"          &..%====*%%%;;';.###+++###.;'';%%%**===%%.&&          ",
"          .--*====%...'''; @@#+++##@ ;'''...%%===**-..          ",
"          .--*====%...'''; @@#+++##@ ;'''...%%===**-..          ",
"          .&&=====%...;;,; ..++++++. ;,,;...%%=====&..          ",
"          &%%===**%   ;;;  ..++++++.  ;;;   %%*====%&&          ",
"          &%%===**%   ;;;  ..++++++.  ;;;   %%*====%&&          ",
"           %%===**%          @+++@@         %%*====%            ",
"           ..*==%%           @###@@           %==**.            ",
"             .==%%            @@@             %==..             ",
"             .*=%%                            %=*..             ",
"             .*=%%                            %=*..             ",
"              .*%%                            %*.               ",
"               %%%                            %%                ",
"               %%%                            %%                ",
"                                                                ",
"                                                                ",
"                                                                ",
"                                                                ",
"                                                                ",
"                                                                ",
"                                                                ",
"                                                                ",
"                                                                "};
