/* XPM */
static char * hoohBack2_xpm[] = {
"64 64 12 1",
" 	c None",
".	c #602800",
"+	c #000000",
"@	c #E89800",
"#	c #A86800",
"$	c #F8D060",
"%	c #501800",
"&	c #A03818",
"*	c #D85030",
"=	c #383838",
"-	c #80C850",
";	c #386010",
"                              .+++.                             ",
"                              .@@@.                             ",
"                             +#@@@#+                            ",
"                             +@@@@@+                            ",
"                             .#####.                            ",
"                             +@$$$@+                            ",
"                             +@$$$@+                            ",
"                             +@$$$@+                            ",
"                             +@$$$@+                            ",
"                             +$$$$$+                            ",
"                            %+@$$$@+%                           ",
"                          ++&*.@@@.*&++                         ",
"                          ++**+@@@+**++                         ",
"                         +==**&+++&**==+                        ",
"                         +&&*********&&+                        ",
"                         %*************%                        ",
"                          %%*********%%                         ",
"                          %%*********%%                         ",
"                          %%*********%%                         ",
"                          %%&*******&%%                         ",
"                            %&*****&%                           ",
"                            %&*****&%                           ",
"                            %&*****&%                           ",
"                             +*****+                            ",
"                             +-----+                            ",
"                        %%  +;-----;+  %%                       ",
"                       %**%%+&*****&+%%**%                      ",
"                      %***&&*********&&***%                     ",
"                      %***&&*********&&***%                     ",
"                     %*********************%                    ",
"                   %%*****%%*********%%*****%%                  ",
"                   %%****&&&*********&&&****%%                  ",
"                 %%******%*************%******%%                ",
"                 %%*****.%&&**.....**&&%.*****%%                ",
"                 %%*****.%&&**.....**&&%.*****%%                ",
"                %&&***&.......@###@.......&***&&%               ",
"                %&&***&.......@###@.......&***&&%               ",
"                %&&....##.@@+@@###@@+@@.##....&&%               ",
"               %&....@@.+@..@@+###+@@..@+.@@....&%              ",
"               %&....@@.+@..@@+###+@@..@+.@@....&%              ",
"               +.@@@@@.+@+$$@+@...@+@$$+@+.@@@@@.+              ",
"              +@@@@@@.#@+$$$@+@+++@+@$$$+@#.@@@@@@+             ",
"              +.@....+@@++$$+@@+++@@+$$++@@+....@.+             ",
"               ++&&++@@@.#+++@@+++@@+++#.@@@++&&++              ",
"               %&..@@$$..###.@@+++@@.###..$$@@..&%              ",
"               %&++$$$$.##..@$+###+$@..##.$$$$++&%              ",
"                %++++$..##..$$+###+$$..##..$++++%               ",
"                %%%;;++ .#++$$+###+$$++#. ++;;%%%               ",
"                %%%;;++ .#++$$+###+$$++#. ++;;%%%               ",
"                 %%%%;+ ..+++$+...+$+++.. %;%%%%                ",
"                 %%%%;+ ..+++$+...+$+++.. %;%%%%                ",
"                 %%%%;+ ..+++$+...+$+++.. %;%%%%                ",
"                 %%%%;       ++   ++       ;%%%%                ",
"                   %%%                     %%%                  ",
"                   %%%                     %%%                  ",
"                                                                ",
"                                                                ",
"                                                                ",
"                                                                ",
"                                                                ",
"                                                                ",
"                                                                ",
"                                                                ",
"                                                                "};
