/* XPM */
static char * hoohFront1_xpm[] = {
"64 64 16 1",
" 	c None",
".	c #101010",
"+	c #F8D060",
"@	c #602801",
"#	c #E89801",
"$	c #A86801",
"%	c #386010",
"&	c #80C850",
"*	c #D8E8F8",
"=	c #501800",
"-	c #A03818",
";	c #D85030",
">	c #383838",
",	c #607878",
"'	c #A8B8D0",
")	c #E8E8F8",
"                                                                ",
"                                                                ",
"                             ..  ..                             ",
"                            ..+@@+..                            ",
"                      @@@   .++@@++.   @@@                      ",
"                    ..+@@   @++@@++@   @@+..                    ",
"                    .++++@  @#+@@+#@  @++++.                    ",
"                     .+++@  @##$$##@  @+++.                     ",
"                 @@  .$###$@@$#$$#$@@$###$.  @@                 ",
"            .....@#@@ .###@@+@#$$#@+@@###. @@#@.....            ",
"          %.&&%&&...@@@@@#@++@#$$#@++@#@@@@@...&&%&&.%          ",
"         %&&*****%&&%..@@$@++#@$$@#++@$@@..%&&%*****&&%         ",
"         %===*===**&%&&..$$@+#@$$@#+@$$..&&%&**===*===%         ",
"         ...-=--===**&&%%.$@##$@@$##@$.%%&&**===--=-...         ",
"         ...-=--===**&&%%.$@##$@@$##@$.%%&&**===--=-...         ",
"       ..;;;==--=--==**%%&.$@##@@##@$.&%%**==--=--==;;;..       ",
"       ...;;;;=;-=--==***&&.@$#..#$@.&&***==--=-;=;;;;...       ",
"          ..;;;;;=;-=-===*&%.$.$$.$.%&*===-=-;=;;;;;..          ",
"            ..;;;;;;-=---==&%@....@%&==---=-;;;;;;..            ",
"              .;;;;;-=---=-=%=.##.=%=-=---=-;;;;;.              ",
"               .;;;;;------==-.##.-==------;;;;;.               ",
"                .;;;;;-----=--=..=--=-----;;;;;.                ",
"                 .-;;;;;;----..##..----;;;;;;-.                 ",
"                  ==-;;;;;;-.;.++.;.-;;;;;;-==                  ",
"                    ===--;;.;;.##.;;.;;--===                    ",
"                       ====.-;-..-;-.====                       ",
"                       >>,.>>;;$$;;>>.,>>                       ",
"                       >>'.>)>-$$->)>.'>>                       ",
"                       >>'.>'=-##-='>.'>>                       ",
"                         >'.-.$##$.-.'>                         ",
"                         >'.-.$##$.-.'>                         ",
"                          >'.#$##$#.'>                          ",
"                       >>>,>.##++##.>,>>>                       ",
"                      .'',,> @#++#@ >,,''.                      ",
"                      ....'> .++++. >'....                      ",
"                         ..  .++++.  ..                         ",
"                              @++@                              ",
"                              @##@                              ",
"                               @@                               ",
"                                                                ",
"                                                                ",
"                                                                ",
"                                                                ",
"                                                                ",
"                                                                ",
"                                                                ",
"                                                                ",
"                                                                ",
"                                                                ",
"                                                                ",
"                                                                ",
"                                                                ",
"                                                                ",
"                                                                ",
"                                                                ",
"                                                                ",
"                                                                ",
"                                                                ",
"                                                                ",
"                                                                ",
"                                                                ",
"                                                                ",
"                                                                ",
"                                                                "};
