/* XPM */
static char * kyogreBack1_xpm[] = {
"64 64 13 1",
" 	c None",
".	c #183858",
"+	c #101010",
"@	c #60A0C0",
"#	c #80B8D8",
"$	c #383838",
"%	c #286098",
"&	c #C82828",
"*	c #4080C0",
"=	c #981818",
"-	c #707880",
";	c #98A8B0",
">	c #C8D8F0",
"                                                                ",
"                                                                ",
"                                                                ",
"                                                                ",
"                                                                ",
"                                                                ",
"                                                                ",
"                                                                ",
"                                                                ",
"                                                                ",
"                            .......                             ",
"                            .......                             ",
"                         +++@#####@++++                         ",
"                       ++@@@#######@@@@+                        ",
"                      +@@@@@#######@@@@@+                       ",
"                      +@@@@@#######@@@@@+                       ",
"                     $%@@@@@#######@@@@@%$                      ",
"                     $@@@@@@@#####@@@@@@@$                      ",
"                   +++@@@@@@@@###@@@@@@@@++++                   ",
"                   +++@@@@@@@@###@@@@@@@@++++                   ",
"                   +&&+@@@@@@@@@@@@@@@@@+&&++                   ",
"                   +&@@++@@@@@@@@@@@@@@+@@&++                   ",
"         ++++++++  +&@@**..@@@@@@@@@...*@@&++ ++++++++          ",
"         ++++++++  +&@@**..@@@@@@@@@...*@@&++ ++++++++          ",
"    $$$++=*******+++&*@**..@@@@@@@@@...*@*&+++*******=+++$$     ",
"  $$-++%%*&&&&&&***.+&@**%%.@@@@@@@.%%%*@&+..**&&&&&&*%%%+-$$   ",
" $$$+..===******&**%+&*%%%%.**@@@**.%%%%*&+%%*&******====.+$$$  ",
" $$$+..===******&**%+&*%%%%.**@@@**.%%%%*&+%%*&******====.+$$$  ",
"$;--+%%%%=******&**%+=%%%%%*********%%%%%=+%%*&******=%%%%+--;$$",
"$;;;+%%%%==&&&&&***%.+=%%%%*********%%%%=+.%%**&&&&&==%%%%+;;;$$",
" $+++$$%=%%%%==**%%%.+=%%%%%%*****%%%%%%=+.%%%**===%%%=%%$+++$  ",
" +-->;;+%%%==***%%%.+;%==%%%%%%%%%%%%%%=%;+..%%****=%%%++;>--+  ",
" +-->;;+%%%==***%%%.+;%==%%%%%%%%%%%%%%=%;+..%%****=%%%++;>--+  ",
" +>>;--+++=%%%%%%.. +;%==%%%%%%%%%%%%%%=%;+  .%%%%%%=++++-;>>+  ",
" +>>;--+++=%%%%%%.. +;%==%%%%%%%%%%%%%%=%;+  .%%%%%%=++++-;>>+  ",
"  +++++;>>%%%%%..    +===%%%%%%%%%%%%%%==+    ..%%%%%>>;;++++   ",
"     ++>>-...++      +=%%%%%%%%%%%%%%%%%=+      +++..->>>+      ",
"       +++            +..%%%%%%%%%%%%%%.+            ++++       ",
"                       ++..%%%%%%%%%...+                        ",
"                     ++++++.%%***%%.++++++                      ",
"                     ++++++.%%***%%.++++++                      ",
"                   +.%%%%%%%%%***%%%%%%%%%.++                   ",
"                   +.%%%%%%%%%***%%%%%%%%%.++                   ",
"                 ..%%%%%%%%++.***.++%%%%%%%%%.                  ",
"                 %%%%.%%%%%+ +***+ +%%%%%.%%%%                  ",
"                .%%%..%****+  +++  +****%..%%%.                 ",
"                .**...*%%**+       +***%*....*.                 ",
"                .**+ .*..**+       +***.*. ++*.                 ",
"                .**+ +*..**+       +***.*+ ++*.                 ",
"                .**+ +*..**+       +***.*+ ++*.                 ",
"                .**+ +*..**+       +***.*+ ++*.                 ",
"                 +++ ++++**+       +***+++ +++                  ",
"                       +++++       +++++                        ",
"                                                                ",
"                                                                ",
"                                                                ",
"                                                                ",
"                                                                ",
"                                                                ",
"                                                                ",
"                                                                ",
"                                                                ",
"                                                                ",
"                                                                "};
