/* XPM */
static char * kyogreRight2_xpm[] = {
"64 64 16 1",
" 	c None",
".	c #101010",
"+	c #183858",
"@	c #707880",
"#	c #981818",
"$	c #286098",
"%	c #4080C0",
"&	c #60A0C0",
"*	c #C82828",
"=	c #80B8D8",
"-	c #C8D8F0",
";	c #98A8B0",
">	c #581108",
",	c #383838",
"'	c #E0C020",
")	c #807018",
"                                                                ",
"                                                                ",
"                                                                ",
"                                                                ",
"                                                                ",
"                                                                ",
"                                                                ",
"                                                                ",
"                                                                ",
"                                                                ",
"                                                                ",
"                                                                ",
"                                                                ",
"                                                                ",
"                                                                ",
"                                                                ",
"                                  .. ....                       ",
"                       ...+++ ++++@@.@@@@....                   ",
"                       .#####..+++++++++++@@@..                 ",
"                       .$$$$$##...+++++++++++++                 ",
"                       .$$$$$##...+++++++++++++                 ",
"                        ..+++$$###..+++++++++++                 ",
"                        ..+++++$$$#.+...........                ",
"                       ......+++++...%%%&&&&&&&&....            ",
"                       .*****.....$$%&&&&&&&======&&....        ",
"                       .*****.....$$%&&&&&&&======&&....        ",
"  +++++                .$$%%%**...$$%&&&&&============&&.       ",
"  +++++                .$$%%%**...$$%&&&&&============&&.       ",
"  +$$$$++               ..$$$%%***+$%&&&&&===============+      ",
"...++++$$+             +..$$$$$%%%*+%&&&&&&&---===========+++   ",
"..$$$$$+++++++       ++$$$.$$$$$$$*+%%%%&&--------========%%%+  ",
"...++$$$$$$$$$.    ..$$$$$.$$$$$$$%*+%%%&&---------======&%%%+  ",
"     +++++.........%%$$$++.$$$$$$$%*+%%%%&&&-------&&&&&&%%%%%. ",
"          ...&&&%%%%$$$###$$$$$$$$%*$%%%;;&&&=====&&%%%%%%%%%%. ",
"  +++++   +++.%%$$$$$##$$$$$$$$$$$#$$$$$;;;;%%%%%%%%%%%%%%%%%%#.",
"  +++++   +++.%%$$$$$##$$$$$$$$$$$#$$$$$;;;;%%%%%%%%%%%%%%%%%%#.",
"  .%%%%++    .+$$$$$$##$$$$$$$$$$$#$$$$$$;;;%%%%%%%*****%%****#.",
".....++$$++++ .+$$$$$++#$$$$$$$$$$#$$$$$$$%%%%%%%%#**********;. ",
"..%%%%%+++$$$..$$$$.+++#$$$$$$$$$$$>$$$$$%%%#######,''>>#;;;;.  ",
"..+++%%%%%$$$$$$+++....>##$;;$;$$$..$$$$.###;;;;;;,,))''.....   ",
"  .$$$$$$$$$$$$++++    ....@@$....$$$$$$$.@@@;;;;;;#.....       ",
"  .............            ...$%%%***$$$$.>>.@@@....            ",
"  .............            ...$%%%***$$$$.>>.@@@....            ",
"                           ..$%***%%%***%$.. ...                ",
"                          .$$$%***%%%***%$..                    ",
"                          .$$$%***%%%***%$..                    ",
"                        ..+$$$#$$$***$$$#$$$.                   ",
"                        ..---#$$$$#$#$$$$#$$.                   ",
"                        ..;;;$$***$$$###$---.                   ",
"                        ..;;;$$***$$$###$---.                   ",
"                          ....----$$----.;;;.                   ",
"                             .;;;;..;;;;....                    ",
"                              ....  ....                        ",
"                                                                ",
"                                                                ",
"                                                                ",
"                                                                ",
"                                                                ",
"                                                                ",
"                                                                ",
"                                                                ",
"                                                                ",
"                                                                ",
"                                                                "};
