/* XPM */
static char * kyogreFace2_xpm[] = {
"64 64 16 1",
" 	c None",
".	c #286098",
"+	c #183858",
"@	c #4080C0",
"#	c #101010",
"$	c #581008",
"%	c #C82828",
"&	c #981818",
"*	c #383838",
"=	c #98A8B0",
"-	c #707880",
";	c #C8D8F0",
">	c #60A0C0",
",	c #80B8D8",
"'	c #807018",
")	c #E0C020",
"                                                                ",
"                                                                ",
"                                                                ",
"                                                                ",
"                                                                ",
"                                                                ",
"                                                                ",
"                                                                ",
"                                                                ",
"                                                                ",
"                                                                ",
"                         .....     ....                         ",
"                   ... ..+@@@+     +@@+... ..                   ",
"                 .+@.. +@+@@@+     +@@+@@+ .@++..               ",
"                 .+@++ +@+@@@+     +@@+@@+ +@++..               ",
"                 .+@++ +@+@@@+     +@@+@@+ +@++..               ",
"                 .+@++ +@+@@@+     +@@+@@+ +@++..               ",
"                 +.@++ +.@@@@#     #@@@..+ +@..++               ",
"                 #....#+.....#     #.....+#....##               ",
"                  #....#.....# ### #.....#...##                 ",
"                   ###........#...#........##                   ",
"                    ####+....++...++...++###                    ",
"                   $$$$  ++++#.....#+++   $$$                   ",
"                   $$$$  ++++#.....#+++   $$$                   ",
"                   $%%%#  ###.......##   #%%$                   ",
"                   $%%%#  ###.......##   #%%$                   ",
"                   #&&@@##.....@@@....###@@&#                   ",
"      *#####       #&&.@@+...@@@@@@@..+@@@.&#       #####***    ",
"    **==**--*##    #&&..@@@@@@@@@@@@@@@@@..&#     #*---*====*   ",
"   ***-===*+.&&##   $$&...@@@@@@@@@@@@....&$     #&.++*==---**  ",
"   ***-===*+.&&##   $$&...@@@@@@@@@@@@....&$     #&.++*==---**  ",
" **;;;+#..&..&&..+  ##&+.@@@@@@>>>@@@@@..+&#   ++.&...&.#+++;;* ",
" **=;;;#...&&&&@@@+ ++#$@@@@@@@>>>@@@@@@@$#+ ++@@@&&&&..#;;;;=* ",
" *****+&&&&.@..%%@@+$$&$@@@@@@>,,,>@@@@@@$&$+@@@@%.@..&&&+++*** ",
" *****+&&&&.@..%%@@+$$&$@@@@@@>,,,>@@@@@@$&$+@@@@%.@..&&&+++*** ",
"*;;;==....&@@@@%%@@#&&+.@@;;;;,,,,,;;;@@@.+&#@@@@%@@@@&.....=;;*",
"*==;;;....&.@..%%@@++++.@;;;;;;,,,;;;;;@@.+++@@@@%.@..&.....;;=*",
" ***++&&&&.%%%%@@@@.++-=@;;;;;;,,,;;;;;@@=-+.@@@@@%%%%.&&&&&+** ",
"   +++.....@@@@@@.....-=@;;;;;;,,,;;;;;@@=-......@@@@@......++  ",
"      ++.........###++..@;;;;;;,,,;;;;;@@..+#####.......++++    ",
"        ++#######   ++..@@;;;;>,,,>;;;@@@..+     ######+        ",
"                    ++%%%.@@@@>>>>>@@@.%%%%+                    ",
"                    ##%'%%@@@@@>>>@@@@%%%'%#                    ",
"                    ##%'%%@@@@@>>>@@@@%%%'%#                    ",
"                    ##%'%%@@@@@>>>@@@@%%%'%#                    ",
"                      *)$%@@@@@@@@@@@@%$$)*                     ",
"                      *#)&%%%@@@@@@@%%&))#*                     ",
"                       #*#%%%%@@@@@%%%#**#                      ",
"                        ##====%%%%%===###                       ",
"                          ####=====###                          ",
"                              *****                             ",
"                              *****                             ",
"                              *****                             ",
"                                                                ",
"                                                                ",
"                                                                ",
"                                                                ",
"                                                                ",
"                                                                ",
"                                                                ",
"                                                                ",
"                                                                ",
"                                                                ",
"                                                                "};
