/* XPM */
static char * portal0_xpm[] = {
"64 64 11 1",
" 	c None",
".	c #2030C8",
"+	c #3050F0",
"@	c #68A0F8",
"#	c #A8E0F8",
"$	c #F8F8F8",
"%	c #686038",
"&	c #D89848",
"*	c #F8D8A0",
"=	c #B08830",
"-	c #E8B880",
"                                                                ",
"                                                                ",
"                                                                ",
"                                                                ",
"                                                                ",
"                                                                ",
"                                                                ",
"                                                                ",
"                            ........                            ",
"                            ........                            ",
"                        ......+++++.....                        ",
"                     ....+++@@@@@@@@+++....                     ",
"                    ...++@@@@@@@@@@@@@@+++..                    ",
"                    ...++@@@@@@@@@@@@@@+++..                    ",
"                   ..+++@@@@@@@@@@@@@@@@+++...                  ",
"                 ...+++@@@@@@@@@@@@@@@@@@@++...                 ",
"                ...++++@@@@@@@@@##$@@@@@@@++++...               ",
"                ...++++@@@@@@@@@##$@@@@@@@++++...               ",
"                .++++++@@@@@@@#@$$#@@@@@@@+++++..               ",
"               ..+++++++@@@@@@@$##@@##@@+++++++...              ",
"               .+++++++++@@@@@@#$$#$@@@++++++++++.              ",
"               .+++++++++@@@@@@#$$#$@@@++++++++++.              ",
"               .++++++++++++@@@@$$$$+++++++++++++.              ",
"             ...+++++++++@@+++++##$@+++++++++++++..             ",
"             ...+++++++++@@+++++##$@+++++++++++++..             ",
"             ..++++++++++++@##+#$$#+++++++++++++++.             ",
"             ..+++++++++++++@@#####++++@++++++++++.             ",
"             ..+++++++++++++++##$$@@###+++++++++++.             ",
"             ..+++++++++++++++##$$@@###+++++++++++.             ",
"             ..++++++@@@++++++@#$$$###@+++++++++++.             ",
"             ..++++++++@#+++@@####$$##++++++++++++.             ",
"             ...++++++++@##@######$$@@++++@++++++..             ",
"             ...++++++++@##@######$$@@++++@++++++..             ",
"               .+++++++++###$$##$$$$@@##@@+++++++.              ",
"               .++++++++#@@@$$$$$$$#####+++++++++.              ",
"               ..++++++@@++@##$$$$$$###++++++++...              ",
"               ..++++++@@++@##$$$$$$###++++++++...              ",
"                .+++#++++++.$$$$$$$$##@@+++++++..               ",
"                ...+@##++...@@##$$$#...+++@#++...               ",
"                 ......@+.....@####@...+++#+...                 ",
"                 ......@+.....@####@...+++#+...                 ",
"                   ..++++..............++++...                  ",
"                    ...++++...........++++..                    ",
"                     ....+++++.....++++....                     ",
"                     ....+++++.....++++....                     ",
"                       %......+++++.....%%                      ",
"                       %&**=........==-=%%                      ",
"                       %%&&***&&&&&-&&=%                        ",
"                       %%&&***&&&&&-&&=%                        ",
"                        %==&--****-&%%%%                        ",
"                        %&&-&&======%%%%                        ",
"                        %&&-&&======%%%%                        ",
"                        %==--------&%%%                         ",
"                         %%&-------=%%%                         ",
"                         %%=-------%%%%                         ",
"                         %%=-------%%%%                         ",
"                           %%%----&%%%                          ",
"                              %%%%%                             ",
"                                                                ",
"                                                                ",
"                                                                ",
"                                                                ",
"                                                                ",
"                                                                "};
