/* XPM */
static char * rayquazaFace1_xpm[] = {
"64 64 16 1",
" 	c None",
".	c #581108",
"+	c #981818",
"@	c #101010",
"#	c #306830",
"$	c #104018",
"%	c #509050",
"&	c #98E090",
"*	c #303030",
"=	c #78B870",
"-	c #907818",
";	c #F0C830",
">	c #98A8B0",
",	c #C82828",
"'	c #C0A028",
")	c #C8D8F0",
"                    ...                                         ",
"                    ...                                         ",
"                    .++.   @@@@                                 ",
"                    .##$$$$%#@@                                 ",
"                    .##$$$$%#@@                                 ",
"                    @$$%%%%#@                                   ",
"             @@@@@@@$%%%###+@                    @@@@@@@@       ",
"             @@@@@@@$%%%###+@                    @@@@@@@@       ",
"             @@@@@@@$%%%###+@                    @@@@@@@@       ",
"             @&&&&%%@%%#####+@@                 @%&&&&&@@       ",
"              @@&&&&%@@++++++@@               @@%&&&&@@         ",
"              **@=&&=##@@@@@@@@              @##=&==@           ",
"              **@=&&=##@@@@@@@@              @##=&==@           ",
"             *--#@=====@       #######       @====@@            ",
"          ***%--#$@@===@     $$-;;;;;-$      @===@              ",
"          ***%--#$@@===@     $$-;;;;;-$      @===@              ",
"         *%%%---$@  @%%%@@@ $--;=====;-$$$ @@%%%@               ",
"        @#---#$$@    @@%%%%@#;;=======;###@%%%@@                ",
"        $#####@@       @%%%%#;;=======;###%%%@                  ",
"        $#####@@       @%%%%#;;=======;###%%%@                  ",
"      @@#@@@@@@@        @@@%$;;=======;$$$%@@                   ",
"      **@$###$....      ###&$;;;=====;;$$$&##                   ",
"      **@$###$....      ###&$;;;=====;;$$$&##                   ",
"     @##.%####@@%+@@   @&&&&=##;;;;;;;#===&&&@   ****           ",
"     @##.%####@@%+@@   @&&&&=##;;;;;;;#===&&&@   ****           ",
"     *##+.%%%#$$#%@@   @$$$&&##=;;;;;=#&&&&$$@@@*.++***         ",
"     *##+.%%%#$$#%@@   @$$$&&##=;;;;;=#&&&&$$@@@*.++***         ",
"     *###+...###@%++@  @$$$-&##%=====%#&&&-$$@@@+###+++**       ",
"   ..*###%....###$++@@@=$$$-@&&#=====#&@@@-$$=@@**#####++*      ",
"   ..+**##%%%.##@@..@===###@;$$&%%=%%&$;;;@##===@=***##++*      ",
"   ..+**##%%%.##@@..@===###@;$$&%%=%%&$;;;@##===@=***##++*      ",
"   ..+%%$#####@@--@@===#@@@@%%%&&&&&&&%%%%@@@#===@===%%***      ",
"   ..+%%%$###$--#@==#@@@@@@$***%&&&&&%****$##@@@#=@@=====***    ",
"   ..+%%%$###$--#@==#@@@@@@$***%&&&&&%****$##@@@#=@@=====***    ",
"     @++%%$$$@--#@@@@###@@@$+..*%%=%%*.+++@#####@@@@===###**    ",
"      @@++$$$@$$--###$$$@@@$@++>$$#$$>+@@@$**##########**;;;*   ",
"      @@++$$$@$$--###$$$@@@$@++>$$#$$>+@@@$**##########**;;;*   ",
"        @@@@@@@@$$$$$$$$@@@$@,,.......,@@@.$$*@@#####**==;==%** ",
"                @@$$$$$@%%%@$@@,.....,@   @..$$$*@##*%%%%;===** ",
"                  @@@@@*###%@@@@,,,,,@*    @@....@***%%%%;===%%*",
"                  @@@@@*###%@@@@,,,,,@*    @@....@***%%%%;===%%*",
"                  @@@@@*###%@@@@,,,,,@*    @@....@***%%%%;===%%*",
"                    *%%*####%%%$@@@@@*%***   @@@@   *##%%%;;;''*",
"                 $$$*##****########***#***$$$       ***##%%%%;;*",
"                 $$$*##****########***#***$$$       ***##%%%%;;*",
"              $$@$%%*##*****######****#***%$$@$$    ***#####'##*",
"             @##)@*****@%%%**###**@##******@@)##@.@@#**###''###*",
"             @##)@*****@%%%**###**@##******@@)##@.@@#**###''###*",
"          @@@###$$**   @%%%%****@@###*    *$$$###@***#####''###*",
"          @@@$))*>@@   @%%%%#**@#####@    @>>*))$@***#####''###*",
"             @@@ @@@    @@@%#**@###$$@    @@@+@@@$..#**###''#@@ ",
"             @@@ @@@    @@@%#**@###$$@    @@@+@@@$..#**###''#@@ ",
"                        @@@$#@@@##$@@*$    ++###$######**###-@@ ",
"                        @@@*@@@@@@@''#*****++#$$#######++@***   ",
"                        @@@*@@@@@@@''#*****++#$$#######++@***   ",
"                           @$$$$$$$''##'''#$$*#######$$%%+@@    ",
"                           @$$$$$$$''##'''#$$*#######$$%%+@@    ",
"                           @$$$$$$###'''''####**####$%%%%+@@    ",
"                            @$$$#######---''''##$$$$%%%++@      ",
"                            @$$$#######---''''##$$$$%%%++@      ",
"                             @@@$$##############*.%%%++@@       ",
"                                @@@$$$########$$@@...@@         ",
"                                @@@$$$########$$@@...@@         ",
"                                     @@@@@@@@@@@                "};
