/* XPM */
static char * rayquazaBack1_xpm[] = {
"64 64 14 1",
" 	c None",
".	c #101010",
"+	c #78B870",
"@	c #509050",
"#	c #306830",
"$	c #104018",
"%	c #C0A028",
"&	c #F0C830",
"*	c #907818",
"=	c #581108",
"-	c #981818",
";	c #C82828",
">	c #303030",
",	c #98A8B0",
"           ...                                    ...           ",
"           ...                                    ...           ",
"           ..+.                                 ..+..           ",
"           ..++..                             ..+++..           ",
"           ..++..                             ..+++..           ",
"           ..@+++..                          .++++@..           ",
"           ..#+++++.                        .+++++#..           ",
"           ..#+++++.                        .+++++#..           ",
"             .@+++++..       ######       ..++++@@.             ",
"              .@@+++@@.    ..@++++@..    .@@++@@..              ",
"              .@@+++@@.    ..@++++@..    .@@++@@..              ",
"               .....@@@.. $%%&++++&%%$ ..@@@....                ",
"                    ..@@@.#++%&&&&%++@.@@@..                    ",
"                    ..@@@.#++%&&&&%++@.@@@..                    ",
"                      .@@#+++@@%%@@+++$@@.                      ",
"                       ..@+@@@@%%@@@@+#$$                       ",
"                       ..@+@@@@%%@@@@+#$$                       ",
"                       ..@+@@@@%%@@@@+#$$                       ",
"                       ..$@@@@@%%@@@@@$..                       ",
"                      .@@$#@@@@**@@@@#$@@.                      ",
"                      .@@$#@@@@**@@@@#$@@.                      ",
"                    ..+@@#####*##*####$@@+..          ===       ",
"                    $$$###........#####$$$$$          =--=  ....",
"                    $$$###........#####$$$$$          =--=  ....",
"                       $$.;;;;;;;;.###$$$             =##$$$@#..",
"                   $$$$##.-######-.###$               .$$@@@#.  ",
"                   $$$$##.-######-.###$               .$$@@@#.  ",
"               $$$$&@@$$$--######-->>$$$$$##    $$$$$$$@@@##-.  ",
"             $$@@@@&@@$##=@@@@@@@@=>>@@&&@$$$$$$@@@@@@.@@####-..",
"             $$@@@@&@@$##=@@@@@@@@=>>@@&&@$$$$$$@@@@@@.@@####-..",
"           $$%@@@&&@@@$##@@@@@@@@@@>>%&@@&@@@%$$$$@@@##..-----..",
"          $###%&&@@@@@$############>>#####%%%###$$#######.......",
"          $###%&&@@@@@$############>>#####%%%###$$#######.......",
"         $###%#####@$$$$$=$$$$$$$$=>>#########$$......          ",
"       >>$>>>######$.....-$$$$$$$$-..$........                  ",
"       >>$>>>######$.....-$$$$$$$$-..$........                  ",
"      >>>@@@@>>##$$.     .--------.$$##==.>>                    ",
"    >>-$$##--@@>>...   $$>........#$$#=..#>>$   ..              ",
"    >>-$$##--@@>>...   $$>........#$$#=..#>>$   ..              ",
"   >--#$$#---##>>..-..>##>#>>.=$$$$$$=#..#>>#>..,,.             ",
"  .-##$###---##$$--...$>>>>..$$$$$$####.....>$#####..           ",
"  .-##$###---##$$--...$>>>>..$$$$$$####.....>$#####..           ",
"  .-##$###-####$$##-..#>>  ..$........#..   >#>>$$#,,.          ",
"  .-##$###-###$####-..$      .$$$$$$$*...    $##$$#..           ",
"  .-##$###-###$####-..$      .$$$$$$$*...    $##$$#..           ",
"  .-##$###-###$####-..     ..$$$$$$**$$..     .....             ",
"   .--.##>>>>#$##--.  =======$$$$##**$.                         ",
"   .--.##>>>>#$##--.  =======$$$$##**$.                         ",
"   .--.##>>>>#$##--.  =======$$$$##**$.                         ",
"    ...>>$$$$>$--.. ==#####>>=>####***.                         ",
"      .#######$>>   ==###@+++@@>>#*##.                          ",
"      .#######$>>   ==###@+++@@>>#*##.                          ",
"      .%%&###@#$$$$>>>++++-----##>*##.                          ",
"       $$#&@@@@##$$>>>========###>#..                           ",
"       $$#&@@@@##$$>>>========###>#..                           ",
"       ..#&@@@@@@@@@>>===########>.                             ",
"         .%##@@@@@@@##$########$$>                              ",
"         .%##@@@@@@@##$########$$>                              ",
"          .%%&&&&@@###-==$$$$$=--.                              ",
"           ..####&&###=--$$$$$-==                               ",
"           ..####&&###=--$$$$$-==                               ",
"              .........==-----=                                 ",
"                         =====                                  ",
"                         =====                                  "};
