/* XPM */
static char * rayquazaLeft2_xpm[] = {
"64 64 14 1",
" 	c None",
".	c #101010",
"+	c #306830",
"@	c #509050",
"#	c #981818",
"$	c #F0C830",
"%	c #C0A028",
"&	c #104018",
"*	c #303030",
"=	c #581108",
"-	c #907818",
";	c #78B870",
">	c #C8D8F0",
",	c #98A8B0",
"                                                                ",
"                                                                ",
"                                                                ",
"                                                                ",
"                                                                ",
"     ....                                                       ",
"     ....                                                       ",
"     ..++.       ...                                            ",
"     ..+++..     .@.                                            ",
"     ..+++..     .@.                                            ",
"     ..+++..   ..@@.                                            ",
"     ..+++++.  ..@+.                                            ",
"     ..+++++.  ..@+.                                            ",
"     ..+++++.  ..@+.                                            ",
"     ..+++++. .@@@+.                                            ",
"     ..+++..  .@@++.                                            ",
"     ..+++..  .@@++.                                            ",
"     ..+++.. .@@@++...           ...                            ",
"     ..++.   .@....+++.....   ...###..                          ",
"     ..++....++..@$$%%@@@@@.& ..#+++##.                         ",
"     ..++....++..@$$%%@@@@@.& ..#+++##.                         ",
"    ...++.++.+.@@@@@@@$$$$$@@...#***++#...                      ",
"   .&&&..+%%.+.@@@+++++++++%%+..*+***+#...            ====      ",
"   .&&&..+%%.+.@@@+++++++++%%+..*+***+#...            ====      ",
"   .&..$$%..++&++++++++++++++-..+++++*#...            ===#=  ...",
"   ..@@@@$&&++&+++&&&&&&&++++*..++++++....            ===+&&&@+.",
"   ..@@@@$&&++&+++&&&&&&&++++*..++++++....            ===+&&&@+.",
"   ..@@@@$&&++&+++&&&&&&&++++*..++++++....            ===+&&&@+.",
"   .+@@++&&&@++++&&&&&&&&&&&+........++... ===.       ...&@@@+. ",
"   &$@@&&;@@@++++&&......&&&.+...@;;+.+...=####.      &&&@@++#. ",
"   &$@@&&;@@@++++&&......&&&.+...@;;+.+...=####.      &&&@@++#. ",
"  .+%$$&&;@@@+++++&&     ...++++.;;;@.+....&&&&#.   &&@@@@++++#.",
"  .+@&&;;@**@++++++...     .++++.+@@+.&...&.&&&#****&&&&&.=####.",
"  .+@&&;;@**@++++++...     .++++.+@@+.&...&.&&&#****&&&&&.=####.",
"  .+@&&;;***@#&+++++...==== .+++..&&&..&&&&.+++++&&*%+&&&&=.....",
"..;+&;;@@-**##+..&+@@@...##...++++..&+.---&&..+++++*&-....      ",
"..;;@;;..-**##+...&;;;;....+.........+.&&&-&..+++&&*..          ",
"..;;@;;..-**##+...&;;;;....+.........+.&&&-&..+++&&*..          ",
"..;@@++$$*##=#&.. ..;;;..++@.>@@@@@@@..&&&-&&&.##..             ",
"  .@@==&&#...#.   =#.....;;@.*&&+....&%&&&%&&&...               ",
"  .@@==&&#...#.   =#.....;;@.*&&+....&%&&&%&&&...               ",
"  .@@==&&#...#.   =#.....;;@.*&&+....&%&&&%&&&...               ",
"  .@@..##...=#.  ==#++;;;@@&+,..> ..&&&%%%++&&.                 ",
"  .@.##...==#.   =..@@;;;&&++....   .+%+++%+&&.                 ",
"  .@.##...==#.   =..@@;;;&&++....   .+%+++%+&&.                 ",
"   .,..  .##=.   =.+*****#####..    .+$+++$+&&.                 ",
"    .    ....     **;;;@@**...   *...+$+++$+..                  ",
"    .    ....     **;;;@@**...   *...+$+++$+..                  ",
"                  .+;;;@@++.     .###*+$$$++..                  ",
"                  .+@@;@@@@*  **.#+++#*++++*                    ",
"                  .+@@;@@@@*  **.#+++#*++++*                    ",
"                  .+++@@@@@+**++#++++&.****.                    ",
"                   .++++++++*+##++&&&&&....                     ",
"                   .++++++++.+##+&&&&&+@@@=                     ",
"                   .++++++++.+##+&&&&&+@@@=                     ",
"                    ..-----+.+##&&&&&+@@@@=                     ",
"                    ..-----+.+##&&&&&+@@@@=                     ",
"                      ...&&-.*&&&&++@@@###.                     ",
"                      ...&&-.*&&&&++@@@###.                     ",
"                         .....&&&+@@@##...                      ",
"                             *...=###.=                         ",
"                             *...=###.=                         ",
"                                ....=                           ",
"                                                                "};
