/* XPM */
static char * rayquazaRight1_xpm[] = {
"64 64 14 1",
" 	c None",
".	c #101010",
"+	c #306830",
"@	c #509050",
"#	c #981818",
"$	c #104018",
"%	c #C0A028",
"&	c #F0C830",
"*	c #303030",
"=	c #581008",
"-	c #907818",
";	c #78B870",
">	c #C8D8F0",
",	c #98A8B0",
"                                                                ",
"                                                                ",
"                                                                ",
"                                                                ",
"                                                                ",
"                                                       ....     ",
"                                            ...       .++..     ",
"                                            ...       .++..     ",
"                                            .@.     ..+++..     ",
"                                            .@@..   ..+++..     ",
"                                            .@@..   ..+++..     ",
"                                            .+@..  .+++++..     ",
"                                            .+@..  .+++++..     ",
"                                            .+@@@. .+++++..     ",
"                                            .+@@@. .+++++..     ",
"                                            .++@@.  ..+++..     ",
"                            ...           ...++@@@. ..+++..     ",
"                          ..###...   .....+++....@.   .++..     ",
"                          ..###...   .....+++....@.   .++..     ",
"                         .##+++#.. $.@@@@@%%&&@..++....++..     ",
"                      ...#++***#...@@&&&&&@@@@@@@.+.++.++...    ",
"                      ...#++***#...@@&&&&&@@@@@@@.+.++.++...    ",
"                      ...#+***+*..+%%+++++++++@@@.+.%%+..$$$.   ",
"      ====            ...#*+++++..-++++++++++++++$++..%&&..$.   ",
"      ====            ...#*+++++..-++++++++++++++$++..%&&..$.   ",
"...  =#===            ....++++++..*++++$$$$$$$+++$++$$&@@@@..   ",
".+@$$$+===            ...++........+$$$$$$$$$$$++++@$$$++@@+.   ",
".+@$$$+===            ...++........+$$$$$$$$$$$++++@$$$++@@+.   ",
".+@$$$+===            ...++........+$$$$$$$$$$$++++@$$$++@@+.   ",
" .+@@@$...       .=== ...+.+;;@...+.$$$......$$++++@@@;$$@@&$   ",
" .#++@@$$$      .####....+.@;;;.++++...     $$+++++@@@;$$&&%+.  ",
" .#++@@$$$      .####....+.@;;;.++++...     $$+++++@@@;$$&&%+.  ",
".#++++@@@@$$   .#$$$.$...$.+@@+.++++.       .++++++@**@;;$$@+.  ",
".####=.$$$$$****#$$$.$$$$..$$$..+++.      ..+++++$#@***;;$$@+.  ",
".....=$$$$+%*$$+++..$$---.+$..++++.  ====.@@@+$..+##**-@@;;$+;..",
".....=$$$$+%*$$+++..$$---.+$..++++.  ====.@@@+$..+##**-@@;;$+;..",
"     .....-$*+++++..$-$$$.+..........##..;;;;$...+##**-..;;@;;..",
"       .....*$$++.$$$-$$$..@@@@@@@>.+....;;;.. ..$#=##*&&++@@;..",
"       .....*$$++.$$$-$$$..@@@@@@@>.+....;;;.. ..$#=##*&&++@@;..",
"             ..##.$$$%$$$%$....+$$*.@++.....#= ..#=...#$$==@@.  ",
"               ...$$++%%%$$$.. >..,$@;;;;+++#= ..#=.  .##..@@.  ",
"               ...$$++%%%$$$.. >..,$@;;;;+++#= ..#=.  .##..@@.  ",
"               ...$$++%%%$$$.. >..,$@;;;;+++#= ..#=.  .##..@@.  ",
"                 .$$+%+++%+.   ....+$@@;;;++#==..#=.   ..##.@.  ",
"                 .$$+&+++&+.   .###++$$;;;@@..=..=#.     ..,.   ",
"                 .$$+&+++&+.   .###++$$;;;@@..=..=#.     ..,.   ",
"                  ..+&+++&+...  ..#####*****+.=  ...       .    ",
"                  ..++&&&+*###.   ...**@@;;;**                  ",
"                  ..++&&&+*###.   ...**@@;;;**                  ",
"                    *++++*#+++#.    .++@@;;;+.                  ",
"                    .****.$++++#++***@@@@;@@+.                  ",
"                     ....$$$$$++##+*+@@@@@+++.                  ",
"                     ....$$$$$++##+*+@@@@@+++.                  ",
"                     =@@@+$$$$$+##+.++++++++.                   ",
"                     =@@@@+$$$$$##+.++++++++.                   ",
"                     =@@@@+$$$$$##+.++++++++.                   ",
"                     =@@@@+$$$$$##+.++++++++.                   ",
"                     .###@@@++$$$$*.+-----..                    ",
"                      ...##@@@+$$$.$-$$...                      ",
"                      ...##@@@+$$$.$-$$...                      ",
"                         =.###=...*....                         ",
"                           =....                                ",
"                           =....                                ",
"                                                                "};
