/* XPM */
static char * regiceFace2_xpm[] = {
"64 64 12 1",
" 	c None",
".	c #284860",
"+	c #000000",
"@	c #78A8D0",
"#	c #C8F0F8",
"$	c #6090B8",
"%	c #B0E0F8",
"&	c #90B8E0",
"*	c #406890",
"=	c #E8E888",
"-	c #B8A858",
";	c #D8C870",
"                                                                ",
"                                                                ",
"                                                                ",
"                                                                ",
"                                                                ",
"                                                                ",
"                             ..++..                             ",
"                             ..++..                             ",
"                          ...@@##$$...                          ",
"                          ...@@##$$...                          ",
"                        ..@@@####%%@@@..                        ",
"                        ..@@@####%%@@@..                        ",
"                        ..@@@####%%@@@..                        ",
"                      ..&&#######%%%%%&&..                      ",
"                      ..&&#######%%%%%&&..                      ",
"             *******..###########%%%%%%%%%..*******             ",
"             *******..###########%%%%%%%%%..*******             ",
"             **&&&&&..###########%%%%%%%%%..&&&&&**             ",
"             **&&&&&..###########%%%%%%%%%..&&&&&**             ",
"             **$$$$$@@&&#########%%%%%%%&&@@$$$$$**             ",
"             **$$$$$@@&&#########%%%%%%%&&@@$$$$$**             ",
"               ***..@@%%%%%%%####%%&&&&&&&@@..***               ",
"               ***..@@%%%%%%%####%%&&&&&&&@@..***               ",
"               ***..@@%%%%%%%####%%&&&&&&&@@..***               ",
"                  ..@@%%##%%%%%%%&&&&&&&&&@@..                  ",
"                  ..@@%%##%%%%%%%&&&&&&&&&@@..                  ",
"             +++++**@@##%%%%%##==&&&&&&&&&@@**+++++             ",
"             +++++**@@##%%%%%##==&&&&&&&&&@@**+++++             ",
"         ++++&&&&&++@@--%%#####%%&&&&&&&--@@++&&&&&++++         ",
"         ++++&&&&&++@@--%%#####%%&&&&&&&--@@++&&&&&++++         ",
"       ++@@####&&&++@@%%##;;;##==&&;;;&&&&@@++&&&####@@++       ",
"       ++@@####&&&++@@%%##;;;##==&&;;;&&&&@@++&&&####@@++       ",
"    +++@@####&&&&&++@@#######%%%%&&&&&&&&&@@++&&&&&####@@+++    ",
"    +++@@####&&&&&++@@#######%%%%&&&&&&&&&@@++&&&&&####@@+++    ",
"    +++@@####&&&&&++@@#######%%%%&&&&&&&&&@@++&&&&&####@@+++    ",
"  ++***####&&&&$$$++@@####%%%%%--&&&&&&&&&@@++$$$&&&&####***++  ",
"  ++***####&&&&$$$++@@####%%%%%--&&&&&&&&&@@++$$$&&&&####***++  ",
"++++...##&&&&&&$$$++@@##%%%%%%%%%&&&&&&&&&@@++$$$&&&&&&##...++++",
"++++...##&&&&&&$$$++@@##%%%%%%%%%&&&&&&&&&@@++$$$&&&&&&##...++++",
"++&&...$$&&&&$$+++**@@%%%%%%%%%%%&&&&&&&&&@@**+++$$&&&&$$...&&++",
"++&&...$$&&&&$$+++**@@%%%%%%%%%%%&&&&&&&&&@@**+++$$&&&&$$...&&++",
"++.....$$$$$$+++++****&&%%%%%%%%%&&&&&&&&&****+++++$$$$$$.....++",
"++.....$$$$$$+++++****&&%%%%%%%%%&&&&&&&&&****+++++$$$$$$.....++",
"++.....$$$$$$+++++****&&%%%%%%%%%&&&&&&&&&****+++++$$$$$$.....++",
"  ++$$$....+++++++++****@@@@@&&&&&&@@@@@****+++++++++....$$$++  ",
"  ++$$$....+++++++++****@@@@@&&&&&&@@@@@****+++++++++....$$$++  ",
"  .....++&&++  +++..++++****************++++..+++  ++&&++.....  ",
"  .....++&&++  +++..++++****************++++..+++  ++&&++.....  ",
"       ++++++  +++$$....++++++++++++++++....$$+++  ++++++       ",
"       ++++++  +++$$....++++++++++++++++....$$+++  ++++++       ",
"               +++++$$&&&&$$$**++**$$$&&&&$$+++++               ",
"               +++++$$&&&&$$$**++**$$$&&&&$$+++++               ",
"                  ++......+++++  +++++......++                  ",
"                  ++......+++++  +++++......++                  ",
"                  ++......+++++  +++++......++                  ",
"                    ++**..+++      +++..**++                    ",
"                    ++**..+++      +++..**++                    ",
"                      ++++            ++++                      ",
"                      ++++            ++++                      ",
"                                                                ",
"                                                                ",
"                                                                ",
"                                                                ",
"                                                                "};
