/* XPM */
static char * regigigasFace2_xpm[] = {
"64 64 14 1",
" 	c None",
".	c #605028",
"+	c #000000",
"@	c #A88828",
"#	c #F8D028",
"$	c #E8E8F8",
"%	c #284030",
"&	c #286848",
"*	c #409848",
"=	c #A8A8C0",
"-	c #787888",
";	c #505068",
">	c #D04830",
",	c #40A098",
"                                                                ",
"                                                                ",
"                                                                ",
"                                                                ",
"                                                                ",
"                                                                ",
"                                                                ",
"                                                                ",
"                                                                ",
"                             ......                             ",
"                             ......                             ",
"             +++           .@######@.           +++             ",
"            +##@+        ..########$#..        +@##+            ",
"            +##@+        ..########$#..        +@##+            ",
"            .##@@++ %%% .@@######$$$$@@. %%% ++@@##.            ",
"           +###@@++%&%%%.########$$$$##.%%%&%++@@###+           ",
"           +###@@++%&%%%.########$$$$##.%%%&%++@@###+           ",
"           +###@@++%&%%%.########$$$$##.%%%&%++@@###+           ",
"           +###@#@@%****%########$$$$##%****%@@#@###+           ",
"           +###@#++*&&&%%##########$###%%&&&*++#@###+           ",
"           +###@#++&&**&+##############+&**&&++#@###+           ",
"           +###@#++%&&&&+######++######+&&&&%++#@###+           ",
"           +###@#++%&&&&+######++######+&&&&%++#@###+           ",
"           .###.@@@+%&&&+######++######+&&&%+@@@.###.           ",
"           .###.@@@+%%%+.##++######++##.+%%%+@@@.###.           ",
"           .###.@@@+%%%+.##++######++##.+%%%+@@@.###.           ",
"         ++=.##.@@@+%%%+.##++######++##.+%%%+@@@.##.=++         ",
"         ++=.@@.@@@-+++==..####++####..==+++-@@@.@@.=++         ",
"         ++=.@@.@@@-+++==..####++####..==+++-@@@.@@.=++         ",
"         ++==@@.@@@-;;;$$++####++####++$$;;;-@@@.@@=;++         ",
"         ++;=..@@@@=;;;$$++##########++$$;;;=@@@@..=;;;+        ",
"        +;;;=++@...=$$$$$$$.###..###.$$$$$$$=...@++=$$$;+       ",
"        +;;;=++@...=$$$$$$$.###..###.$$$$$$$=...@++=$$$;+       ",
"       +;$$$===+@@@=>>>>$$$+@##..##@+$$$>>>>=@@@+==;;$$$$++     ",
"     ++$$$$;;==++;;->$$>-$$+@@@@@@@@+$$->$$>-;;++++;;$$;;++++   ",
"     ++$$$$;;==++;;->$$>-$$+@@@@@@@@+$$->$$>-;;++++;;$$;;++++   ",
"   ++++;;$$;;++ +;;$>>>>$$$+.@@..@@.+$$$>>>>$;;+ ;;;=++#####@++ ",
" ++@#####++=;;; +;;=$,,,,$$$+@@..@@+$$$,,,,$=;;+ ++=+########@@+",
" ++@#####++=;;; +;;=$,,,,$$$+@@..@@+$$$,,,,$=;;+ ++=+########@@+",
"+@@########+=++  ++;-,,$,--$+@@@@@@+$--,$,,-;++  +++@@@#++++.@@+",
"+@@.++++#@@@+++    +=,,,,$$$+@@..@@+$$$,,,,=+      +@@@++++==++ ",
"+@@.++++#@@@+++    +=,,,,$$$+@@..@@+$$$,,,,=+      +@@@++++==++ ",
" ++==++++@@@+      +;++$----=++..++=----$==;       +@@@++++====+",
"+====++++@@@+    ++-===;-$$-=++@@++=-$$-=++;+      +@..==+++$$$+",
"+====++++@@@+    ++-===;-$$-=++@@++=-$$-=++;+      +@..==+++$$$+",
"+$$$+++==..@+   +++++;;-----===++===----;===-++    +...=$+++$$$+",
"+$$$+++==..@+   +++++;;-----===++===----;===-++    +...=$+++$$$+",
"+$$$+++$=...+   +===+++;---============--;;+++++    +..=$..++++ ",
"+$$$+++$=...+   +===+++;---============--;;+++++    +..=$..++++ ",
" ++++..$=..+    +--==;;+-;;-========-;;-;+++===+     ++++++=$++ ",
" ++$=++++++    +%--------++;+------+;---+;;==--+         ++$$++ ",
" ++$=++++++    +%--------++;+------+;---+;;==--+         ++$$++ ",
" ++$$++      ++&%%%-----&;;  ++++++  ++--------%+          ++   ",
"   ++        ++&&%%-&&&&&+++         ;;&-----%%%&++             ",
"   ++        ++&&%%-&&&&&+++         ;;&-----%%%&++             ",
"             ++%%&&&&&&%&%%+        +++&&&&&-%%&&++             ",
"             ++%%&&&%&&&%%%+        +%%&%&&&&&&%%++             ",
"             ++%%&&&%&&&%%%+        +%%&%&&&&&&%%++             ",
"               +%%%%+%%%+++         +%%%&&&%&&&%%++             ",
"                ++++ ++++            +++%%%+%%%%+               ",
"                ++++ ++++            +++%%%+%%%%+               ",
"                                       ++++ ++++                ",
"                                                                ",
"                                                                "};
