/* XPM */
static char * regigigasBack1_xpm[] = {
"64 64 12 1",
" 	c None",
".	c #605028",
"+	c #A88828",
"@	c #F8D028",
"#	c #000000",
"$	c #E8E8F8",
"%	c #284030",
"&	c #286848",
"*	c #409848",
"=	c #505068",
"-	c #A8A8C0",
";	c #787888",
"                                                                ",
"                                                                ",
"                                                                ",
"                                                                ",
"                                                                ",
"                                                                ",
"                                                                ",
"                             ......                             ",
"                           .+@@@@@@+.                           ",
"                           .+@@@@@@+.                           ",
"             ..#         ..@$@@@@@@@@..         #..             ",
"             ..#         ..@$@@@@@@@@..         #..             ",
"            #@@+#       .++$$$$@@@@@@++.       #+@@#            ",
"            .@@++## %%% %@@$$$$@@@@@@@@% %%% ##++@@.            ",
"            .@@++## %%% %@@$$$$@@@@@@@@% %%% ##++@@.            ",
"           #@@@++##%&**%%@@$$$$@@@@@@@@%%**&%##++@@@#           ",
"           #@@@+@++%***&%@@@$@@@@@@@@@@%&***%++@+@@@#           ",
"           #@@@+@++%***&%@@@$@@@@@@@@@@%&***%++@+@@@#           ",
"    ===    #@@@+@##*&&&%#@@@@@@@@@@@@@@#%&&&*##@+@@@#           ",
"    ===    #@@@+@##*&&&%#@@@@@@@@@@@@@@#%&&&*##@+@@@#           ",
"   =$--#   #@@@+@##&&**&#++@@@@@@@@@@++#&**&&##@+@@@#    ===    ",
"   =$--# ##.@@@+@##&%&&%#++@@@@@@@@@@++#%&&%&##@+@@@.   #-$$=   ",
"   =$--# ##.@@@+@##&%&&%#++@@@@@@@@@@++#%&&%&##@+@@@.   #-$$=   ",
" ##=#######-.@@++++#%%%#.+++@@@@@@@@+++.#%%%#++++@@.-#  #-$$=   ",
"#--=#++@@##-.@@.+++#%%%#-..++@@@@@@++..-#%%%#+++.@@.-#######=#  ",
"#--=#++@@##-.@@.+++#%%%#-..++@@@@@@++..-#%%%#+++.@@.-#######=#  ",
"#--#+++.###;-@@.+..;###=-..++++++++++..-=###;..+.@@--#@@@+##=-##",
"#==++..$###;-++.+##--===$$$.++++++++.$$$===--##+.++-;###.+++#-##",
"#==++..$###;-++.+##--===$$$.++++++++.$$$===--##+.++-;###.+++#-##",
" ##+.$$$#;;#-..+.##-$===$$$..++++++..$$$===$-##.+..-;###$.+++=##",
" ##+.$$$#;;#-..+.##-$===$$$..++++++..$$$===$-##.+..-;###$.+++=##",
" ##+.$$==----##..##-$$$$$$$$........$$$$$$$$-##..##-#;##$$..+#  ",
" ##.---==;;----#.##=;--$$$$$$$$$$$$$$$$$$--;=##.#;;---===$..+#  ",
" ##.---==;;----#.##=;--$$$$$$$$$$$$$$$$$$--;=##.#;;---===$..+#  ",
"   =---;#==;=##=#===========$$$$$$$$===========#=----;===---.#  ",
"   #;---####### #==;;=======$$$$$$$$=======;;==# ##=;=##;---=   ",
"   #;---####### #==;;=======$$$$$$$$=======;;==# ##=;=##;---=   ",
"    ###--####   #==--$$$$;;==$$$$$$==;;$$$$--==# #######--;;#   ",
"       #####     ##----$$;;==$$$$$$==;;$$----##    ###---###    ",
"       #####     ##----$$;;==$$$$$$==;;$$----##    ###---###    ",
"                 ##=---==$$$$$$$$$$$$$$==---=##     #####       ",
"                 ##=---==$$$$$$$$$$$$$$==---=##     #####       ",
"                   #=====---$$$$$$$$---=====#                   ",
"                   #=====---------------===;;##                 ",
"                   #=====---------------===;;##                 ",
"                 ##;;===---------------;;;;;;==#                ",
"                #==;;;;;;------------;;;=##;===#                ",
"                #==;;;;;;------------;;;=##;===#                ",
"                #===;##=;==----------===###====#                ",
"                #====###=;;##;;;;;;######======%#               ",
"                #====###=;;##;;;;;;######======%#               ",
"               #%======####  ######  ##&=====%%%&##             ",
"               #%======####  ######  ##&=====%%%&##             ",
"             ##&%%%=====&##         ###&&&&&=%%&&##             ",
"             ##&&%%=&&&&&###        #%%&%&&&&&&%%##             ",
"             ##&&%%=&&&&&###        #%%&%&&&&&&%%##             ",
"             ##%%&&&&&&%&%%#        #%%%&&&%&&&%%##             ",
"             ##%%&&&%&&&%%%#         ###%%%#%%%%#               ",
"             ##%%&&&%&&&%%%#         ###%%%#%%%%#               ",
"               #%%%%#%%%###            #### ####                ",
"                #### ####                                       ",
"                #### ####                                       ",
"                                                                ",
"                                                                "};
