/* XPM */
static char * regiceBack1_xpm[] = {
"64 64 9 1",
" 	c None",
".	c #284860",
"+	c #78A8D0",
"@	c #C8F0F8",
"#	c #6090B8",
"$	c #B0E0F8",
"%	c #90B8E0",
"&	c #406890",
"*	c #000000",
"                                                                ",
"                                                                ",
"                                                                ",
"                                                                ",
"                                                                ",
"                                                                ",
"                                                                ",
"                                                                ",
"                                                                ",
"                                                                ",
"                             ......                             ",
"                             ......                             ",
"                          ...++@@##...                          ",
"                          ...++@@##...                          ",
"                        ..+++@@@@$$+++..                        ",
"                        ..+++@@@@$$+++..                        ",
"                        ..+++@@@@$$+++..                        ",
"                      ..%%@@@@@@@$$$$$%%..                      ",
"                      ..%%@@@@@@@$$$$$%%..                      ",
"                    ..++@@@@@@@@@$$$$$$$##..                    ",
"                    ..++@@@@@@@@@$$$$$$$##..                    ",
"               .........@@@@@@@@@$$$$$$$.........               ",
"               .........@@@@@@@@@$$$$$$$.........               ",
"               ...@@%%%%..@@@@@@@$$$$$..%%%%@@...               ",
"               ...@@%%%%..@@@@@@@$$$$$..%%%%@@...               ",
"               ...@@@@%%##...@@@@$$...##%%@@@@...               ",
"               ...@@@@%%##...@@@@$$...##%%@@@@...               ",
"               ...@@@@%%##...@@@@$$...##%%@@@@...               ",
"                  ..&&####+++..$$..+++####&&..                  ",
"                  ..&&####+++..$$..+++####&&..                  ",
"             ..*********&&###..$$..###&&*********..             ",
"             ..*********&&###..$$..###&&*********..             ",
"         ****%%***@@%%%%**...##$$&&...**%%%%@@***%%****         ",
"         ****%%***@@%%%%**...##$$&&...**%%%%@@***%%****         ",
"       **++@@@@***@@@@%%##***%%$$++***##%%@@@@***@@@@++**       ",
"       **++@@@@***@@@@%%##***%%$$++***##%%@@@@***@@@@++**       ",
"    ***++@@@@%%...**&&##%%%%%**$$**%%%%%##&&**...%%@@@@++***    ",
"    ***++@@@@%%...**&&##%%%%%**$$**%%%%%##&&**...%%@@@@++***    ",
"    ***++@@@@%%...**&&##%%%%%**$$**%%%%%##&&**...%%@@@@++***    ",
"  **&&&@@@@%%%%...++**####%%%**$$**%%%####**##...%%%%@@@@&&&**  ",
"  **&&&@@@@%%%%...++**####%%%**$$**%%%####**##...%%%%@@@@&&&**  ",
"****...@@%%%%%%...++%%*******##$$&&*******++##...%%%%%%@@...****",
"****...@@%%%%%%...++%%*******##$$&&*******++##...%%%%%%@@...****",
"**##...##%%%%##...++%%$$$$$$$$$$$%%%%%%%%%%%##...##%%%%##...##**",
"**##...##%%%%##...++%%$$$$$$$$$$$%%%%%%%%%%%##...##%%%%##...##**",
"**.....########***&&++%%$$$$$$$$$%%%%%%%++++&&***########.....**",
"**.....########***&&++%%$$$$$$$$$%%%%%%%++++&&***########.....**",
"**.....########***&&++%%$$$$$$$$$%%%%%%%++++&&***########.....**",
"  **%%%....****   **&&++++%%%%%%%%%+++++&&&&**   ****....%%%**  ",
"  **%%%....****   **&&++++%%%%%%%%%+++++&&&&**   ****....%%%**  ",
"  .....**##**  ***&&****&&&&&&&&&&&&&&&&****&&***  **##**.....  ",
"  .....**##**  ***&&****&&&&&&&&&&&&&&&&****&&***  **##**.....  ",
"       ******  ***##....****************....##***  ******       ",
"       ******  ***##....****************....##***  ******       ",
"               *****##%%%%###&&**&&###%%%%##*****               ",
"               *****##%%%%###&&**&&###%%%%##*****               ",
"                  **......*****  *****......**                  ",
"                  **......*****  *****......**                  ",
"                  **......*****  *****......**                  ",
"                    **&&..***      ***..&&**                    ",
"                    **&&..***      ***..&&**                    ",
"                      ****            ****                      ",
"                      ****            ****                      ",
"                                                                "};
