/* XPM */
static char * regiceRight_xpm[] = {
"64 64 10 1",
" 	c None",
".	c #000000",
"+	c #284860",
"@	c #6090B8",
"#	c #B0E0F8",
"$	c #78A8D0",
"%	c #406890",
"&	c #90B8E0",
"*	c #C8F0F8",
"=	c #D8C870",
"                                                                ",
"                                                                ",
"                                                                ",
"                                                                ",
"                                                                ",
"                                                                ",
"                                                                ",
"                                                                ",
"                                                                ",
"                                                                ",
"                                                                ",
"                                                                ",
"                              ....++                            ",
"                              ....++                            ",
"                            ..@@##$$++                          ",
"                            ..@@##$$++                          ",
"            %%%%%%%%      ..$$&&##**$$++                        ",
"            %%%%%%%%      ..$$&&##**$$++                        ",
"            %%@@@@@@%%  ..$$$$####****&&++                      ",
"            %%@@@@@@%%  ..$$$$####****&&++                      ",
"          ........@@@@..$$$$&&######****&&++                    ",
"          ........@@@@..$$$$&&######****&&++                    ",
"          ..******....@@$$$$########******$$++                  ",
"          ..******....@@$$$$########******$$++                  ",
"          ..****##@@..@@@@$$########****##$$++                  ",
"          ..****##@@..@@@@$$########****##$$++                  ",
"            ..%%%%&&&&..@@@@&&&&&&&&**######%%                  ",
"            ..%%%%&&&&..@@@@&&&&&&&&**######%%                  ",
"          ++++..@@@@&&..@@@@&&&&&&&&##**####@@++                ",
"          ++++..@@@@&&..@@@@&&&&&&&&##**####@@++                ",
"          ++****......++@@@@&&@@&&&&&&##**==##++                ",
"          ++****......++@@@@&&@@&&&&&&##**==##++                ",
"          ++****&&@@++%%@@@@..$$%%&&&&==##**##++                ",
"          ++****&&@@++%%@@@@..$$%%&&&&==##**##++                ",
"            ++%%%%@@@@..@@..$$&&**%%&&****##**@@%%              ",
"            ++%%%%@@@@..@@..$$&&**%%&&****##**@@%%              ",
"              ++%%%%..++..$$$$&&****..##****####++              ",
"              ++%%%%..++..$$$$&&****..##****####++              ",
"                ++%%..@@..$$&&&&&&**..####****##++              ",
"                ++%%..@@..$$&&&&&&**..####****##++              ",
"                ....@@@@..@@&&&&&&**..######**%%..              ",
"                ....@@@@..@@&&&&&&**..######**%%..              ",
"                ..%%@@@@..@@&&&&&&**..####&&%%..                ",
"                ..%%@@@@..@@&&&&&&**..####&&%%..                ",
"                  ..%%@@..@@&&@@&&**..@@@@++..                  ",
"                  ..%%@@..@@&&@@&&**..@@@@++..                  ",
"                    ..%%..@@@@@@@@**........                    ",
"                    ..%%..@@@@@@@@**........                    ",
"                      ......@@@@@@....%%@@..                    ",
"                      ......@@@@@@....%%@@..                    ",
"                      ....&&......&&..@@..                      ",
"                      ....&&......&&..@@..                      ",
"                        ......@@........                        ",
"                        ......@@........                        ",
"                            ........                            ",
"                            ........                            ",
"                              ....                              ",
"                              ....                              ",
"                                                                ",
"                                                                ",
"                                                                ",
"                                                                ",
"                                                                ",
"                                                                "};
