/* XPM */
static char * souche1_xpm[] = {
"64 64 22 1",
" 	c #D5EE7B",
".	c #DEBD6A",
"+	c #CDB45A",
"@	c #B4B45A",
"#	c #BDA452",
"$	c #EEC573",
"%	c #EECD7B",
"&	c #EEC57B",
"*	c #D5C573",
"=	c #F6D57B",
"-	c #EED583",
";	c #ACD562",
">	c #ACA452",
",	c #FFDE7B",
"'	c #BDB462",
")	c #E6C57B",
"!	c #A48B52",
"~	c #ACBD52",
"{	c #948B4A",
"]	c #A48B41",
"^	c #A48B4A",
"/	c #AC9C52",
"                ..++@@######++++++########++....                ",
"                ..++@@######++++++########++....                ",
"                ####++$$%%%%%%%%%%%%%%%%&&..++++**    ==--      ",
"                ####++$$%%%%%%%%%%%%%%%%&&..++++**    ==--      ",
"            ;;>>++&&,,%%$$....++++....$$%%,,,,&&****--====      ",
"            ;;>>++&&,,%%$$....++++....$$%%,,,,&&****--====      ",
"          ''>>**%%&&....$$%%%%,,,,%%%%$$....&&,,==**''--==      ",
"          ''>>**%%&&....$$%%%%,,,,%%%%$$....&&,,==**''--==      ",
"        ''>>))==$$..&&%%$$$$........$$$$%%&&..$$====**''        ",
"        ''>>))==$$..&&%%$$$$........$$$$%%&&..$$====**''        ",
";;    ;;>>**==))$$%%$$$$&&%%,,,,,,,,%%&&$$$$%%$$))==--''''      ",
";;    ;;>>**==))$$%%$$$$&&%%,,,,,,,,%%&&$$$$%%$$))==--''''      ",
"  ;;;;!!''==))))%%$$&&%%&&$$&&&&&&&&$$&&%%&&$$%%))))==))>>;;    ",
"  ;;;;!!''==))))%%$$&&%%&&$$&&&&&&&&$$&&%%&&$$%%))))==))>>;;    ",
";;~~!!>>))--**--$$&&%%$$%%%%,,,,,,,,%%%%$$%%&&$$--**--==''>>;;  ",
";;~~!!>>))--**--$$&&%%$$%%%%,,,,,,,,%%%%$$%%&&$$--**--==''>>;;  ",
"~~!!!!''==))))))$$%%$$%%%%&&%%%%%%%%&&%%%%$$%%$$))))))==**>>''  ",
"~~!!!!''==))))))$$%%$$%%%%&&%%%%%%%%&&%%%%$$%%$$))))))==**>>''  ",
">>!!!!**==**--))&&$$&&&&&&%%,,,,,,,,%%&&&&&&$$&&))--**==))>>****",
">>!!!!**==**--))&&$$&&&&&&%%,,,,,,,,%%&&&&&&$$&&))--**==))>>****",
">>!!!!**==**==**%%$$%%&&%%%%%%%%%%%%%%%%&&%%$$%%**==**==--''''''",
">>!!!!**==**==**%%$$%%&&%%%%%%%%%%%%%%%%&&%%$$%%**==**==--''''''",
"!!!!!!**==**==**%%$$%%&&%%,,%%%%%%%%,,%%&&%%$$%%**==**==--''''''",
"!!!!!!**==**==**%%$$%%&&%%,,%%%%%%%%,,%%&&%%$$%%**==**==--''''''",
"~~!!!!**==**--))%%$$&&&&&&,,,,,,,,,,,,&&&&&&$$%%))--**==--''''''",
"~~!!!!**==**--))%%$$&&&&&&,,,,,,,,,,,,&&&&&&$$%%))--**==--''''''",
";;!!!!''==))))))$$%%$$%%%%&&%%%%%%%%&&%%%%$$%%$$))))))==))>>''''",
";;!!!!''==))))))$$%%$$%%%%&&%%%%%%%%&&%%%%$$%%$$))))))==))>>''''",
";;!!!!>>==--**--$$&&%%$$&&,,,,,,,,,,,,&&$$%%&&$$--**--==''>>**  ",
";;!!!!>>==--**--$$&&%%$$&&,,,,,,,,,,,,&&$$%%&&$$--**--==''>>**  ",
";;~~!!!!))==))))%%$$&&%%&&$$&&&&&&&&$$&&%%&&$$%%))))==-->>>>**  ",
";;~~!!!!))==))))%%$$&&%%&&$$&&&&&&&&$$&&%%&&$$%%))))==-->>>>**  ",
"@@{{]]^^++,,,,$$))--))))--======,,,,%%&&$$$$%%$$))====**>>>>''  ",
"@@{{]]^^++,,,,$$))--))))--======,,,,%%&&$$$$%%$$))====**>>>>''  ",
"@@{{]]]]//..,,%%))**----))))****....$$$$%%&&..$$====))>>>>'''';;",
"@@{{]]]]//..,,%%))**----))))****....$$$$%%&&..$$====))>>>>'''';;",
"{{]]//^^]]//$$,,==))****))--====,,%%%%$$....&&,,==))>>>>>>''****",
"{{]]//^^]]//$$,,==))****))--====,,%%%%$$....&&,,==))>>>>>>''****",
"]]////]]]]]]^^..======--))******++....$$%%,,,,%%**>>>>>>>>''''**",
"]]////]]]]]]^^..======--))******++....$$%%,,,,%%**>>>>>>>>''''**",
"##^^]]]]]]]]]]^^''))============,,,,,,,,,,%%..##>>>>>>>>>>>>''**",
"##^^]]]]]]]]]]^^''))============,,,,,,,,,,%%..##>>>>>>>>>>>>''**",
"^^]]]]]]]]]]]]]]!!>>''******))))&&&&$$..##//////>>>>''>>>>>>''''",
"^^]]]]]]]]]]]]]]!!>>''******))))&&&&$$..##//////>>>>''>>>>>>''''",
"^^^^]]]]]]]]]]^^!!!!!!!!!!!!!!>>////////////////>>''''>>>>>>>>''",
"^^^^]]]]]]]]]]^^!!!!!!!!!!!!!!>>////////////////>>''''>>>>>>>>''",
"@@^^]]]]]]]]]]^^!!!!!!!!!!!!!!!!##//////////####>>''''>>>>>>>>''",
"@@^^]]]]]]]]]]^^!!!!!!!!!!!!!!!!##//////////####>>''''>>>>>>>>''",
";;~~!!!!!!!!!!!!//]]^^^^^^^^^^//##//////////##//>>''>>>>>>>>''  ",
";;~~!!!!!!!!!!!!//]]^^^^^^^^^^//##//////////##//>>''>>>>>>>>''  ",
";;;;~~!!!!!!!!!!//]]^^//^^^^^^//##//^^^^////##//>>>>>>>>>>''    ",
";;;;~~!!!!!!!!!!//]]^^//^^^^^^//##//^^^^////##//>>>>>>>>>>''    ",
";;;;;;;;!!!!!!>>^^]]//////^^^^//##//^^//^^####//!!>>>>>>>>      ",
";;;;;;;;!!!!!!>>^^]]//////^^^^//##//^^//^^####//!!>>>>>>>>      ",
";;;;;;;;~~!!!!>>]]]]^^##//^^]]]]//^^]]^^//++//^^!!!!>>>>''      ",
";;;;;;;;~~!!!!>>]]]]^^##//^^]]]]//^^]]^^//++//^^!!!!>>>>''      ",
";;;;;;;;!!!!>>!!]]]]]]##//^^]]]]//^^]]^^//##^^]]!!!!!!>>''      ",
";;;;;;;;!!!!>>!!]]]]]]##//^^]]]]//^^]]^^//##^^]]!!!!!!>>''      ",
";;;;;;;;!!>>>>!!]]]]^^##^^]]]]]]]]^^]]^^^^//^^]]!!!!!!>>''      ",
";;;;;;;;!!>>>>!!]]]]^^##^^]]]]]]]]^^]]^^^^//^^]]!!!!!!>>''      ",
";;;;;;;;~~>>!!!!]]^^@@##//^^]]]]]]]]]]]]^^##^^]]!!!!!!>>''      ",
";;;;;;;;~~>>!!!!]]^^@@##//^^]]]]]]]]]]]]^^##^^]]!!!!!!>>''      ",
";;;;;;;;;;~~!!!!@@@@@@@@@@^^]]]]]]]]]]]]^^@@@@@@  ~~!!;;        ",
";;;;;;;;;;~~!!!!@@@@@@@@@@^^]]]]]]]]]]]]^^@@@@@@  ~~!!;;        "};
