/* XPM */
static const char *ZGlhbGdhNA__[] = {
/* columns rows colors chars-per-pixel */
"64 64 15 1 ",
"  c #101010",
". c #283848",
"X c #204068",
"o c #B82010",
"O c #F05040",
"+ c #205890",
"@ c #3878B0",
"# c #607888",
"$ c #60A0C0",
"% c #4080F8",
"& c #88A0B0",
"* c #B8C8D8",
"= c #98D0F0",
"- c #D8E8F8",
"; c None",
/* pixels */
";;;;;;;;;;;;;;;;;;;;;;;;;;;;;;;;   ;;;;;;;;;;;;;;;;;;;;;;;;;;;;;",
";;;;;;;;;;;;;;;;;;;;;;;;;;;;;;;;   ;;;;;;;;;;;;;;;;;;;;;;;;;;;;;",
";;;;;;;;;;;;;;;;;;;;;;;;;;;;  ..*  ;;;;;;;;;;;;;;;;;;;;;;;;;;;;;",
";;;;;;;;;;;;;;;;;;;;;;;;;;;;  ..*  ;;;;;;;;;;;;;;;;;;;;;;;;;;;;;",
";;;;;;;;;;;;;;;;;;;;;;;;;   ****.;;;;;;;;;;;;;;;;;;;;;;;;;;;;;;;",
";;;;;;;;;;;;;;;;;;;;;;..........     ...;;;;;;;;;;;;;;;;;;;;;;;;",
";;;;;;;;;;;;;;;;;;;;;;..........     ...;;;;;;;;;;;;;;;;;;;;;;;;",
";;;;;;;;;;;;;;;;;.....$=====    ---  @..;;;;;;;;;;;;;;;;;;;;;;;;",
";;;;;;;;;;;;;;;;;.....$=====    ---  @..;;;;;;;;;;;;;;;;;;;;;;;;",
";;;;;;;;;;;;;;...@@====$$...-----  @@@..;;;;;;;;;;;;;;;;;;;;;;;;",
";;;;;;;;;;  ..=====+++   -----  .$$$$.;;;;;;;;;;;;;;;;;;;;;;;;;;",
";;;;;;;;;;  ..=====+++   -----  .$$$$.;;;;;;;;;;;;;;;;;;;;;;;;;;",
";;;;;;;   ====@@@++   ----- ..@@$$$++.;;;;;;;;;;;;;;;;;;;;;;;;;;",
";;;;;;;   ====@@@++   ----- ..@@$$$++.;;;;;;;;;;;;;;;;;;;;;;;;;;",
";;;;   ++ @@@@@@@  ------  @@@$$$++..;;;;;;;;;;;;;;;;;;;;;;;;;;;",
";;  +@@  -..@@@++  ----  @@$$$+++....;;;;;;;;;;;;;;;;;;;;;;;;;;;",
";;  +@@  -..@@@++  ----  @@$$$+++....;;;;;;;;;;;;;;;;;;;;;;;;;;;",
"  ++@@@  -##..+..&&*** ++$$+++++...;;;;;;;;;;;;;;;;;;;;;;;;;;;;;",
"  ++@@@  -##..+..&&*** ++$$+++++...;;;;;;;;;;;;;;;;;;;;;;;;;;;;;",
"  &&.++  *--...*****..+@@+++....;;;;;;;;;;;;;;;;;;;;;;;;;;;;;;;;",
"  ##*....***&&***...  @++...;;;;;;;;;;;;;;;;;;;;;;;;;;;;;;;;;;;;",
"  ##*....***&&***...  @++...;;;;;;;;;;;;;;;;;;;;;;;;;;;;;;;;;;;;",
";;  #----&**&&&..+++@@...;;;;;;;;;;;;;;;;;;...;;  ...;;;;;;;;;;;",
";;  #XXoo **&& @@++....;;;;;;;;;;;;;;;;;;;.##.  ---..;;;;;;;;;;;",
";;  #XXoo **&& @@++....;;;;;;;;;;;;;;;;;;;.##.  ---..;;;;;;;;;;;",
"  &&X  OOo&&## @@.....#..;;;;;;;;;;;;;;;..### ----*..;;;;;;;;;;;",
"  &&X  OOo&&## @@.....#..;;;;;;;;;;;;;;;..### ----*..;;;;;;;;;;;",
"  &&@@@XX&.... @@XX &&&**..;;;;;;;;;;;..###  ---**.;;;;;;;;;;;;;",
";;  &  &&#    +@@XX ##...;;;;;;;;;;;;;..##.---**..     ;;;;;;;;;",
";;  &  &&#    +@@XX ##...;;;;;;;;;;;;;..##.---**..     ;;;;;;;;;",
";;;;   && ..XXX@@XX.##&**..;;;;;;;;;;.##..*--*..&&---  ;;;;;;;;;",
";;;;   && ..XXX@@XX.##&**..;;;;;;;;;;.##..*--*..&&---  ;;;;;;;;;",
";;;;;;;## ;;XXX@@++X..#.....;;;;;.......&&***.&&-----  ;;;;;;;;;",
";;;;;;;  ;;;..X++@@+XX.&&**...;;.##&&#..***..-----*  ;;;;;;;;;;;",
";;;;;;;  ;;;..X++@@+XX.&&**...;;.##&&#..***..-----*  ;;;;;;;;;;;",
";;;;;;;;;;;;  XXX@@+XX      ++.....++&##**#---**## ;;;;;;;;;;;;;",
";;;;;;;;;;;;  XXX@@+XX      ++.....++&##**#---**## ;;;;;;;;;;;;;",
";;;;;;;;;;;;  XXXXXX     ++++++++++..-&&##***&..  ;;;;;;;;;;;;;;",
";;;;;;;;;;  -- XX  &---  ++++++++++++-****&...##  ...;;;;;..... ",
";;;;;;;;;;  -- XX  &---  ++++++++++++-****&...##  ...;;;;;..... ",
";;;;;;;;;;  --&##**-##++++++++++...--***###**---** .......$$=== ",
";;;;;;;;;;  --&##**-##++++++++++...--***###**---** .......$$=== ",
";;;;;;;;; %%*******XXXX+++++....*****.&&**---***  .+++++$$==$  ;",
";;;;;;;;; ==**&**XX...++++++++XXXXXXXX....###   XX$$$$$$++++ ;;;",
";;;;;;;;; ==**&**XX...++++++++XXXXXXXX....###   XX$$$$$$++++ ;;;",
";;;;;;;;; %%&&...++@++++++++++++$$$$$=++++........$+++++++  ;;;;",
";;;;;;;;;;  &&#..++=+++@@+++$$$$$+++++==+++  .+++++++++   ;;;;;;",
";;;;;;;;;;  &&#..++=+++@@+++$$$$$+++++==+++  .+++++++++   ;;;;;;",
";;;;;;;;;;;;  &..==++++  $$$++++++++++++==+  .XXXXX    ;;;;;;;;;",
";;;;;;;;;;;;  &..==++++  $$$++++++++++++==+  .XXXXX    ;;;;;;;;;",
";;;;;;;;;;;;  +====+++ XXXXX+++++++++ ..==$XXX     ;;;;;;;;;;;;;",
";;;;;;;;;;;;;; ==$$+XX      XXXXXXXXX XXXX$XXX  ;;;;;;;;;;;;;;;;",
";;;;;;;;;;;;;; ==$$+XX      XXXXXXXXX XXXX$XXX  ;;;;;;;;;;;;;;;;",
";;;;;;;;;;;;  XXXXXXXX ;;;;;          XXXXXXXXXX  ;;;;;;;;;;;;;;",
";;;;;;;;;;;;  XXXXXXXX ;;;;;          XXXXXXXXXX  ;;;;;;;;;;;;;;",
";;;;;;;;;;;;  .&&++X&& ;;;;;;;;;;;;;;;  XX&XXX&&  ;;;;;;;;;;;;;;",
";;;;;;;;;;;;  .**&&&## ;;;;;;;;;;;;;;;  ..*&&&##  ;;;;;;;;;;;;;;",
";;;;;;;;;;;;  .**&&&## ;;;;;;;;;;;;;;;  ..*&&&##  ;;;;;;;;;;;;;;",
";;;;;;;;;;  &&.**###  ;;;;;;;;;;;;;;; &&..*###  ;;;;;;;;;;;;;;;;",
";;;;;;;;;;  &&.**###  ;;;;;;;;;;;;;;; &&..*###  ;;;;;;;;;;;;;;;;",
";;;;;;;;;;  **.**...  ;;;;;;;;;;;;;;; **..*...  ;;;;;;;;;;;;;;;;",
";;;;;;;;;;     **..   ;;;;;;;;;;;;;;;     *..   ;;;;;;;;;;;;;;;;",
";;;;;;;;;;     **..   ;;;;;;;;;;;;;;;     *..   ;;;;;;;;;;;;;;;;",
";;;;;;;;;;;;;;     ;;;;;;;;;;;;;;;;;;;;;     ;;;;;;;;;;;;;;;;;;;"
};
