/* XPM */
static char *result[] = {
/* columns rows colors chars-per-pixel */
"64 64 15 1 ",
"  c #101010",
". c #283848",
"X c #204068",
"o c #B82010",
"O c #F05040",
"+ c #205890",
"@ c #3878B0",
"# c #607888",
"$ c #60A0C0",
"% c #4080F8",
"& c #88A0B0",
"* c #B8C8D8",
"= c #98D0F0",
"- c #D8E8F8",
"; c None",
/* pixels */
";;;;;;;;;;;;;;;;;;;;;;;;;;;;;;; ;;;;;;;;;;;;;;;;;;;;;;;;;;;;;;;;",
";;;;;;;;;;;;;;;;;;;;;;;;;;;;;;; ;;;;;;;;;;;;;;;;;;;;;;;;;;;;;;;;",
";;;;;;;;;;;;;;;;;;;;;;;;;;;;;  $  ;;;;;;;;;;;;;;;;;;;;;;;;;;;;;;",
";;;;;;;;;;;;;;;;;;;;;;;;;;;; ++$++ ;;;;;;;;;;;;;;;;;;;;;;;;;;;;;",
";;;;;;;;;;;;;;;;;;;;;;;;;;;; ++$++ ;;;;;;;;;;;;;;;;;;;;;;;;;;;;;",
";;;;;;;;;;;;;;;;;;;; ;;;;;;; $$$$$ ;;;;;;; ;;;;;;;;;;;;;;;;;;;;;",
";;;;;;;;;;;;;;;;;;  *  ;;;  $$$$$$$  ;;;  *  ;;;;;;;;;;;;;;;;;;;",
";;;;;;;;;;;;;;;;;;  *  ;;;  $$$$$$$  ;;;  *  ;;;;;;;;;;;;;;;;;;;",
";;;;;;;;;;;;;;;;;;  *  ;  ++$$$$$$$++  ;  *  ;;;;;;;;;;;;;;;;;;;",
";;;;;;;;;;;;;;;;;;  *  ;  ++$$$$$$$++  ;  *  ;;;;;;;;;;;;;;;;;;;",
";;;;;;;;;;;;;;;;;;  *  ;  +++$$$$$+++  ;  *  ;;;;;;;;;;;;;;;;;;;",
";;;;;;;;;;;;;;;;;;  *## +++++++$+++++++ ##*  ;;;;;;;;;;;;;;;;;;;",
";;;;;;;;;;;;;;;;;;  *## +++++++$+++++++ ##*  ;;;;;;;;;;;;;;;;;;;",
";;;;;;;;;;;;;;;;;;  *## +++++++$+++++++ ##*  ;;;;;;;;;;;;;;;;;;;",
";;;;;;;;;;;;;;;;;;  *## +++++@@=@@+++++ ##*  ;;;;;;;;;;;;;;;;;;;",
";;;;;;;;;;;;;;;;;;  *## +++++@@=@@+++++ ##*  ;;;;;;;;;;;;;;;;;;;",
";;;;;;;;;;;;;;;;;;  &## ++++@@@=@@@++++ ##&  ;;;;;;;;;;;;;;;;;;;",
";;;;;;;;;;;;;;;;;;  &## ++++@@@=@@@++++ ##&  ;;;;;;;;;;;;;;;;;;;",
";;;;;;;;;;;;;.......&## ++@@@@@=@@@@@++ ##&.......;;;;;;;;;;;;;;",
";;;;;;;;;;;;;..***## --...@@@@@=@@@@@...-- ##***..;;;;;;;;;;;;;;",
";;;;;;;;;;;;;..***## --...@@@@@=@@@@@...-- ##***..;;;;;;;;;;;;;;",
";;;;;;;;;;;;;..&&&## --#--..@@@@@@@..--#-- ##&&&..;;;;;;;;;;;;;;",
";;;;;;;;;;;;;..&&&## **#----+@@@@@+----#** ##&&&..;;;;;;;;;;;;;;",
";;;;;;;;;;;;;..&&&## **#----+@@@@@+----#** ##&&&..;;;;;;;;;;;;;;",
";;;;;;;;;;;;;;;#&&&& ## &&---+++++---&& ## &&&&#;;;;;;;;;;;;;;;;",
";;;;;;;;;;;;;;;#&&&& ## &&---+++++---&& ## &&&&#;;;;;;;;;;;;;;;;",
";;;;;;;;.......;##&& ## OOoo&-----&ooOO ## &&##;......;;;;;;;;;;",
";;;;;;;;..*****.&&.. &&#oo  X  &  X  oo#&& ..&&.*****.;;;;;;;;;;",
";;;;;;;;..*****.&&.. &&#oo  X  &  X  oo#&& ..&&.*****.;;;;;;;;;;",
";;;;;;;;..&&&&&&..##.  &XX++X  -  X++XX&  .##..&&&&&&.;;;;;;;;;;",
";;;;;;;;....&&&&&&...  &##  &**-**&  ##&  ...&&&&&&...;;;;;;;;;;",
";;;;;;;;....&&&&&&...  &##  &**-**&  ##&  ...&&&&&&...;;;;;;;;;;",
";;;;;;;;;;;;...&&&&&.## &&           && ##.&&&&&...;;;;;;;;;;;;;",
";;;;;;;;;;;;...&&&&&.## &&           && ##.&&&&&...;;;;;;;;;;;;;",
";;;;;;;;;;;;;;;...###&& &&  X     X  && &&###...;;;;;;;;;;;;;;;;",
";;;;;;;;;;;;;;;;    .&&#XX  +XXXXX+  XX#&&.    ;;;;;;;;;;;;;;;;;",
";;;;;;;;;;;;;;;;    .&&#XX  +XXXXX+  XX#&&.    ;;;;;;;;;;;;;;;;;",
";;;;;;;;;;;;;;;;  ---XXXXXXX+XXXXX+XXXXXXX---  .;;;;;;;;;;;;;;;;",
";;;;;;;;;;;;;;;.  ##---XXX@@+++X+++@@XXX---##  .;;;;;;;;;;;;;;;;",
";;;;;;;;;;;;;;;.  ##---XXX@@+++X+++@@XXX---##  .;;;;;;;;;;;;;;;;",
";;;;;;;;;;;;;;;.++  #--*&&+++&&&&&+++&&*--#  +++  ;;;;;;;;;;;;;;",
";;;;;;;;;;;;;;;.++  #--*&&+++&&&&&+++&&*--#  +++  ;;;;;;;;;;;;;;",
";;;;;;;;;;;;;  +++++ ##-****&&&-&&&****-## +++++  ;;;;;;;;;;;;;;",
";;;;;;;;;;;;;  +++  @@@#****&&&-&&&****#@@@  ++#   ;;;;;;;;;;;;;",
";;;;;;;;;;;;;  +++  @@@#****&&&-&&&****#@@@  ++#   ;;;;;;;;;;;;;",
";;;;;;;;;;;;   #  ++===@##&&&**-**&&&##@==@XX++### ;;;;;;;;;;;;;",
";;;;;;;;;;;; ## @@==@@@@##&&*XX%XX*&&##@@@=++  .## ;;;;;;;;;;;;;",
";;;;;;;;;;;; ## @@==@@@@##&&*XX%XX*&&##@@@=++  .## ;;;;;;;;;;;;;",
";;;;;;;;;;;; ## ====@..-**&&X%%=%%X&&**-..@==@@    ;;;;;;;;;;;;;",
";;;;;;;;;;;; ## ====@..-**&&X%%=%%X&&**-..@==@@    ;;;;;;;;;;;;;",
";;;;;;;;;;;;    ====@...  &&&XX%XX&&&  ...@==== ;;;;;;;;;;;;;;;;",
";;;;;;;;;;;;;  X==@@@XXX  ...##X##...  X@@@==== ;;;;;;;;;;;;;;;;",
";;;;;;;;;;;;;  X==@@@XXX  ...##X##...  X@@@==== ;;;;;;;;;;;;;;;;",
";;;;;;;;;;;;;  #XXXXX&&&XX  .#####.  XXXXX@@@==X  ;;;;;;;;;;;;;;",
";;;;;;;;;;;;;  &XX&&X###  ;;...#...;;  &&&XXXXX#  ;;;;;;;;;;;;;;",
";;;;;;;;;;;;;  &XX&&X###  ;;...#...;;  &&&XXXXX#  ;;;;;;;;;;;;;;",
";;;;;;;;;;;; &&#XX&&X## ;;;;;     ;;;  ###X&&XX&  ;;;;;;;;;;;;;;",
";;;;;;;;;;;; &&#XX&&X## ;;;;;     ;;;  ###X&&XX&  ;;;;;;;;;;;;;;",
";;;;;;;;;;;; &&#&&## ## ;;;;;;;;;;;;;;; ##X&&XX#&& ;;;;;;;;;;;;;",
";;;;;;;;;;;;   #&&##    ;;;;;;;;;;;;;;; ## ##&&#&& ;;;;;;;;;;;;;",
";;;;;;;;;;;;   #&&##    ;;;;;;;;;;;;;;; ## ##&&#&& ;;;;;;;;;;;;;",
";;;;;;;;;;;;;;;     ;;;;;;;;;;;;;;;;;;;    ##&&#   ;;;;;;;;;;;;;",
";;;;;;;;;;;;;;;;;;;;;;;;;;;;;;;;;;;;;;;;;;;     ;;;;;;;;;;;;;;;;",
";;;;;;;;;;;;;;;;;;;;;;;;;;;;;;;;;;;;;;;;;;;     ;;;;;;;;;;;;;;;;"
};
