/* XPM */
static char *c0278ef489a34711a208cf1d2f1c30far68B9NvghDh00PN0[] = {
/* columns rows colors chars-per-pixel */
"64 64 15 1 ",
"  c None",
". c #101010",
"X c #283848",
"o c #204068",
"O c #B82010",
"+ c #F05040",
"@ c #205890",
"# c #3878B0",
"$ c #607888",
"% c #60A0C0",
"& c #4080F8",
"* c #88A0B0",
"= c #B8C8D8",
"- c #98D0F0",
"; c #D8E8F8",
/* pixels */
"                             ...                                ",
"                             ...                                ",
"                             ..=XX..                            ",
"                             ..=XX..                            ",
"                               X====...                         ",
"                        XXX.....XXXXXXXXXX                      ",
"                        XXX.....XXXXXXXXXX                      ",
"                        XX#..;;;....-----%XXXXX                 ",
"                        XX#..;;;....-----%XXXXX                 ",
"                        XX###..;;;;;XXX%%----##XXX              ",
"                          X%%%%X..;;;;;...@@@-----XX..          ",
"                          X%%%%X..;;;;;...@@@-----XX..          ",
"                          X@@%%%##XX.;;;;;...@@###----...       ",
"                          X@@%%%##XX.;;;;;...@@###----...       ",
"                           XX@@%%%###..;;;;;;..#######.@@...    ",
"                           XXXX@@@%%%##..;;;;..@@###XX;..##@..  ",
"                           XXXX@@@%%%##..;;;;..@@###XX;..##@..  ",
"                             XXX@@@@@%%@@.===**XX@XX$$;..###@@..",
"                             XXX@@@@@%%@@.===**XX@XX$$;..###@@..",
"                                XXXX@@@##@XX=====XXX;;=..@@X**..",
"                                    XXX@@#..XXX===**===XXXX=$$..",
"                                    XXX@@#..XXX===**===XXXX=$$..",
"           XXX..  XXX                  XXX##@@@XX***==*;;;;$..  ",
"           XX;;;..X$$X                   XXXX@@##.**==.OOoo$..  ",
"           XX;;;..X$$X                   XXXX@@##.**==.OOoo$..  ",
"           XX=;;;;.$$$XX               XX$XXXXX##.$$**O++..o**..",
"           XX=;;;;.$$$XX               XX$XXXXX##.$$**O++..o**..",
"             X==;;;..$$$XX           XX==***.oo##.XXXX*oo###**..",
"         .....XX==;;;X$$XX             XXX$$.oo##@....$**..*..  ",
"         .....XX==;;;X$$XX             XXX$$.oo##@....$**..*..  ",
"         ..;;;**XX=;;=XX$$X          XX==*$$Xoo##oooXX.**...    ",
"         ..;;;**XX=;;=XX$$X          XX==*$$Xoo##oooXX.**...    ",
"         ..;;;;;**X===**XXXXXXX     XXXXX$XXo@@##ooo  .$$       ",
"           ..=;;;;;XX===XX$**$$X  XXX==**Xoo@##@@oXX   ..       ",
"           ..=;;;;;XX===XX$**$$X  XXX==**Xoo@##@@oXX   ..       ",
"             .$$==;;;$==$$*@@XXXXX@@......oo@##ooo..            ",
"             .$$==;;;$==$$*@@XXXXX@@......oo@##ooo..            ",
"              ..XX*===$$**;XX@@@@@@@@@@.....oooooo..            ",
".XXXXX     XXX..$$XXX*====;@@@@@@@@@@@@..;;;*..oo.;;..          ",
".XXXXX     XXX..$$XXX*====;@@@@@@@@@@@@..;;;*..oo.;;..          ",
".---%%XXXXXXX.==;;;==$$$===;;XXX@@@@@@@@@@$$;==$$*;;..          ",
".---%%XXXXXXX.==;;;==$$$===;;XXX@@@@@@@@@@$$;==$$*;;..          ",
" ..%--%%@@@@@X..===;;;==**X=====XXXX@@@@@oooo=======&&.         ",
"   .@@@@%%%%%%oo...$$$XXXXoooooooo@@@@@@@@XXooo==*==--.         ",
"   .@@@@%%%%%%oo...$$$XXXXoooooooo@@@@@@@@XXooo==*==--.         ",
"    ..@@@@@@@%XXXXXXXX@@@@@--%%%@@@@@@@@@%##XooXXX**&&.         ",
"      ...@@@@@@@@@X..@@@@@-@@@@%%%@@@##@@@--@XXXX$**..          ",
"      ...@@@@@@@@@X..@@@@@-@@@@%%%@@@##@@@--@XXXX$**..          ",
"         ....oooooX..@@@%%-@@@@@@@%%%..@@@--@@@XX*..            ",
"         ....oooooX..@@@%%-@@@@@@@%%%..@@@--@@@XX*..            ",
"             ........ooo--oXX..@@@@@ooo..@%%-@@@@...            ",
"                   ..ooo%%ooo..ooooo...oo@%%-oo..               ",
"                   ..ooo%%ooo..ooooo...oo@%%-oo..               ",
"                  .oooooooooo....... ..oooooooo..               ",
"                  .oooooooooo....... ..oooooooo..               ",
"                  .**ooo**o..        ..**ooo*XX..               ",
"                  .$$***==X..        ..$$***=XX..               ",
"                  .$$***==X..        ..$$***=XX..               ",
"                   ..$$$==X**..        ..$$$=XX**.              ",
"                   ..$$$==X**..        ..$$$=XX**.              ",
"                   ..XXX==X==..        ..XXX=XX==.              ",
"                   ...XX==.....        ...XX=.....              ",
"                   ...XX==.....        ...XX=.....              ",
"                      .....               .....                 "
};
