/* XPM */
static const char *ZGlhbGdhMg__[] = {
/* columns rows colors chars-per-pixel */
"64 64 12 1 ",
"  c #101010",
". c #283848",
"X c #204068",
"o c #205890",
"O c #3878B0",
"+ c #607888",
"@ c #60A0C0",
"# c #88A0B0",
"$ c #B8C8D8",
"% c #98D0F0",
"& c #D8E8F8",
"* c None",
/* pixels */
"*****************************     ******************************",
"*****************************     ******************************",
"***************************  XXXXX  ****************************",
"***************************  XXXXX  ****************************",
"********************* **** oooo@oooo **** **********************",
"*******************  #++  oooOO@OOooo  ++#  ********************",
"*******************  #++  oooOO@OOooo  ++#  ********************",
"*******************  #++XXoOOOO@OOOOoXX++#  ********************",
"*******************  #++XXoOOOO@OOOOoXX++#  ********************",
"*******************  #  ooOOOOO@OOOOOoo  #  ********************",
"*******************++.  OOOOOOO%OOOOOOO  .++********************",
"*******************++.  OOOOOOO%OOOOOOO  .++********************",
"*******************++$  OOOOOOO%OOOOOOO  $++********************",
"*******************++$  OOOOOOO%OOOOOOO  $++********************",
"*******************++$  OOOOOOO%OOOOOOO  $++********************",
"******************+$$&  ooOOO%%%%%OOOoo  &$$+*******************",
"******************+$$&  ooOOO%%%%%OOOoo  &$$+*******************",
"******************.&&+  ooO@@%%%%%@@Ooo  +&&.*******************",
"******************.&&+  ooO@@%%%%%@@Ooo  +&&.*******************",
"******************.&&+  ..o%%%%%%%%%o..  +&&.*******************",
"******************...*..  .oo@@%@@oo.  ..*...*******************",
"******************...*..  .oo@@%@@oo.  ..*...*******************",
"************************.. ..XX XX.. ..*************************",
"************************  o    &    o  *************************",
"************************  o    &    o  *************************",
"************************  o  &&$&&  o  *************************",
"************************  o  &&$&&  o  *************************",
"****************     X**  o++$$$$$++o  **X     *****************",
"****************  &&&&XX  X$$$$$$$$$X  XX&&&&  *****************",
"****************  &&&&XX  X$$$$$$$$$X  XX&&&&  *****************",
"****************  $$$$++  X$$$$$$$$$X  ++$$$$  *****************",
"****************  $$$$++  X$$$$$$$$$X  ++$$$$  *****************",
"****************  $$$$$$XX#XX$$$$$XX#XX$$$$$$  *****************",
"****************** ##$$$XX#XX##$##XX#XX$$$## *******************",
"****************** ##$$$XX#XX##$##XX#XX$$$## *******************",
"***********   XXXX+  #$$##XXXXX#XXXXX##$$#  +XXXX   ************",
"***********   XXXX+  #$$##XXXXX#XXXXX##$$#  +XXXX   ************",
"***********  &&&&&X++ ####X+++++++++X#### ++X&&&&&  ************",
"***********  $$$$$$XX ++++#XXXXXXXXX#++++ XX$$$$$$  ************",
"***********  $$$$$$XX ++++#XXXXXXXXX#++++ XX$$$$$$  ************",
"************* ++##$$$+++++XoooooooooX+++++$$$##++ **************",
"************* ++##$$$+++++XoooooooooX+++++$$$##++ **************",
"**************     +++XX$$XoooooooooX$$XX+++     ***************",
"**************  XX.   XX$$XooOOOOOooX$$XX   .XX  ***************",
"**************  XX.   XX$$XooOOOOOooX$$XX   .XX  ***************",
"**************  XX.ooOOOOOOOOOOOOOOOOOOOOOoo.  *****************",
"****************  ooooOO@@OOOOOOOOOO@OOOOoooo  *****************",
"****************  ooooOO@@OOOOOOOOOO@OOOOoooo  *****************",
"**************  ..oooooo@@OOOOOOOOOO@  oooooo..*****************",
"**************  ..oooooo@@OOOOOOOOOO@  oooooo..*****************",
"**************  ##oooooo  @OOOOOOO@@X  oooooo..  ***************",
"**************  ++####..  @OOOOOOO@@X  oooooo##  ***************",
"**************  ++####..  @OOOOOOO@@X  oooooo##  ***************",
"************* ++XX++++..  @OOOOOOO@@X  ..####++  ***************",
"************* ++XX++++..  @OOOOOOO@@X  ..####++  ***************",
"************* ++XXXXXX    O%%OOOOO@@X**..++++XX++ **************",
"*************   XXXXXX  **X%%OOOOOXX***  XXXXXX++ **************",
"*************   XXXXXX  **X%%OOOOOXX***  XXXXXX++ **************",
"****************      ****XOO%%OOOXX***  XXXXXX   **************",
"****************      ****XOO%%OOOXX***  XXXXXX   **************",
"***************************XXOO%%%@@X****      *****************",
"*****************************XXX%%%%X***************************",
"*****************************XXX%%%%X***************************",
"********************************XXXXX***************************"
};
