/* XPM */
static char *result[] = {
/* columns rows colors chars-per-pixel */
"64 64 15 1 ",
"  c #101010",
". c #505058",
"X c #F05040",
"o c #887890",
"O c #A050A0",
"+ c #788890",
"@ c #A8A0B0",
"# c #F0A098",
"$ c #B0B8C0",
"% c #C888C0",
"& c #D0C0D8",
"* c #C8D8E8",
"= c #E8D8F8",
"- c #F8F8F8",
"; c None",
/* pixels */
";;;;;;;;;;;;;;;;;;;;;;;;;;;;;;;;;;;;;;;;;;;;;;;;;;;;;;;;;;;;;;;;",
";;;;;;;;;;;;;;;;;;;;;;;;;;;;;;;;;;;;;;;;;;;;;;;;;;;;;;;;;;;;;;;;",
";;;;;;;;;;;;;;;;;;;;;;;;;;;;;;;;;;;;;;;;;;;;;;;;;;;;;;;;;;;;;;;;",
";;;;;;;;;;;;;;;;;;;;;;;;;;;;;;;;;;;;;;;;;;;;;;;;;;;;;;;;;;;;;;;;",
";;;;;;;;;;;;;;;;;;;;;;;;;;;;;;;;;;;;;;;;;;;;;;;;;;;;;;;;;;;;;;;;",
";;;;;;;;;;;;;;;;;;;;;;;;;;;;;;;;;;;;;;;;;;;;;;;;;;;;;;;;;;;;;;;;",
";;;;;;;;;;;;;;;;;;;;;;;;;;;;;;;;;;;;;;;;;;;;;;;;;;;;;;;;;;;;;;;;",
";;;;;;;;;;;;;;;;;;;;;;;;;;;;;;;;;;;;;;;;;;;;;;;;;;;;;;;;;;;;;;;;",
";;;;;;;;;;;;;;;;;;;;;;;;;;;;;;;;;;;;;;;;;;;;;;;;;;;;;;;;;;;;;;;;",
";;;;;;;;;;;;;;;;;;;;;;;;;;;;;;;;;;;;;;;;;;;;;;;;;;;;;;;;;;;;;;;;",
";;;;;;;;;;;;;;;;;;;;;;;;;;;;;;;;;;;;;;;;;;;;;;;;;;;;;;;;;;;;;;;;",
";;;;;;;;;;;;;;;;;;;;;;;;;;;;;;;;;;;;;;;;;;;;;;;;;;;;;;;;;;;;;;;;",
";;;;;;;;;;;;;;;;;;;;;;;;;;;;;;;;;;;;;;;;;;;;;;;;;;;;;;;;;;;;;;;;",
";;;;;;;;;;;;;;;;;;;;;;;;;;;;;;;;;;;;;;;;;;;;;;;;;;;;;;;;;;;;;;;;",
";;;;;;;;;;;;;;;;;;;;;;;;;;;;;;;;;;;;;;;;;;;;;;;;;;;;;;;;;;;;;;;;",
";;;;;;;;;;;;;;;;;;;;;;;;;;;;;;;;;;;;;;;;;;;;;;;;;;;;;;;;;;;;;;;;",
";;;;;;;;;;;;;;;;;;;;;;;;;;;;;;;;;;;;;;;;;;;;;;;;;;;;;;;;;;;;;;;;",
";;;;;;;;;;;;;;;;;;;;;;;;;;;;;;;;;......;;;;;;;;;;;;;;;;;;;;;;;;;",
";;;;;;;;;;;;;;;;;;;;;;;;;;;;;;;;;......;;;;;;;;;;;;;;;;;;;;;;;;;",
";;;;;;;;;;;;;;;;;;;;;;;;;;;;;;;..oooooo...;;;;;;;;    .......;;;",
";;;;.........;;;;;;;;;;;;;;;;..oo.....oooo.    ......$------ ;;;",
";;;;.........;;;;;;;;;;;;;;;;..oo.....oooo.    ......$------ ;;;",
";;;;..&&&&&&&.....;;;;;;;;;;.oo..ooooo     ****$$--------.  .;;;",
";;;;;;.@@@&&&&&&&@.............o*******----$$$$----******$--$..;",
";;;;;;;.@@@@@@@&&&.*******$$$***&&&----$$$$----$$**---------***.",
";;;;;;;.@@@@@@@&&&.*******$$$***&&&----$$$$----$$**---------***.",
";;;;;;;;..oooo@@@@@+++$$$$$$+++****$$$$----$$$$**--------****..;",
";;;;;;;;;;.@@@ooooo@@@oo$+++***$$$$*---$$$$===$-------**XX...++ ",
";;;;;;;;;;.@@@ooooo@@@oo$+++***$$$$*---$$$$===$-------**XX...++ ",
";;;;;;;;;;;..@@@@@@ooooo.@&&$$$*      $========$$-----$$.X  +-- ",
";;;;;;;;;;;;;..ooooooooo....*   &%%%&&  =========$******$...-.. ",
";;;;;;;;;;;;;;..........**** ====%%%====  ========$$$----$$$.  ;",
";;;;;;;;;;;;;;..........**** ====%%%====  ========$$$----$$$.  ;",
";;;;;;............+*******  %%%&=$$$==&%%% ====OOO@@@@@@    ;;;;",
";;;;;;.=======&&&&oooo****  %%%%+XXX++%%%% OOOO@@O      ;;;;;;;;",
";;;;;;;.==&&&&@ooooooooo. &&===+XXX-XX+===&  @@   ;;;;;;;;;;;;;;",
";;;;;;;.==&&&&@ooooooooo. &&===+XXX-XX+===&  @@   ;;;;;;;;;;;;;;",
";;;;;;;;..@ooo@&&&&oooooo &&===+X##XXX+===&    ;;;;;;;;;;;;;;;;;",
";;;;;;;;;;o&&&&&&&&&&oooo &&=%%$+XXX++$%==&   ;;;;;;;;;;;;;;;;;;",
";;;;;;;;;;o&&&&&&&&&&oooo &&=%%$+XXX++$%==&   ;;;;;;;;;;;;;;;;;;",
";;;;;;;;;;;..&&&&&&ooo@@@.  %%%%$$$$$$%%%% .. ;;;;;;;;;;;;;;;;;;",
"...;;;;;;;;;;.&&&oo@@@@@..  O%%==%%%===%OO   ;;;;;;;;;;;;;;;;;;;",
".%%...;;;;;;;;...@@@@@..oo   &&==%%%===&   ;;;;;;;;;;;;;;;;;;;;;",
".%%...;;;;;;;;...@@@@@..oo   &&==%%%===&   ;;;;;;;;;;;;;;;;;;;;;",
".OO%&&........@@@.@@@.@@@o  o  &&%%%&&& ..   ;;;;;;;;;;;;;;;;;;;",
" OOO&&&&&&&&&&&&&@...@@@@@.. oo        .  $   .;;;;;;;;;;;;;;;;;",
" OOO&&&&&&&&&&&&&@...@@@@@.. oo        .  $   .;;;;;;;;;;;;;;;;;",
";..OOO&&&&&&&&&&&&@@@@@@@.ooO..====&&&&OOO%OO- ;;;;;;;;;;;;;;;;;",
";  @OOOO&&&&&&&&&&&@@@@@o OOo..oo@@@@@oO%%%%% ;;;;;;;;;;;;;;;;;;",
";;; oo@OOOO&&&&&&@@@@@ooo OO =======&&&OOO%OO-.;;;;;;;;;;;;;;;;;",
";;; oo@OOOO&&&&&&@@@@@ooo OO =======&&&OOO%OO-.;;;;;;;;;;;;;;;;;",
";;;;  oooo@@@@@@@@@oooooo OO   oo@@&&&o.OOO$$..;;;;;;;;;;;;;;;;;",
";;;;;; .ooo@@@@@@ooooo......O..&&&&........   ;;;;;;;;;;;;;;;;;;",
";;;;;;;;  .oooooooo......... .........ooooo  ;;;;;;;;;;;;;;;;;;;",
";;;;;;;;  .oooooooo......... .........ooooo  ;;;;;;;;;;;;;;;;;;;",
";;;;;;;;;;;   ..........  ;;OOOo.ooooooo   ;;;;;;;;;;;;;;;;;;;;;",
";;;;;;;;;;;;;;          ;;  Ooooo..     ;;;;;;;;;;;;;;;;;;;;;;;;",
";;;;;;;;;;;;;;          ;;  Ooooo..     ;;;;;;;;;;;;;;;;;;;;;;;;",
";;;;;;;;;;;;;;;;;;;;;;;;;;  OOOooooo  $$...;;;;;;;;;;;;;;;;;;;;;",
";;;;;;;;;;;;;;;;;;;;;;;;;;  .OOOoooooo++$$ ;;;;;;;;;;;;;;;;;;;;;",
";;;;;;;;;;;;;;;;;;;;;;;;;;  $..OOooooo$$++ ;;;;;;;;;;;;;;;;;;;;;",
";;;;;;;;;;;;;;;;;;;;;;;;;;  $..OOooooo$$++ ;;;;;;;;;;;;;;;;;;;;;",
";;;;;;;;;;;;;;;;;;;;;;;;;;      OOO+$$$   ;;;;;;;;;;;;;;;;;;;;;;",
";;;;;;;;;;;;;;;;;;;;;;;;;;;;;;;;       ;;;;;;;;;;;;;;;;;;;;;;;;;"
};
