/* XPM */
static char *d6e11938318847e9bfde62e9b5213069OwXosvGPXJnT3oC5[] = {
/* columns rows colors chars-per-pixel */
"64 64 15 1 ",
"  c None",
". c #101010",
"X c #505058",
"o c #F05040",
"O c #887890",
"+ c #A050A0",
"@ c #788890",
"# c #A8A0B0",
"$ c #F0A098",
"% c #B0B8C0",
"& c #C888C0",
"* c #D0C0D8",
"= c #C8D8E8",
"- c #E8D8F8",
"; c #F8F8F8",
/* pixels */
"     OOOOOOO                                         OOOOOOO    ",
"     OOOOOOO                                         OOOOOOO    ",
"     OO---**OOO                                   OOO**---OO    ",
"     OO---**OOO                                   OOO**---OO    ",
"       OO---**#OOOO                           OOOO#**---OO      ",
"         O----*##**O                         O**##*----O        ",
"         O----*##**O                         O**##*----O        ",
"          OO---**##*OO                     OO*##**---OO         ",
"          OO---**##*OO                     OO*##**---OO         ",
"            OO---##*##O                   O##*##---OO           ",
"              O----#**#OO               OO#**#----O             ",
"              O----#**#OO               OO#**#----O             ",
"               XX--#**#OOOO   XXXXX   OOOO#**#--XX              ",
"               XX--#**#OOOO   XXXXX   OOOO#**#--XX              ",
"                 XX%%%###OOXXXOO%OOXXXOO###%%%XX                ",
"                 XX===%##XXO****=****OXX##%===XX                ",
"                 XX===%##XXO****=****OXX##%===XX                ",
"                   X===%%OO%**--=--**%OO%%===X                  ",
"                   X===%%OO%**--=--**%OO%%===X                  ",
"                    XX===OO%----=----%OO===XX                   ",
"              .....   X==%%%----;----%%%==X   .....             ",
"              .....   X==%%%----;----%%%==X   .....             ",
"          ....-&&&&.XX&**%%=%%--;--%%=%%**&XX.&&&&-....         ",
"         .@@@@&&&&&-..&**%%;%%==%==%%;%%**&..-&&&&&@@@@.        ",
"         .@@@@&&&&&-..&**%%;%%==%==%%;%%**&..-&&&&&@@@@.        ",
"       ..;oooo------..#&&**;====;====;**&&#..------oooo;..      ",
"       ..;oooo------..#&&**;====;====;**&&#..------oooo;..      ",
"       ..o$$@@---&&&..#&&--%;;==;==;;%--&&#..&&&---@@$$o..      ",
"     ..@@ooo---&&&&&..#&&--%;;==;==;;%--&&#..&&&&&---ooo@@..    ",
"     ..@@ooo---&&&&&..#&&--%;;==;==;;%--&&#..&&&&&---ooo@@..    ",
"     ..----------&&+XXX&&---%%;;;;;%%---&&XXX+&&----------..    ",
"     ..----------&&+XXX&&---%%;;;;;%%---&&XXX+&&----------..    ",
"     XX&&---&&-----.++X-----%%;;;;;%%-----X++.-----&&---&&XX    ",
"     XX&&---&&&--...++X----%==%%;%%==%----X++...--&&&---&&XX    ",
"     XX&&---&&&--...++X----%==%%;%%==%----X++...--&&&---&&XX    ",
"     ..XX%--&&&..XX.++X%%%%;;;%%;%%;;;%%%%X++.XX..&&&--XXX...   ",
"     ..XX%--&&&..XX.++X%%%%;;;%%;%%;;;%%%%X++.XX..&&&--XXX...   ",
"    .****...XX........XXX==;;;%%;%%;;;==XXX........XX..*****... ",
"  ...*****..     ..X..X%%oo=;;%%;%%;;=oo%%X..X..   ..--*OOOO*.. ",
"  ...*****..     ..X..X%%oo=;;%%;%%;;=oo%%X..X..   ..--*OOOO*.. ",
"  ..*OOOO*--.. XXXXOOO.%%ooXXX%%;%%XXXoo%%.OOXXX...--OOO--***OO.",
"  ..*OOOO*--.. XXXXOOO.%%ooXXX%%;%%XXXoo%%.OOXXX...--OOO--***OO.",
"..OO***--OOO--...XXXOO.@@XX.XX%%@%%XX.XX@@.OOX%%+++OO-----OOO**.",
"..**OOO-----OO+++%%XOOX..@@=++@@@@@++=@@..XOOOXX&&&++--OOO***...",
"..**OOO-----OO+++%%XOOX..@@=++@@@@@++=@@..XOOOXX&&&++--OOO***...",
"....***OOO--++&&&XXOOOO....%%%%%%%%%%%....OOOX;;++&++OO---...   ",
"    ...---OO++&++;;X##OXXXX...;;;;;...XXXXO##*..;;+++.....      ",
"    ...---OO++&++;;X##OXXXX...;;;;;...XXXXO##*..;;+++.....      ",
"       .....+++;;..*##OXXXXXXXXXXXXXXXXXXXO##***.......         ",
"       .....+++;;..*##OXXXXXXXXXXXXXXXXXXXO##***.......         ",
"          .......**#OOO..++OXXXXXXXXXO++..O##********..         ",
"          ..##*****#OO...++#OOXXXXXOO#++..OOO#*******..         ",
"          ..##*****#OO...++#OOXXXXXOO#++..OOO#*******..         ",
"         .@@XX#####OXX.  ..+##+++++##+..  .OO#*****##..         ",
"         .@@XX#####OXX.  ..+##+++++##+..  .OO#*****##..         ",
"         .%%@@XXXXXX++.    ...+++++...    .XXO#####XX@@.        ",
"         .%%@@%@@OOO++.       .....       .++XXXXXX@@%%.        ",
"         .%%@@%@@OOO++.       .....       .++XXXXXX@@%%.        ",
"         .@@%%%@@%%O..                    .++OOO@@%@@%%.        ",
"         .@@%%%@@%%O..                    .++OOO@@%@@%%.        ",
"         .@@%%@%%@@.                       ..O%%@@%%%@@.        ",
"          .........                          .@@%%@%%@@.        ",
"          .........                          .@@%%@%%@@.        ",
"                                              .........         "
};
