/* XPM */
static char *result[] = {
/* columns rows colors chars-per-pixel */
"64 64 15 1 ",
"  c #101010",
". c #505058",
"X c #F05040",
"o c #887890",
"O c #A050A0",
"+ c #788890",
"@ c #A8A0B0",
"# c #F0A098",
"$ c #B0B8C0",
"% c #C888C0",
"& c #D0C0D8",
"* c #C8D8E8",
"= c #E8D8F8",
"- c #F8F8F8",
"; c None",
/* pixels */
";;;;;;;;;;;;;;;;;;;;;;;;;;;;;;;;;;;;;;;;;;;;;;;;;;;;;;;;;;;;;;;;",
";;;;;;;;;;;;;;;;;;;;;;;;;;;;;;;;;;;;;;;;;;;;;;;;;;;;;;;;;;;;;;;;",
";;;;;;;;;;;;;;;;;;;;;;;;;;;;;;;;;;;;;;;;;;;;;;;;;;;;;;;;;;;;;;;;",
";;;;;;;;;;;;;;;;;;;;;;;;;;;;;;;;;;;;;;;;;;;;;;;;;;;;;;;;;;;;;;;;",
";;;;;;;;;;;;;;;;;;;;;;;;;;;;;;;;;;;;;;;;;;;;;;;;;;;;;;;;;;;;;;;;",
";;;;;;;;;;;;;;;;;;;;;;;;;;;;;;;;;;;;;;;;;;;;;;;;;;;;;;;;;;;;;;;;",
";;;;;;;;;;;;;;;;;;;;;;;;;;;;;;;;;;;;;;;;;;;;;;;;;;;;;;;;;;;;;;;;",
";;;;;;;;;;;;;;;;;;;;;;;;;;;;;;;;;;;;;;;;;;;;;;;;;;;;;;;;;;;;;;;;",
";;;;;;;;;;;;;;;;;;;;;;;;;;;;;;;;;;;;;;;;;;;;;;;;;;;;;;;;;;;;;;;;",
";;;;;;;;;;;;;;;;;;;;;;;;;;;;;;;;;;;;;;;;;;;;;;;;;;;;;;;;;;;;;;;;",
";;;;;;;;;;;;;;;;;;;;;;;;;;;;;;;;;;;;;;;;;;;;;;;;;;;;;;;;;;;;;;;;",
";;;;;;;;;;;;;;;;;;;;;;;;;;;;;;;;;;;;;;;;;;;;;;;;;;;;;;;;;;;;;;;;",
";;;;;;;;;;;;;;;;;;;;;;;;;;;;;;;;;;;;;;;;;;;;;;;;;;;;;;;;;;;;;;;;",
";;;;;;;;;;;;;;;;;;;;;;;;;;;;;;;;;;;;;;;;;;;;;;;;;;;;;;;;;;;;;;;;",
";;;;;;;;;;;;;;;;;;;;;;;;;;;;;;;;;;;;;;;;;;;;;;;;;;;;;;;;;;;;;;;;",
";;;;;;;;;;;;;;;;;;;;;;;;;;;;;;;;;;;;;;;;;;;;;;;;;;;;;;;;;;;;;;;;",
";;;;;;;;;;;;;;;;;;;;;;;;;;;;;;;;;;;;;;;;;;;;;;;;;;;;;;;;;;;;;;;;",
";;;;;;;;;;;;;;;;;;;;;;;;;;;;;;;;......;;;;;;;;;;;;;;;;;;;;;;;;;;",
";;;;;;;;;;;;;;;;;;;;;;;;;;;;;;;;......;;;;;;;;;;;;;;;;;;;;;;;;;;",
";;;;;;;;;;;;;;;;;;;;;;;;;;;;;...oooooo..;;;;;;;;;;    .......;;;",
";;;;.........;;;;;;;;;;;;;;;.oooo.....oo..;    ......$------ ;;;",
";;;;.........;;;;;;;;;;;;;;;.oooo.....oo..;    ......$------ ;;;",
";;;;..&&&&&&&.....;;;;;;;;..ooo..ooooo     ****$$--------.  .;;;",
";;;;;;.@@@&&&&&&&@.............o*******----$$$$----******$--$..;",
";;;;;;;.@@@@@@@&&&.*******$$$***&&&----$$$$----$$**---------***.",
";;;;;;;.@@@@@@@&&&.*******$$$***&&&----$$$$----$$**---------***.",
";;;;;;;;..oooo@@@@@+++$$$$$$+++****$$$$----$$$$**--------****..;",
";;;;;;;;;;.@@@ooooo@@@oo$+++***$$$$*---$$$$===$-------**XX...++ ",
";;;;;;;;;;.@@@ooooo@@@oo$+++***$$$$*---$$$$===$-------**XX...++ ",
";;;;;;;;;;;..@@@@@@ooooo.@&&$$$**      ========$$-----$$.X  +-- ",
";;;;;;;;;;;;;..ooooooooo....***  &&%%%&   =======$******$...-.. ",
";;;;;;;;;;;;;;..........****$  ====%%%==== =======$$$----$$$.  ;",
";;;;;;;;;;;;;;..........****$  ====%%%==== =======$$$----$$$.  ;",
";;;;;;............+*******++ %%%&==$$$=&%%%  ==OOO@@@@@@    ;;;;",
";;;;;;.=======&&&&oooo****.. %%%%++XXX+%%%%  OO@@O      ;;;;;;;;",
";;;;;;;.==&&&&@ooooooooo.*  &===+XXX--X+===&& @   ;;;;;;;;;;;;;;",
";;;;;;;.==&&&&@ooooooooo.*  &===+XXX--X+===&& @   ;;;;;;;;;;;;;;",
";;;;;;;;..@ooo@&&&&oooooo.  &===+XX#XXX+===&&  ;;;;;;;;;;;;;;;;;",
";;;;;;;;;;o&&&&&&&&&&ooooo  &==%$++XXX+$%%=&& ;;;;;;;;;;;;;;;;;;",
";;;;;;;;;;o&&&&&&&&&&ooooo  &==%$++XXX+$%%=&& ;;;;;;;;;;;;;;;;;;",
";;;;;;;;;;;..&&&&&&ooo@@@... %%%%$$$$$$%%%%   ;;;;;;;;;;;;;;;;;;",
"...;;;;;;;;;;.&&&oo@@@@@..oo OO%===%%%==%%O  ;;;;;;;;;;;;;;;;;;;",
".%%...;;;;;;;;...@@@@@..oo  o  &===%%%==&& ..;;;;;;;;;;;;;;;;;;;",
".%%...;;;;;;;;...@@@@@..oo  o  &===%%%==&& ..;;;;;;;;;;;;;;;;;;;",
".OO%&&........@@@.@@@.@@@o  ooo &&&%%%&&  ...  ;;;;;;;;;;;;;;;;;",
" OOO&&&&&&&&&&&&&@...@@@@.  ooo.        ..   $   .;;;;;;;;;;;;;;",
" OOO&&&&&&&&&&&&&@...@@@@.  ooo.        ..   $   .;;;;;;;;;;;;;;",
";..OOO&&&&&&&&&&&&@@@@@@.oOO...o.=====&&&&OOO%O-- ;;;;;;;;;;;;;;",
";  @OOOO&&&&&&&&&&&@@@@@ Ooo@  o.ooo@@@@ooO%%%%  ;;;;;;;;;;;;;;;",
";;; oo@OOOO&&&&&&@@@@@oo O@@@@@ =======&&&OOO%O--.;;;;;;;;;;;;;;",
";;; oo@OOOO&&&&&&@@@@@oo O@@@@@ =======&&&OOO%O--.;;;;;;;;;;;;;;",
";;;;  oooo@@@@@@@@@ooooo O@@@@@  ooo@@&&oo.OOO$...;;;;;;;;;;;;;;",
";;;;;; .ooo@@@@@@ooooo....OO@@@@.&&&&&.... ...   ;;;;;;;;;;;;;;;",
";;;;;;;;  .oooooooo.......  @@@o......oooo ;;;;;;;;;;;;;;;;;;;;;",
";;;;;;;;  .oooooooo.......  @@@o......oooo ;;;;;;;;;;;;;;;;;;;;;",
";;;;;;;;;;;   ..........  OOOoo.ooooooo   ;;;;;;;;;;;;;;;;;;;;;;",
";;;;;;;;;;;;;;          ; OOoooo.      ;;;;;;;;;;;;;;;;;;;;;;;;;",
";;;;;;;;;;;;;;          ; OOoooo.      ;;;;;;;;;;;;;;;;;;;;;;;;;",
";;;;;;;;;;;;;;;;;;;;;;;; OOOooooo  $$$..;;;;;;;;;;;;;;;;;;;;;;;;",
";;;;;;;;;;;;;;;;;;;;;;;; .OOOoooooo+++$ ;;;;;;;;;;;;;;;;;;;;;;;;",
";;;;;;;;;;;;;;;;;;;;;;;; $..OOOoooo$$$+ ;;;;;;;;;;;;;;;;;;;;;;;;",
";;;;;;;;;;;;;;;;;;;;;;;; $..OOOoooo$$$+ ;;;;;;;;;;;;;;;;;;;;;;;;",
";;;;;;;;;;;;;;;;;;;;;;;;     OOO+$$$   ;;;;;;;;;;;;;;;;;;;;;;;;;",
";;;;;;;;;;;;;;;;;;;;;;;;;;;;;       ;;;;;;;;;;;;;;;;;;;;;;;;;;;;"
};
