/* XPM */
static char *result[] = {
/* columns rows colors chars-per-pixel */
"64 64 15 1 ",
"  c #101010",
". c #505058",
"X c #F05040",
"o c #887890",
"O c #A050A0",
"+ c #788890",
"@ c #A8A0B0",
"# c #F0A098",
"$ c #B0B8C0",
"% c #C888C0",
"& c #D0C0D8",
"* c #C8D8E8",
"= c #E8D8F8",
"- c #F8F8F8",
"; c None",
/* pixels */
";;;;;;;;;;;;;;;;;;;;;;;;;;;;;;;;;;;;;;;;;;;;;;;;;;;;;;;;;;;;;;;;",
";;;;;;;;;;;;;;;;;;;;;;;;;;;;;;;;;;;;;;;;;;;;;;;;;;;;;;;;;;;;;;;;",
";;;;;;;;;;;;;;;;;;;;;;;;;;;;;;;;;;;;;;;;;;;;;;;;;;;;;;;;;;;;;;;;",
";;;;;;;;;;;;;;;;;;;;;;;;;;;;;;;;;;;;;;;;;;;;;;;;;;;;;;;;;;;;;;;;",
";;;;;;;;;;;;;;;;;;;;;;;;;;;;;;;;;;;;;;;;;;;;;;;;;;;;;;;;;;;;;;;;",
";;;;;;;;;;;;;;;;;;;;;;;;;;;;;;;;;;;;;;;;;;;;;;;;;;;;;;;;;;;;;;;;",
";;;;;;;;;;;;;;;;;;;;;;;;;;;;;;;;;;;;;;;;;;;;;;;;;;;;;;;;;;;;;;;;",
";;;;;;;;;;;;;;;;;;;;;;;;;;;;;;;;;;;;;;;;;;;;;;;;;;;;;;;;;;;;;;;;",
";;;;;;;;;;;;;;;;;;;;;;;;;;;;;;;;;;;;;;;;;;;;;;;;;;;;;;;;;;;;;;;;",
";;;;;;;;;;;;;;;;;;;;;;;;;;;;;;;;;;;;;;;;;;;;;;;;;;;;;;;;;;;;;;;;",
";;;;;;;;;;;;;;;;;;;;;;;;;;;;;;;;;;;;;;;;;;;;;;;;;;;;;;;;;;;;;;;;",
";;;;;;;;;;;;;;;;;;;;;;;;;;;;;;;;;;;;;;;;;;;;;;;;;;;;;;;;;;;;;;;;",
";;;;;;;;;;;;;;;;;;;;;;;;;;;;;;;;;;;;;;;;;;;;;;;;;;;;;;;;;;;;;;;;",
";;;;;;;;;;;;;;;;;;;;;;;;;;;;;;;;;;;;;;;;;;;;;;;;;;;;;;;;;;;;;;;;",
";;;;;;;;;;;;;;;;;;;;;;;;;;;;;;;;;;;;;;;;;;;;;;;;;;;;;;;;;;;;;;;;",
";;;;;;;;;;;;;;;;;;;;;;;;;;;;;;;;;;;;;;;;;;;;;;;;;;;;;;;;;;;;;;;;",
";;;;;;;;;;;;;;;;;;;;;;;;;;;;;;;;;;;;;;;;;;;;;;;;;;;;;;;;;;;;;;;;",
";;;;;;;;;;;;;;;;;;;;;;;;;;......;;;;;;;;;;;;;;;;;;;;;;;;;;;;;;;;",
";;;;;;;;;;;;;;;;;;;;;;;;;;......;;;;;;;;;;;;;;;;;;;;;;;;;;;;;;;;",
";;;.......    ;;;;;;;;;;..oooooo...;;;;;;;;;;;;;;;;;;;;;;;;;;;;;",
";;; ------$......    ;..oo.....oooo.;;;;;;;;;;;;;;;.........;;;;",
";;; ------$......    ;..oo.....oooo.;;;;;;;;;;;;;;;.........;;;;",
";;;.  .--------$$****     ooooo..ooo..;;;;;;;;.....&&&&&&&..;;;;",
";..$--$******----$$$$----*******o.............@&&&&&&&@@@.;;;;;;",
".***---------**$$----$$$$----&&&***$$$*******.&&&@@@@@@@.;;;;;;;",
".***---------**$$----$$$$----&&&***$$$*******.&&&@@@@@@@.;;;;;;;",
";..****--------**$$$$----$$$$****+++$$$$$$+++@@@@@oooo..;;;;;;;;",
" ++...XX**-------$===$$$$---*$$$$***+++$oo@@@ooooo@@@.;;;;;;;;;;",
" ++...XX**-------$===$$$$---*$$$$***+++$oo@@@ooooo@@@.;;;;;;;;;;",
" --+  X.$$-----$$========      **$$$&&@.ooooo@@@@@@..;;;;;;;;;;;",
" ..-...$******$=======   &%%%&&  ***....ooooooooo..;;;;;;;;;;;;;",
";  .$$$----$$$======= ====%%%====  $****..........;;;;;;;;;;;;;;",
";  .$$$----$$$======= ====%%%====  $****..........;;;;;;;;;;;;;;",
";;;;    @@@@@@OOO==  %%%&=$$$==&%%% ++*******+............;;;;;;",
";;;;;;;;      O@@OO  %%%%+XXX++%%%% ..****oooo&&&&=======.;;;;;;",
";;;;;;;;;;;;;;   @ &&===+X--XXX+===&  *.ooooooooo@&&&&==.;;;;;;;",
";;;;;;;;;;;;;;   @ &&===+X--XXX+===&  *.ooooooooo@&&&&==.;;;;;;;",
";;;;;;;;;;;;;;;;;  &&===+XXX#XX+===&  .oooooo&&&&@ooo@..;;;;;;;;",
";;;;;;;;;;;;;;;;;; &&=%%$+XXX++$%==&  ooooo&&&&&&&&&&o;;;;;;;;;;",
";;;;;;;;;;;;;;;;;; &&=%%$+XXX++$%==&  ooooo&&&&&&&&&&o;;;;;;;;;;",
";;;;;;;;;;;;;;;;;;   %%%%$$$$$$%%%% ...@@@ooo&&&&&&..;;;;;;;;;;;",
";;;;;;;;;;;;;;;;;;;  O%%==%%%===%OO oo..@@@@@oo&&&.;;;;;;;;;;...",
";;;;;;;;;;;;;;;;;;;.. &&==%%%===&  o  oo..@@@@@...;;;;;;;;...%%.",
";;;;;;;;;;;;;;;;;;;.. &&==%%%===&  o  oo..@@@@@...;;;;;;;;...%%.",
";;;;;;;;;;;;;;;;;  ...  &&%%%&&& ooo  o@@@.@@@.@@@........&&%OO.",
";;;;;;;;;;;;;;.   $   ..        .ooo  .@@@@...@&&&&&&&&&&&&&OOO ",
";;;;;;;;;;;;;;.   $   ..        .ooo  .@@@@...@&&&&&&&&&&&&&OOO ",
";;;;;;;;;;;;;; --O%OOO&&&&=====.o...OOo.@@@@@@&&&&&&&&&&&&OOO..;",
";;;;;;;;;;;;;;;  %%%%Ooo@@@@ooo.o  @ooO @@@@@&&&&&&&&&&&OOOO@  ;",
";;;;;;;;;;;;;;.--O%OOO&&&======= @@@@@O oo@@@@@&&&&&&OOOO@oo ;;;",
";;;;;;;;;;;;;;.--O%OOO&&&======= @@@@@O oo@@@@@&&&&&&OOOO@oo ;;;",
";;;;;;;;;;;;;;...$OOO.oo&&@@ooo  @@@@@O ooooo@@@@@@@@@oooo  ;;;;",
";;;;;;;;;;;;;;;   ... ....&&&&&.@@@@OO....ooooo@@@@@@ooo. ;;;;;;",
";;;;;;;;;;;;;;;;;;;;; oooo......o@@@  .......oooooooo.  ;;;;;;;;",
";;;;;;;;;;;;;;;;;;;;; oooo......o@@@  .......oooooooo.  ;;;;;;;;",
";;;;;;;;;;;;;;;;;;;;;;   ooooooo.ooOOO  ..........   ;;;;;;;;;;;",
";;;;;;;;;;;;;;;;;;;;;;;;;      .ooooOO ;          ;;;;;;;;;;;;;;",
";;;;;;;;;;;;;;;;;;;;;;;;;      .ooooOO ;          ;;;;;;;;;;;;;;",
";;;;;;;;;;;;;;;;;;;;;;;;..$$$  oooooOOO ;;;;;;;;;;;;;;;;;;;;;;;;",
";;;;;;;;;;;;;;;;;;;;;;;; $+++ooooooOOO. ;;;;;;;;;;;;;;;;;;;;;;;;",
";;;;;;;;;;;;;;;;;;;;;;;; +$$$ooooOOO..$ ;;;;;;;;;;;;;;;;;;;;;;;;",
";;;;;;;;;;;;;;;;;;;;;;;; +$$$ooooOOO..$ ;;;;;;;;;;;;;;;;;;;;;;;;",
";;;;;;;;;;;;;;;;;;;;;;;;;   $$$+OOO     ;;;;;;;;;;;;;;;;;;;;;;;;",
";;;;;;;;;;;;;;;;;;;;;;;;;;;;       ;;;;;;;;;;;;;;;;;;;;;;;;;;;;;"
};
