/* XPM */
static char *result[] = {
/* columns rows colors chars-per-pixel */
"64 64 15 1 ",
"  c #101010",
". c #505058",
"X c #F05040",
"o c #887890",
"O c #A050A0",
"+ c #788890",
"@ c #A8A0B0",
"# c #F0A098",
"$ c #B0B8C0",
"% c #C888C0",
"& c #D0C0D8",
"* c #C8D8E8",
"= c #E8D8F8",
"- c #F8F8F8",
"; c None",
/* pixels */
";;;;;;;;;;;;;;;;;;;;;;;;;;;;;;;.;;;;;;;;;;;;;;;;;;;;;;;;;;;;;;;;",
";;;;;;;;;;;;;;;;;;;;;;;;;;;;;;;.;;;;;;;;;;;;;;;;;;;;;;;;;;;;;;;;",
";;;;;;;;;;;;;;;;;;;;;;;;;;;;;..-..;;;;;;;;;;;;;;;;;;;;;;;;;;;;;;",
";;;;;;;;;;;;;;;;;;;;;;;;;;;;;..-..;;;;;;;;;;;;;;;;;;;;;;;;;;;;;;",
";;;;;;;;;;;;;;;;;;;;;;;;;;...$$-$$...;;;;;;;;;;;;;;;;;;;;;;;;;;;",
";;;;;;;;;;;;;;;;;;;;;;;;..***$$-$$***..;;;;;;;;;;;;;;;;;;;;;;;;;",
";;;;;;;;;;;;;;;;;;;;;;;;..***$$-$$***..;;;;;;;;;;;;;;;;;;;;;;;;;",
";;;;;;;;;;;;;;;;;;;;;;;;++*$$$$-$$$$*++;;;;;;;;;;;;;;;;;;;;;;;;;",
";;;;;;;;;;;;;;;;;;;;;;;;++*$$$$-$$$$*++;;;;;;;;;;;;;;;;;;;;;;;;;",
";;;;;;;;;;;;;;;;;;;;;;;.***$$-----$$***.;;;;;;;;;;;;;;;;;;;;;;;;",
";;;;;;;;;;;;;;;;;;;;;;;.**$$$-----$$$**.;;;;;;;;;;;;;;;;;;;;;;;;",
";;;;;;;;;;;;;;;;;;;;;;;.**$$$-----$$$**.;;;;;;;;;;;;;;;;;;;;;;;;",
";;;;;;;;;;;;;;;;;;;;;;;.$$$---------$$$.;;;;;;;;;;;;;;;;;;;;;;;;",
";;;;;;;;;;;;;;;;;;;;;;;.$$$---------$$$.;;;;;;;;;;;;;;;;;;;;;;;;",
";;;;;;;;;;;;;;;;;;;;;;;.==$--$$-$$--$==.;;;;;;;;;;;;;;;;;;;;;;;;",
";;;;;;;;;;;;;;;;;;;;;;;.$$---$$-$$---$$.;;;;;     ;;;;;;;;;;;;;;",
";;;;;;;;;;;;;;;;;;;;;;;.$$---$$-$$---$$.;;;;;     ;;;;;;;;;;;;;;",
";;;;;;;;;;;;;     ;;;..&$$-**oo-oo**-$$&..;; %%%%=   ;;;;;;;;;;;",
";;;;;;;;;;;;;     ;;;..&$$-**oo-oo**-$$&..;; %%%%=   ;;;;;;;;;;;",
";;;;;;;;;;   =%%%% ;;..$---$$oo-oo$$---$..  =%%%%%+++  ;;;;;;;;;",
";;;;;;;;  +++%%%%%=  ..$---$$oo-oo$$---$..  ======XXX--  ;;;;;;;",
";;;;;;;;  +++%%%%%=  ..$---$$oo-oo$$---$..  ======XXX--  ;;;;;;;",
";;;;;;  --XXX======  ..---$==oo*oo==$---..  %%%===++#XX  ;;;;;;;",
";;;;;;  XX#++===%%%  ..$--$==oo*oo==$--$....%%%%%===XXX++ ;;;;;;",
";;;;;;  XX#++===%%%  ..$--$==oo*oo==$--$....%%%%%===XXX++ ;;;;;;",
";;;;; ++XXX===%%%%%oo---$$===..*..===$$---oo%%%========== ;;;;;;",
";;;;; ++XXX===%%%%%oo---$$===..*..===$$---oo%%%========== ;;;;;;",
";;;;; ==========%% ----$oo===..*..===oo$---- %%===%%===%%.;;;;;;",
";;;;;.%%===%%===  ---$$+..===..*..===..+$$---  ==%%%===%%.;;;;;;",
";;;;;.%%===%%===  ---$$+..===..*..===..+$$---  ==%%%===%%.;;;;;;",
";;;;;.%%===%%%  ==o$$++@..+====.====+..@++$$o==  o%%===  ;;;;;;;",
";;;;;.%%===%%%  ==o$$++@..+====.====+..@++$$o==  o%%===  ;;;;;;;",
";;;;;;  ===%% ==&&@&&@@...+++++++++++...@@&&@&&== ..   .. ;;;;;;",
";;;;; ..     =&&@@&&&@@...+++++++++++...@@&&&@@&&=  ...@@ ;;;;;;",
";;;;; ..     =&&@@&&&@@...+++++++++++...@@&&&@@&&=  ...@@ ;;;;;;",
";;;;; @@.. ===&&@@&@@..+++.+++++++++.+++..@@&@@&&=== @@oo.;;;;;;",
";;;;; @@.. ===&&@@&@@..+++.+++++++++.+++..@@&@@&&=== @@oo.;;;;;;",
";;;;;.oo..===&@@&&&@@..++++.........++++..@@&&&@@&===....;;;;;;;",
";;;;;;..=====&@@&&@..oo.+++++++++++++++.@@..@&&@@&=====..;;;;;;;",
";;;;;;..=====&@@&&@..oo.+++++++++++++++.@@..@&&@@&=====..;;;;;;;",
";;;;;.=====&&@&&&&@..oo@..+++++++++++..@@@..@&&&&@&&=====.;;;;;;",
";;;;;.=====&&@&&&&@..oo@..+++++++++++..@@@..@&&&&@&&=====.;;;;;;",
";;;..=====&@@@&&@@...OO@..+++.....+++..@@@...@@&&@@@&=====..;;;;",
";;;..===&&&@@.....oooOO@&&...&&&&&...   @@..o.....@@&&&===..;;;;",
";;;..===&&&@@.....oooOO@&&...&&&&&...   @@..o.....@@&&&===..;;;;",
";;;..........o@@@@@ooOO%&&&&&&&&&&&&&  O  OOo@@@@@..........;;;;",
";;;;;;;;;;;  .@@@@@ooOO.&&&&&&&&&&&&&  O@@  o@@@@@..;;;;;;;;;;;;",
";;;;;;;;;;;  .@@@@@ooOO.&&&&&&&&&&&&&  O@@  o@@@@@..;;;;;;;;;;;;",
";;;;;;;;;;;;; ..oooOO...&&&&&&&&@@@@&  OOO  .@@@@.  ;;;;;;;;;;;;",
";;;;;;;;;;;;; ..oooOO...&&&&&&&&@@@@&  OOO  .@@@@.  ;;;;;;;;;;;;",
";;;;;;;;;;;;; ..@@.....@&&&&&&&@@@@@oOOOOO@@ oo.. ;;;;;;;;;;;;;;",
";;;;;;;;;;;  @ooooo..  @&&&&&&&@oooo=OOO@@@@ @@.. ;;;;;;;;;;;;;;",
";;;;;;;;;;;  @ooooo..  @&&&&&&&@oooo=OOO@@@@ @@.. ;;;;;;;;;;;;;;",
";;;;;;;;;; @@oooooooo  @@@&&&&&&====&OOO@@@@ oooo@  ;;;;;;;;;;;;",
";;;;;;;;;; @@oooooooo  @@@&&&&&&====&OOO@@@@ oooo@  ;;;;;;;;;;;;",
";;;;;;;;;; oooOOOOOoo  o@@&&&&&&&&&&OOO@@@oo ooooo@@ ;;;;;;;;;;;",
";;;;;;;;;; ooOOOOOOOO   @@@&&&&OOOOOO@@@@@  OOOOOooo ;;;;;;;;;;;",
";;;;;;;;;; ooOOOOOOOO   @@@&&&&OOOOOO@@@@@  OOOOOooo ;;;;;;;;;;;",
";;;;;;;;;;   ...$$   ;; oo@@@@@@@@@@@@@@oo  OOOOOOoo ;;;;;;;;;;;",
";;;;;;;;;;   ...$$   ;; oo@@@@@@@@@@@@@@oo  OOOOOOoo ;;;;;;;;;;;",
";;;;;;;;;;;;;      ;;;;   ooo@@@@@@@@ooo     $$...   ;;;;;;;;;;;",
";;;;;;;;;;;;;;;;;;;;;;;;;;   oooooooo   ;;;;      ;;;;;;;;;;;;;;",
";;;;;;;;;;;;;;;;;;;;;;;;;;   oooooooo   ;;;;      ;;;;;;;;;;;;;;",
";;;;;;;;;;;;;;;;;;;;;;;;;;;;;        ;;;;;;;;;;;;;;;;;;;;;;;;;;;"
};
