/* XPM */
static char *result[] = {
/* columns rows colors chars-per-pixel */
"64 64 15 1 ",
"  c #101010",
". c #505058",
"X c #F05040",
"o c #887890",
"O c #A050A0",
"+ c #788890",
"@ c #A8A0B0",
"# c #F0A098",
"$ c #B0B8C0",
"% c #C888C0",
"& c #D0C0D8",
"* c #C8D8E8",
"= c #E8D8F8",
"- c #F8F8F8",
"; c None",
/* pixels */
";;;;;;;;;;;;;;;;;;;;;;;;;;;;;;;;;;;;;;;;;;;;;;;;;;;;;;;;;;;;;;;;",
";;;;;;;;;;;;;;;;;;;;;;;;;;;;;;;;;;;;;;;;;;;;;;;;;;;;;;;;;;;;;;;;",
";;;;;;;;;;;;;;;;;;;;;;;;;;;;;;;;;;;;;;;;;;;;;;;;;;;;;;;;;;;;;;;;",
";;;;;;;;;;;;;;;;;;;;;;;;;;;;;;;;;;;;;;;;;;;;;;;;;;;;;;;;;;;;;;;;",
";;;;;;;;;;;;;;;;;;;;;;;;;;;;;;;;;;;;;;;;;;;;;;;;;;;;;;;;;;;;;;;;",
";;;;;;;;;;;;;;;;;;;;;;;;;;;;;;;;;;;;;;;;;;;;;;;;;;;;;;;;;;;;;;;;",
";;;;;;;;;;;;;;;;;;;;;;;;;;;;;;;;;;;;;;;;;;;;;;;;;;;;;;;;;;;;;;;;",
";;;;;;;;;;;;;;;;;;;;;;;;;;;;;;;;;;;;;;;;;;;;;;;;;;;;;;;;;;;;;;;;",
";;;;;;;;;;;;;;;;;;;;;;;;;;;;;;;;;;;;;;;;;;;;;;;;;;;;;;;;;;;;;;;;",
";;;;;;;;;;;;;;;;;;;;;;;;;;;;;;;;;;;;;;;;;;;;;;;;;;;;;;;;;;;;;;;;",
";;;;;;;;;;;;;;;;;;;;;;;;;;;;;;;;;;;;;;;;;;;;;;;;;;;;;;;;;;;;;;;;",
";;;;;;;;;;;;;;;;;;;;;;;;;;;;;;;;;;;;;;;;;;;;;;;;;;;;;;;;;;;;;;;;",
";;;;;;;;;;;;;;;;;;;;;;;;;;;;;;;;;;;;;;;;;;;;;;;;;;;;;;;;;;;;;;;;",
";;;;;;;;;;;;;;;;;;;;;;;;;;;;;;;;;;;;;;;;;;;;;;;;;;;;;;;;;;;;;;;;",
";;;;;;;;;;;;;;;;;;;;;;;;;;;;;;;;;;;;;;;;;;;;;;;;;;;;;;;;;;;;;;;;",
";;;;;;;;;;;;;;;;;;;;;;;;;;;;;;;;;;;;;;;;;;;;;;;;;;;;;;;;;;;;;;;;",
";;;;;;;;;;;;;;;;;;;;;;;;;;;;;;;;;;;;;;;;;;;;;;;;;;;;;;;;;;;;;;;;",
";;;;;;;;;;;;;;;;;;;;;;;;;......;;;;;;;;;;;;;;;;;;;;;;;;;;;;;;;;;",
";;;;;;;;;;;;;;;;;;;;;;;;;......;;;;;;;;;;;;;;;;;;;;;;;;;;;;;;;;;",
";;;.......    ;;;;;;;;...oooooo..;;;;;;;;;;;;;;;;;;;;;;;;;;;;;;;",
";;; ------$......    .oooo.....oo..;;;;;;;;;;;;;;;;.........;;;;",
";;; ------$......    .oooo.....oo..;;;;;;;;;;;;;;;;.........;;;;",
";;;.  .--------$$****     ooooo..oo.;;;;;;;;;;.....&&&&&&&..;;;;",
";..$--$******----$$$$----*******o.............@&&&&&&&@@@.;;;;;;",
".***---------**$$----$$$$----&&&***$$$*******.&&&@@@@@@@.;;;;;;;",
".***---------**$$----$$$$----&&&***$$$*******.&&&@@@@@@@.;;;;;;;",
";..****--------**$$$$----$$$$****+++$$$$$$+++@@@@@oooo..;;;;;;;;",
" ++...XX**-------$===$$$$---*$$$$***+++$oo@@@ooooo@@@.;;;;;;;;;;",
" ++...XX**-------$===$$$$---*$$$$***+++$oo@@@ooooo@@@.;;;;;;;;;;",
" --+  X.$$-----$$========$      *$$$&&@.ooooo@@@@@@..;;;;;;;;;;;",
" ..-...$******$=========  &&%%%&   *....ooooooooo..;;;;;;;;;;;;;",
";  .$$$----$$$========  ====%%%==== ****..........;;;;;;;;;;;;;;",
";  .$$$----$$$========  ====%%%==== ****..........;;;;;;;;;;;;;;",
";;;;    @@@@@@OOO==== %%%&==$$$=&%%%  *******+............;;;;;;",
";;;;;;;;      O@@OOOO %%%%++XXX+%%%%  ****oooo&&&&=======.;;;;;;",
";;;;;;;;;;;;;;   @@  &===+XX-XXX+===&& .ooooooooo@&&&&==.;;;;;;;",
";;;;;;;;;;;;;;   @@  &===+XX-XXX+===&& .ooooooooo@&&&&==.;;;;;;;",
";;;;;;;;;;;;;;;;;    &===+XXX##X+===&& oooooo&&&&@ooo@..;;;;;;;;",
";;;;;;;;;;;;;;;;;;   &==%$++XXX+$%%=&& oooo&&&&&&&&&&o;;;;;;;;;;",
";;;;;;;;;;;;;;;;;;   &==%$++XXX+$%%=&& oooo&&&&&&&&&&o;;;;;;;;;;",
";;;;;;;;;;;;;;;;;; .. %%%%$$$$$$%%%%  .@@@ooo&&&&&&..;;;;;;;;;;;",
";;;;;;;;;;;;;;;;;;;   OO%===%%%==%%O  ..@@@@@oo&&&.;;;;;;;;;;...",
";;;;;;;;;;;;;;;;;;;;;   &===%%%==&&   oo..@@@@@...;;;;;;;;...%%.",
";;;;;;;;;;;;;;;;;;;;;   &===%%%==&&   oo..@@@@@...;;;;;;;;...%%.",
";;;;;;;;;;;;;;;;;;;   .. &&&%%%&&  o  o@@@.@@@.@@@........&&%OO.",
";;;;;;;;;;;;;;;;;.   $  .        oo ..@@@@@...@&&&&&&&&&&&&&OOO ",
";;;;;;;;;;;;;;;;;.   $  .        oo ..@@@@@...@&&&&&&&&&&&&&OOO ",
";;;;;;;;;;;;;;;;; -OO%OOO&&&&====..Ooo.@@@@@@@&&&&&&&&&&&&OOO..;",
";;;;;;;;;;;;;;;;;; %%%%%Oo@@@@@oo..oOO o@@@@@&&&&&&&&&&&OOOO@  ;",
";;;;;;;;;;;;;;;;;.-OO%OOO&&&======= OO ooo@@@@@&&&&&&OOOO@oo ;;;",
";;;;;;;;;;;;;;;;;.-OO%OOO&&&======= OO ooo@@@@@&&&&&&OOOO@oo ;;;",
";;;;;;;;;;;;;;;;;..$$OOO.o&&&@@oo   OO oooooo@@@@@@@@@oooo  ;;;;",
";;;;;;;;;;;;;;;;;;   ........&&&&..O......ooooo@@@@@@ooo. ;;;;;;",
";;;;;;;;;;;;;;;;;;;  ooooo......... .........oooooooo.  ;;;;;;;;",
";;;;;;;;;;;;;;;;;;;  ooooo......... .........oooooooo.  ;;;;;;;;",
";;;;;;;;;;;;;;;;;;;;;   ooooooo.oOOO;;  ..........   ;;;;;;;;;;;",
";;;;;;;;;;;;;;;;;;;;;;;;     ..ooooO  ;;          ;;;;;;;;;;;;;;",
";;;;;;;;;;;;;;;;;;;;;;;;     ..ooooO  ;;          ;;;;;;;;;;;;;;",
";;;;;;;;;;;;;;;;;;;;;...$$  oooooOOO  ;;;;;;;;;;;;;;;;;;;;;;;;;;",
";;;;;;;;;;;;;;;;;;;;; $$++ooooooOOO.  ;;;;;;;;;;;;;;;;;;;;;;;;;;",
";;;;;;;;;;;;;;;;;;;;; ++$$oooooOO..$  ;;;;;;;;;;;;;;;;;;;;;;;;;;",
";;;;;;;;;;;;;;;;;;;;; ++$$oooooOO..$  ;;;;;;;;;;;;;;;;;;;;;;;;;;",
";;;;;;;;;;;;;;;;;;;;;;   $$$+OOO      ;;;;;;;;;;;;;;;;;;;;;;;;;;",
";;;;;;;;;;;;;;;;;;;;;;;;;       ;;;;;;;;;;;;;;;;;;;;;;;;;;;;;;;;"
};
