/* XPM */
static char *e44fc607bb884e98c81239d49985b5eeX1yZtyOPbdBnGDte[] = {
/* columns rows colors chars-per-pixel */
"64 64 15 1 ",
"  c None",
". c #101010",
"X c #505058",
"o c #F05040",
"O c #887890",
"+ c #A050A0",
"@ c #788890",
"# c #A8A0B0",
"$ c #F0A098",
"% c #B0B8C0",
"& c #C888C0",
"* c #D0C0D8",
"= c #C8D8E8",
"- c #E8D8F8",
"; c #F8F8F8",
/* pixels */
"    OOOOOOO                                         OOOOOOO     ",
"    OOOOOOO                                         OOOOOOO     ",
"    OO---**OOO                                   OOO**---OO     ",
"    OO---**OOO                                   OOO**---OO     ",
"      OO---**#OOOO                           OOOO#**---OO       ",
"        O----*##**O                         O**##*----O         ",
"        O----*##**O                         O**##*----O         ",
"         OO---**##*OO                     OO*##**---OO          ",
"         OO---**##*OO                     OO*##**---OO          ",
"           OO---##*##O                   O##*##---OO            ",
"             O----#**#OO               OO#**#----O              ",
"             O----#**#OO               OO#**#----O              ",
"              XX--#**#OOOO   XXXXX   OOOO#**#--XX               ",
"              XX--#**#OOOO   XXXXX   OOOO#**#--XX               ",
"                XX%%%###OOXXXOO%OOXXXOO###%%%XX                 ",
"                XX===%##XXO****=****OXX##%===XX                 ",
"                XX===%##XXO****=****OXX##%===XX                 ",
"                  X===%%OO%**--=--**%OO%%===X                   ",
"                  X===%%OO%**--=--**%OO%%===X                   ",
"                   XX===OO%----=----%OO===XX                    ",
"             .....   X==%%%----;----%%%==X   .....              ",
"             .....   X==%%%----;----%%%==X   .....              ",
"         ....-&&&&.XX&**%%=%%--;--%%=%%**&XX.&&&&-....          ",
"        .@@@@&&&&&-..&**%%;%%==%==%%;%%**&..-&&&&&@@@@.         ",
"        .@@@@&&&&&-..&**%%;%%==%==%%;%%**&..-&&&&&@@@@.         ",
"      ..;oooo------..#&&**;====;====;**&&#..------oooo;..       ",
"      ..;oooo------..#&&**;====;====;**&&#..------oooo;..       ",
"      ..o$$@@---&&&..#&&--%;;==;==;;%--&&#..&&&---@@$$o..       ",
"    ..@@ooo---&&&&&..#&&--%;;==;==;;%--&&#..&&&&&---ooo@@..     ",
"    ..@@ooo---&&&&&..#&&--%;;==;==;;%--&&#..&&&&&---ooo@@..     ",
"    ..----------&&+XXX&&---%%;;;;;%%---&&XXX+&&----------..     ",
"    ..----------&&+XXX&&---%%;;;;;%%---&&XXX+&&----------..     ",
"    XX&&---&&-----.++X-----%%;;;;;%%-----X++.-----&&---&&XX     ",
"    XX&&---&&&--...++X----%==%%;%%==%----X++...--&&&---&&XX     ",
"    XX&&---&&&--...++X----%==%%;%%==%----X++...--&&&---&&XX     ",
"   ...XXX--&&&..XX.++X%%%%;;;%%;%%;;;%%%%X++.XX..&&&--%XX..     ",
"   ...XXX--&&&..XX.++X%%%%;;;%%;%%;;;%%%%X++.XX..&&&--%XX..     ",
" ...*****..XX........XXX==;;;%%;%%;;;==XXX........XX...****.    ",
" ..*OOOO*--..   ..X..X%%oo=;;%%;%%;;=oo%%X..X..     ..*****...  ",
" ..*OOOO*--..   ..X..X%%oo=;;%%;%%;;=oo%%X..X..     ..*****...  ",
".OO***--OOO--...XXXOO.%%ooXXX%%;%%XXXoo%%.OOOXXXX ..--*OOOO*..  ",
".OO***--OOO--...XXXOO.%%ooXXX%%;%%XXXoo%%.OOOXXXX ..--*OOOO*..  ",
".**OOO-----OO+++%%XOO.@@XX.XX%%@%%XX.XX@@.OOXXX...--OOO--***OO. ",
"...***OOO--++&&&XXOOOX..@@=++@@@@@++=@@..XOOX%%+++OO-----OOO**. ",
"...***OOO--++&&&XXOOOX..@@=++@@@@@++=@@..XOOX%%+++OO-----OOO**. ",
"   ...---OO++&++;;XOOO....%%%%%%%%%%%....OOOOXX&&&++--OOO***... ",
"      .....+++;;..*##OXXXX...;;;;;...XXXXO##X;;++&++OO---...    ",
"      .....+++;;..*##OXXXX...;;;;;...XXXXO##X;;++&++OO---...    ",
"         .......***##OXXXXXXXXXXXXXXXXXXXO##*..;;+++.....       ",
"         .......***##OXXXXXXXXXXXXXXXXXXXO##*..;;+++.....       ",
"         ..********##O..++OXXXXXXXXXO++..OOO#**.......          ",
"         ..*******#OOO..++#OOXXXXXOO#++...OO#*****##..          ",
"         ..*******#OOO..++#OOXXXXXOO#++...OO#*****##..          ",
"         ..##*****#OO.  ..+##+++++##+..  .XXO#####XX@@.         ",
"         ..##*****#OO.  ..+##+++++##+..  .XXO#####XX@@.         ",
"        .@@XX#####OXX.    ...+++++...    .++XXXXXX@@%%.         ",
"        .%%@@XXXXXX++.       .....       .++OOO@@%@@%%.         ",
"        .%%@@XXXXXX++.       .....       .++OOO@@%@@%%.         ",
"        .%%@@%@@OOO++.                    ..O%%@@%%%@@.         ",
"        .%%@@%@@OOO++.                    ..O%%@@%%%@@.         ",
"        .@@%%%@@%%O..                       .@@%%@%%@@.         ",
"        .@@%%@%%@@.                          .........          ",
"        .@@%%@%%@@.                          .........          ",
"         .........                                              "
};
