/* XPM */
static char * stone2_xpm[] = {
"64 64 98 2",
"  	c None",
". 	c #000022",
"+ 	c #3C3B5C",
"@ 	c #36387E",
"# 	c #484B9D",
"$ 	c #846EAF",
"% 	c #483869",
"& 	c #C2BFD4",
"* 	c #DEDAED",
"= 	c #5B5DA7",
"- 	c #494D9E",
"; 	c #5E67AE",
"> 	c #D0CCE0",
", 	c #232757",
"' 	c #1C1B3B",
") 	c #DFDBED",
"! 	c #E6E4F2",
"~ 	c #E8E6F3",
"{ 	c #4F54A2",
"] 	c #05052A",
"^ 	c #E7E5F3",
"/ 	c #232345",
"( 	c #E6E3F2",
"_ 	c #728CB4",
": 	c #BBBCDE",
"< 	c #C3C7DF",
"[ 	c #464769",
"} 	c #4F52A1",
"| 	c #C0BFDE",
"1 	c #8DA0C2",
"2 	c #687CAE",
"3 	c #8284BE",
"4 	c #D1D0E6",
"5 	c #5E5E80",
"6 	c #9070AF",
"7 	c #A3A7D3",
"8 	c #AFC8E9",
"9 	c #89A3C8",
"0 	c #5D6CA9",
"a 	c #B0A9D2",
"b 	c #A4BDDF",
"c 	c #6A80B0",
"d 	c #17183A",
"e 	c #4B4F9E",
"f 	c #474D8B",
"g 	c #A4A5C7",
"h 	c #AEA4CF",
"i 	c #9276B3",
"j 	c #626AB0",
"k 	c #6274AB",
"l 	c #5A467A",
"m 	c #ADC3E5",
"n 	c #6769AE",
"o 	c #7C8BC4",
"p 	c #6E6AAE",
"q 	c #513F71",
"r 	c #565DA8",
"s 	c #6C548C",
"t 	c #947BB6",
"u 	c #9681BA",
"v 	c #6468AE",
"w 	c #957AB5",
"x 	c #9E97C8",
"y 	c #A1A2D0",
"z 	c #545BA7",
"A 	c #A7B2DB",
"B 	c #876EAF",
"C 	c #8769A6",
"D 	c #B6B3D8",
"E 	c #8798CC",
"F 	c #6D79B9",
"G 	c #7B69AD",
"H 	c #090931",
"I 	c #8899CD",
"J 	c #7967AB",
"K 	c #7468AC",
"L 	c #7785C0",
"M 	c #8C9ECF",
"N 	c #555BA7",
"O 	c #9092C6",
"P 	c #4E53A2",
"Q 	c #A5BCE2",
"R 	c #7C8AC3",
"S 	c #6872B5",
"T 	c #8369AC",
"U 	c #4E52A1",
"V 	c #7E629D",
"W 	c #121341",
"X 	c #876BAD",
"Y 	c #09072B",
"Z 	c #8C6EAE",
"` 	c #1B153C",
" .	c #7562A8",
"..	c #51509F",
"+.	c #4D4D9E",
"@.	c #6C5EA6",
"#.	c #2D234E",
"$.	c #241C45",
"                                                                                                                                ",
"                                                                                                                                ",
"                                                                                                                                ",
"                                                                                                                                ",
"                                                                                                                                ",
"                                                                                                                                ",
"                                                                                                                                ",
"                                                                                                                                ",
"                                                                                                                                ",
"                                                                                                                                ",
"                                                                                                                                ",
"                                                                                                                                ",
"                                                                                                                                ",
"                                                                                                                                ",
"                                                                                                                                ",
"                                                                                                                                ",
"                                                                      . . . . . . . . . .                                       ",
"                                                            . . . . . + @ # # # # # # $ % .                                     ",
"                                                        . . . & * * * * * * * * * = # - ; .                                     ",
"                                                    . . . > * * * * * * * * * * * * # # ; , .                                   ",
"                                                . . ' * * * * * * ) ! ~ * * * * * * # # { ; .                                   ",
"                                              . ] ~ * * * * * ~ ~ ~ ~ ^ * * * * * # # # # ; .                                   ",
"                                            . / # ~ ~ ( ~ ~ ~ ~ ~ ~ ~ * * * * * _ # # # # ; .                                   ",
"                                            . : # ~ ~ ~ ~ ~ ~ ~ ~ ~ * * * * < _ _ # # # # ; .                                   ",
"                                          . [ : } | ~ ~ ~ ~ ~ ~ ~ * * * * 1 _ _ 2 # # # # ; .                                   ",
"                                          . : : : 3 ~ ~ ~ ~ ~ ~ * * * 4 _ _ _ _ # # # # # ; .                                   ",
"                                        . 5 : : : : 6 7 8 8 8 8 8 8 8 9 _ _ _ _ # 0 # # # ; .                                   ",
"                                        . : : : : a 6 6 6 8 8 8 8 8 8 8 b _ _ # c _ _ # # ; .                                   ",
"                                      . d : : : : 6 6 6 6 6 8 8 8 8 8 8 8 _ e # 0 _ _ # # f .                                   ",
"                                      . g : : : h 6 6 6 6 6 i 8 8 8 8 8 8 j # # # k e # # l .                                   ",
"                                    . . : : : : 6 m 8 6 6 6 6 m 8 8 8 8 8 # # # # # # # n .                                     ",
"                                    . / : : : : 6 8 8 6 6 6 6 6 8 8 8 8 o # # # # # # p q .                                     ",
"                                    . : : : : 6 6 6 6 6 6 6 6 6 6 ; ; ; ; # # # # # r s .                                       ",
"                                  . / : : : : 6 6 6 t 8 u 6 6 v ; ; ; ; - # # # # - 6 . .                                       ",
"                                  . : : : : w 6 6 6 x 8 y ; ; ; ; ; ; z # # # # # 6 . .                                         ",
"                                  . : : : : 6 6 6 6 6 A ; ; ; ; ; ; ; # # # # # B C .                                           ",
"                                  . : : : D 6 6 6 6 6 6 ; ; ; E F ; # # # # # G 6 .                                             ",
"                                . H : : : 6 6 6 8 8 6 ; ; ; 8 8 8 I # # # # J 6 .                                               ",
"                                . @ : : : ; ; ; 8 8 ; ; ; ; 8 8 8 8 # # # 6 6 . .                                               ",
"                                . # } : K L M ; ; ; ; ; ; ; 8 8 8 N # # 6 6 . .                                                 ",
"                                . # # O P 8 8 Q ; ; ; ; ; # # R S # # T 6 . .                                                   ",
"                                . # # # 8 8 8 8 ; ; ; U # # # # # # 6 6 . .                                                     ",
"                                . # # # R 8 8 8 r # # # # # # # # 6 V . .                                                       ",
"                                . W # # # N S # # # # # # # # X 6 Y .                                                           ",
"                                  . # # # # # # # # # # # Z 6 . . .                                                             ",
"                                  . `  ...# # # # +.@.6 6 % . . .                                                               ",
"                                    . . #.6 6 6 6 V $.. . .                                                                     ",
"                                        . . . . . . .                                                                           ",
"                                                                                                                                ",
"                                                                                                                                ",
"                                                                                                                                ",
"                                                                                                                                ",
"                                                                                                                                ",
"                                                                                                                                ",
"                                                                                                                                ",
"                                                                                                                                ",
"                                                                                                                                ",
"                                                                                                                                ",
"                                                                                                                                ",
"                                                                                                                                ",
"                                                                                                                                ",
"                                                                                                                                ",
"                                                                                                                                ",
"                                                                                                                                "};
