/* XPM */
static char * stone7_xpm[] = {
"64 64 46 1",
" 	c None",
".	c #101022",
"+	c #7F8B66",
"@	c #9CAB76",
"#	c #BFCF9D",
"$	c #8BA776",
"%	c #869664",
"&	c #5B7951",
"*	c #4B7045",
"=	c #739F77",
"-	c #5C8352",
";	c #4A723F",
">	c #798957",
",	c #4F7550",
"'	c #4B7340",
")	c #829260",
"!	c #395C38",
"~	c #527954",
"{	c #426640",
"]	c #668F62",
"^	c #52724B",
"/	c #51794C",
"(	c #42663F",
"_	c #5B674A",
":	c #5F8757",
"<	c #465929",
"[	c #626B57",
"}	c #6D986E",
"|	c #A5B583",
"1	c #AEBD8A",
"2	c #6F9160",
"3	c #718054",
"4	c #95A570",
"5	c #4A6A45",
"6	c #567E58",
"7	c #486D48",
"8	c #628A5B",
"9	c #5D6F3F",
"0	c #8EA978",
"a	c #4E6030",
"b	c #586A39",
"c	c #111426",
"d	c #0A0B27",
"e	c #697A48",
"f	c #0B0D25",
"g	c #374230",
"                                                                ",
"                                                                ",
"                                                                ",
"                                                                ",
"                                                                ",
"                                                                ",
"                                                                ",
"                                                                ",
"                                                                ",
"                                                                ",
"                                                                ",
"                                                                ",
"                                                                ",
"                                                                ",
"                                                                ",
"                                                                ",
"                                                                ",
"                                                                ",
"                                                                ",
"                                                                ",
"                                                                ",
"                                                                ",
"                                                                ",
"                                                                ",
"                                                                ",
"                                                                ",
"                                                                ",
"                               ..+@.                            ",
"                              .##$#%.                           ",
"                            .#&*=-;#>                           ",
"                           .#,-*='--).                          ",
"                          .#!~-{=]--#.                          ",
"                          #^-*-/(!!-#_                          ",
"                         .#!:-=-----#<                          ",
"                         [#*!},!!!-#|@                          ",
"                         1#!-=----2#>3                          ",
"                         4#5-=678##9>.                          ",
"                         >##;-0###a<<.                          ",
"                         .@######>bbc                           ",
"                         .@><<<>>>bb                            ",
"                          d>bb<<>ef                             ",
"                           .gbbb..                              ",
"                                                                ",
"                                                                ",
"                                                                ",
"                                                                ",
"                                                                ",
"                                                                ",
"                                                                ",
"                                                                ",
"                                                                ",
"                                                                ",
"                                                                ",
"                                                                ",
"                                                                ",
"                                                                ",
"                                                                ",
"                                                                ",
"                                                                ",
"                                                                ",
"                                                                ",
"                                                                ",
"                                                                ",
"                                                                "};
