/* XPM */
static char * stone3_xpm[] = {
"64 64 91 1",
" 	c None",
".	c #000022",
"+	c #11192E",
"@	c #629367",
"#	c #7FC17D",
"$	c #8BC882",
"%	c #344B46",
"&	c #55A168",
"*	c #5BAC6D",
"=	c #56A464",
"-	c #101030",
";	c #B7DBBF",
">	c #FFFFFF",
",	c #458C47",
"'	c #090D28",
")	c #606075",
"!	c #74A975",
"~	c #509C5A",
"{	c #BFBFC8",
"]	c #AECDAF",
"^	c #5AAA6B",
"/	c #3D584C",
"(	c #CFCFD6",
"_	c #B9D4BA",
":	c #529752",
"<	c #69B270",
"[	c #73BA78",
"}	c #82BC7C",
"|	c #54A261",
"1	c #6AB574",
"2	c #C6DC80",
"3	c #A2CC7A",
"4	c #DCE9DD",
"5	c #5EAE6E",
"6	c #CDDF81",
"7	c #F5FAF6",
"8	c #79BE7A",
"9	c #C9DE81",
"0	c #67B372",
"a	c #9F9FAC",
"b	c #6CAE68",
"c	c #30304B",
"d	c #76BC79",
"e	c #8FC982",
"f	c #C2E0C8",
"g	c #A4D182",
"h	c #7CBF7B",
"i	c #98C693",
"j	c #B1D27C",
"k	c #BFD97F",
"l	c #4E944E",
"m	c #608A64",
"n	c #67A156",
"o	c #A6D4A5",
"p	c #E0EFE4",
"q	c #ABCA73",
"r	c #468E49",
"s	c #86BF75",
"t	c #C4D878",
"u	c #BBD16F",
"v	c #B2CA65",
"w	c #B0C863",
"x	c #A9C35C",
"y	c #49904B",
"z	c #82C37E",
"A	c #466452",
"B	c #90B557",
"C	c #71A370",
"D	c #77A852",
"E	c #8AB255",
"F	c #6BA14F",
"G	c #4B8F48",
"H	c #4B9451",
"I	c #1A2634",
"J	c #58964B",
"K	c #57A666",
"L	c #A3C05B",
"M	c #71A450",
"N	c #549954",
"O	c #9EC56A",
"P	c #68966A",
"Q	c #9DBC59",
"R	c #A3C463",
"S	c #6DB775",
"T	c #88C681",
"U	c #52934A",
"V	c #4D9855",
"W	c #75B570",
"X	c #8FC77D",
"Y	c #7AB973",
"Z	c #23323A",
"                                                                ",
"                                                                ",
"                                                                ",
"                                                                ",
"                                                                ",
"                                                                ",
"                                                                ",
"                                                                ",
"                                                                ",
"                                                                ",
"                                                                ",
"                                                                ",
"                                                                ",
"                                                                ",
"                                                                ",
"                                                                ",
"                                ..........                      ",
"                              ..+@######$%..                    ",
"                            ..&*******==*#$..                   ",
"                           .-;>>>,,,,,,,**$$'.                  ",
"                          .)>>>>>!,,,,~****$$.                  ",
"                         .{>>>>>>],,,^******$/.                 ",
"                       ..(>>>>>>>_,:******<*[}.                 ",
"                      ..(>>>>>>>>,|$$1***23*[$.                 ",
"                      .(>>>>>>>>4**$$$5*36**[$.                 ",
"                     .(>>>>>>>>7**8$$$$966[0[$.                 ",
"                    .a>>>>>>>>>***$$$$666b$$#$.                 ",
"                   .c>>>>>>>>>***d$$e6666$$$#$.                 ",
"                  ..>>>>>>>>f****$eg6666,$$h$$.                 ",
"                  .i>>>>>>>>jk6666666666l$$1$m.                 ",
"                 .}$>>>>>>>666666666666n$$$*$+.                 ",
"                 .$$o>>>>p666666666666q,$$$*$.                  ",
"                 '$$**r,,s66666ttuuvwx,y$$z*$.                  ",
"                .A$$*r,,,xxxxxxxxxxxxB,****$..                  ",
"                .C$$,,,,DxxxxxxxxBEFG,,,H|8I.                   ",
"                .$$$,,,,xxxxJ,,r*K,,,,,,,H$..                   ",
"                .$$d,,,LxxxM,,N****,,,,,,$'.                    ",
"                .$$*,,,xxxO$$$$*****,,,rzP.                     ",
"                .$$*,,QxxR$$$$$******,^S$.                      ",
"                .$#*,,xxR$$$$$5*******T$.                       ",
"                .$S*,UxR$$$$$$V,*****5$/.                       ",
"                .$**,xR$$$$$$W,K*****$'.                        ",
"                .m$*,X$$$$Y,,,,*****$I.                         ",
"                 .$$$Wl,,,,,,,^****$'.                          ",
"                  .C$5******50[#$$$..                           ",
"                  ..$$$$$$$$$$$$$/..                            ",
"                   ..I}$$$$$$PZ...                              ",
"                     ..........                                 ",
"                                                                ",
"                                                                ",
"                                                                ",
"                                                                ",
"                                                                ",
"                                                                ",
"                                                                ",
"                                                                ",
"                                                                ",
"                                                                ",
"                                                                ",
"                                                                ",
"                                                                ",
"                                                                ",
"                                                                ",
"                                                                "};
