/* XPM */
static char * stone6_xpm[] = {
"64 64 161 2",
"  	c None",
". 	c #000000",
"+ 	c #040605",
"@ 	c #0B1212",
"# 	c #F0F9F9",
"$ 	c #FFFFFF",
"% 	c #FEFFFF",
"& 	c #E6F4F5",
"* 	c #33494A",
"= 	c #73A5A6",
"- 	c #99DBDD",
"; 	c #FCFEFF",
"> 	c #F7FCFC",
", 	c #E1F2F4",
"' 	c #CDE9EB",
") 	c #B7E1E2",
"! 	c #9CD5D7",
"~ 	c #65B8C2",
"{ 	c #54B3C2",
"] 	c #080B0B",
"^ 	c #93D2D4",
"/ 	c #90D0D2",
"( 	c #A8DADD",
"_ 	c #8ACED0",
": 	c #8FD0D2",
"< 	c #91D1D3",
"[ 	c #92D1D3",
"} 	c #95D3D4",
"| 	c #3FA0B0",
"1 	c #2E96A9",
"2 	c #4E7374",
"3 	c #C7EAEB",
"4 	c #9FD7D8",
"5 	c #44A3B2",
"6 	c #6A9698",
"7 	c #C2E6E8",
"8 	c #8DCED0",
"9 	c #B6E0E2",
"0 	c #D9EEF0",
"a 	c #2D95A8",
"b 	c #8AD2D7",
"c 	c #C9F0F1",
"d 	c #C1E5E6",
"e 	c #58AEBA",
"f 	c #6DB8C4",
"g 	c #B8E8EA",
"h 	c #D5EDEF",
"i 	c #C5E6E8",
"j 	c #B4DFE2",
"k 	c #E5F3F6",
"l 	c #95D2D4",
"m 	c #8ECFD1",
"n 	c #D9EFF1",
"o 	c #BDE3E5",
"p 	c #76C0C8",
"q 	c #2892A6",
"r 	c #293D3E",
"s 	c #6A9C9E",
"t 	c #D0EBED",
"u 	c #8DCFD1",
"v 	c #E3F2F5",
"w 	c #F4FAFB",
"x 	c #B1DEE0",
"y 	c #ACDCDE",
"z 	c #99D4D6",
"A 	c #EAF6F8",
"B 	c #CEEBEC",
"C 	c #89CCCF",
"D 	c #82C5CC",
"E 	c #DCF1F1",
"F 	c #A3E1E3",
"G 	c #FBFDFE",
"H 	c #7CC2CA",
"I 	c #DBEFF3",
"J 	c #CAE8EB",
"K 	c #E4F3F5",
"L 	c #62B0BE",
"M 	c #F2FAFB",
"N 	c #4B6B6C",
"O 	c #E2F6F6",
"P 	c #DEF0F3",
"Q 	c #D7EEF0",
"R 	c #DFF1F4",
"S 	c #DEF2F2",
"T 	c #2A93A7",
"U 	c #97D6D6",
"V 	c #A1D0D8",
"W 	c #2691A6",
"X 	c #B0DEE0",
"Y 	c #A2D9DB",
"Z 	c #A5D9DB",
"` 	c #4CA9B7",
" .	c #121919",
"..	c #2B94A7",
"+.	c #D3ECEF",
"@.	c #E7F4F7",
"#.	c #385252",
"$.	c #A2D6DA",
"%.	c #369BAD",
"&.	c #8CC8CB",
"*.	c #6EBDC4",
"=.	c #228FA4",
"-.	c #90D7DC",
";.	c #96D7DA",
">.	c #2C94A8",
",.	c #298AA3",
"'.	c #5FA3AB",
").	c #AFE3E4",
"!.	c #C8E7EA",
"~.	c #1E6A91",
"{.	c #1C6790",
"].	c #4E838A",
"^.	c #4D7071",
"/.	c #EDF8FA",
"(.	c #9DC5D2",
"_.	c #4F96AD",
":.	c #1D6890",
"<.	c #2F4546",
"[.	c #8DB7B9",
"}.	c #1A668F",
"|.	c #3199AB",
"1.	c #226E94",
"2.	c #3D91AC",
"3.	c #77B6C4",
"4.	c #5991AE",
"5.	c #18648E",
"6.	c #415E5F",
"7.	c #D4F3F4",
"8.	c #AEDDDF",
"9.	c #75A6BC",
"0.	c #389CAD",
"a.	c #16638D",
"b.	c #4793AE",
"c.	c #F4FDFD",
"d.	c #E8F6F7",
"e.	c #9BD9D9",
"f.	c #3A83A3",
"g.	c #466768",
"h.	c #223131",
"i.	c #2C7498",
"j.	c #010101",
"k.	c #3B86A3",
"l.	c #B8D9DF",
"m.	c #9CDDDF",
"n.	c #608B8E",
"o.	c #4886A6",
"p.	c #0F5F8A",
"q.	c #CEDEE7",
"r.	c #8CCFD1",
"s.	c #96D4D5",
"t.	c #6CADBA",
"u.	c #8AB4C7",
"v.	c #689192",
"w.	c #C1D9E3",
"x.	c #13608B",
"y.	c #DDEDF0",
"z.	c #A9C7D6",
"A.	c #569EB4",
"B.	c #297499",
"C.	c #94D5D7",
"D.	c #192525",
"                                                                                                                                ",
"                                                                                                                                ",
"                                                                                                                                ",
"                                                                                                                                ",
"                                                                                                                                ",
"                                                                                                                                ",
"                                                                                                                                ",
"                                                                                                                                ",
"                                                                                                                                ",
"                                                                                                                                ",
"                                                                                                                                ",
"                                                                                                                                ",
"                                                                                                                                ",
"                                                                                                                                ",
"                                                                                                                                ",
"                                                                                                                                ",
"                                                                . . . . . . . . .                                               ",
"                                                                . . + @ @ @ @ . . . .                                           ",
"                                                            . . # $ $ $ $ $ % % $ & * . .                                       ",
"                                                          . = - $ $ $ $ ; > , ' ) ! ~ { ] .                                     ",
"                                                      . . ^ / / $ $ ( _ : < [ } | 1 1 1 { .                                     ",
"                                                    . . 2 3 : 4 $ & _ [ [ [ [ } 5 1 1 1 1 * .                                   ",
"                                                  . @ 6 $ 7 8 9 0 / [ [ [ [ [ } 5 1 1 1 a b . .                                 ",
"                                                . @ c % $ d _ d ! 8 [ [ / [ [ [ e 1 1 1 1 f + .                                 ",
"                                              . @ g $ h _ < i > j k l m n o < [ p a 1 1 q $ r .                                 ",
"                                              . s > i ^ t u v w x v y z A B [ [ C a 1 1 D E * .                                 ",
"                                          . + F G H u _ I , J [ / z K v z 4 ( [ } 1 L M p < * .                                 ",
"                                          . N O H l J J P v 4 / [ m v , Q I R / ^ 5 A S T U r .                                 ",
"                                        . r Q V W ( X X y k Y ! ! x v Z Y ! y : / B ` W 8 }  ..                                 ",
"                                      . = c V ..e Z [ [ m P P +., R & A ; t _ @.z 5 q e ~ : . .                                 ",
"                                    . #.$ V ..1 $.I m [ d R R R ; $ $ 4 m u v ( %.1 H D T b . .                                 ",
"                                    . &.o *.q =.! k u u v R R R $ $ A [ u y , *.W T u | a -..                                   ",
"                                    . ;.[ / h # @.R @.@.R R R P G , R k @., v M D e >.,.,.'..                                   ",
"                                     .).[ / t +.!.v 7 ' R R R v A P R P n R h j a *.~.~.{.]..                                   ",
"                                  . ^.t [ [ [ / n J < m v R P /.R R Q u : i (.{.a _.:.:.{.<..                                   ",
"                                  . [.S / [ [ ( @.: [ [ !.v I G , P m [ [ / R }.|.1.:.:.2..                                     ",
"                                . . c E / [ [ z 4 ! ! z , x j ! n k m / 3.~.4.{.|.{.:.5.6..                                     ",
"                                . . 7.E / [ [ u R R P n k _ ! 8.v v J J (.9.5.{.0.{.a.b.+                                       ",
"                                . @ c.t [ [ [ [ [ m R n G > < u K P d.~.5.}.:.5.e.f.g..                                         ",
"                                . h.% ' [ [ [ [ } 8.I !.$ P : / v o /.i.:.:.:.5.U ;.j..                                         ",
"                                . 6.$ 8._._._._.k.}.> $ < @.z 4 i U l.9.:.:.:.5.m.j..                                           ",
"                                . n.$ o.p.p.p.5.5.q.( r.[ ! [ < s.t.5.{.:.:.}.i.. .                                             ",
"                                . n.$ $ $ $ 9.~.u.s.[ [ [ [ [ [ / i.:.{.}.f.v..                                                 ",
"                                . n.$ $ w.4.x.x.d : [ [ [ [ [ [ C 1.5.~.p &.] .                                                 ",
"                                . 6.y.z.a.:.}.3.< [ m m m m m : [ U e.^ @ .                                                     ",
"                                . . s t.A.b.B.^ < $ $ $ G d.h 3 C.m.6..                                                         ",
"                                    . . . . + + D.<.<.#.g.N <.<.j.. .                                                           ",
"                                        . . . . . . . . . . . . . .                                                             ",
"                                                                                                                                ",
"                                                                                                                                ",
"                                                                                                                                ",
"                                                                                                                                ",
"                                                                                                                                ",
"                                                                                                                                ",
"                                                                                                                                ",
"                                                                                                                                ",
"                                                                                                                                ",
"                                                                                                                                ",
"                                                                                                                                ",
"                                                                                                                                ",
"                                                                                                                                ",
"                                                                                                                                ",
"                                                                                                                                ",
"                                                                                                                                "};
