/* XPM */
static char * stone4_xpm[] = {
"64 64 38 1",
" 	c None",
".	c #231815",
"+	c #65425A",
"@	c #A76B9F",
"#	c #D796C0",
"$	c #97598E",
"%	c #93558A",
"&	c #97598D",
"*	c #A06397",
"=	c #774D71",
"-	c #D191BB",
";	c #905487",
">	c #6B4766",
",	c #62435E",
"'	c #63445F",
")	c #503D4A",
"!	c #442D38",
"~	c #6F496A",
"{	c #5B4157",
"]	c #86567D",
"^	c #553F4F",
"/	c #61435D",
"(	c #744C6F",
"_	c #5F425A",
":	c #6A4765",
"<	c #5D3C51",
"[	c #5E4259",
"}	c #8E5B85",
"|	c #674663",
"1	c #7C4F76",
"2	c #794E73",
"3	c #895281",
"4	c #3C282F",
"5	c #A16498",
"6	c #9B5D92",
"7	c #97618E",
"8	c #AF79AA",
"9	c #C5A4CC",
"                                                                ",
"                                                                ",
"                                                                ",
"                                                                ",
"                                                                ",
"                                                                ",
"                                                                ",
"                                                                ",
"                                                                ",
"                                                                ",
"                                                                ",
"                                                                ",
"                                                                ",
"                                                                ",
"                                                                ",
"                                                                ",
"                                                                ",
"                                                                ",
"                                                                ",
"                                                                ",
"                                                                ",
"                                                                ",
"                                                                ",
"                                                                ",
"                              .+@@..                            ",
"                             .@#####@.                          ",
"                            .$%####&%*.                         ",
"                           .*%=###-=;%@.                        ",
"                          .%%=>###,,=%%.                        ",
"                         .@%=',##)),==%@                        ",
"                         !%=~,))))){,=%@                        ",
"                         ]%=,^)))))/(=%.                        ",
"                         @%=,)))))_,=%.                         ",
"                         @%=,^)))/:=%<                          ",
"                         @%=,,[,,:=%}.                          ",
"                         @%==|>==1%}                            ",
"                         @%2===3%%4.                            ",
"                         @5%%%%6@.                              ",
"                         .7899!.                                ",
"                                                                ",
"                                                                ",
"                                                                ",
"                                                                ",
"                                                                ",
"                                                                ",
"                                                                ",
"                                                                ",
"                                                                ",
"                                                                ",
"                                                                ",
"                                                                ",
"                                                                ",
"                                                                ",
"                                                                ",
"                                                                ",
"                                                                ",
"                                                                ",
"                                                                ",
"                                                                ",
"                                                                ",
"                                                                ",
"                                                                ",
"                                                                ",
"                                                                "};
