/* XPM */
static char * stone4_xpm[] = {
"64 64 74 1",
" 	c None",
".	c #231815",
"+	c #65425A",
"@	c #9F6696",
"#	c #A76B9F",
"$	c #6D4763",
"%	c #442D38",
"&	c #D191BC",
"*	c #D796C0",
"=	c #AD70A3",
"-	c #4C3240",
";	c #93558A",
">	c #9C5F93",
",	c #2B1D1E",
"'	c #97598E",
")	c #97598D",
"!	c #A06397",
"~	c #895281",
"{	c #774D71",
"]	c #794E73",
"^	c #A5689C",
"/	c #8E5485",
"(	c #D191BB",
"_	c #905487",
":	c #704A6B",
"<	c #915588",
"[	c #A66A9E",
"}	c #6B4766",
"|	c #62435E",
"1	c #664562",
"2	c #8E6283",
"3	c #503D4A",
"4	c #533E4E",
"5	c #654460",
"6	c #86567D",
"7	c #342226",
"8	c #7E4F77",
"9	c #63445F",
"0	c #5C4158",
"a	c #5B4157",
"b	c #584351",
"c	c #724B6C",
"d	c #6F496A",
"e	c #5F425A",
"f	c #8C5384",
"g	c #A2669A",
"h	c #85517E",
"i	c #513D4B",
"j	c #805079",
"k	c #594054",
"l	c #553F4F",
"m	c #61435D",
"n	c #744C6F",
"o	c #6A4765",
"p	c #9D6095",
"q	c #5D3C51",
"r	c #573F52",
"s	c #82507A",
"t	c #94568B",
"u	c #764C6B",
"v	c #5E4259",
"w	c #8E5B85",
"x	c #674663",
"y	c #764C70",
"z	c #7C4F76",
"A	c #A3679B",
"B	c #9B5D92",
"C	c #3C282F",
"D	c #A16498",
"E	c #B182B0",
"F	c #C5A4CC",
"G	c #97618E",
"H	c #AF79AA",
"I	c #BB9BC1",
"                                                                ",
"                                                                ",
"                                                                ",
"                                                                ",
"                                                                ",
"                                                                ",
"                                                                ",
"                                                                ",
"                                                                ",
"                                                                ",
"                                                                ",
"                                                                ",
"                                                                ",
"                                                                ",
"                                                                ",
"                                                                ",
"                             .......                            ",
"                           ..+@###+....                         ",
"                          ..#########$...                       ",
"                        ..%#&*********=#-..                     ",
"                       ..##;**********;>##,.                    ",
"                      ..#';;*********);;;!#..                   ",
"                     ..#;;;~********{];;;;^#..                  ",
"                    ..#!;;/{*******({{{_;;;#..                  ",
"                   ..#!;;{{{*******:{{{{<;;[@.                  ",
"                  ..#;;;{{{}******||||{{{;;;#..                 ",
"                 ..#';;{{{1|2****34|||5{{{;;#6.                 ",
"                 .7#;;8{{9||0***3333|||{{{;;##.                 ",
"                ..#;;{{{1||a3**b33333||c{{;;##.                 ",
"                .%#;_{{d||e3333333333a||{{f;g#.                 ",
"                .+#;h{{||e33333333333i||{{f;##.                 ",
"                .6#;j{{||k33333333333l|5{{;;#7.                 ",
"                .6#;8{{||l33333333333m|n{{;;@.                  ",
"                .##;{{{||l3333333333||1{{;;#..                  ",
"                .##;{{{||3333333333e||{{;;[..                   ",
"                .##;{{{||3333333330|o{{;;p7.                    ",
"                .##;{{{||l3333333m|o{{;;[q.                     ",
"                .##;{{{||r333333|||{{s;tu..                     ",
"                .#g;{{{||||vv||||o{{;;;w..                      ",
"                .#g;{{{||||||||o{{{;;;w.                        ",
"                .##;{{{{cxx}y{{{{z;;Aw.                         ",
"                .##;8{{{{{{{{{{{_;;Bu..                         ",
"                .##;;]{{{{{{{~;;;;[C..                          ",
"                .##;;;;;;;;;;;;;g#..                            ",
"                .##D;;;;;;;;;B##...                             ",
"                ..####EFFFF##q...                               ",
"                 ..G#HFFFFI%...                                 ",
"                   .........                                    ",
"                                                                ",
"                                                                ",
"                                                                ",
"                                                                ",
"                                                                ",
"                                                                ",
"                                                                ",
"                                                                ",
"                                                                ",
"                                                                ",
"                                                                ",
"                                                                ",
"                                                                ",
"                                                                ",
"                                                                ",
"                                                                "};
