/* XPM */
static char * stone1_xpm[] = {
"64 64 113 2",
"  	c None",
". 	c #000022",
"+ 	c #B0A777",
"@ 	c #EBDF93",
"# 	c #FEFDF8",
"$ 	c #FFFFFF",
"% 	c #BFBFC8",
"& 	c #1F1E37",
"* 	c #3B383E",
"= 	c #D6CE7B",
"- 	c #F5EFC9",
"; 	c #BFB57E",
"> 	c #1D1C30",
", 	c #C3BF66",
"' 	c #C0BD63",
") 	c #D0CA75",
"! 	c #E8DD90",
"~ 	c #D4D294",
"{ 	c #F7F7EC",
"] 	c #F1E9B5",
"^ 	c #847D62",
"/ 	c #FBF9EB",
"( 	c #C4C16D",
"_ 	c #8A883A",
": 	c #959046",
"< 	c #C0B86C",
"[ 	c #DFD74D",
"} 	c #EDE343",
"| 	c #F6F1D0",
"1 	c #B7B45C",
"2 	c #78762C",
"3 	c #E2DA4B",
"4 	c #F6E8A7",
"5 	c #C1BA3A",
"6 	c #EAE145",
"7 	c #9F9FAC",
"8 	c #FCF6DD",
"9 	c #F4E393",
"0 	c #E98E33",
"a 	c #C8C45D",
"b 	c #CFCFD6",
"c 	c #EFEFF1",
"d 	c #ECCE3F",
"e 	c #DCD54F",
"f 	c #8F8F9E",
"g 	c #FDFAEB",
"h 	c #EBB33A",
"i 	c #D1CB57",
"j 	c #CBC66F",
"k 	c #EFE75A",
"l 	c #EA9935",
"m 	c #F6F6BB",
"n 	c #404059",
"o 	c #EA9339",
"p 	c #EBAE39",
"q 	c #C3BF61",
"r 	c #F9EFC2",
"s 	c #F3DE8D",
"t 	c #EDD841",
"u 	c #B3B059",
"v 	c #AEAB55",
"w 	c #B2AB60",
"x 	c #8C8657",
"y 	c #D7A348",
"z 	c #E99334",
"A 	c #ECC33D",
"B 	c #F2EE87",
"C 	c #ECC83E",
"D 	c #EFE861",
"E 	c #EFEFD8",
"F 	c #DDCB2D",
"G 	c #A29970",
"H 	c #DCDAA7",
"I 	c #EDDE42",
"J 	c #D7C326",
"K 	c #DBC939",
"L 	c #EEE996",
"M 	c #EAE383",
"N 	c #DFD04B",
"O 	c #9A9861",
"P 	c #DF9A3F",
"Q 	c #EAA337",
"R 	c #808091",
"S 	c #CAB157",
"T 	c #F1CE7B",
"U 	c #E59B30",
"V 	c #C4BE58",
"W 	c #EFB963",
"X 	c #EAA938",
"Y 	c #EBCC3D",
"Z 	c #C9BF4C",
"` 	c #EBBE3C",
" .	c #ECE141",
"..	c #D6C32A",
"+.	c #E6DB8D",
"@.	c #938B69",
"#.	c #F7EAAE",
"$.	c #EBB93B",
"%.	c #E1D133",
"&.	c #DBD281",
"*.	c #DCD18C",
"=.	c #C7BF50",
"-.	c #BEB65D",
";.	c #C6BF54",
">.	c #D1C235",
",.	c #C1BD5F",
"'.	c #AAA459",
").	c #A39D53",
"!.	c #BFB86A",
"~.	c #E0D787",
"{.	c #E3D98A",
"].	c #76705B",
"^.	c #494645",
"                                                                                                                                ",
"                                                                                                                                ",
"                                                                                                                                ",
"                                                                                                                                ",
"                                                                                                                                ",
"                                                                                                                                ",
"                                                                                                                                ",
"                                                                                                                                ",
"                                                                                                                                ",
"                                                                                                                                ",
"                                                                                                                                ",
"                                                                                                                                ",
"                                                                                                                                ",
"                                                                                                                                ",
"                                                                                                                                ",
"                                                                                                                                ",
"                                                              . . . . . . . . . . . . . .                                       ",
"                                                          . . + @ @ @ @ @ @ @ # $ $ $ % & . .                                   ",
"                                                        . * @ @ @ = @ @ @ @ @ @ $ $ $ $ - ; .                                   ",
"                                                      . > @ @ , ' ' ) @ @ @ @ ! ' ' ~ { ] @ ^ .                                 ",
"                                                  . . + / $ ( ' ' ' _ : < @ @ ' ' [ } ' ) @ @ .                                 ",
"                                                . . | $ $ $ $ ' ' 1 2 2 2 2 2 3 } } } ' ' @ @ .                                 ",
"                                              . * $ $ # 4 $ $ ' ' 2 2 2 5 } } } } } 6 ' ' @ @ .                                 ",
"                                          . . 7 $ 8 9 9 $ $ 9 0 0 0 0 } } } } } } } a ' ' @ @ .                                 ",
"                                          . b $ $ 9 9 9 $ 9 9 0 0 0 0 } } } } } } } ' ' ' @ @ .                                 ",
"                                        . c $ $ 9 9 9 9 9 9 9 0 0 0 0 d } } } } } } ' ' ' @ @ .                                 ",
"                                      . c $ $ 9 9 9 9 9 9 9 9 0 0 0 0 } } } } } e ' ' ' ' @ @ .                                 ",
"                                    . f $ $ 9 9 9 9 9 9 9 9 0 0 0 0 0 } } } } ' ' ' ' ' ' @ @ .                                 ",
"                                    . $ $ g 9 9 9 9 9 9 9 0 0 0 0 0 h } } } } i ' ' ' ' j @ @ .                                 ",
"                                  . . $ $ 9 9 9 9 9 9 9 0 0 0 0 0 0 } } } } k } } } } ' j @ @ .                                 ",
"                                  . . $ $ 9 9 9 9 9 0 0 0 0 0 0 l } } } } m m } } } ' ' ' @ @ .                                 ",
"                                  . n $ $ 9 9 9 o 0 0 0 0 0 p } } } } } m m m } } q ' ' ' @ @ .                                 ",
"                                  . % $ r s 0 0 0 0 0 0 p } } } } t 0 m m m m } ' ' ' u v w x .                                 ",
"                                  . $ $ y 0 0 0 0 0 z } } } } } A 0 l B m m m 2 2 2 2 2 2 2 .                                   ",
"                                  . $ $ 0 0 0 0 0 0 } } } } } C 0 0 } D m m m 2 2 2 2 2 2 . .                                   ",
"                                  . $ E 0 0 0 0 0 0 } } } } } 0 0 0 } F m m m ' 2 2 2 2 G .                                     ",
"                                  . $ H 0 0 0 0 0 0 I } } } d 0 0 0 J K L M N J 2 2 2 @ .                                       ",
"                                . n $ O P 0 0 0 0 0 0 0 Q 0 0 0 0 0 J J J J J J _ 1 @ .                                         ",
"                                . R $ O S 0 0 0 0 T 9 T 0 0 0 0 0 U J J J J J V ' @ . .                                         ",
"                                . % $ 2 O 9 9 9 9 9 9 W X Y J J J J J J J J Z ' @ * .                                           ",
"                                . % $ $ $ 9 9 9 9 9 ` }  .J J J J J J J J ..' +.@..                                             ",
"                                . $ $ $ $ #.9 9 0 $.%.J J J J J J J J J ' ' &.*..                                               ",
"                                . $ $ $ $ $ 0 0 0 J J J J J J J J J =.' ' = @ .                                                 ",
"                                . $ $ $ O 2 -.0 0 J J J J J J J ;.' ' ' @ @ .                                                   ",
"                                . $ $ 2 2 2 2 ' y J J J >.,.' ' j = ! @ ; . .                                                   ",
"                                . c # '.: ).w !.~.{.@ @ @ @ @ @ @ @ @ @ . .                                                     ",
"                                  . ].@ @ @ @ @ @ @ @ + + ].^.* . . . . .                                                       ",
"                                    . . . . . . . . . . . . . .                                                                 ",
"                                                                                                                                ",
"                                                                                                                                ",
"                                                                                                                                ",
"                                                                                                                                ",
"                                                                                                                                ",
"                                                                                                                                ",
"                                                                                                                                ",
"                                                                                                                                ",
"                                                                                                                                ",
"                                                                                                                                ",
"                                                                                                                                ",
"                                                                                                                                ",
"                                                                                                                                ",
"                                                                                                                                ",
"                                                                                                                                ",
"                                                                                                                                "};
