/* XPM */
static char * stone0_xpm[] = {
"64 64 36 1",
" 	c None",
".	c #231815",
"+	c #352E2D",
"@	c #B7CDD6",
"#	c #8E9BA2",
"$	c #B4C8CF",
"%	c #E0F1F4",
"&	c #C8DFE4",
"*	c #BDD3DB",
"=	c #8EA2B0",
"-	c #424244",
";	c #C7DEE3",
">	c #B1C7D1",
",	c #668897",
"'	c #6B8B9A",
")	c #C5DCE2",
"!	c #73909F",
"~	c #CAE0E5",
"{	c #5E7A87",
"]	c #737A7F",
"^	c #C2D9DF",
"/	c #A3BBC6",
"(	c #849CAA",
"_	c #98B6C3",
":	c #B4CAD3",
"<	c #271F1D",
"[	c #89A2AD",
"}	c #C1D8DE",
"|	c #AFC5CF",
"1	c #AAC0CB",
"2	c #657177",
"3	c #2A2220",
"4	c #879DAB",
"5	c #3C4246",
"6	c #556C77",
"7	c #455056",
"                                                                ",
"                                                                ",
"                                                                ",
"                                                                ",
"                                                                ",
"                                                                ",
"                                                                ",
"                                                                ",
"                                                                ",
"                                                                ",
"                                                                ",
"                                                                ",
"                                                                ",
"                                                                ",
"                                                                ",
"                                                                ",
"                                                                ",
"                                                                ",
"                                                                ",
"                                                                ",
"                                                                ",
"                                                                ",
"                                                                ",
"                                                                ",
"                                                                ",
"                                                                ",
"                              .+@#..                            ",
"                            .$%%&**=-.                          ",
"                           .%%&;>>>>=,.                         ",
"                          .%%&>>>>>>>',.                        ",
"                         .)%&&>>>>>>>!,.                        ",
"                         .%~>>>>>>>>>=,{                        ",
"                         ]%&>^>>>>>>/=(,                        ",
"                         _%&>>>>>:>>=,,<                        ",
"                         [%&>>>>>>>,=,,.                        ",
"                         .&&>>}>|>1=,,.                         ",
"                          2&&>>>>==,,.                          ",
"                           3_===4,,5.                           ",
"                            ..6,7..                             ",
"                                                                ",
"                                                                ",
"                                                                ",
"                                                                ",
"                                                                ",
"                                                                ",
"                                                                ",
"                                                                ",
"                                                                ",
"                                                                ",
"                                                                ",
"                                                                ",
"                                                                ",
"                                                                ",
"                                                                ",
"                                                                ",
"                                                                ",
"                                                                ",
"                                                                ",
"                                                                ",
"                                                                ",
"                                                                ",
"                                                                ",
"                                                                ",
"                                                                "};
