/* XPM */
static char * stone7_xpm[] = {
"64 64 116 2",
"  	c None",
". 	c #000022",
"+ 	c #272B37",
"@ 	c #7F8B66",
"# 	c #9CAB76",
"$ 	c #6A7850",
"% 	c #14152D",
"& 	c #A0B07B",
"* 	c #B6C693",
"= 	c #BFCF9D",
"- 	c #798957",
"; 	c #89966C",
"> 	c #A9B985",
", 	c #8EA978",
"' 	c #8BA776",
") 	c #9AB381",
"! 	c #869664",
"~ 	c #395C38",
"{ 	c #486D43",
"] 	c #5C8352",
"^ 	c #494F4C",
"/ 	c #5B7951",
"( 	c #4B7045",
"_ 	c #739F77",
": 	c #638C5E",
"< 	c #4A723F",
"[ 	c #81A06E",
"} 	c #B6C694",
"| 	c #0C0D2A",
"1 	c #53794C",
"2 	c #5A8150",
"3 	c #242739",
"4 	c #4F7550",
"5 	c #4B7340",
"6 	c #829260",
"7 	c #171A2C",
"8 	c #9BA886",
"9 	c #40633D",
"0 	c #42663F",
"a 	c #6B976D",
"b 	c #729D75",
"c 	c #B2C290",
"d 	c #AEC190",
"e 	c #527954",
"f 	c #5D8554",
"g 	c #426640",
"h 	c #668F62",
"i 	c #5F8757",
"j 	c #6C966B",
"k 	c #52724B",
"l 	c #51794C",
"m 	c #5B674A",
"n 	c #6F9B73",
"o 	c #6D986E",
"p 	c #6C7D4C",
"q 	c #709C72",
"r 	c #547D4D",
"s 	c #465929",
"t 	c #BDCD9B",
"u 	c #9EB284",
"v 	c #466B42",
"w 	c #6E9970",
"x 	c #6F9A70",
"y 	c #689165",
"z 	c #628857",
"A 	c #638058",
"B 	c #A0B786",
"C 	c #626B57",
"D 	c #A5B583",
"E 	c #A5B480",
"F 	c #7C966B",
"G 	c #3D613B",
"H 	c #557C4D",
"I 	c #B9CA98",
"J 	c #869663",
"K 	c #AEBD8A",
"L 	c #3B5E3A",
"M 	c #6F9160",
"N 	c #AEBE8C",
"O 	c #718054",
"P 	c #4D7247",
"Q 	c #444D40",
"R 	c #95A570",
"S 	c #4A6A45",
"T 	c #567E58",
"U 	c #486D48",
"V 	c #628A5B",
"W 	c #5D6F3F",
"X 	c #738351",
"Y 	c #93A371",
"Z 	c #6B875E",
"` 	c #41653D",
" .	c #2C3826",
"..	c #759665",
"+.	c #4E6030",
"@.	c #4C5643",
"#.	c #8D9C68",
"$.	c #607242",
"%.	c #85A16E",
"&.	c #586A39",
"*.	c #111426",
"=.	c #839463",
"-.	c #B7C896",
";.	c #98A876",
">.	c #5A6C3B",
",.	c #556736",
"'.	c #718150",
").	c #0A0B27",
"!.	c #637443",
"~.	c #697A48",
"{.	c #0B0D25",
"].	c #546635",
"^.	c #516433",
"/.	c #4F6231",
"(.	c #374230",
"_.	c #323C2F",
"                                                                                                                                ",
"                                                                                                                                ",
"                                                                                                                                ",
"                                                                                                                                ",
"                                                                                                                                ",
"                                                                                                                                ",
"                                                                                                                                ",
"                                                                                                                                ",
"                                                                                                                                ",
"                                                                                                                                ",
"                                                                                                                                ",
"                                                                                                                                ",
"                                                                                                                                ",
"                                                                                                                                ",
"                                                                                                                                ",
"                                                                                                                                ",
"                                                                      . . . . . .                                               ",
"                                                                . . . + @ # # $ . .                                             ",
"                                                            . . % @ & * = = = - - .                                             ",
"                                                        . . ; > = = = , ' ) = = ! $ .                                           ",
"                                                    . . > = = = ~ ~ ~ ~ ~ { ] = = - .                                           ",
"                                                  . ^ = = / ~ ~ ( ] _ : ] ] < [ = } - .                                         ",
"                                                . | = = ~ ~ ( ] 1 ] _ ] 2 < < ] = = - .                                         ",
"                                              . 3 = ~ 4 ] ] ] ] ( : _ < 5 ] ] ] ] = 6 7 .                                       ",
"                                            . 8 = ~ 9 _ ] ] ] ] 0 _ a _ _ _ _ b ] = c - .                                       ",
"                                          . . = d ~ ] e f ] ] ] g _ _ b h i ] ] ] = = - .                                       ",
"                                          . 8 = ~ ] ] ~ j ] ] ] _ _ ] ] ] ] ] ] ] = = - .                                       ",
"                                        . = = k ~ ] ] ( _ ] ] b l ( 0 ~ ~ ~ ~ ] ] = = - m .                                     ",
"                                      . . = = ~ n ] ] ] _ o _ _ ~ 0 ( 1 1 1 1 ] ] = = p p .                                     ",
"                                      . . = = ~ q i ] ] _ _ _ r ] ] ] ] ] ] ] ] ] = = s s .                                     ",
"                                      . t = u ~ v _ ] ] ~ _ w _ _ _ _ x o o y ] z = = # # .                                     ",
"                                      . = = A v ] n q ] x _ b _ _ _ _ _ _ _ _ ] B = = # # .                                     ",
"                                    . C = = / ( ] ~ _ o _ 4 ~ ~ ~ ~ ~ ~ ~ ~ ] ] = = D # # .                                     ",
"                                    . E = = F G ] ~ n _ _ ] ] ] ] ] ] 1 1 H ] I = = - J # .                                     ",
"                                    . K = = = ~ ] ] L _ ] ] ] ] ] ] ] ] ] ] M = = N - - O .                                     ",
"                                    . E = = = ~ P ] q _ o x _ _ _ _ _ ] ] ] = = = - - - Q .                                     ",
"                                    . R = = = S ~ ] _ _ T T U U U U V ] = = = = W X - - .                                       ",
"                                    . - Y = = = Z < ` ( ] ] ] ] [ I = = = = = s s s s  ..                                       ",
"                                    . - - = = = = < ] ] .., I = = = = = = = +.s s s s . .                                       ",
"                                    . @.#.= = = = < = = = = = = = = = = = $.s s s s s . .                                       ",
"                                      . # # & = %.= = = = = = = = = = 6 - &.&.&.&.&.*..                                         ",
"                                      . C # # - - =.-.= = = c ;.- - - - - &.&.&.&.*..                                           ",
"                                      . . # # - p s s s s s - - - - - - - &.&.&.&..                                             ",
"                                        . # # - >.,.s s s s s s - - - - '.&.&.*..                                               ",
"                                          ).# - &.&.&.&.s s s s s !.- - ~.&.{..                                                 ",
"                                          . . '.&.&.&.&.&.&.&.&.].^./.O . . .                                                   ",
"                                            . . . (.&.&.&.&.&.&.&._.. . . .                                                     ",
"                                                  . . . . . . . . .                                                             ",
"                                                                                                                                ",
"                                                                                                                                ",
"                                                                                                                                ",
"                                                                                                                                ",
"                                                                                                                                ",
"                                                                                                                                ",
"                                                                                                                                ",
"                                                                                                                                ",
"                                                                                                                                ",
"                                                                                                                                ",
"                                                                                                                                ",
"                                                                                                                                ",
"                                                                                                                                ",
"                                                                                                                                ",
"                                                                                                                                ",
"                                                                                                                                "};
