/* XPM */
static char * stone6_xpm[] = {
"64 64 83 1",
" 	c None",
".	c #101010",
"+	c #040605",
"@	c #0B1212",
"#	c #FFFFFF",
"$	c #FCFEFF",
"%	c #E1F2F4",
"&	c #B7E1E2",
"*	c #65B8C2",
"=	c #080B0B",
"-	c #C7EAEB",
";	c #8ACED0",
">	c #92D1D3",
",	c #44A3B2",
"'	c #2E96A9",
")	c #FEFFFF",
"!	c #C1E5E6",
"~	c #9CD5D7",
"{	c #90D0D2",
"]	c #58AEBA",
"^	c #F7FCFC",
"/	c #93D2D4",
"(	c #8DCFD1",
"_	c #B1DEE0",
":	c #ACDCDE",
"<	c #EAF6F8",
"[	c #89CCCF",
"}	c #82C5CC",
"|	c #33494A",
"1	c #E2F6F6",
"2	c #95D2D4",
"3	c #CAE8EB",
"4	c #E3F2F5",
"5	c #D7EEF0",
"6	c #DFF1F4",
"7	c #2A93A7",
"8	c #293D3E",
"9	c #C9F0F1",
"0	c #2B94A7",
"a	c #A5D9DB",
"b	c #DEF0F3",
"c	c #E6F4F5",
"d	c #99D4D6",
"e	c #2892A6",
"f	c #96D7DA",
"g	c #F0F9F9",
"h	c #E7F4F7",
"i	c #FBFDFE",
"j	c #2C94A8",
"k	c #298AA3",
"l	c #D0EBED",
"m	c #8ECFD1",
"n	c #8FD0D2",
"o	c #9DC5D2",
"p	c #2D95A8",
"q	c #1D6890",
"r	c #1C6790",
"s	c #DCF1F1",
"t	c #D9EFF1",
"u	c #77B6C4",
"v	c #5991AE",
"w	c #3199AB",
"x	c #415E5F",
"y	c #E4F3F5",
"z	c #E8F6F7",
"A	c #18648E",
"B	c #9BD9D9",
"C	c #466768",
"D	c #AEDDDF",
"E	c #4F96AD",
"F	c #1A668F",
"G	c #C5E6E8",
"H	c #B8D9DF",
"I	c #9CDDDF",
"J	c #608B8E",
"K	c #1E6A91",
"L	c #96D4D5",
"M	c #689192",
"N	c #A9C7D6",
"O	c #2F4546",
"P	c #385252",
"Q	c #4B6B6C",
"R	c #010101",
"                                                                ",
"                                                                ",
"                                                                ",
"                                                                ",
"                                                                ",
"                                                                ",
"                                                                ",
"                                                                ",
"                                                                ",
"                                                                ",
"                                                                ",
"                                                                ",
"                                                                ",
"                                                                ",
"                                                                ",
"                                                                ",
"                                                                ",
"                                                                ",
"                                                                ",
"                                                                ",
"                                                                ",
"                                                                ",
"                                                                ",
"                                                                ",
"                                .+@@..                          ",
"                               .##$%&*=                         ",
"                              .-#;>>,''.                        ",
"                             @)!~>{>]''+                        ",
"                            .^/(_:<>['}|                        ",
"                           .1234>456/<78                        ",
"                          .90a>b%c$;de*.                        ",
"                          f{g6h6i6h4}jk.                        ",
"                         .l>{3m665nopqr.                        ",
"                         .s>d~d_tmuvwqx                         ",
"                         @l>>mt^yzAqBC                          ",
"                         xDEEF#hGHqqI.                          ",
"                         J##KL>>{qFM                            ",
"                         xNqu>mm>B@                             ",
"                          ..+OPQR.                              ",
"                                                                ",
"                                                                ",
"                                                                ",
"                                                                ",
"                                                                ",
"                                                                ",
"                                                                ",
"                                                                ",
"                                                                ",
"                                                                ",
"                                                                ",
"                                                                ",
"                                                                ",
"                                                                ",
"                                                                ",
"                                                                ",
"                                                                ",
"                                                                ",
"                                                                ",
"                                                                ",
"                                                                ",
"                                                                ",
"                                                                ",
"                                                                ",
"                                                                "};
