/* XPM */
static char * stone3_xpm[] = {
"64 64 43 1",
" 	c None",
".	c #101022",
"+	c #629367",
"@	c #7FC17D",
"#	c #344B46",
"$	c #B7DBBF",
"%	c #FFFFFF",
"&	c #458C47",
"*	c #5BAC6D",
"=	c #8BC882",
"-	c #AECDAF",
";	c #5AAA6B",
">	c #3D584C",
",	c #6AB574",
"'	c #C6DC80",
")	c #F5FAF6",
"!	c #C9DE81",
"~	c #CDDF81",
"{	c #67B372",
"]	c #76BC79",
"^	c #98C693",
"/	c #BFD97F",
"(	c #608A64",
"_	c #090D28",
":	c #86BF75",
"<	c #C4D878",
"[	c #BBD16F",
"}	c #B2CA65",
"|	c #A9C35C",
"1	c #49904B",
"2	c #71A370",
"3	c #90B557",
"4	c #6BA14F",
"5	c #54A261",
"6	c #1A2634",
"7	c #A3C05B",
"8	c #71A450",
"9	c #A3C463",
"0	c #6DB775",
"a	c #52934A",
"b	c #5EAE6E",
"c	c #8FC77D",
"d	c #68966A",
"                                                                ",
"                                                                ",
"                                                                ",
"                                                                ",
"                                                                ",
"                                                                ",
"                                                                ",
"                                                                ",
"                                                                ",
"                                                                ",
"                                                                ",
"                                                                ",
"                                                                ",
"                                                                ",
"                                                                ",
"                                                                ",
"                                                                ",
"                                                                ",
"                                                                ",
"                                                                ",
"                                                                ",
"                                                                ",
"                                                                ",
"                                                                ",
"                                .+@@@#.                         ",
"                              .$%&&&&*=.                        ",
"                             .%%%-&;***>                        ",
"                            .%%%%&=,*'*=                        ",
"                           .%%%%)*==!~{=                        ",
"                          .%%%%%*]=~~===                        ",
"                          ^%%%%/~~~~~=,(                        ",
"                         _=*&:~~<[}|1=*.                        ",
"                         2=&&||||34&&56                         ",
"                         =]&7|8&**&&&=.                         ",
"                         =*&|9==***&0.                          ",
"                         =*a9===&**b>                           ",
"                         (*c==&&***6                            ",
"                          2b***{@=.                             ",
"                          .6===d..                              ",
"                                                                ",
"                                                                ",
"                                                                ",
"                                                                ",
"                                                                ",
"                                                                ",
"                                                                ",
"                                                                ",
"                                                                ",
"                                                                ",
"                                                                ",
"                                                                ",
"                                                                ",
"                                                                ",
"                                                                ",
"                                                                ",
"                                                                ",
"                                                                ",
"                                                                ",
"                                                                ",
"                                                                ",
"                                                                ",
"                                                                ",
"                                                                ",
"                                                                "};
