/* XPM */
static char * stone5_xpm[] = {
"64 64 36 1",
" 	c None",
".	c #101022",
"+	c #49545F",
"@	c #7D9481",
"#	c #4C6454",
"$	c #1B2035",
"%	c #839683",
"&	c #809380",
"*	c #6B806D",
"=	c #4A6252",
"-	c #A6C1AD",
";	c #D5EBE1",
">	c #546B5A",
",	c #4E6655",
"'	c #3E4856",
")	c #A4BEAA",
"!	c #7A8E7B",
"~	c #718673",
"{	c #708471",
"]	c #343C4D",
"^	c #5F7563",
"/	c #95AF9C",
"(	c #91A99C",
"_	c #637966",
":	c #334343",
"<	c #586F5E",
"[	c #7F927F",
"}	c #0A0C2B",
"|	c #829582",
"1	c #526A59",
"2	c #313846",
"3	c #C9E1D4",
"4	c #768C79",
"5	c #8CA18E",
"6	c #859399",
"7	c #728582",
"                                                                ",
"                                                                ",
"                                                                ",
"                                                                ",
"                                                                ",
"                                                                ",
"                                                                ",
"                                                                ",
"                                                                ",
"                                                                ",
"                                                                ",
"                                                                ",
"                                                                ",
"                                                                ",
"                                                                ",
"                                                                ",
"                                                                ",
"                                                                ",
"                                                                ",
"                                                                ",
"                                                                ",
"                                                                ",
"                                                                ",
"                                                                ",
"                                                                ",
"                                                                ",
"                                 ...+@#$                        ",
"                               .#%%&*=**                        ",
"                              .-;>*****-                        ",
"                             .%%-;#*,=**                        ",
"                            '%%)*=*!%%%=                        ",
"                           .%~****{%%%-.                        ",
"                           ]#^/-;*%%%%-.                        ",
"                          .%%%%--*%%%;(                         ",
"                         .*=%%****%%-;.                         ",
"                         .%=*,_****-;.                          ",
"                         :==<*[%%*[}                            ",
"                         -|1*[%%%%2                             ",
"                         ;3145--6.                              ",
"                         ..1*7..                                ",
"                                                                ",
"                                                                ",
"                                                                ",
"                                                                ",
"                                                                ",
"                                                                ",
"                                                                ",
"                                                                ",
"                                                                ",
"                                                                ",
"                                                                ",
"                                                                ",
"                                                                ",
"                                                                ",
"                                                                ",
"                                                                ",
"                                                                ",
"                                                                ",
"                                                                ",
"                                                                ",
"                                                                ",
"                                                                ",
"                                                                ",
"                                                                "};
