/* XPM */
static char * stone0_xpm[] = {
"64 64 86 1",
" 	c None",
".	c #231815",
"+	c #352E2D",
"@	c #859096",
"#	c #B1C7D1",
"$	c #B7CDD6",
"%	c #B4CAD3",
"&	c #8E9BA2",
"*	c #585A5C",
"=	c #6A7073",
"-	c #C7DEE3",
";	c #CEE4E8",
">	c #D9EBEF",
",	c #E0F1F4",
"'	c #C8DFE4",
")	c #738089",
"!	c #B4C8CF",
"~	c #BDD3DB",
"{	c #BAD0D8",
"]	c #8EA2B0",
"^	c #424244",
"/	c #9EAEB4",
"(	c #CDE2E7",
"_	c #BFD6DD",
":	c #879DAB",
"<	c #668897",
"[	c #C4DBE0",
"}	c #D4E8EC",
"|	c #97ABB8",
"1	c #A2B7C3",
"2	c #ADC2CD",
"3	c #9BABB1",
"4	c #6B8B9A",
"5	c #2C2321",
"6	c #A0B5C0",
"7	c #C2D9DF",
"8	c #A8BEC9",
"9	c #C5DCE2",
"0	c #B2C8D1",
"a	c #73909F",
"b	c #7C858B",
"c	c #CBE1E6",
"d	c #302D2D",
"e	c #CAE0E5",
"f	c #5E7A87",
"g	c #D1E6EA",
"h	c #9BB0BC",
"i	c #8CA0AE",
"j	c #737A7F",
"k	c #A3BBC6",
"l	c #698A99",
"m	c #849CAA",
"n	c #A8C1CC",
"o	c #90A4B2",
"p	c #7A95A4",
"q	c #556C77",
"r	c #98B6C3",
"s	c #A4B9C5",
"t	c #7D97A5",
"u	c #271F1D",
"v	c #A7BDC7",
"w	c #C4DBE1",
"x	c #B2C9D2",
"y	c #89A2AD",
"z	c #DCEEF1",
"A	c #829AA8",
"B	c #393636",
"C	c #AFC5CF",
"D	c #B6D0D8",
"E	c #C1D8DE",
"F	c #AAC0CB",
"G	c #73858D",
"H	c #B9D2DA",
"I	c #A6BBC7",
"J	c #839DAB",
"K	c #657177",
"L	c #BCD5DC",
"M	c #B8CFD7",
"N	c #6C7B82",
"O	c #95A9B6",
"P	c #49575E",
"Q	c #2A2220",
"R	c #708F9D",
"S	c #3C4246",
"T	c #59737F",
"U	c #455056",
"                                                                ",
"                                                                ",
"                                                                ",
"                                                                ",
"                                                                ",
"                                                                ",
"                                                                ",
"                                                                ",
"                                                                ",
"                                                                ",
"                                                                ",
"                                                                ",
"                                                                ",
"                                                                ",
"                                                                ",
"                                                                ",
"                                                                ",
"                                                                ",
"                             .......                            ",
"                          ...+@#$%&*...                         ",
"                        ..=-;>,''''''#)...                      ",
"                       ..!;,,,,'''~{~#]]^..                     ",
"                     ../;,,,(''_#######]:<..                    ",
"                    ..[,,,}''-#######|##]<<..                   ",
"                    .[,,,'''####]####1##2]<]..                  ",
"                   .3,,,''[##############]4<<..                 ",
"                  .5},,'6_###'7#####8]###]]<<<.                 ",
"                 ..9,,''0'###############]a<<<.                 ",
"                 .bc,,''######8##########]<<<<d.                ",
"                 .-,,e'#######]7#########]]<<<f.                ",
"                ..g,,'~##~#########h]####i]<<<<.                ",
"                .j,,,'###7##############kl]<ml<.                ",
"                .n,,,'##################o]]<p<q.                ",
"                .r,,,'####s###'##]%####1]t<<<<u.                ",
"                .r,,,']###vw#####9x####]]]<<<<.                 ",
"                .yz,,'|###############<a]A<<<f.                 ",
"                .B',,'###############C]]]<]<<.                  ",
"                 .D';'_####E###1C###F]]i<<<<..                  ",
"                 .GH'''####7###IC##J<]i<<<<..                   ",
"                  .KL'''M########o]]]A<]<<..                    ",
"                  ..Nr''9|1#28O]]]]]<<<<P..                     ",
"                    .Qrr]]]]]]]]:R<<<<S..                       ",
"                     ..r]]]]]ml<<<<<f...                        ",
"                      ....^q<<<TU.....                          ",
"                          ........                              ",
"                                                                ",
"                                                                ",
"                                                                ",
"                                                                ",
"                                                                ",
"                                                                ",
"                                                                ",
"                                                                ",
"                                                                ",
"                                                                ",
"                                                                ",
"                                                                ",
"                                                                ",
"                                                                ",
"                                                                ",
"                                                                ",
"                                                                ",
"                                                                ",
"                                                                "};
