/* XPM */
static char * stone2_xpm[] = {
"64 64 33 1",
" 	c None",
".	c #101022",
"+	c #3C3B5C",
"@	c #484B9D",
"#	c #846EAF",
"$	c #D0CCE0",
"%	c #DEDAED",
"&	c #232757",
"*	c #E8E6F3",
"=	c #E7E5F3",
"-	c #5E67AE",
";	c #BBBCDE",
">	c #728CB4",
",	c #8284BE",
"'	c #D1D0E6",
")	c #B0A9D2",
"!	c #9070AF",
"~	c #AFC8E9",
"{	c #626AB0",
"]	c #6274AB",
"^	c #5A467A",
"/	c #6C548C",
"(	c #545BA7",
"_	c #B6B3D8",
":	c #8798CC",
"<	c #7B69AD",
"[	c #36387E",
"}	c #9092C6",
"|	c #A5BCE2",
"1	c #7C8AC3",
"2	c #8369AC",
"3	c #8C6EAE",
"4	c #7E629D",
"                                                                ",
"                                                                ",
"                                                                ",
"                                                                ",
"                                                                ",
"                                                                ",
"                                                                ",
"                                                                ",
"                                                                ",
"                                                                ",
"                                                                ",
"                                                                ",
"                                                                ",
"                                                                ",
"                                                                ",
"                                                                ",
"                                                                ",
"                                                                ",
"                                                                ",
"                                                                ",
"                                                                ",
"                                                                ",
"                                                                ",
"                                                                ",
"                               ..+@@@#.                         ",
"                             .$%%%%%%@&                         ",
"                           .*%%**=%%@@-                         ",
"                           ;*****%%>@@-                         ",
"                          .;,***%'>>@@-                         ",
"                          ;;)!~~~~>@>@-                         ",
"                         .;;!!!~~~{@]@^                         ",
"                         ;;!!!!!--@@@/                          ",
"                        .;;!!~---(@@!.                          ",
"                        .;_!!!-:-@@<.                           ",
"                        [;--~--~~@!.                            ",
"                        @}~|--@1@2.                             ",
"                        @@~~@@@@!.                              ",
"                        .@@@@@3..                               ",
"                         .!!4..                                 ",
"                                                                ",
"                                                                ",
"                                                                ",
"                                                                ",
"                                                                ",
"                                                                ",
"                                                                ",
"                                                                ",
"                                                                ",
"                                                                ",
"                                                                ",
"                                                                ",
"                                                                ",
"                                                                ",
"                                                                ",
"                                                                ",
"                                                                ",
"                                                                ",
"                                                                ",
"                                                                ",
"                                                                ",
"                                                                ",
"                                                                ",
"                                                                ",
"                                                                "};
