/* XPM */
static char * stone5_xpm[] = {
"64 64 88 1",
" 	c None",
".	c #000022",
"+	c #10132E",
"@	c #49545F",
"#	c #7D918A",
"$	c #7D9481",
"%	c #6B806D",
"&	c #4C6454",
"*	c #4A6252",
"=	c #1B2035",
"-	c #080928",
";	c #5A6765",
">	c #839683",
",	c #9DB6A3",
"'	c #728875",
")	c #5B7160",
"!	c #57685F",
"~	c #2F3843",
"{	c #809380",
"]	c #4E6655",
"^	c #637966",
"/	c #0A0C2B",
"(	c #A6C1AD",
"_	c #B2CCBA",
":	c #5B7364",
"<	c #718673",
"[	c #778B78",
"}	c #677C6A",
"|	c #546B5A",
"1	c #D5EBE1",
"2	c #879E91",
"3	c #8CA18E",
"4	c #C1D7CB",
"5	c #5F7563",
"6	c #9BB4A0",
"7	c #BED6C7",
"8	c #586F5E",
"9	c #859986",
"0	c #ACC6B4",
"a	c #506857",
"b	c #6E8370",
"c	c #6D816E",
"d	c #3E4856",
"e	c #8A9E8B",
"f	c #A4BEAA",
"g	c #657A68",
"h	c #7A8E7B",
"i	c #151833",
"j	c #748875",
"k	c #A2BDA9",
"l	c #202B37",
"m	c #708471",
"n	c #97B19D",
"o	c #566D5C",
"p	c #526A59",
"q	c #343C4D",
"r	c #95AF9C",
"s	c #C3DBCE",
"t	c #9FB9A5",
"u	c #617765",
"v	c #B8D1C1",
"w	c #BED6C8",
"x	c #92A995",
"y	c #D2E8DE",
"z	c #91A99C",
"A	c #6A806D",
"B	c #36404B",
"C	c #CCE3D7",
"D	c #C8DCD5",
"E	c #99B19D",
"F	c #0D0F2E",
"G	c #070827",
"H	c #7C927F",
"I	c #1B1D3A",
"J	c #334343",
"K	c #7F927F",
"L	c #738774",
"M	c #768A77",
"N	c #525E5F",
"O	c #829582",
"P	c #313846",
"Q	c #889B89",
"R	c #C9E1D4",
"S	c #768C79",
"T	c #95AC98",
"U	c #859399",
"V	c #92A2A5",
"W	c #728582",
"                                                                ",
"                                                                ",
"                                                                ",
"                                                                ",
"                                                                ",
"                                                                ",
"                                                                ",
"                                                                ",
"                                                                ",
"                                                                ",
"                                                                ",
"                                                                ",
"                                                                ",
"                                                                ",
"                                                                ",
"                                                                ",
"                                                                ",
"                                        .......                 ",
"                                  .....+@#$%&*=                 ",
"                               ....-;>>>,'%**)!.                ",
"                             ..~&%>>>>{%%]*^%%%.                ",
"                            ./(_:*%<[%%%}|%%%%(.                ",
"                          ..((((12|%%%%%%%%%%%(.                ",
"                         ..>>3(((14%%*%%*5%%%%%.                ",
"                        ..>>>>6((71%&*%%]**8%%%.                ",
"                       ..>>>9(((01^*a%%bc%%|**5.                ",
"                      .de>>>>f((%&*g%%h>>>>>>c*.                ",
"                     .i9>>>>>>%%%*%%%j>>>>>>k)l.                ",
"                     .(>[<<%%%%%%*%%m>>>>>>>(n.                 ",
"                     .fc5opa******%%>>>>>>>>((.                 ",
"                    .qm&*5^r(((s1*%%>>>>>>>f((.                 ",
"                    .tu*>>>t(((vs*%%>>>>>>w((i                  ",
"                  ..(>*>>>>>x((((*%%>>>>>(1yz.                  ",
"                  .%%*A>>>>c%%%%%*%%>>>t((11..                  ",
"                 .B%%*%>>>b%%%%%%*%%>>>((C1D.                   ",
"                 .6b%*%>>%%*******%%%>E011F.                    ",
"                 .>>%*%%%]*^%%%%%*%%%>(y1..                     ",
"                 G[[%*%&*p%%c>>>>*%%%H(I.                       ",
"                .J*****8%%%K>>>>>)%%K>/.                        ",
"                .^)8p*u%%%[>>>>>>L%M>N.                         ",
"                .(>O%p^%%K>>>>>>>>>>P.                          ",
"                .vQ>Kp^%{>>>>>311>>-.                           ",
"                .11R(p^S33T(((_1U...                            ",
"                ..V1(p^%((((@....                               ",
"                 ...@p^%(W....                                  ",
"                    ......                                      ",
"                                                                ",
"                                                                ",
"                                                                ",
"                                                                ",
"                                                                ",
"                                                                ",
"                                                                ",
"                                                                ",
"                                                                ",
"                                                                ",
"                                                                ",
"                                                                ",
"                                                                ",
"                                                                ",
"                                                                ",
"                                                                ",
"                                                                ",
"                                                                "};
