/* XPM */
static char * stone1_xpm[] = {
"64 64 40 1",
" 	c None",
".	c #101022",
"+	c #EBDF93",
"@	c #FFFFFF",
"#	c #1F1E37",
"$	c #C0BD63",
"%	c #D0CA75",
"&	c #D4D294",
"*	c #F1E9B5",
"=	c #847D62",
"-	c #78762C",
";	c #EDE343",
">	c #9F9FAC",
",	c #FCF6DD",
"'	c #F4E393",
")	c #E98E33",
"!	c #C8C45D",
"~	c #EFEFF1",
"{	c #8F8F9E",
"]	c #EFE75A",
"^	c #CBC66F",
"/	c #F3DE8D",
"(	c #F6F6BB",
"_	c #AEAB55",
":	c #8C8657",
"<	c #DCDAA7",
"[	c #D7C326",
"}	c #EEE996",
"|	c #DFD04B",
"1	c #808091",
"2	c #9A9861",
"3	c #F1CE7B",
"4	c #BFBFC8",
"5	c #938B69",
"6	c #C7BF50",
"7	c #C1BD5F",
"8	c #E8DD90",
"9	c #BFB57E",
"0	c #B0A777",
"a	c #76705B",
"                                                                ",
"                                                                ",
"                                                                ",
"                                                                ",
"                                                                ",
"                                                                ",
"                                                                ",
"                                                                ",
"                                                                ",
"                                                                ",
"                                                                ",
"                                                                ",
"                                                                ",
"                                                                ",
"                                                                ",
"                                                                ",
"                                                                ",
"                                                                ",
"                                                                ",
"                                                                ",
"                                                                ",
"                                                                ",
"                                                                ",
"                                                                ",
"                               .++++@@#.                        ",
"                              .+$%++$&*=                        ",
"                             .@@$---;;$+                        ",
"                           .>,'@));;;!$+                        ",
"                           ~@'''));;;$$+                        ",
"                          {@''''));;$$$+                        ",
"                         .@''''));;];;^+                        ",
"                         .@/)));;)(($$_:                        ",
"                         .@)));;);((---.                        ",
"                         .<)));;)[}|--.                         ",
"                         12))33))[[[$.                          ",
"                         4@''';[[[[$5                           ",
"                         @@@)[[[[6$+                            ",
"                         @--$[[7^89.                            ",
"                         .++++0a...                             ",
"                                                                ",
"                                                                ",
"                                                                ",
"                                                                ",
"                                                                ",
"                                                                ",
"                                                                ",
"                                                                ",
"                                                                ",
"                                                                ",
"                                                                ",
"                                                                ",
"                                                                ",
"                                                                ",
"                                                                ",
"                                                                ",
"                                                                ",
"                                                                ",
"                                                                ",
"                                                                ",
"                                                                ",
"                                                                ",
"                                                                ",
"                                                                ",
"                                                                "};
